<mxfile host="app.diagrams.net" agent="Mozilla/5.0 (Windows NT 10.0; Win64; x64) AppleWebKit/537.36 (KHTML, like Gecko) Chrome/131.0.0.0 Safari/537.36" version="25.0.3">
  <diagram name="PÃ¡gina-1" id="ayJomdoKdpQ4XFOWMkC7">
    <mxGraphModel dx="1172" dy="1615" grid="1" gridSize="10" guides="1" tooltips="1" connect="1" arrows="1" fold="1" page="1" pageScale="1" pageWidth="827" pageHeight="1169" math="0" shadow="0">
      <root>
        <mxCell id="0" />
        <mxCell id="1" parent="0" />
        <mxCell id="yqM9gTFVnC1suYk9JM_G-29" value="" style="rounded=1;whiteSpace=wrap;html=1;strokeColor=#999999;" parent="1" vertex="1">
          <mxGeometry x="939.34" y="40" width="155.66" height="320" as="geometry" />
        </mxCell>
        <mxCell id="yqM9gTFVnC1suYk9JM_G-21" value="" style="rounded=1;whiteSpace=wrap;html=1;strokeColor=#999999;" parent="1" vertex="1">
          <mxGeometry x="771" y="40" width="129" height="320" as="geometry" />
        </mxCell>
        <mxCell id="yqM9gTFVnC1suYk9JM_G-1" value="" style="rounded=1;whiteSpace=wrap;html=1;" parent="1" vertex="1">
          <mxGeometry y="100" width="600" height="160" as="geometry" />
        </mxCell>
        <mxCell id="yqM9gTFVnC1suYk9JM_G-2" value="&lt;font style=&quot;font-size: 18px;&quot;&gt;Dataset y Contexto&lt;/font&gt;" style="text;html=1;align=center;verticalAlign=middle;resizable=0;points=[];autosize=1;strokeColor=none;fillColor=none;" parent="1" vertex="1">
          <mxGeometry x="196.54" y="60" width="180" height="40" as="geometry" />
        </mxCell>
        <mxCell id="yqM9gTFVnC1suYk9JM_G-6" value="" style="edgeStyle=orthogonalEdgeStyle;rounded=0;orthogonalLoop=1;jettySize=auto;html=1;" parent="1" source="yqM9gTFVnC1suYk9JM_G-3" target="yqM9gTFVnC1suYk9JM_G-5" edge="1">
          <mxGeometry relative="1" as="geometry" />
        </mxCell>
        <mxCell id="yqM9gTFVnC1suYk9JM_G-3" value="" style="shape=image;verticalLabelPosition=bottom;labelBackgroundColor=default;verticalAlign=top;aspect=fixed;imageAspect=0;image=data:image/png,iVBORw0KGgoAAAANSUhEUgAAAKUAAABQCAYAAAB4dLVwAAAAAXNSR0IArs4c6QAAAARnQU1BAACxjwv8YQUAAAAJcEhZcwAADsMAAA7DAcdvqGQAACioSURBVHhe7Z0JkF1Xeee/9+7bl967JbVaam3WYsuWV7yzTaACBQETyoOBVAhhQiVMpaDCVIapYgJMVWpmSGaoShhqJoHJpDKYYkhgEsakCMF4k228YMm25EW2ltba+/L2db7f995pXT29ttptOWnZ71916r1+77577j3nf7793A4cK1br0kEHqwjB5msHHawadEjZwapDh5QdrDp0SNnBqkOHlB2sOnRI2cGqQ4eUHaw6dEjZwapDh5QdrDp0SNnBqkOHlB2sOiyLlF4wYC1cL0vIq9pnteZPY773HaxOMHfulfmSetDm0n2+2rCsgoxKsCbz9ZDksxVJxjwZ11/USiI7YwHpqonMKydL2iJ1/aODVYFSIGjzwWuuOcXZQlXiNU/ywaqkQp70xytSqXr23WrCskg5rTf2v/YelmMLDSmZCackVc7IO0Z65I7d/RKu1aWsq66qrx2sEqg0lEBNMl5Q/uzBs3M3XzdZKbdvisjHd/VJqLb6tNyyrqgrULFXyFiO9ErOC8vJWI/MV2uSrzdUQLCqorODVYOwcrBBP6RmSMZjvZKNJaWc9GQ6EW5+szqx7GXCjUUDYSmqLZKUkpzy8hKKRyTYJGzNi9hrB6sDCECvUpZYvaK2Y0Ng1KsBWVAJmlYJ2qPfRWX1qW6wLFIWlJBgRo8OeHUp6GtfuaGqubGcnqajulcfgqjwJiAmGg7MKyEL0aS9X41YFilZbQ4QEkSDCXsNqKSsrE4n7k0N9U0lEAxLVRoCBSJWpG5ScjockMIqNreWRcoLIdQRkqsOq9B/WTYu4UvvYDkIqMDI1C4te79Dyg5WHTqkfIMirEZltV6093FtAS9q7y8FdEj5BkW1Xm6+u/TQIWUHqw4dUnaw6vDPQkpXdeSvUmlXsdJ6nP9vf3PfObzWqqXW8/ubH+3+bv1sKbhr9P/GvW/X3Pf+V/LbXpvYz+L3K8Arjl0zGO+uqbX5QREP4Hyvdj6WXSX0x3tPyf5SQjtvBF2LtbDcMRySj+9ISqkatq5bUQwGJVqrSaxalIIa2hQHhLU3whSkJ/MY48GI9Ffqi7nzWj1qRjqgyKMQKGkLSLkakTOzZSnk8/adQywel3XpkPQE6zYwRalalilY0oEK1doWinA95UBcqs1x9Lge7bIWqdvvMxXPKmqOTjYcBYehVEgGUxHpi+nxzev1AmGZDwSFEoCwniOh41DQyYsFtO8mYarN+zkHzWO80rwU40n9TUBeLntSzVRkfnaueZBINhiV4YGUrFU/JRVq3Fu4XNCOo9ZvvMo4icxq/yk9vqtek4pXlUClJhH9biYclf/68Jg8Uo5IpO5JNFiWIzr2nxyIym/uGjxvbGzO9HdUf9VrZSmHPb0BHQftj8zdQqkuhydLkqucTaj0dkekKxyQeDIkEb2WqI4iCCsvqFICVCxRLlfW8boQXldShiv6qV5TLiTy06MZ+fHhU9IdcWUCIqfKNUnUS/L+zWvlraNxiVZCRg5Qj5ZlXPv48dEJeXxiUn5eSC2mNh0G6xGplSrSFSjI2q6o3LC+R945kpZ0pTGYk81FwMI4B01C+J0BcvePn1yQnx2ekoPlmBxsFNXIQCgokzrBvNZ1cjYHi7IxHJK3b+6X0XVd+l1d/t/Pj8gRSdvxw4G8JPMFuePGzbIxpRNa0UXRhpQsDDAXjsu+mZLcc/CMPFU4fyrInHmlBVlTq0psICl3Difl+uG0PDNTkf+x74jEUinJFRsTTd+ffsuIJLyAJGvFFZES4vA7UpQLobBkdO6OZ+ry3Msn5b6pnEzpMfO1qEzVG3268dnsZSSmi2a7/uaXRkbk6nW6fFjtTZRrgbYcaYfXnZSZiMj3X5iV7xyfl2MqEW4oZWS8Wb/CzVyvN/Pbt26Tq/QGItWglLyanNTV9bfPjcvTYxNySmVPNZKWblEp2Vh0i+AagPuuUijIOl3Pv/aWbXJ9b1BCVU9UppwPHynrOqiQ/+79M/LQmVkJxWJWtABIyflRbQahczqpELRLJ+Cdg548PJ6X2XpSQtIQvYlqWT5zXa9c16PHQ0o+bjkXxdJHFwLyf/e/LA9mwnaPEKYV/mshVdili+L6vqhEkv3ywFjB+gpr36fCORnSu/1Pt26Utao1uLeVkJLF4mmfWb03ShYRCvccq0hML5+CDopyqIFwPHB4JhyR3eWSzQELCCHx8avWyYBql5SeEwnpNOeF0DLNFxcTiQYh//bIjK34y4qNAWBwBlTCfChWkC++7TLZrioWQub16/vHZ+Sz970oPzhVkJdCaZssJjuihOiqnNsgIw0waIFIl5yOrJVv7Dste6cbNZ5n5fL5gJAHSiH5D9rf/TNVyUcTNmHp+ryRDhJCfPfaq31AgkQ9ZPcDYVg4dZXYXCO5ZdqEmhyAugAIqULiHGBmcH1/9OARua/Ut0jI1vujX8joFgeLoCi9cu9MVJ4cm7fPIEk5kJUpJUndy6vED6h6b4r5FaKkAh5CfuvRl+SeI7N271mJWF+AceAz17jO64uNe2ZRTyWS8qxqvX//wGnTAnmvUY2E2bYcXDRSYsxiPziDl/c/eHrcCMlklwJqD+nAIyUh0tW6Un/9ls0yrLaGk/JI1bufm5aFQJdNOpPAbw6qPTWhq58VWtLBp01XGpMyof0wYJC2G6JqQ2r96b6j8sRs6SwxlUBcI9fnpCQS8hsPHZInvMY1uck/on9TtDDm5axEz73ujetkqD0A8QaVaeurIZn3+q1/0FWt2HmQZqVCxuy6ine2YAXViNY5lqnKnz05bTWOkJl7jKsZMx9qNO6PEkEWgH/yaa5fwHVwPJVboKC2MHDVQBcCi4Z5cvNmTcdpQhfZt3/6omlGxoJ7oi8vWpfjerf7VSoXa2dbtpZVGZ2xe3CSnffRcLfc/egxefL0nGkG7N3l4KJKSoxZ1AEOzT3PnJAHjpQkpTYkaoWGFEIC7e4ry11X9cqQTkZVVXxexzKvE+nprd+1Z1Q25RfsfEwCEpBVyIQPKCH29Mbkjs1p+bUdg7I9ljOpxuSBOZ2goE7oi1GVWioB7923INPob+0TIgKcBAjJ6kVlP15NyaZqwUjNiu9vNuxXPqfdGg/Z686FeVNPgAVCg6SoMhrvWSTYXJFYypygui5GwMLwVHWdCYXkK0+cMOIw0dSmco8sJMYHFY2avFyPo0FYbEpeaZCwrCZPQKVxj0pIR4IN1YQ6KGl1wJSgy6yQYdG4QxkXdhAUIhG556lx+UUpbuO/S6/58WjExnQGLVGpyh1BVf9DCfl316y1xvtr1M5eKOIj6Kte00FV1SbBVWr+qQqaZ9Q4NQnO9fpaO8/c+9wX/+BLzfdLoqZy9+GxjJzBdmwOclVV8K50UK4aUNWmdIqrM5ZSD3JKJcz3DozLveqhBfEy9LsJnZysyoSE/ua2eEHuVCdguF6XmDopVV1BeIshvYlYzZPhhCfj2aq8UAiYFOktzMu71oTkY7uH5N2bknLLcFiu6PVkZyoot24ckMvX90lcbZinpuckH1KbSd/3qwcd1AmdypVlezomI+odgrKeLxxUzzzgyZNzFfnWy9OSVGncLWEJVOPq6VYkEayKV8zLBwYTcueOdfLhnYNy+2ha3rOlX96zqVeGdfDD2Vk5UVD1rs5RqEl2h269r6wuzrevS8lI1FOp1xj2iI5NRs2Fv395Sp4eLyoZg2ZjUVqmtNO/AnJZPiO/NJSUX93ZJ2/dlJLbtkXlpq3dcu2atGxSx62ezcl80ZNsIK6WM16/Z4u9oPdU17ENa7/v1t8ltMNAXe9Dh7/gheQRteeP69jSC9c7q+2aREjeMqAkVjEe0VtQIaiLypMfHs3KA8emZS6e1sWpi1tbj/62oD1uj8/Lb1+1UT68vV/nPS6jsaC1a/qSsn1zr+zqT0hmelbm9F6Ph2M2Dyy0nnpFypNTsnXLkPXlB1GLgC5OP86n6QqBlz2pWuUn+0+Y4f9YhABFo/4SGzJezMmecEk+df0W2aj2pEksHRx/iAAJRijng1cPyU3hBbkqkpO7btwo77tyjXmy/Xr+eFWnUcmMER8rleTySEXet6NHfkUJwwQFQw2vFukTjITkwOlZIz1V2GoBWJhmTsnwA104OF4AKYmURRL11zLy2RvWy0f29Mk13bpIdKLXlmrSrwKS97dtTMtvvG2zHbMrkjfJdiHEdFFjRhBqelRtNGxIp3IBEjMVyMjnb9tk/e5Oh2VEJ7NXbfDtOXVsdIG9bzQpn71lg/zG1rQMFWZMjTOuFwMxHXcwpYLl+4cXbKsL14TJBGL5vHy4uy6fu3mXOW/MEWEv19g4SM3t7h5P/tXNG+QaryAb81lT4ZtUckowJS/qQQ8cyZzjkS+Fi0JKVMCccuvb6jF/95Qa3GqT4Inl9aLwyk6q2L+2qya/qxeMZwiZsF0KwbiJ73Alah58xotKXknGDX7u5lH5/ZvWy7V40UokVAuNOCYxxqweOx3R4/UMA6W83LG9R1LFjPUJ5pAkKiXOZD2Z1fcOhGeey1XkRD4st+TFHC7UMJMgSshPvGWz3NIXkJT26R94HJYMUk/JktA55Lp+d/eI2b1+YqK+W4GaBAeO5+SMmhXOS3evkPv3btkoW1XE0W8woN6qSq1CqCbFqKq4ZvwU8+b2TQn59d0bJK/S/LWChZLVoaGfvNoX9z83ZQsUUwnTICozUvQWZIMS8uNXbpRRnUfiswgg9gC5RkyT+CkCY02tKO+5epOFzkC0HDCnjb1dPz54+mw8umlnt8OKSInNwEqNFbP2d03V3g+fnzUJmdZBZGKQVM9E+2zF/OawJ3ftHjVJYxOsE4nt0nphzjsjXplW+yOpk80kAQK3tu1CiWGrQKUskwcqKhGTgbLcvq7H7DmA1MO5elz1gwo66xO7Ekfj4VNFleoBcyaQWIR4MNg/pOrnioSevrntlOvzN7fzL64Xyvs1yZJ8YrShEZAK2KSDeo/tMKX9/WJOF6o6ffRnISxdCNjD71kXlyvUJkVTQBS0B5YrgXOC6hDSgUm9biQi7xiO2P3lAw3TpBVEFtBEqEdHXxYB8+LAeRPYrNrfZDkkf3emYgvUSfF489zv3aJOp14z23G5JnyAogpA12b1b+KQ7Pqhre0OyNtHw2Zjci7GmcbGw5+fUWNPP4uqVKabpjA+BysipQP7PJBCP3z6jPzjWOGcAYKYOAYfGemSD145ZOqXAYdM5nuo1GuYuTpKEExfcZSYbKQSgduFUCOLgFeYrhSlu6yebVUlCdkaPS6t0jWmUhkpa7HSQNQkl4M/zuiyK+w3Ojozb9/hmEAOd9yOkSFbBDhfwF3f4nUq7Pr02gEB9x39FIY1QKgEJ6UdWL57ZxrnoD9I7LBjQ7+ZI5DRHzd04+FvHIPGuGIwZk4j8BPNATJXzdlofuADTlxMrx2zwknx03oqEhE4bIwJc0lbn0rJzWsbW3Fx1pKqFAaUUJDK33qaEpM2oAvtnVuHLTzEuRhnGgTdO9FYYHgioMn/c9AY/VcJm1Bl/qx6kDg1qGy8SQbaEXNLcVLuXBdRozhlaUTCD6QMlwsuNqzLKOKpNEOSqQSeioTlmA7kY2pn/cOJBfmLQ/Pyh3uPy1ceGZPPPTwpP5w8377DuzWPVMFiqOiEnMjZn+cAdbOhT0nRJKQj8asBUmYpZPMNqdhqBxIai6sURZIvByzQlVzbUkCiIixOTqrpo2PtvHmH0d4uOajDStzytEpD7EzmgFd/47MxHWcaobb54PkSHIJOZDMqaBr3i9JrhxVndAiNEO4hNEHskcHGDoGUh/UmPrM1JB/Z2G+STalqKhapmqoucSU+2CNFajUV96rGVLIdODUlj4xn5fB0UVVfRM6oNCLNtas5v9iPDqhtP5Ai//m2tWbLQsoTuZr8m71jtor9uL6nLL9z1bBKkZAF8cuc2ydp2wGCEHP8zM9PyhpdRZm6er5KPILnX7p2jdzUpdJeJzqua/9xlZJff2LGzAYWNXYohbf/cl1U7tzW08iZN897IXDlD5/OyFdeVHNJz8U9Eiul76++bY05hKhmbLwZ1TZ/9NCY7Cvr9+p0sEjHa2XTYGTjkJRI/G8enJBvTRYbjkkr1NYGTp0DZ7v7cd736uCcBz3X1952mdmeUo2afdqahl3xksM2QkWTu8brdWRgpW2oFmTXUK9NGtXPODX1cvi8cMBSYJAmI3G5/6g6AD87Kr/3bEkemibb0mULgMkk5+qAreSchlZkSgUd+MZ7rmeictY+c4AgQ11xU2cUIVxEQbSI4kwj9uokJWYGEYktgwnTBhdT+r1a+G3WdiCZQSaJRReupuzVfeYafxNr5Xsany0F9TFtjkE7abnikWCFYtRnqmmpqffMasXrZtCRoH/54PMyoXaNp3ZeSY1fvHOM6nYgR45jQ0Mqoy6+rqv77w6esRvcoysQKQz56ZOG1+zsN6Q3WYVWKQlC6s0DVBS2WKpJ0FZ0q0ePg4MXysolE3OxwHlxEDBxcBAdcqEGQZ1j9U8Nd13Y0SEVbOuqZ+1jPxhvsjpIWbJNvDL/jLdr7u8TOm4E+NvNBQLrsM4npgx+AdoIR6kVKyYl9iM2AgNNThT1gRpFYvG6EOmTP3z8oJzUBYFRS1C5UmlvNyEk2KPMuXiQ1rcfOy77MhXLBjAI2CwQn0afz+mNPx9pqEn+xpQYVcndzuB3aC08WAo4CK83Wq/zn1NKtt5uuzFkjP0N9Y92addwvtp9ToO415ezkiy+smRe8WggFQHhDWJmBFgdHDEPLSTNEZqLeOq1kVdtHtACJFNWB2dK6vYgLUranM3HALDqGim8ki2G65qpv09v7ZN/vT0iX7xhRL58Y7+8b2B5zsJqg6sfXQ4wQf6psT5xbtultvJKGr+9TN1znvhGrStwUQ0/VuToOMPak2n7/hOb10pmoSjfObmwWNVDDK5fJdtsbdLy1O/fFG1ISl0treD8NZWQz56al68+M2XnAKgMJwnXqBq+cVOPXLt+QIYjAQuwW8GrTwLed3Ra/uMxNQP8fahh/Sc3bZO0/gZn4iV1dL7w5ETzywZYxR/uj8nvXD4k0+HGebGzCIO8Epbr6BC6umcsK988XLKwEdKf+6JfHI5PbOsyadlq8LcDfXLPODpffm7WbFM3H6/W0aFfslvd6lR+fywnf3G4sDjmDres75JPbb14OyEp7O5R7xz1zfC2u+dXHvVl4FdHw/Ku0ZS8d3cj1Uc2AHBz6XLFCPaDI1Py3IRKv9D5D+qEkDgYZEoosB3zYkZqbC9sxv5cVm5d0yNfUmJ9bNOAbNfJ79Fz85uqfk/1NQNLQe908FyP2g/CS4Dna7aCiZ3IZE1aQ0TO+2rhQmH+9KEffd0N0gD/pE9PjpvXfZ60JDTjmvtb4V+EoDWE48D4vBLcY1uolicMNjzYfuyI6bJIQ9VQI1bKqzYSHO1avHS2tX6G7RpTMw4YIZcY5vZ3tAygtt/d2y0f2jzakCp6ob+8pdsqW5AGYCZeMIIhQb7x5CGrXbQ0lXZLMYIrSMAz58bnAnq0SkRnUBM+ORP0rKKILQjOLiSzQMNngMwpHd+BZqjpHCnpA/0SiEeKbAmRwWmUgiFleP2FLqBni3VzukidBWvnW+BcN+QgcM9xpEuzUU+GeGZPLWLXDaikiXIcdlSpsT1hW29UF+zUYiyTPokivKgSgxgg2ZySvro+XAqPLJTbh8N3nBOU4zHrB/hJ7kCoh4A8EQ/nvqC9OJayPIDzR+A7rn9u0nFe27R+GBPXpjJi2kBHa/EpzlwXEs7fijqmZNqal2rndOAz9zlbJJhHk5BLzVXzdUXgUYAEtg3aARN+53U9Ei7NmDoBllNWUHeIA0N+m7RkQj+nIplXP8g2uN/ibZMzTweLizlTByYop0IPdSBesZEtWiZuXH9Woi8imJLHD01YnhnHLFE9P7ccrRd1ovI2oOVmXnqv/safxfHHTF1AvK5qE3PjmjWDi+PhQNz10WMEril8bmRGrMxO74lrQRMw4WgZQkcU4KIVHjpwwqIcLELIs1I4srDob0idfyJCanc/c9SuT2WMkdP9xg+EC0Fx9gvhVbODAOlvD0Wg6RCRYl4OXhMpzwGru1ywooLfunFU6qVGEa4DnvWLapN+c+8LklFpCslYya3qyMFN9EB32oLPrUCmdKvQiFYjVqTB4pgrthCtDVilV6n9yJOIkeJIDhwpigaeUJuWwmDIxkYp0GpukLpDws9GlBgvz8m+o/N2b61kawWagNTgcGHWSIR5A1D7P3n+qBzKejaRBO4BmRbuibSeqcJizUiBjYjzyJN5nYRsJymXA84PieiTebhuY6+R0A+I/2BObeJnZi2jBjldzYEfTsiwcFhAaAcyQCwgNACPH79QMsJhhbdzFkgBP1Avl/UGzLkBTDxqjcbE3Z1Py8MvZSyHSwyzNRyCauFYbDMmjCIP0lYEW1sJEqupBIWMKpDYXnDvqbO7AJeELp7RdN32kPhRU/VLJfh/e2p6cSsF/TFxvNIgCi2rk/j3B2blO8/P2m+AIxn32w4Y9pep0wD8khU1jhb50eNT8lQ+YFVSSEdiiBDRqlVVKlMR9Vy5UavKmBAuw57059Db4UIRLkjJFLAd5co+kbduHTrn+gC7AO49PmtVYOy4dHPhnw/bYakga4eZ9leHZ+XLP3nJCnUmdH6YJ6f+L4QVFflSpJMLBGR3OmRSp6pkg1qVYMjIBte39Abl+FxNprKEziMqvtUbDBQkHIjJ5PgJ6U2FZCAdk6ieu8bI6QlO6ZJ9eQHppLadElOtD6s0OTGekdHepJ5fJwu1oJMW1P5PaX/Pzlbkr586It8/nJG5UNzOdw500t470icJHZAqNqt+FFf7Ma0S+OdHZpXQIZaApJUcxWBV8nohR4+esULjXL4g8+GUTCjfpvSHL85V5b5jOfnOky+pRK1KIJpQKjYcp5r+lmue1WsLq0PzNiXgupjeVL2qx4RVgtR0HKsy0N8lDxyf1r9V3ek9vKw2KcWw5fyCPHFsRqazahpEwzKt9m01GZFDRU9eyFV0/Bfk/+w7KfsXKlILR42QqO5KwDPJy3X4i3zrahOHtO88Rb5j81Z4S2G2K/K9OZ2wAu2KfsbcBVTFlvQ3XV1h2X/ojMyGUjYWMdVIXfp5Xsf6UKEmBw8dk3xebeBwRCaUzUHVGFVP50Kl6LMzNTVFFuTbB8etkHk+2i3Hx3O6wGqycU1CuooqmPQ8F8KKQ0KkGMnbfmx7tzk6OAb+mBOriMwM208PFOJW24ia5Lfky9nk9Pkbd8gu5TDeLk4rcUpW15F42jZCUYpPPJSVm1Ubj9jljd0NL7G3XJLHJhfMEcorOQh3AJebX0QzJDQQVrWskhknnC24qKLv7h+Xe0+WJKNOg5NwSHNKwixb1aLKAFkYfyUSDg6/sQyG9sWelpF8xWKnFAmzFYO6Ue4PtTcRjcpfPnlMHjmti1vvh8psd5/UMlLoQrWOA4XKrR69324FSOnWkBAbg5L6M6TUnzzyks2dc8ZcSIi5a00qUHfwdCEi/+Wx03ZOjvf7B4wNAXI0Gva/C0m1A2YFZhH3dOtwUD66c8gqny4EFsnrAm6WGkEKPoteY48Jg8KAkr/O5KJGWFKRKgxMFfNAgffvWmM5YfbJcBzkp5oc4iEd2HX41GRR7p2rW30eIaRXC8riqImkwn13V9kmlc1pRBQgJxuzbM9OJH1Og0R+QgKIgNNkE6POUruCBqIETiNS1vXJPRtlj2oKVC/Hc59MPOk5kgQ8LN+1doRcykS4GEA174zX5XN7BqzCnetiXPxjM6JUZU9QMpg00jFWrSofsOBIOxJF+fFYVh5UKepX+UvhdSMloNJnW7JqsczBQiPQDjnJj/eFusxYZ/NWXucRT5Wi3ltH0/LuDUkjpgMVJ6gqpBcEIK1Jw8EY1gYgh4sDXggY3RSlJtTEYUfl1ZEF24/u79PBEYDX1pggQX2kGk4TwD5sPQagQRy3CNX0Voq2bWBPuGjjwn25MNqFwAJCevHq2kWFSlhCULt7Q/Lp27fKZZHGfnIzFVRSOjDWXAehO/+Oylbw2y3FSZvTHVt1cS/h2PqxIlKyWl21y2JIqA0oPWM33y9v3iRXbhi0raqoODeQSDoeAMBWXIx7QHbhrl1D5ig5kqASWXXkvFl15MKJ9zGRnIvj1sfL1vxoRxDA0yPY9oqRT3HVb92yRd6xrtseZMBeGVY3DbiJ4NUfA4WQSM53bW2UZyEpIK4bFz9QiYRGXGU20YJBldQfuXm7jUuy0Kjgb1WD7dQiJkW/dnnthi5Jl6bNFGoH7W4RPMmX7NFy4AQeJtUVSZHP37pBPrip3xYPuyoZF8YfoQAP0GRseWkXAcAsub0nbg+H4H/2bG155M5SWJajo/6nhNVmjOTOqNcalI06+Tu9cdk5mJa+VMoi/dhq5+02x7BWYoRUKl0+mJTNM6qo4gOyNh6SwURA1ib0VYkaqU7L1uG1qjrU7tTJJ+q/rTcil6/tkZ6cEnM6JzhuJrXUeI/i6ald01XJybZ4Td67ZUA+sHtQ1nWpWV6oy0hMVYy2LTFPbtSBvXptl6rQoF5eY8QDbI7X9yzuqF441vCO/rBctWZAEsW8xCuqqrI5yantReiqywtKpZRTbzigTpYnO6MVef/mPvnkdf2SUq/4nuPzkvYSMh3k4QN11QJVuWlNWkbVicoGw9ovDqB2pq2mzg2hkbqOGTuUdg/F5NaRfhnInpan1bmZVqegqJNJq5fL8pJeXbxSkF6vIDv6AnLXpj756GUDluB5ZBK7zbMF1rqbsaT9ZPQ2WXg94Yp0Kal6lVD9obJsU1s3qQfhPEaaGZZF6DXWm9eKM0moaKfOxQ2jOr5q3wazWVnIVHWudOy0v4SSf32tqtddlpQ6ewV1j67W6xzSefn8dRvl6nUp5YuaIcqBgN3/+Yu2FctydJKleSmF4xYOoYqGwlv2vaeYPLUxiPATVrAovQ8EuI2sTbA3ozUuSeiF/Ss6j1ZWZlkMjH2dOFQ68a6cqsWJbEXm1bB28D9QicA0aTVUI/tN/LCgus6aXZuTnD6JB7BzLNOk9hROG/c3p16u64++3HsepkWlOHE57oUwzr99dMzsLNSYQbXBF/ZskhtTVGA37olgux/+sXE7/BiH7OxZzZMv6A8VfZGIrInpIvKd4/65ij3QABsUYK/7HR0kHbYsiQqH1tQjc3mh/D7ArGIuGEsC5PlK3R4AxvXFm2lbd632ADC9D9MMevxy1HUrlkVKgsWAe3Kb1wF5U+aalJJVa7/CwBsRmqRgDlATi6+8UeL4z+UmwKXV2ARF4LodXMEoA9BqSFse29e3oYWUgAgDAW7MEcjdDrGKSluVfMAFufdny/KFX5x6TaR0cA9MIHbLWFhmRH/vnliGjc4YsPAooPibQ5klSUlc1A8TGu4jNx5txqEdLK2qF/RKc+HmwI1fpJyXbKQRl321OPfMS4BHw9nj4XRwSLVZ0wXIwAEm6IILrkkKimdJm7lXBoYBbD2X273IVloaTycjRelvzkaznXTayBzYoDSb7QlyE3ABuDQZUpnQEcWvrf3htVO0QYMwEK310YQOxWVOuB+uuISn1PEIG/8/YbUdjtxzUxMU55dOFLA4uT43Jyx0wkOQ3pp+5hbAhcDiwQTwz0XOazMXOv4IACrBmJNsuKd5hlePC8+Wgh1qttr1Ll1WgxumcfNUD3Phy4G/ooTGKmw9F6uS3DOlZgA1lFD+tjYHjmO3Y29ZHZhmsQaN5P9yCIl0JUVmaTIlAfeCRmjtj+vgO0wBcsA8oWxsur2jsbH7bMaIe1sOeNakEwA0282o5gsNSU7jWqnqmW2GplqdOUwLQJiNrbD0zUKnEXX1t+WA6qrWuUDCt44NWtN979pKsazhmvcaBQhMhptw3tNM0tl6al6VD/YZK9LX3O/aNXcuGzRdfTZwzc+WOp7GcTy6jnYemsf4G5Ns1UBU+nCISlVLnakUQk2yLZViD9Sdv5HXNUCEKnmquPxjU2A51Q1J2ECFrcuGORYzl0pf9rtmw9YjR0xzEgwSuRwxpOdaAOrQnEl1NrFjjyREfnpmzkJibAshEkB45vJYXg0QZYiCR+5BasaJuaOdnalGWw6Quq1zwWvrXNDc93bMa8DyruwNhkCR4Hnj/WllD3nav376pL1HC/DEDVcK5weqHckBgWZUEP4kU1IHbOG8gPpVPV3mfFHU4ZeSENQIWMtbUcr39o/Lj48U7MkbwKlqbHhUIiYE6pAQktl1+jXOwwOHJhYfugAomiBUtGdkwP5eKkB9lo6vnTgXwms5/5uSlAC7kOIHe1zhCxn50XTj/WQzGO+Mela/A7WJbOsAPN327n1HF7dtuDggMdMbNjaeUWTepx5u9qc2nDfqJrGP//zBl2y//P8+MCff0/4hJpKRGCpmhEk67Q/TCXsQ3mLWPD9ZsucRuYWAtAQ8qJTHUFvx8wo83tWENyUpIceUcumvDk5b+ovsEttDf3QmKF+7f0weLYdtX5EL1fDqGrnkX8xVrapnXPrse+BIwmNrtqdVElerasep88UIN4kNISk9+/N9M5aLzkcTlnfn6SL/fd+CHFH9zfeUhxlBlZwAD54H0PJA2a8/PiYnpdcC1g4Esbu7ojKSCkg0nzU5eCljWSGhNxqwKfeempev7Z+3p//6U3xkK9jOSwrwunV90tXTrWpXbTIvKAvFedk3dloOTKm3Gem1rBK2HFkNgJT8wJXr5aPrGo9WwZsmXo/UQ54iOf/haEb+4FDG0qMus0U2iIIVai23reuXXT0hSwQQHyX+d+D0gjw5n7dnohN6ol+2FPPMdyQltau/f9sGew5Sqlw27/j1Vs+vJ96UpCyrw3K4FLFK+JOlkBUdOGJS0UIe1xHNj3YpRECmCXLyENdP3bZVeniilh/q2GBPIqH3KwH/577T8lw2aDlvCEl/pAupHwWYAjwBxD1wwZ/eJL8OLL0a5sFUAblzdEH+xZZNi8kH7FhzPC5RvClJSWgFsMf8Ow+/YM9OpFiX/LY9eqZeMg/akcQBQrgCDY7lPdVFo6WK3BQu2X9moNKpFahTnBRsQmxH+v3qE6fkoXzDU74mGJdqUaWlC75fAO462NZ87XBSPnhdr22lIDTDrWG/+m3hSw1vWlK6lBuV0jzMk4eFAr+E9EsoQNYEQEgkFR4vT+B455pu+ZWdQzKoUgqnhBCaH46UEMZlqtgq8LODJ+VvpnJWcEKpXmt/7eAn5Ac2xOTOy/vMTMApQkraMWR0Our70gJOBHFJHBGC5MQf3b8P2VeOyoFKxGw+K9z1wRECG46KopFkwv6fzpXDCXNsyLaQVXKhHQfCORDShYd4z/8JIvd8JiPy3X1j8lhWzYCmJw9cUNwRFZXO7kdKwS6LVuR9V24RqniIBhBJ4JwuRdsh5SUISEkqkeoain3dTkm8Xh4B/fzYlKr0mjxbrkrUVwWeCpak2yvI1qGNFn7h4aA85hBwjiVJSWhIbUeX5UDDEzSHlOTbSW9OZirywMmMTCmr8vlG7Snwqg1yDqaSMtwTl5HhlGxRkcjvuAEyTJxPzVIDISj66ZDyDQZIRJYH8Phqh6JSAaAqjXhIs4tku9Gnq6DCS6daiXw8GRpMDTbo8f1yn6RxKaNDyhb4syGtVUeLpGmqY3vftBEvBpwD5od7vDYgoE8J2XLz1pcqOqR8BWAL+oETA7DbAF9fTKlFetGVB/pVMkBNY260mgZvRJw76h2cA1do4JqrtoGM/FcFSswuZvaEDCbBduxBPGn47lKMfMZ32KxvdHQk5RKAbG2dhaYdueT3rwFOfZ9TDX4R7dZLBW/8ZbdCLEm4JkEuNiEBZDxve8KbjJCgQ8oOVh06pOxg1aFDyg5WHTqk7GCVQeT/A0bLSkZr10ONAAAAAElFTkSuQmCC;" parent="1" vertex="1">
          <mxGeometry x="10" y="155" width="103.13" height="50" as="geometry" />
        </mxCell>
        <mxCell id="yqM9gTFVnC1suYk9JM_G-4" value="" style="shape=image;verticalLabelPosition=bottom;labelBackgroundColor=default;verticalAlign=top;aspect=fixed;imageAspect=0;image=data:image/png,iVBORw0KGgoAAAANSUhEUgAAAG8AAABuCAYAAAApmU3FAAAAAXNSR0IArs4c6QAAAARnQU1BAACxjwv8YQUAAAAJcEhZcwAADsMAAA7DAcdvqGQAACztSURBVHhe7X1psCVned7Te5/trrPcGY0EgxaEJBBCECFAQqwBEgOGgF1UjHE5UDF2fuRHlgJSpMqJs1LJP8eVpJLYReyYInYJYxR2AsgoyEhIQgsabSPNvtzlbL13nufrc6U7d845c+fcuTMSM+/Md0+fPn26v36fd/2+t79jdTqdEhsgy7IGW8PpTJ9foorKcjS7x302jOzB6yV6CdIpmjdOezajWVullSFinlxbkkELpcVXXqvUdgEUmd46/MPGfTn35XmJgh+GDX5eFM83Sb1t25vu69lqz1o6W618SYMnpq+nohxcy0pg2TFsAmfZAlDAOAS2MjZO4RqGrG2rtJn+DmPyRulM313/+YsevHHfLf2AnwtEvpGmaaPIeZMFscrheDkP0vcrwKyBhpqWncqIzTB9LV0Cbw2N+25iTCC1iIfYVslXwmMLIu23keYOt/mP+3UWY0oNwDSsIW0qadVk6jqrZlPvJwVh0u+JzvTd9Z+/6METQ0eRC2qWyNzUgOGDG8wJWlE6cPh9V6AIPjrBMsupnDnyWmCAW226juPweLbVfZPQJfDW0Djw7Jx+TaDx/AXoz+jTCvk1vi8tapSTGo2zedO2TGmZw6K2EhmkZVidhKT+6TqrmncJvDW0VeDleYaMYCRUwB59WC8t0edrqkbTmJU0jQRBYUpA21rzfdQCF77jouUwmOG5fe5zXdecT4Dl1MrN0AUB70wM3irw9Jk6UJLZDnFy6LMsmrc8VbRIv+VNwbcJAIGIidKxTornlvnay3Ho6HHuS9FPM3T7CTps3ShFnKUEVedlpEmNky/0PRc1z0cYBtz2sH3WR+BZmGsG2D3bxK65Oubr3OeW8MvE+NCkdJHQOMNmZMo+OdR037OR05+KxEw1mVqRwD+v4HW73ef3bCVAo8iAJwYQtIyASUtKaQuZZ3kBFq0ajp7oYv+hY3jq0DKeOd7HgZUci/0Cx1dW6L/GmLcxtxOVAUIPmA5K7GzY2DPt44r5FnbNN3DtZTPYzW0vqKFkv8QzmV1KFN1mgiDkfu7MMvpQ9Z3gSYs3At6ZPh9Fw753wcFLCVhIrZCmua6D3PbQL3zk1IoHHj2In/z8WTx5rI+fH49xrCvfZqNGZagxFch4Q+M80zhGSbuNSabGqw8SmCAI0Gw2sHPKw1U7m3jzDS/HTXtnEWZ9CgmPD5uIaJKbXmnM61qwdI86n96Pu+64z8bRsO9deM0j+7NYyTT9UmOKABU4FHn46t0P4GdPHcTJdowozREXSrZ9WjBfbsxIvesoxB+c6DSi+R1zO16RICEQikrhh7D8OoMYBz2a3TTpYTYscVkQ43V76vjw21+Pl+2YYT97qDfqKAi2rq/7ktatAnbRgecSNCVgGYGJLBdf//E+3PnDh/Do4S7s+jz9S2lSgoDH0d2YiDIlkDF9mk3t457qROtI1xx3XflBCYGJTE3MamIbo002zWKSpko2MBMAO/0I7735FfjQW65Dw02R8/pRFBmGevSfuo6+txH6hQLPKVIGBjayeh1//H8exHcfegb7CFxJTdi2aw8WF08it3yjFWVBwHh8UMTgHhT0R6NINzWOUYUdUHOZ2zGlAP1YyeZRQELfQSdO0Ss95oIUHgqVm6xgj30SH7hpFz54+2swN9VETGuxqn2r97d2exT9QoFnZRGKcBpfu+85/MFXfoQTRYNmssDunXM4fGA/mlMyVzRTNFUWb0Aa49E8OWR8QRNqBqOHkIbICg2/jKCCESQPMmZbIzTMEI3qFQxKfN+lsNhYSZngN2aMdegeewZ7Zzy858034uO37DIaJzMp3yfGalv3eSZwfqHAk+Yt5z4+91//Eg+2W4iCeXSWTmLW6cHNIzJvGm975Tb87Rt345qFaRxcivHV+w7grvufw0pSSf5Q4m7qweDN6SQfW5bVTENp05+6BIPCYCvsT3sok+4g8lVgxCBpeg7dnBD3lvA/P341tm/fjqmpKXMuAah+qKU0t+MAOqfg9Xq9DZ1tHACiM30+ily7xEMHO/i9P70bT/bqaMfybzmaoYtGGeOTb7wSv/T26xBSG4k0GVsiptT/xXcewH/8zmNInBA1mlzdXJ6RicoTeV69H6d5k5JF0F+1Zw6/+xu3YCFd4Q72x2KwQ6iVBxpLPoYX5xLY4TbnPJIiyCSh2yE4FjWhztwuoAmz0xjX7N2Nd77zOvqdGLnfQVYsIQt6iMs2bnvr1bhszwJcAilpV9M8nUL+nOqUbzCAOFsSg5fbKzh6PGEvCRKBMikHt6mnxteeL7rg4Gl+TSG7xZiSbIBHX+Zzf5M9u+ayBdTtDIF8Cz+PChdJzmNcF1Ohj+lWk0GHy3iDEeAgYRZouZkW2ho26rxL7R6eO3SUgldN8nLDzFzId47WuXNPFxw8KYimb1z6HMUMGjiWKfVpf2ZoDr1+Die24Jd1NPwZAtmCm4UI6H90vAKTin9VwMAd5ryTmvEzE/0kLcTi8gosh30eyIgupyBqyy47hC685vHmZXDMNE2emR65no8eQ/GDRw4hQ8L9XUYFZFbZIYMS5ngRDi8tY6XTRkqNU5ChwWV7UAahV7O9FaRzM6mPaS0Kbqv/0nYDHv9sndCcThccPJt5ls0AJU77VCRN4zAJZyLeoQ+8/4ln8NfPHkdSbzLvE3cIpV1g0fbwlz/dh2NLDBjIPUfR4sBgCTQFLVtGPHVheYxQXfZW8eggPTAaqD9m47zQBQfPsjTMJckt4DK/0nhlN6UG1uo4tJLhj775DL52zyE8fdTBwRMO/vqRFfzJN/bhy/csoh3xBgi2pF1+TgFLFW2KoVsVsIA+mv6VQlLwjV4NdsorNZ2kN+eJhqYKw1R/M+Zg3Hfl6O99ahH/6kt/hcP2DiboDGHiZbRcmlHlTFaA7VMhLt/GZJm+cLEb4ZljbeZ4muahPzRgyW9Wt6HzmS36JXpSMpThu3Gm0hjLlK5YzOccgj0J0TYwYHLwidv24tduu4q5aB8R+ygNDJjaqADKRKET0Lgga9hnYzVPTF9tm6G151nfTGivMF8jFRpuogT77JVPoAJXoygOjvRS3Lv/GH709HE8dqyDiMzxGZJq2gilIkvmd4ZlGuWX9Ou9yCGYLv0hwaKG2oPoUHOHk5LOq3lH1cnIOuu9BMZsUQu3isSr9XTBzaZLpio9qLkWQrdknsekgTF3BYVKE5RHDW+8o5FN8GSaaacmxFS8PjVaWqfxTA1wbxnx2usFdG07l3TBwcvp+Pt0cVlWIOn3qDQ0lQROs9iR5hOYOoxsMlFMM4Y1jYR4DHBcn9rG6FVBkEomjNbRlG4VnVt4xtMFBy9jDwo3hBv4KGKCF7Xh5DE7NhgwLtMxjWnCiGYlXVj9EzxnmyDTNwY12F5oyiECWc+toiHattrONY0NWM7VBavho+GUwsPDzy3jW/c9YepTPMeFZSZKC+ZzNurSnBGUE6RRA1KenRvz++iBJexfopB4TUpJjmkip1GbpWiygEXXC9inX3/zy/Frt1/N7KWP2A6NFQiYk5rUYYT+Keg426BkLa3//IKD5zFF0HzdYko/5gEhsVItl1gr4xbooBGUso26Xe1fjIEv3nU/vn7fM+g50+j3IjSZlgRlgozaPgmdCTwFLePAGzdpe7bgnYXZVJCsmpFBMMHzqItKU22aJRXovNBt/lX9pKquNG8mIRjV0ghOuoJtDPtnihT1aAV+bxG1rIdp+qYw6YxsrbSLqRGtqUlb3l0WMTrttU2gUgtDOK5n/OVmyDLPQVQgMDaGlXfhJItsNNVZh+8HreB7fmblPTbGyNR8PS8hpbDkl1XaIT6SDZN4sA1rXlFEBoi01LCxTFuGhkryMmbKvAWQKSVVpx0VWFQZHjVJs98aQnIIxPmmiHpwsmzim3ffjx/89HFYtWkDnAp1yzRGyfRhEmKYhEbYxm++9Xr8nVtejR5NRHPpf8Neuo9s2A40EuTMUUWWUgfxq6gRpDoKfwHl9GuZr9LEJFNIM/LXpX/XIWXAJlszXLDWat3q9obB0+x2o15DkvSrQIKfab4sjhP2bRoned399C9P7D+Ipw4ewcHjy1jp8UZ49rZVG5zl/JHDqLXFhLGd2liUfIUNRrIZzTSZ7znoMnWYhDSB23Dn8Im37sGv3LqALpbhHf8syuN/BpfCalHIGdKSdzxYTftk/Ali6W5D2boVTuNWFI0bkfnbyUMfXlaDX7iI/S0CL3UCWKlunEECI0LLD9Cz61hKHdy3v4MfPXoYDz/2OA4fW+JnNE9kFg9n4MEkmlHe+SZVh9XpgzJKuak8czxjLRxKt0czn1iU/glIrqMWWPj1t1yBj992JVMQnu/w55Ef/jKcgudcjYNkDw0Q5KGlkgtqoYbwEFPpdiCdejesxgcYZV9NO1ajyQ2RBFuleXaAgNYxLDrsYB8pHf4Ju4VvPfAs7vzBz/D00ZR9lH9TNQgDfdl224FNpvnpycFZzh/pumkxeKCSTaMgKhVUgGRlKZmusOjsSYPnHgX4E2/ai9+4/QbeLnn03L9g+zK5Ku3qIuM/w7oBgKvbKvkAfZ+eT4qDJpzmuxFO/Tbt7vXo1xZhJ7JQL/B8LQ0Db8NeUkVWGhbS+GDC6HA5D/HNH+/Dn333fuw7sMybcM0QlDEZlHCZJ7KPWrpiIqzz3apJWd4gBchzNUWkWXYVyjKIGdzTJMSYmOdqEpAGtweMtrtUrBP0X4eIUY/ms4BLl+LmFBgKkMNthzwBUxR4LbjpK9BotxHSV2LpS8jjpxlxrz7lu3HaMHhNOuFe9yRKJrvHUg8/fuIEvvytn+DZRcBvbeMRdOUptY+5V+hZaNLf1BmWewrLqbXnuxXULM+mhFLSy7QPl+B5NhnpVk8STU6KunnTaKO0UjPfSFVG4VEq1OyYGMj8DewnfaSxhKa5PJ7X9qmBzi4jRUn8R0h7/xn15cGxZ0EbBs+ma2a8i05S4ETs4otf+S79XQgrnGVQQluvtECyqMFfdjSOaFrjiEm30on8vDcBVsR9RpdM/OnjfJotlaxn1AJTJT0xSffq1D4GQKrtZMBRlMzzTFAW0L/z6swDc4+fMaLV6FHh1ogb/b4T0r9RmKyj9D8EqjZFf3wE5fL/Y7T6EAV/1WFujOgKXhi+Gdf6ZQ1NSq9G6f/7d36OR7pT/Db9Wn+JOV5VXVyVAahMQAyyjJRlSisI5vlu5ll0lVYohWFLKdVm7o2mU7nppMQ7JB9qDOA8FA7vkMFllHXh5wcotFVaYBc0rSbv1fODzO+UAsheq1H7LBPAMH0iVvVsG4LoILD4L+G39yNgyhCTn4ktnjJIpPBZBU2qotZ1mIwUQX24lmjFGeJO4dEnn8WDjz9L1Wc0yUhS0zZm+p/HmG+QL5U/5amfH224AE05lhr7oSInDSqY/XzVEZOSggVVqmm8NKclqi4jjdGJZY7JZAqKCoQ1vfVC4+fEzkSdPMYwie8dAq4qcGQHkMX3GFNqmwGA0BwiE6xUw+K11pPOtCFSEJA5Nfz5t+/B4kqnGlWxKWGq1VfHLxLSnWrew6PAauK1tPpkDjlOzTDAbIIVUXqn/iBk1u5QQ825pd0CzwjIqbRh8GSG9p3M8P1HDiKsM9rKYnjM51Imc2YC9GIhqq1DazMV0mzybVEweEkZbdL/VQOIk1Pe+z6Dhe+Z6jjpcAGaVplYvlFp5HraMHhyH1//0SNY9rbDDWXX9Ugxw3Ke1piEi4R0qxrhnQvpRuhcbZyATyZbCkxkRjcBn9VvI8uYPtBFaiy/UH6mZ+dNBHv6EP2GwYviAt+5bx/c7VeZoTJNuUQJnaqmcDYlby81KhEybVpo+gSNQVpxDE7eoXb45APNJ/dNSs2kiTT5HlXwoCo5eCkCZjFqZfqlWGc9bRi8AwcOMqfrI/Km2X1FU5mp3FLofTGRIuod89O4bK5BLqRI+4eBLhN0DeIyKtyMFbLL3UzYD/JU94Ls5bma/JPTpdL/DTntaeBVUWY16KxvSKs0AnT/fqYEPiWjt2xqTjTDYBJehrJbReovRYRRXZVY68FKE+6zj+qZnvSp6j6HNyYtI1tJy/F8I4NKJdqDVtoa4DKDXOwEk32V2DM4SSn+KZnx5msW0GyyLxomjI5QW5hhi9kKXDaheZQMuBHvt/8jw/OcfTNWzQQvOvepdLrmGebwBOyowuIKvBLf2c+cpNHAdP8QHTRtfNAwwBE/nmXDCnx2JJDosE2oP2imR0auGByIt+aY05sJJsa0kqafZoO+WxKvRt8tU5XxvHy1XRXVMh1gGO8xYij6hJI8WaDGfeTGXUh5cJadZDD4FI9lYME8WPmb/OGklIfHEUZNlMd/CtfvIfVO8rxMJdRJl5HnOlrHdWmd2COp5R2JEdyKkgyHDh1C1I/M+KWAzZjjrZbTbS7GGk2Cq84kV6v7BXz1+epRxDVaouqIlBJpltsY0sTy3A5GNooiW4O3yGZrrLIar4RV57VmMUV/UyuXybsVtKdcLBHRK4MU//DWvfBaNZNMOxTkvHsfrFTpgmLNmhH+yYn8p3WxoAUMqCAm/RAG+idsTqVTriSJFQ4mwdR7/s0pTcv9FCvtDqWdgYrPsJOf67kCSb8ZCFal8FaQzp/RLNMcGV+i/2zyszG1xisiMnF084v+yFaE1CqCkboJEidiownka+bEBL7L+4vo0xWSNLC0nGD7VA0fvv0q3PEqLe9BHiU9lN274afPkIka+qLAm2kmmaLJqAof9Ix7Gzm1WkXDuphRDpmZdfQ8eBVcFcqaGZA/4VmMvznR7lcPcmjWQEfRTGqW2JR781hzzS0g6X/MG4ilTdS7VM+mM4HNyNTSCdnHSjuHNxnb0a3ej9kSNJgUt+IcraRAiwIxRbPpMlpYzjLKPwOGuMRVXoK/9/YbcMebX41UpRSSp/73kLe/Ck+uyNnGVg1Qjxm0OiOp18rrSiwTvONwC/Lc2HilZKef95Q98nVG62giKpzlP4DFNs2l5xlNW32EV8GKRlhkOs1U0FaQTJBP3+oEdEU2NY6CIi0vVDOTmydS+zR3w1sDvTEtcupIFYCFLaRBCwm3ta9DAYmzgNEe7zft4K03TOPzf/dGvP+1LdSpWCs0t37yBLXuL1D2H6EZoKmlgGmGAWVc9XtCqhQo4N8lGhuCR6GVDpnnLsyw2qlk9ft9ozgmirNV40FZLxVBMmuhdMfUuLvvfQz/7mv70ONuAWYe5iCAZnCUTRo4diWiCUmCozFVo0lKTSRUZuWGmDekJ4Yapt9DSTetPyOoT7O5Sib4GTR9ZYEJ92uvWMCbbn4ZbryiiSun6N+oVXHch1OnZh76T8hP3gln5QjZNIMk6JAnfXiJfKb6M/q646jvZKj1tyFtPoRo5++jNvsxuInH/TSjFGBP/SOZfpKGgBdRXYkSQdFYpsD79l89jC987XE6es+sglA9hUoglTLQUEsyTLHNOSb51aTfxfx0EwvbZrEw38Js3UfI8FCATjVpwjRDPISqkvjRFsGlT8x4H3qOXQKv1Y8ajSbqtRrmt/mYDxIs8P5dmmvGabxvfsf9KdpP/gmQ3ImgtwQ/vw4Ij6FbfwpBsR1ul77PTKpWdutsqU+/WevPI2s+gO72/4Dm/KfgxDb67goyO2RPRoAnFmiIWbU6Gi3XwjWJwun6NO764eP4wtcfNmuB6fk3gefwVV3UgyJnAi5NUvgBL82L6lEsaav8pwSBkQL9WMZoTrPQHoKj89hbK/DBd83g2isb2LtjL7/LXMurvAn1nf+qKMyy5Wcm0/h2Mair4Unl36vREfksedoeeVGjJtHniSEyOb0vsq+/jyR5gEHKHl5/8GVtyLbxWxMq3AuU+/SdbaQMWtPwM6jt+hhiRsbkFK0b0xGVUZJOA08yqpFyxlgErzCFOqpvLMMpfO37j+Hff/NRHiDzwSBGacJZgCdB1DSKNhT4yNzKzOp5OjdhMBIuIrJquGZqLz71tu1452t3YZmYLLNT2/KE19JXCR732XTimnIxV9yEq1VN5WCrYrpCPcmB/IvSiOwYyujr6Ha+wqT5HlOXWS/qNN0a9djEhceRwKOWxSHTr9rnECz8KmKaS4cpQ1F2ePP8nDQEvNKUCcSMdnIxVfNIdJKpV8ddP3gY//Ybj6OcEDzPc9FXjsggR0+x6ukdkQDxmgXiYw7eccNefPx9e3AVk2DHztEtOuz0NMI+zVq+TPTpX4pjvCC3LSXFCg50XfViAuoe5jnk2zXRydSBkl3SlKp2MkkfpHA9DVfCRsZ5BfPCjIDm1NaCwPnt6hznmlR9Rs2LaGns1j+Hv+Oj6NNVOYXukf3jtmiI2aQj5jEKxTUTruWhBJRKub997yP43a/+HIU7GXjyjcoHzcoNBE5mVCv8yWyuxF28+5rL8Zn33ozpmRNY8rQ67QKmO/uAk39I3j6EIj6BNDtKYTrB67YrYyUFKdTr6obOmszQEE2vieIG+ZSSYp7dyfk+593pIhp2kWk2oxxkFe8f+RbVodKqwO2g5/kIZn+PGciH0FOASCtla26PkbBoCHg6oGAuVc3gaiEbrculSrF7H30a/+hLPzP51STgiaR1OjZbk9DLdF4/38Q/+OBrcdMViVnPy27MI+0/gNozfwpr8Yco/UUCr0iTfolWoSovZst1TdXVCMVJiOcyuSz7Q003lV2rQEkgGKYbANlyaoQpaydvdNOuvUWljBIkp4cOlaS54wsoZ97PIIb7MyqSLed7KnjPc11vCwYTWoBmEKOzVTnf3EyT2iOoJiMTsvN/otVySD4lS5ooRnzgpqvwqt01LDqMIBvT8JZ+gvKRzyBe/mMkTAeYIzNMZjjhk4kB++fFyLwOc7QOEmpp4jIinaAhIPAeGaLSdPmwgtqUTdP0zFHTCRYvXEpImPs5PqNwn6bVe459edrcw9YQ4wDDev7RFBNfDC76Y7ZOpTUqw0iQZkIAGmDVpCVk4HSrZiLESUlAVSs0ME5klKlT6d2uhV1Y2MsAgEFMq9wJr/M0kv3/Go3yQYQ1Jua1RYSM+nwm4x4tAPFlnxKeL+ZNUks1s6FobIIGBh+QL5OpEnfk/+j7yrJrzmt7NWIqYBko0M86ZrhNBQmDKHWLqGI9YZF/q1jGe6UgaXsdrdE8cVSzw9xJ0yEJ0NCYvt1kmD+jYSEFMPQztIHczYSZ5swxx6yRgWFkMQmhIASG+xYSKp1TJLhxTw1z2xmg0Ne43TaKQ/+GadKT/LDB6DQjo3igav/1JKueLWDC6jCO9rMmgqxFpWFUrGh0gmYEU9pvLIw0T+Y45D1pHTMJsMyU+qsJUY2iqBE4lTluERW0Ak4yRddKK+C+ApFYXbSNVy9lGdbRGq7Th5HJWl1B4Glt5ZwglYxDtXzUK7ZvJ/OY1Mouu8oINdomBbd4o0PEYi0pCKLJdKjZssp6lq1GH/PKmRLbAib++npyD7L+d+GpFkRMzQQqu635moE8Gh9l5m/knxRt6osSngmavmqazsfrye85PK+W86dpMCP6Blju06AFLVDVjzPc6yaoYJIu/xa6e+keXsbInxF62abl0ZVPF5ozqMwLdD0jwjxeYTrB+1OAQgAUqFTrfOkuR5NqJSXNmuA1OPN7rVYdszPUHnWYn6P74KAzEhimCRoU5ncuKmJeHbn76WbfRB4xSFNOy/y31HLMGpBYRxsG78ar5xDkZKpMDkEoZD4JQjWrMB48V4fyn5lyGlxyqlHHXLPG9IQ+Je2g271X8R8B098+/Y7MhCT9IiLytauAsnkHLR8jTJlz0IwrAqYWrqcNg3fFHHDZLBma9GkCtSDoAIwKw7FklgNmM2ONmrylprUYkEzVfdp3mqNsmYnx4+x8JQS2AKR5HETEFw2pyjoPdxCv68nb3DyoUuqhS5p2rRC1njYMXotHvvGGV5jn3opU00K0wfR/G1npzugbQbMUadKPKr+rhcxlAtWGODzfEk1x25gNWCrvnqFtXqbfqfKai4U05BA0P4ZYv+fAf3q6SPJrSlLMKMuptGHw3KyPO269yTzwLx/vMpGULNhMvs8EnmbDlYIoUNAz2fqefhamLnuas6PZCkItaWSEi4FIvpOHHqVwXFzgiZHT9U+j49CVkBzFCeS11mMrNXS2jkaCt5rFr5KdxXj5rtCYO0WkytdkOqv8TxpTHfe8n9J7s0+/7cMolaG5ht0UsGjCVxVorsbjaCKLvM/EnWG4QlEostO8mAaOT+/wS5oMT9bwymyv8pmvLnNP73JEvHeBRsSMPBsolI+uI1sgbaSJ0cnSMj71q++Enx9Dv3+CppAg5ClspgEKrxW8aPhLswXVmpdMKNiL1GsgVDkdTacXL/I4Hi8NlgB4zBXDPtI2wVKRqdNEFD6CMr6SvduiAeAtJemDAo3Tm35KINfv9sn3lwxEmJb0PN670i8tCXLVDxH5EeajacOLyFc6pnocj7ym6VyHyYbNZq8XMbSfxt6dLbz+lZejQd+kxQRWVC4QNJmeaEGbauhL64lpAFr5mubxLi4yajK02TljhPY2pFEThXeYSheh3p2hEE8hn7uZVul07RpHGwbP9mvmZ1jmad3ed+v1mKZqN2s+EtWCaPxPo/SUBmmdyKQGfJWEXKIB5ZpaIkDhCUboitzlHo6jrM0hn/k0t8/OTWwYPLfWpKnsY8rNcd2uBt5762vgJm3m0Rk74hptM0m7zCZNpaZ85BelkRcXGZEd3uw+gTsCjy7EShnwuV10WwvImr8Mv3Eb+bdFmtePU9TrNaTdFexounj737gWt1y7G618iR8umplypQ2rM+WKnIzf476LilaDkCEtYxTZZwpER0cNXEKvthvZ3N+HPfXRARI87ixow5xVbmaWBNZ2EmGh4eEjb7sZ73n1DszbGonXVL2SSYImx6zoklqpCdiLiwTA8GYp3M9ayL0WkvpNsJu/hXD6g3CmQ0S5hgXPjjZuNs3MM4EzQ2KMdLIeXj5LAG+/AX/zjTdgZnYGKQMYlcTLzamKOkn0C5IXm9kUnQraalM5Qw1TBOvtcHd8FvW5DyFQYRZ51HdVG7aaQ2yMTllEx5i7UWQ0yqYPi402mUlbxvta/eFI5OKBAxHuf+wJPLBvP5470UGHvk7l4mE9JIAEPKa990PYGqGJ2/hbt1yLT37gDdhJH+4d/wryA5+D1z3JN9sRewcRFLvo4JmsjuvTOFLBDtmROXuRmdVzI/poXiymJXBjiq3qV0aRzP5g8zRSaYh+uOM4LM3mMyctLA0aU6DTeQZvOTI90WNmP1RlXmebZm7cYjxyOcrmbSj8vbzPvbDMoG+EjBqZMljRUOHqZdcGeqOCvg2DN+4zzTLkhY3jvQTPLsY4tNLHyW6MPjVPGijf16XPDGp1s3502VvEtbtbuOX6KxFq9HzpGygOfBauAW8eiX+YueQqeIOLnCWVHuW48Qag8ZvIG9OwGCjYyRxMXR3D9MLaMTjydKp4NZxhqnMp0IKv5ThMnUsdhbPCMD+Bk+ykyVGtiQaR9aiYzeto2Y9ZCvks34dIBhbsTHTewHOLiCkopc+r8SZkvy2kKhvkZxqv412ilzAZ98LK/CZdaF0wX0X/vKGi/YNzDl5mL8Op3wpr/r8ArW0ow+PcO1+tOW09Cw/bqwOHkCkkHgGe5vn8gpEiGVpkmtUkBSu8D4KWNnlPdR3E6ySEj1pYqC5Pk7jVrWgF+I3QRsDbsM8bRyoM7TgtdMsAXdp1AaeflfF5zYCwNgIX082QeaHKFiz4deY3YZNmdIrIb01ZQWlPIwsvYwfIMslL0WK/CBy53Sd0fj8c2YKkhlpSH9pCmt6yf4zpEIMyxh9qDBeJzE7kfsMEaaWeX8wo0HkMr+iyLcMreVWtx3IO6ZxoXuoG9C08hmfSpLRmxvWq2R5FnbDY8YDmitGqirB1KvlMSU6o0ogTd517zbNSWkhes3klUswxwNLTPdSUkgFVSK2nlowi3euo+5UWFAw77Pl3UKPfQIUKeO7IHJ/SxwfpXNVl/VFbox7S0lQL4myAzpvZtDQtxNtQCqEV9bRklZZIpKfmlflJ1jWBjXkv0qpEBFUrujueDyx/+5yDZ3ybVh/3D7IPvG66jU0TyT1Twq9F3kYTWTKcXySey3sVsOd3gLn38Xy0IirKoV/XbHLHGMtBKYXJ7wqTZgkAVXprjZWN0HkDz/xAPS8g0BgP82B12tVTw0hoqgKqYUZQ9ViwqZqmBmrU3ITGusmlb537gIWMSsnQSHUpDIoavI6TZWQkrxrS4w6ZYtkI6emkgr46v/yfIZ79ZXYvQGjqWOU6EppInz6RUWZ1azxe/BlYIG64MkkboPMGXm4iMPoz/qUnqP7Z1C6jgjqAjX3WDSleyTM9cKKbsOmSMvgr30Rx8J/AbdPx0w8m3gn6SwYUWt549GXPQJpS4q1Zl1HxGII7S+ooNZ5pDnFzI36WMypUpZY5TpLHoEN2zlxTf9R/vR+wSGUJ2vSYcix8HtncB2lYHHjKZSWsXof4MHrmP5X1a585j+Yy2XJuZ0wfzkTrwRoF3hqLXB00SWP2Rz8XExyZC8JIoANKaJjECGO2jE2/sKzfS+A+zcYz+2NLzLGmftI8M8DgRcNHelV1mMzdxKRSPRUxLVPxCGRMxDKfONjM96iRGupjiA9Tw0lz6gRI/Z5JMVTMq8ebzfMQFK4sLNBlM4ud03fqeZCMAlEwIkv8AnlAPtB3ZwQrZ/ScUQv1NK+Co5gmhnfNoM4zwA3j32rTLIza+v2j6BTwLiZyohYF7uXkgIu+vYK2Q6bX3oKy9R7kzXchqb0ehat5NUaOKYUzqzFnY2rjHRmc4cLTRQueZ9G/ukyuqX1582XwF96N2mW/DXvnP0aw8Gl4Cx8Fpm6jpdzOtKeg1WBQxsAsD148w30XLXjmGTyrR3NWQzD9K/DnP4Ry+nUE8ioUrZvhzfwS7JmPwa7dApW/m3JEGvrCma2+/iKgixe8hIDY9Eb+HLzmh+mrboYKy/v8FyuowQyT0NuZy93EIIpBjRJsVQ3k8qUvDrp4wctpNhnyF6olD3abqsMymYZv1Rg9MoahdVQ2kTDRT5WLMthhmMyDtL70i4MuYrN5OZP2axBFjDYtRqRURK2q5NtMU+xlU9afM5Lse0voMWIsUmoctc9RSeKLhE6pHhtHa49b3zby+SiyNAnptVA2X0M3xNg6YpKb9pgWLjKUp5nS48R6UsexGKprsDc2dYyFnhIdk3uekZqPIsqfpqEkKB0CpmFHArZkRYhdphbUvjxpQ4uM6ydKzcCIF7Ib+gEL5nOpjyhTirFiKp2zVFNFGbQYwzAerLbN0PpznRPN20yn9FXLa8LxrybzGAz4GraahR1dQ//SYTKvZ8XFWR5HDrrMx6rSCmX+m2BGbydTgAXmfSeY5t1Js/gQarSKUyWTeptmlIeEJx/C7Mmvopk/qayezaNAaZHiWbjBtJklYa/MTRgx0sDDJngxjobx+IKbTSXGcF7FXPn9KBqzyPMW95JRjrRhJ8HsmrkyjZEaJwQtqiNSEr0JRjkRAt/l2Z5Cr/2HyI/8D+DwfbAP7kdy7HvoLH0OOPk7wPEnCPQ8yiAiaEeZXVyNuH4DrNpuU7Oj5+KFmZ5rdDX0tjXYDSWr2+0+f7lxQ2BnokmH1hK3h9CahUcMcewrZORnGATuQ6iSd61wpDI5raZXhDSh1UMqlkZy9NSqHkgRqJNQchlVi1y3jqGfHuNrE57fRGapKDiCTZPoZFquchfN+g4kZQdBcoTghIj3/lP4Mx9BzEg1z/sIMgt2rt9PoKXgvVYLE5w9jbNgwz674OClFF4JcC2jX+ssImv/L8S9/wYrfgyOxiLRROBpaUUNY/ELmZJkNvFHD19MKOklwbC8Djdo+jTDrsea9ZMyMpiZBMehvMjH0jzmNN04wE7ugd18B4qFTyIrXom0qFP7YrOslEXBchimqrhCg+6T0EsOvLIIKK0Ro72jCMoZOL0plNGfo9/9A6TtZ+BFHjy3hKefehFo4owpPxB6AnJCTqXTPM0hapb6Rl+rtV1AMDHPa1zB4OQ4MvcpAhvQHFLrm7OId3wC2fRvwQkYsPRrJnNwVZJO4cvTEr7rsnsF22R9esmBZxOIkqYzY2SZFw0Toocq1O0+jLL3DVjtuxlQHKbCHSGje9RSmkqtgxJTE30NHE8InkOw0urH6S1XgqFyxToKJuEuNVBrXsKaYqB7BYrmLUgb70LZeCNKP0SPPrim0vWMwQsFq2CnNVOiJRarwoiLBDyrXIZtzSBnJBmpDoY+rKFKKoV7CRPi/C6kK08gaj9MP/QM3dQSmcaAJiHAKnHQqY3fYzNmVI1vKQTVo7b6bMirZrRzapyqvPwTyBlFqnYrk79zXsac70pGwFcCjTuQTb0JaW2GaU0HdhJRP6dQZ4Ti0v/qCQ2zoITcJwFVzc6kbDxr8DqdzobA2ypgx5HmylLfg50uMlJ/Gm6ffrD3CCxuIz1ONu1j02+xkmHGnJKDuhtxUiCZlEJN12fT3JyeyGF/8oyC4YTUOgLo7KCZ3E4t0qKnTUT11yGrXUdzPQffoz/kcfp6WsY8dUofaKRiKI0DYDOk864/94saPEP8rkvt0I+XVeOLqtJiAJFTc9L/S5+5zNbne6YUGZNqvmp+zqJD8jKpr0o0dP1VEPVKq1vfRSybsN2dDDQuNzWV8Hbz4xm6U9oAW2t6akxTFXEEi+ZZgwSllRE8ZezD6RJ4A2IADrfUT5zRPCkQkH9zCYarVXYtMPUiSOo+wdMvajKC1CI4ygFLRo9aLktnkSmtlth64dUOCJTm/jWBStHIGc3mNNcqiwoc/fZYRj9rs6loiZqt8gU343ULXvMSeBsgMpqJOb0KT0LNM2uD8VUMtApGeC0qhJ6JLw1THTabx2j9zJTX1PKT/MKg6Smm6pzSRLvHN/xf8tjcpufiefUbC9IwnwJjhIaCUc1s6/o8v6nP4fshT6mu0iXwBsTumhI+l77PpYbol60UnRoLSj4WdZpOs2oEwwStAMiAxTx4r/caYxyUtEuDjSBUsOmFf1UMq2uoVQARRjbFnzqGIPNDnlGHVwIyiCRVuDuKLoG3SmSY5cr88fs587rcM6siqZBJWV5s099JE/nOVgEREy6tgivmW/yOlVZaZrRttQu6W253CZR2CRQ9I2+qvcyHhJCnKigUAk9SojNWsBNUApeakc/hdAm8AYldHlMILSJTUItyauFqk7aE0YJ4bYhH8As5/1J7eLxZEsRonlAZgCiNYV8MuIMvVjrJPfKL5p/kxKbZJbNU/cwIVtZaWu+Y9S71WaXRw+iCgTeOzgTAZsAdR5sRqHGMHPfdYYw6VzTuvGd7TQneJXqJ0iXwXsL0CwveVpm9Fw8B/x8OyfoPTeZ4AwAAAABJRU5ErkJggg==;" parent="1" vertex="1">
          <mxGeometry x="136" y="181" width="60.54" height="60" as="geometry" />
        </mxCell>
        <mxCell id="yqM9gTFVnC1suYk9JM_G-10" value="" style="edgeStyle=orthogonalEdgeStyle;rounded=0;orthogonalLoop=1;jettySize=auto;html=1;entryX=0;entryY=0.5;entryDx=0;entryDy=0;" parent="1" source="yqM9gTFVnC1suYk9JM_G-5" target="yqM9gTFVnC1suYk9JM_G-8" edge="1">
          <mxGeometry relative="1" as="geometry">
            <mxPoint x="410.43000000000006" y="180" as="targetPoint" />
          </mxGeometry>
        </mxCell>
        <mxCell id="yqM9gTFVnC1suYk9JM_G-5" value="" style="shape=image;verticalLabelPosition=bottom;labelBackgroundColor=default;verticalAlign=top;aspect=fixed;imageAspect=0;image=data:image/png,iVBORw0KGgoAAAANSUhEUgAAAKUAAACNCAYAAADW1LqBAAAAAXNSR0IArs4c6QAAAARnQU1BAACxjwv8YQUAAAAJcEhZcwAADsMAAA7DAcdvqGQAABxQSURBVHhe7Z0JmBTVtcfPrD0zzEyGXUBRUFDAJaioSURxwSUx5kXUIMYkmsQk7lHzjOY90XyJmkR9GnGP8UVc8hJBUZOIaEQFBTEiUUHAQGSZYVhnX7pnef27U7fndlE9093TM13VU7/vq6+rqruq7j33f88591Z1d1bFtsp28fFxEb4ou6A9r8BaS5ysUJO15pMo/VaUpuAQUCgUkkCwRm23N9RIW0O1FGQFpaVuj9qXHaxTr1nBevVq0p4/wFoTacsvltzigWq9Ka9EsnMLJKuoVBpyBkh+fr5kBYrUexpfvHuT8aLU4qPxs+t3KcG11FRKfnO15NeVS15LjeS2NEpWa7P6XFe05wSsNWfiOYfkFUpDVrG05oWX4uHSMnC05JQOk+b8UsktKrE+1L/FmnGiRIRagK012yV3zyYlvqLgDpFQo/WpDroTWW9jipiytOQWSlPuQMna5xAJFg6VYNm+EaH2J5F6XpTaEzbXVklgz0bJr1wthQ1bJK+5Su2HdIsvUbRYKXdjTqkEBx4obUPHS+vg/VX4z3SBelKUpjcMbVsvxbvWSGFTZVRjZhK6XqFAmTQW7SvB4ROlffjBGStQT4kSMbY3N0hW5VoJbF4hxU3lqsEyTYRdYQq0vuwQad//aGkbMFjtyxQ8IUrE2NJQK8UVKyWw5R0VmvuTEGOhBdowYLQ0jZkm7UPHqG2v43pRtrW1SeGW96R402I1UPHF6AwCzRRxulaUeMfs8jVSsv4F3zMmAOKsGXioNEw6W/Ly8qy93sK1osxZvVDKKpf5YkwChEnOWTvubE96zWzr1VXkv/uEL8gegN24ITDooyekvWJNZNrMK7hKlBgPQZbUb/QFmQKw4ZBP/iSyaaW1xxu4RpQMaNo+WewLMsVgy8HrF6g5Xa/gClE2NTXJnj17ZNimhb4gewFyzJz1iz0TxtMuyrq6OgkGg1JWtd7a45Nq6Oildf9SNx68QNpEyaNiNTU1KmxLXkCKt73ve8neJNSo7oR5gbSIknDd2Bj9xE5TTrG15tPf6XNR6nDtkwaCHbcl3U6fiZIwjSBVuHagdnultebTGzTW1apXLwx2+kSU5I9dCRIKJShN1TslKzttaW7Ggk3bd260ttxPryvAKX+MRf7utdLehXB9EgdBNu7ZLnmtHd818gK9Kspk8sfGf62w1nx6ihZk7p5/WXu8Qa+IMmq6J0HyctqUMJnw9UN5z2jcscVzgoSUt3oi4ToWCDO0+QPVy30SQ3fkxq1rJb/GO3mkSUpFiSBTOd1Djolx/QFQ90TEGPaOLf9eLoHgTmnLylX7vEZKWlpP96R6/hGj5oWqVAhq2LwmEtJ9gXYSEWM4qpD2aO/oVUFCj1s3numeVIA4Wze9p8Spw3p/FqfqnOFOimdUYgxHFdIeL4tR06NWTUX+mAjac9IAhCgESmiHTBeoEqFVx6Zd5arudFI8Y6aIUZN0S/ZGuI4X3QBaoHgKPIYpUC+LVJc/slgesWH9cmnbuLRDiOG6Y4dMEqMm4ZYjTCc73dMbKO8Z9hS5tZuVQGk0Gs/uRc3FbexVtlBjhwjDdQhteGcvj5iJQjRJ6ItjqR5dR8gLyIBFd8rgPctSavDs9hb1yjlDreEGLyiVrIISKSwbHHlMLpZIubPEe8neYYp1Xo0+r+o4LUFpb6oNb9RIILvTvikVX7BaqqffLXLQca7/VY24RdlrgoReEqUTplBBixUQrCI3X70UFndsJ/qcpwq31gMQCA6U6CAsPDwe6LJAb9c7o0RJmG5oaOjdcN2HooyHVIjFLv604yFRdhlj+mq6x20gJL0kS0+P78/EFGVfT/f4+GgcRZnO6R4fnyhRum26xyf1eOH3LCOi1PljugiIN74/4nU883UIP3/sH7S1eONXf7Pdkj82h32lT+/S0l4ogSz3p2bZbskfdzR0TFj79A7ZeZ3/9eN2Yk4JpYPaUPQfH/mkjl07vDNn6hpRFrYGpbnaH/X3BvXBfGm3/YeQm3GVp8xqb5HtOwJRt/l8egb39uurs6wtb+AqUUKutMrG6s9ZWz7JQsfGQ9buzlY29RKuEyWUhJqVx8SovtdMjl0NAzybDrlSlEDvJuxgXPV4mU9c0JHp0O0N3vKOJq5ubYSJcffszpM99QFfnF2AbRAj3tFr4dqOJ1rZF2dstGf0Yu4YC0+1rhYnDYA4aZD+KFDqTP0zxTPa8WyLIk4apL8IlLpRx907clWdqX+miVGTEa1oCpRG0wL1ski1COlwWoheHU0nSka6Fi1QLVIa1vSmbhKrFp8WICHZFCEdrr+RufHOgIY1vakWqxasFoUWiBZusuI1j2cxz82ivZ8pPi3ATA3JiZC1dt369P9haF5A2uffKcUV70m7S75s1SI56lWLRG9DnvXcSMjhb2n4vPlZ14gsWCut5/1KSiZOcf1XXfqFp0wGxGQKSm+zaM9r7tOL/bM+ieOL0sd1+KL0cR2+KH1ch2tEmdcestZ8THjGtDhUrxbWGUTVhgeGelGEBzG8zyuf8TquGX3nzrtdAttWuWb0nU4Q1oCWZqkoGiSfDDtAlg/bVz4oGSTlBbG/LjK5Zrd8vmqHHFX5bzlw9xZ1fJ35vRxr9J0/4Vj3/8CVPyXkHhAjX1tYMeZoeX6/8bKydJD1TuJcvGmtnPzZGtm/plzqc8P2DZ/XnxJKkF2h/vsVWx2i3913knzv1Etk9qTjeiRIeHz0wXLR1P+QO445W3YWDZbirGypa/fGN0ZdNdAJZfVDYYbDak3+ALl66kwlxq5CdDL8dei+SpyPHvCFsDC98ftQrhFlfrBZqqvaMiJRj5uwIAnV3zhpZo89Y3fMnTRZbmmvkZ3V1o+3uhhXecqstpDUBgP9Q5hhQb568FTlHfuKfzRVy9WblshW/avCLsVVooTmxjYlzIwmLMg/Hz5d7h53hLWj79gabJSL17/hamG6TpSAMOuaOx9qyCgsD8lAJJ24WZiuFCUgzF1VWVFP3Hgd0pINw8elxUM68V+fvWutuQvXilLD4CcTxIkgGWVfMeV0a0/6WdxQJQ9vXSX5+e6aKnK9KDVeFyeT13849Hhrq+9Y39LxY7T61WRcbkDu2P6pbKzZZe1xB54RpUaLk5zTKwLVYZs5w75m8dFnyVsnXihPTzwxpjAJ427ylp4TpYacE4FuaSiIEqgbp5Pwko8dPMXa6hsQ4K3jj5Njh+wnn8sLyNdHT5SZxcOsd6MhjK+q2GRtpR/PilJTGGyOCBQPynQSAnWLSLl++ZCxvT45bgcBIsR4wFv+eufHrvGWnhelHS1QU6TpDPU8rTP/wMOtrb7jnmPPstY6eG7TavljXcf/pDuBt3RLbplxorSDSE1PqheEqsVqetZUw+NjPHbWVxC2H/38dBWyNRvrqmT2umXKI3bFsuoKay29ZLwoY2GK1fSsdtHq9YbmLLXo/fbFfF8fs3t3i6zKG5HyhyxigSB/OuwglUea/PyD16y12CDYl6o2uyKE91tRdocWrV7nH11Y9H77Yr6vj8lpbZfVw4aq7b4AYc0+crq11cH9/1zSZdg2IYTz9zXpxhdlL7Orj0SJl1xw3DnWVgfLd26W68s/7DZsm1QE66219OGLspepCCQWuhEXSyLw+TtHHiZjisusPSLVoWa5ZfWShAQJm7LS/89vvih7kdacLKnMT+xv55jkZhmVXxi3OKcVlcnlh0ffLbrnwzdVOE6U3bt3W2vpwxdlL9KenWetdQ8CZNTM3CLLH79wjppr7E6YvP/AkWdaWx0Qtrl9mKiXhCYXKMIXpYsYVlBirYma0nn8+BlqNB1LmOzHq6YibLsJX5S9CE/Sxwsicpq6YTSN8JxwumuTbNh2E64RZf7YiWoKJZNItD5M3Vy8ZJ7ydiYIj9Bux37XpidhWzOyrG9vhzrhDlGGGyFn8gnWRmYxPBj/vB9i4ns0U994St2FMWFCnCkfPQDiYQvzrg1CnvbeSz0O22V16X+gxTWeMq+oWKoPOV5yQ974Gmi8jNu2w1pLjIlLnlGez4TckQEQ0z/2sH3N8p4LEkYVDbTW0od7cspwTx9yzqXSkpefUC7mdsbvqLTWEgOB4fm4I2OCd7RP/3T3sEW8MLVUWpj+AZKrBjrZ2dmSe82Daj0ThEkHG70j+YccECZ3ZMgzY0HYnrX6jZR4yeOKh/j3vu3wh/iBQEAKbviDtA0/OCNCeUl9rfrxqWRBbHjBM998Zq8BEMx8Z35KBEmeekLBcFf8zpCrRAkIE4q+f6sET7hACdPrXvMrH35krSUHouP72gyAzDyT0J6q6R+uMWHwPtZWenHHr67FIpw/hbZskMbX50vhhhXqtl0id0ncxA1nn5uSR9jwaPprDXjQVHlJBk8X7HeoKzylu0UZhjyzLScvSpxAvuYV8PYrjpnimu9720GUGyfPsLbSj+vCtx0VzsO5VGDEflJ60fUi371dhfXG/IBnQjsdaPLKVTKyyeE/TtIMgpyzz2Gu+jaj6z2lnYjnbKiTlrUfSOijZZK3eZUSKOEd3BjiKd+/R46WG086zdrjDpiMf+qwM131Q6qeE2UU1h0NLdD6dSulqGanZFeuVbf43CZShPnclKnyp/Hp/R0hk8fHnSijjAdB3IC3RWmib7mFQ32ocqu07CiPiDRrxwYV5vW96HSKlXLc9eWv9/lXbu0QtnnQ48SSka77uenMEaWBDvFqvTUkzc3NIru3K6G2Ve2U1i2fSm5TrTRVb1XfGzcFC1q0XaEF3V1Oqz22ef7aASVyyxlf7bMvlNlx22jbTkaK0glTqJq25kZpbW1VggVEm9VQI63hhmrcvln9ujAgYA1CdqLgc6OstfB5rHAYDA/GCoftJznhQUR7UamUDRvS8bvjgzqmdO7cvVo9gNGXuF2Q0G9E2RUIFuyiNcHjgp7ct+MkejtO57i9clXK5hvjgaeL3BiyTXxRphnE/EZtudy7c521J/XgHXnY4hf7HyNjSge7WpDgi9IFIEzyXsJ5Kr0mYuRcPxg2XmYMH2/tdT++KF0EE9gb66vkid3rI4+iJSNQU4xfH3qQFBQUuN47mviidCGIk1+qWNq4XZbUVarBEELrDoQ4Y9B+6mkfHq7gPF4So8YXpYshrOfm5kpLS4tU57ZLTX29bAjWRL4GW2CNl8bml8qInAL12aKiosjAzav4ovQQscTGaB6vSJjOBLrsUhiByurFq5h18LIXQXz2BYqLizNGkBDTU9J4O3fulE8+WaO2iwcUy+cnT44YwisgxPdWrJC6+jq1PWbMWBk1apTn6uFEYWGh5OV1PTfqRboU5ccffywzv3G+2p4cFuQTc5/0XGPScBd/59uydOlStf3gQw/JtGkneXIAoKGjZZJntBN3LCOB9ioIs6+h84ZCIbWkqiPjKDItVDvh7WGaS0E4Dzxwv5x37gy1vLpokfJuPYGOxXm9nBPHiy/KXmLXrl2yceNGtdTWJv8fiIi5tLQ0I3PHWKRElBjOaYkHp+NYugJv4XRMb3oRp+ux2K/JPqfwyj7ec8I8n160Z3Q6l/k5+7beZ2J/Xy/dEesY+7YT5mfMJR7iHuh86UtfkocefiQqP+IzTNiuWrVKlrz1lvIKMHLUSDnyyCPl+OOnqm2nnIpjmRRetuwdef/996V8a7naz7GnnHKqHHHEEXsNRvT1PvvsM3k7PHD56OOPpLmpWQIFATl00qFy0sknyz777BN1HI172Y9+KK+++qraTnSgE6uO+ppnf+1rMmDAAHU+jP7M00+r91988QVZuXKlWv/KV86So446SkpKSuS00zv/m7Er+50w9QT5YtjmiNJe1mf//OeI9z3v/PNl69atMm/es7Jxwwb59re/IyefckqkPNwZwlZvvvWm8t4wePBgdf7jp3a0jxMc+1a4TK+99qo6jmPGjxsv58yYIStWrJDVYW0A9ec9E45dt26dvP73v6s2Aj6DJk477XTHOpkkLUre5yGC2TffLH/5y0tqnx1G7Hf/zz0yZMiQKGFSaIR1409viDScne9feqlcddXVat285sNhUc2Zc5/adsIuup6KErjeo488Ym3tzdy5T8rRU6ZITk5OuOEOsvbuzZgxY2T+c8+rerBQr1tvvUXmz3P+BYwJEybIAw8+JOPHj1fl1T+Sf+UVl0fqc/PNs+XnP79VrcNvfnOnzLrwQrWOMK798TUxbUybPv6/f9grNWBw9tNw2ziVi2OGhzu+fu/lha/IwQd3fr2DtqWNzDKZoIlHf/eYjBgxImYbJB3vMOjVV10ZJUguSKE1GOPcGeco8dIIwGt9fb1cOOuCKGNxHMdrEAGVw5MA4rILEg+EeM3jfvTDHyrB6+v1BK5JOUxB4imuuOJKJRjNRRd9U7Zt26YeGGY/5TG9B2Jk38SJkyLlol433XhjVMPb7bdmzRplv4qKCqmrq4s0YiDQGdJjNT7HnDTtxIiNKQO2ovwapsmYLkNIoDu/XZC6/NSJY2J1Irj9ttuiyoQ9qJO2B+Vh8NeVU0iq5ajEvGefjcz9ccHXF7+hvMCTTz0t7/3j/Uij4foffrhTXLyyrUMJBV75wSp1HMf/8f/+pPYDAqSxaUhClClIPjfn/vvDBgw3bPi4U0891XpHVCjT1+sJNTU18swzHeEY8Ap33XW3/Pjaa9U16RSap59+Stnlpb/8VS1m41922eVq32/v6yi/+tyLL0Z1aM5t2k+LEzvddtsvu6wP18IeLIcdfrjyqNhYQzn/+reX5aabfqbKz7U0tCEC5hiEv3bt2ijR4Yk5lrItfuNN1SHtIGZ9rNlGRBDqTZ0WvrIoUifSFFIQ3RnsJCVKVE7OpLnnnntVLkcjsvB7QIQdDZ5GiwsvaVb6v8OVxuD62GOPPVb1aA13Y3SDYCAWQtSkSZPU5zEGBp1x7rnqM8AxhNKeQt6mOw/egpDD9VjIhy/61rdUg5sC1OXRxwHn0WUFjkXEGlKKsWPHRmyA/X7xy9usd0XZK5b3RyT33TdH5eDYhLtVtA/5m7bXlVddpT6rz8+1ojzy6tWqTAys6Cwa6vXNiy5S5+M4xHfV1VdHRaaqqipVL+axcQYaynXsccep9ziWvJu21vz+949Za3uTsCgxDD1LhwW85ISJE6PcMYU/4IADogrP7UqM/emnn0YajPf333//SNgAKjFjxrlKeCz7jR6tDEZeioFYyJk4F7kP/2aA4E107tVTBg0apMQI9G7yP2696pExDY+3xvvgsbXougL7cQ4zdZky5Rhp5J+hLLDH6HC9TU/84T//6egt6cTYAPtzHAvr5M3Y6uJLLlE5H/u0vRBJWVnn71DqW7CwdGnnTw9Onz694ztMBmzbb6RQJ/abzuasr35VOQZsxcI6ba0hNTE1Y5KwKDHMju2dv4WI8egFTpD8ayrKK1TB9uzp/AWykSNH7eXCMSq9nUqx0Pu1san4hvAI88orr1ADiqOPOlLlTSzkkqmGsv3nDTdYWx0ei2tx7euuu1aWL1umGliHvnjAfpWVnb9ZSadmHtIJ3SEAT5mI96cjYy/C5JfPPEOOOPywiL14dRqcIhI8n4bnBDhPPGAHMzqccfppcuDYMcpWeplwSPT33WPZLKnwbfYseo2TsRBRID/6qWmn8OOE7u0srAMCWbz4dVVZs0eSu7KYDZgquD4ehxzMDHdAGRjg0NiUC2+QLE72Q1B46mTBbt/77iXyk59cr7wSqKhm2UsPPOwgrr5CffXZgaREOXBgp7EaGhqUAe0gwPKKjrlHYI4OQxUPKLb2UKimmMfaF0K06Q0J7R9+9LFKwBe88KLcfsevrHdSC8LEc//usd8rcXJdM4cEysVcK+XsDjxPWVnnX4yAkw0QasW2zh9cTUSgetZAD0TpUJR9ydK3lb0YfJw4bZp6z4RrxvLaiYKdyJW7WmJF2IRFiVGHDx9ubYls2rRJDV7sIEASaI2e1B46rPPf+RlR23sLDUvOxRwpC+vkjwxeNIiCRXtUzhEKv6YSyqEfqOD8hGidVvwyPAhhhGyK877f3qvyzHggP9YQ8py8E0JlMlxDp3YSrxPkp2Z4ZoBBPoet9OIE85UHHnigtRU7j3UCgZnel7EAN0GINHrhZgqvZ5/9NbU43a2ChEWJEOi15pQFM/dmgxBqmfXXYQMYDOkBi54u4n2EZ+aVnIeRKZP2LIgRY5FTaai86ZUQrX2w01M45wsLFqj8i+W5+fPVPt2oNMKll/7A+nTH1EpX6BCN/TjWHMRwHdNDYQ9yZz1BDuTn8eZ3dKRYYVjbrdLBXhz3xS92pikLF76sXvUxvFL38vLOCKihzGYnnfvEE6oTUWaO4VVr5O+vdf1XzwmLEigAIzsNecsrryxUBgcEdPllP1LrwPQADaEb5LzzOu4Swa23zI4IDqOQmJuT1TQG+82RG/nc8uXL1fl4j1thlEGTitE33nFieJCluf/+OZEQTf0xtDl9Ys6Tguk1uNWGSCirttHMmTPVKzDZ/PLLf4uy34+v6bibBUyREWn0+92BjYcZEemRRx5W0YzjiTx3333XXp0Ij0iduVWroVPcP2eOOoay88oMhL4dakIaN2tWx50kwFNzHY7BXpyfeUzyXHLxF15YoPY7kfRtRk7IRU0B4QFxyfY7Nff+9j7lZTiW89JrfnL9dVGegOkhRn5mhclLCJd8HoNxJ8B8n+shQCcjrflkrRIO+VWytxmp489+dlPUwIr6MJ1SXr41qp7kbPqJdo5j8GPmwIgUocx98inl+eO1H3bhtpy2H8ddf911kfDMBLX9GwHUecHzz0d1VK7PTIl5bo22s7bXk3PnRt2V0WU3I5+GCXs9Q+J0XXBqW+ZPfxC2j1M7xO0p6QkmCAUPaM7wU2iz0rhzU5DAK73mjl/9Osrdc5wuNEZAPNpQHEPvf/Chh6PmPrkex/B5DGuiJ+vBnANMBOo4e/YtUXXEwyAIXU9G/QjDnG+lzORPZogmzTEblc9wb5/G0TjZj2cHTPsBA0SNOROiob7Yzjw319fn5rzmDYp3lr0TSS849oJZs/Y6Vped43TqZkdfl7YzZ0PMtmU/78cSJHTpKXG93X1Hh56LAMj9CDvNwWYZsc8I9YQLDUXD2o8Bzo84OYanWBhpMoXEMYQQRGgvNNciDK1Y8a58HB55cy2eXCHE46UI45pDDpmg8leuQdl04+n9TmWKRaw6jhs3TuXKTmWlflzj7beXqrCv63bq9OmRzgJ4FwZ8nHvd+o6fbunKfhz7QbiR46kP5bbbl8l27EV9dNuCPXpQLvJafSxlIp3hhsE3zj8vInAzQmic2sm8NvlzLEFCTFGCFo4m1on4HL3ZhHAbT8PbjyU57qrAQKXNuT19LfZrzMaMtT8RtC3M6yZa1lifT9R+idQnln11fTRmuXgPh0Qea68vYmPgp2EWItYDyLruOl2B7uwFXYrSp/+BeHQ+rB/J0yAo81E7Uqln582PfWcmLO5kfhzBF6VPFIyyTU/I4IsUBcwBHziFbtDeOZYH7Q5flD5R4Cl5Ep4pPQY4scCL8hSQfRBJLpqsGDW+KH32AmGSqy5Z8pYsWrRIVoYHasyzEq5PP/0Mx4Eox8S6Q5Movih9YuIkNOaFe0uMGl+UPknRG2LUJHWb0af/wiCGe9i9JUjwRekTF4iRQQyCTHSKJ1F8Ufp0iSnGno6q48UXpU9MyBv7UowdiPw/t7ARP/dQb04AAAAASUVORK5CYII=;" parent="1" vertex="1">
          <mxGeometry x="230" y="140" width="93.62" height="80" as="geometry" />
        </mxCell>
        <mxCell id="yqM9gTFVnC1suYk9JM_G-7" value="&lt;font style=&quot;font-size: 24px;&quot;&gt;API&lt;/font&gt;" style="text;html=1;align=center;verticalAlign=middle;resizable=0;points=[];autosize=1;strokeColor=none;fillColor=none;" parent="1" vertex="1">
          <mxGeometry x="136.54000000000002" y="140" width="60" height="40" as="geometry" />
        </mxCell>
        <mxCell id="yqM9gTFVnC1suYk9JM_G-11" value="" style="shape=image;verticalLabelPosition=bottom;labelBackgroundColor=default;verticalAlign=top;aspect=fixed;imageAspect=0;image=data:image/png,iVBORw0KGgoAAAANSUhEUgAAAVAAAABxCAYAAACDb/v+AAAAAXNSR0IArs4c6QAAAARnQU1BAACxjwv8YQUAAAAJcEhZcwAADsMAAA7DAcdvqGQAADOgSURBVHhe7Z0HeBRV+/afTdkNJZQQIBRBUZAu8JeOdEFFQNqriCigIpZXRDoWijQBKYpiBV9RQemigtKLFAsgTRAVaVJC6Anp+eY+O5PMzs6Zso2N3/ld11zZmWw5W+ae5zztOHIkSCAQCAS2iZD/CgQCgcAmQkAFAoHAR4SACgQCgY8IH6hAILihpP1xQL5F5LqthnwrfyAEVCAQ3BAgnOcn9KScq0fkI5Igxdeh+CEf5hshFQIqEAhCTuaebXRmfBtyFKxIFOmUj0pkpVNOyjFKGL+ToqrWlg+GL0JABQJBSLl69Spd7luKHLGV5SPewCot98FxchQvKR8JT0QQSSAQhJTUd0a4LU8D8P+zYx+W98IXIaACgSBkZJ86Smk/zfWctush/T/z5FZK+3aBfCA8EQIqEAhCRtKWb4mi4+U9YzDFT5zbj035wxUhoAKBIGSk7dpAjuhC8p45mMpjyh+uCAEVCASh469vzKfvaqT7YsqvzhUNJ4SACgSCkAD/py/ACj0/7Ql5L7wQAioQCEJCduJp+ZZNJCs05/JJSlz4tnwgfBACKhAIQsKFXVv4ASQk0KdelHe8ccQUp7TFQyjnYqJ8JDwQAioQCEKCI/G4fgBJEk9njTbk6jzCWEQxlX9/jLwXWK5fv06Zh/aytClYuqiUsiLWohJJIBCEhJPdC+hWH0E0nXc/R6X6DadTfWszQeUFmlChFIgyTwhm9LEjdHHPFkrbuZLoxCb3PxQLOeM8++O8bwwbFw8hoAKBIOjAmjv1ZAWugJZ+5j2Kvuu+vBp5XpknxLVgcSr37nb5gHUQxMr4dQcl/fQ9ZR9a6xZJSTCZVWwg2KUHLmFj00NM4QUCQdBJTzon39JBErLsMu7Szqg6TchVv59bKPWwEVCCaGds+ZYSX3+WTj1alf4ZWJ0S5w+jnD+3M58qRBp/eeIJ4DZIWjJD3vNGWKACgSDoQMjOvvOUW7A0wAIt986u3MYhRtaqgl6zETwuC9PyrV9T+i9fu9vkmViYVsD4yi84Ie95IixQgUAQdC7u/1G+pUGyNB1Fy3sIIW67uk8zDSidfnMYS7A/N/d1OjnoHia6mP6n/7jUfR8LFqYp0vhcdTrJO94IARUIBEEn/eh+bgmn85Z68q08Sj70LBNWw6m8NBVPHHEnpa+ZTY6kv92CCavVH8HUgN6kxdv3kve8EQIqEAiCCiLejjP7dYUtJyOZqGJ1ec+T0i+8xwSMi/R8AbEyeUC8K3VgflkeQkAFAkFQiUm9xhfCjPNUvGpdeccTpCohoGQ0lfcJnlWrAWMuN3KOvKePEFCBQBBUENgxIqJkGfmWN/H9x+TmZPqMJJgQYRZUkkDSvpmIKvmmZh3xhYAKBIKgknP1Er+EUyKi3C3yLW8gYCX7zbVnhaoFU7oNwSzZewqVnXWQys3bS1SoqHxHffA4vKaVZH2RxiQQCIIK8jDTD6zz9lNC6ErcTOVnrJYP8Dk1oDFRiiSier5OPA98qbKlGlHrISpRvx1Rldpeq3siYp/+7RhuihTE06z6SI0QUIFAEBRYueTh3XR2ej/9AJJkJTqbP06lnjavb0ed+pmXG7qFTyOYUeWbUUTtthTX5F5Dq5Hlos7qxhdPaTwRVdtS2dHz5CPmCAEVCAQBA8nsmft/osT1iyh730J3IrtO8jyAYCklnFaAJYvmylg73lmzFRVvdj9FVqxs6qcEHgKshyTKkXE3UcLMNfIBawgBFQgEfgHRTN++lhI3LnF3nLdY/cN8jZN/9ppm84BFi4i+FcFUY1rZJFu06mooqwgBFQgEtkFjDiwQl7VjOVs905eSSQho0XnnKDY2Vj4SeCC6F55pyESSNza7Qq5GCKhAILAEyiav/LyR0jd+Sjnn9/hXZw5B87Grkh3OvHA3ZV04YSieCS+vM0yWN0IIqEAg4ALf4YVtqyhjy2dMbPwSTaAKACFabidgYxfmM93zFd8HK70f1NyjbNRXhIAKBAIPMO29tmIupa2Y7I50B1A04YeMvqsXFW1+v09TZquYpiulXiRX095U8rmJ8hHfEAIqEAhyUdrOAZ7lZgmVaNJNLcjVsCOVuOs+w6T5QGGWrsTGllCTyk9ZLB/wHSGgAoGAwdYDmtuPLzxmqEWzUgcq2bIbORu3tR3Z9gf4adGhyUg8YUnHvbOTChQoIB/0HSGgAoHAXHh4QDTlRiHwaZZs3YOiatYPqWgqsHSlZ+oZWs6YuvuSrsRDCKhAIKDE2aMo7Yf5lqftECKAZsPol5lxe92AWHS+wtKVBrXml3tKsIh7ABakUyMEVCAQ0Mlh3bk9O7VAPBOGf+Fz6k8wwPjpxE7DiLvR4nC+IgRU8K/mjz/+oMzMTCpZsiSVKFFCPqoP7qumXLlylqyqQ4cOsb9WXgMkJSXRX38dpaysLIqPL0G33Xab/B9Prl69SqdOnaKoqCiv+yivWbFiRd0xKu9bS9WqVeVbntgRUIY0dY9u2Zfi2/8nJIEhI6ys5Om4tXFQUqaEgAr+tUCAqlapTbGxhajZXU3ow4/el/+jT726DSgtNY0Jm8LUNyZRx44d5T1vIGRtWt3Lbo8eO4r693+S3dYD08zXJ0+hhQsWyUeIjp34k/bt26crojt27KRWrVrSiy8OoQkTXpOPumnYoAmdPHGa9u7/WVe0n3i8P23dsk3ew2eRTM1bNKEFCz+Tj3iCVS6RtmQn8s6m8XLAqHTHfgG37uxgtp48/lfuE/dFJ5CIfqCCfy1vv/0Olb+pDJVOKEW//LJbPqoPrEJYbLjvQz17MMGNK1Gchg4eyYSPx7Sp06nizeXZdvDAQfmoN3iOrl160IoVX5PT5WSvgS2uWIJ8D2/27t1LFW+6lRo1aiAfcYMLwzVJEG+vehvX4j116h8qWqwIe40+/XrTk/370GN9HpX/6w0sSSaGNoDYwuqD5Yq0oZM9b6Jzc8awMs9QU6rfZMPlP5AdYGUpZLsIARX8K4Egzv/f5xQXF0dly5ah9LR0doxHYmIiu0+lSrfQmLGjmbUKSzQyMpJNo/X46aefmZVXsWIFio6OlgRPmgJzGDliFJ09e47+7//q0s4ff2Cvge3Q73uZq0CPY8eOs78JCZ4d2w8dOsz+1q5dk/3VAoE9+tffbOx4jREjhrO/99zTXr6HN4hKw0fIqo3sIll9TEglQU3f/BFbfx2rZCIfM1TA+kWXJmaF6oCxpS0eYngx9AUhoIIbAk5yCBp8dfgb6B/29OkzKTIqkh5/oi9VurUSE0P4HXns33+ACU6zu5qyfYwrPT2DPY4ncK++MoY95sXBg9j+P6dOs/elBc+1etUaiolx0VuzZ3n4LNFIg+dn3brlBypYqCAbA8Ra2Xbv3s3eW/Ua+ouxQfBh5ULY1Y8zAyLElhOGiHKEyIxcqzTpb5aQf7J7AVYVhDSpYFN6wBvGi9BFx9PVBW/KO4FBCKggJEBE3n//A+aba93qbmrapAU1b9aaOnfsxv62ad2Oej7Uiz7++H+GlqIV8FpLFi2ThCmGunfvRpUru/2Lx47xTy48BlPeLxYuonvvuZ96Pfwos0gx/dUTuNWrv6Pjx05Q4yYNqX79O3OFV7EO1ezZ8ysT2k6d7+eKpRZcUM6eQaeiwvR43/7Uu1ef3O3jeZ+wwFLt2vrpOEeOHGHvHRYs7v9Apx703rvG/l8F1IUj1QdWpT9CyqxSWUxRUnlx9gssTzOYsKyAm1oYWqEYSyDHcUOCSPhxpGZG0dEzF+QjntySEEcxUZmWf2zB4NrQB+RbvuFwSmOPKUyOInEUUaIsOeJKUWSlGhRZuswNSTK+USAQMmvmm7T31/1UOLaQZIXFsOMQFC2wtFJTU+nypStMuDD19IWnnnqa9knT6QYN7qSHej5EGzdupC+/WEKdOnVgU1k9IN7//HOavX5GRiYTrl6P9OQGhXARSE5Opi5dO1PLli1p4YKFtGnTVnrp5RFMtNXgwjFrxmwaOvxF6tPnMfmoMQhOdevyINW+oybdfnsV+aibzZu3MnFdsXKJbvBp8uTX2ftt3rwps1IvXLhAderUMZzC64Ep+LnPXmOdlxwFK/IDNDwkIYPvUds0GRcfu2OxilnjZAS+rHbBt0JIBPTi1Qzae/Q0rT+cRL+dvUwnr2XL/3HjSrks33KTlZFBkdHRbBrSqEpZ6lynLNWrXFr+b2jAjydlejdyFL5VPmJCRop8QyK6oHxDRv5fTpb0N/MyRZRpSNFNupCzVacbngISLGBFDh82kn788WcqXryYrmAaAXGC//Kt2TO5aT56KMIDazI1NY1SklPYNBiCCF8oLwrdonlrafp9jdasXUVOp5NNrXksXryEJk54nU3Jr19Ppesp19nr4T22a9fWS6Rx/wnjJ1PVqlW4r69l5cqVNGLYyzRw0HNeIl6j2h3sYnPod32fKy4GuGBt3rreUlqVGRClc1/MMO0wrwbWKyqTyjw/JddgwHcz6IUh1LBhfe6FLBCYpWRhbOU+OB4QQyboAjpv7UH64Ocz7HZclKdwgoy0NPmWJ5g+AYgpqFiiIL35VHsqHhvN9kPB1WdaSh/2ecMrr6NgEXIUKua2OGVy0q9TduJxyrn8mzSvKEqOSElQIarK82CKIYlqTtppiqr3CBXoN+pfJaSwOp8e8BybRioWpy9AJK5cuUqLFi+wLKIQD/g6297dhvkAASywr1Z8zW6vW/+918wGYt+0cQu6pdLNtGq1+348MHuCuwHi/J8HuzGRB/+c+odWrfqO7WufA88PNwUs8HvvbU+P9O7Fjq9fv4G6deuqK3KwIj+eO59mvvmGh7WmjLVuvTu4Yox0LPDOnLdyL1wIjvkrpqyJ8rIPKG3jDK6QKqlN2h6beD8I6sEoGvfaq4apYf5ipR7e2aCr352YQFAFVBFPCOeFzDx3q1pI9QRUEU81ipCuGNUlZCKK5gppn7wkTcWLyUdUpF4i16MTyHVfT/mAPsx5/vteSv/6PUlUD0k/unhPQcY059qf5Oo2mWIeGSgfzL9gevbC84OpbDn+Wt92UER07brVpgIA4e7z6OMs/Wjb9i3yUTdNGt9Fx/4+SZu2rPESYzyuW5eHqE+/R7zyLbVgOj592iwvAVNyTsGp097BKlihL48azaxhJdcUOaAQdz1XFS4Emzdto3UbVnkkvytjRVqSnhUHX+799z3APgO4QpTX2bBhIzVq1FC+l3/gIpLb7k6CtbqTQADHVb8fFX5+Wu57QvBqyOBhzDVSqFAhunTpMk2c9FrQpvAK3JVAZWCFYpljfw2XyDES8u2Agg954LJDueI56b7b6MV2NahJhVj6fu8JioyKsi2eYPvB49S1iadPKFhExidQ2ldvStalznQuM5UiqzalqGp15QP6RMWVoqjKtcjVoQ9FVWlCGT9+x0STIuQprfTXEVOSMvetoqzDh8nZopP7eD4EJ/eA/s8GTDxBREQEORxE237Y5uVb1PLpp59RQkJpevyJfl4imXg+UbJIy1PlKlWoXLmy8lE3iMC7XFHUpk1rQ0sXv2n4Om+rfCsNGfoixcfnrXXucrnowsUkqly5EtVvUJ8KFvR041SvXp0aNmpAVy5fosKFC9Ht0nR+wIABLAClx+7de9hzdZPeM1KkFJSxtmzVUnesEOQLF5Koyu1VqGq126l6jWpUu1Zt6tL1Aa8x+QrGU6hmAyrS/UUqULoqJR/6UTJPsylh2CKK7T6A/R+f1YTxE+m1sRPZ+8XnA65dS6ann3kq13IPFgVuqU5XV04kh0v/ouuIiqXkv/+i2JZ+xjqCZYHuOnKWnltygAlotzplqW/bvJSLTXuP08SV++Q9T8wE9OzFS7Rjat+QWaHcabxkgToffIViuvSVD1gDP6zMwfdynzOqcQ8qOPB1+UD+AVPLVi3vZqWJwUAJ2PgaWBKEDlxIXxw0hN3WunAQ/Pp51w5bAWL8tnxxP1ixQn1dC0khaGlMV6+7rUtYn5VKFWa3FWILuHSF0kw8FbbsDnxJFo/I26VpjzpA5Cf44RSesEj/OWOKUcbGN0OagBwoHun1GAsWmYGpHMQQG25bBSfiW7PeZSeTIHx56aVXWNoVrFA9/zeCbXaASwIXZgXklKLaCfXvMEaMiO8/xjAvFJkFiW8Plvd8I+h5oLBAEX1X8+uxJOZMVmNVPIvFRMm3QkNEBf3mC/6A6F+BZ2dTTvI/8pE8EPW//tHL8l7+AP49VNkYRdoV4USUeuiwwWxDXqQVIcV9EEHn1X0LwgP4gZF/i3JYXppardo1LVufuFj2f/Jppg1KgULxyrUofd3rrHlIUu84FnFnsQqdRH2cZ842w3Nb73kBy/TEJpZl4CshSaTf8fs/NHrRbvpq8z7295PNnsnGVsUTXEr17jATTCLjg5M+xUrPCnn64hjSl4rovT9faiiBFTB1yhtUrFhR+Yg3EEDkZK5d9x0LfMCXiQ3TcRxr1bolCy7ogeoeTN0RsBHiGd6kp6cbXkQzpHO6gI2sDMxqcHGFsXX27Fl2LLtMRfaXVTthO7OfEucPY1F3NBTBtB0zOCVZPrbPcJYVwANW6Pl3fbdCQyKg0S4XE9G3txxnf9XWpx3xVAhy5pUXLH8zCDjbPsb8nlocrjKU+fMGeS+82bRpM0s858Gsjlo1aeasGbq5lTiGyDdSgiC0CorF+vEnHwm/Zz7hyJE/yBXjDhbpgd8Cr/xUC7IQLl++zNwAqLr67bff2HEvf6VkcCgVTwA+T5SQnnqyAhNUZAsgH5UFbvWQHo917eES8IWgCygi7fCDQii12/VryUws1YJpJJ5p16/Jt0KHI9bcr+crkRUr64tzdEHK2LZM3glvVq9aLf3I+SfNxYuXWMTaDIgkchVxkkE4kcP57aqVAUu9EQSfS5e8jQE1uNBWqODOzTXihYGDWC6v4kONjo6SpvN5VYvc/E6gFlRJNJFqlfPndnacB6zQM/8bJ+/ZI2hReKX6yCpjFv9iSTwxhZ/SsxF1bhG4tvxG4MqUPKGr93Tbxyi8GvhtUke20Z/KS19+kfn87j7hAurGU1JSuFM3RF13/LjVsLJHAQGDWrVq0ejRY4JmdcLlgGYbaF2nuA3gftBrWnwjgN8P4oG6/WvXPA2GEiXiqFq1amExTj2QI/vRh/NYvqceuJjOeXe24UVRKUNVu4RwUUU/A6Wfq1l03Rd8zQsNiICy1Byd7tf4UVrlvkmrbQsoHMva17CTHmGFYAoo/DRX+tfSF1Dp+WPn7Azrunl8700aNzeMvkOkUBFj1ZKEiAZaIFBCuHnzFlq2dAVr86a4kBTRxwmalSlt0l/0Ab3n3vbUvn07S6IfCPCeUZW0cMGX7IKD8Tmd3ml6sOCU86xjpw7Uu3cvbod5f8G5deDAQWZVZmRIlpw0YwQu+bPDfp06d3h8V7AcUbqrF30H588n0YaNa7i+bAjw7LfmeKXC4XtBDqtS4eVL82czfF2mxGcBhYW5fOcRWnXonFdtu4K2xh0YiSQP9dQdAjr14cbUqu7NFHtlCOVEeF6FcqILU1ZkI4ou3lk+4h83SkARoS/y/r6wF9A76zViUVce2h9/qMDYvvnmW2YRobkwkrmRWmMU5AAYL/yvaFjc+7GH6dlnnwmakCJfEo1Wdu/6laX3QHjMxqeAMaLSCN2g4CIJlJBiTPPmfUybNmyhAgULkMPhYFNoLeiGv/yrRR6FAEpDFt57gGsGQUO9zxOZHKNfGcf9LeHCotT245w0XMLDByCg2qYnVvBJQJEk/+oK/UR4BbMadzV2/J5qAS18bRQTTC2OjGuUHVGCIkv7X2QVLhaonah8hPQDtTMVMXvurKhIbrIxuhJBdIxOfJzsiMIjkBQKcDJOf2Om9Lpp0sla2LIoacEJD6tv7LhXAlq7DYvzlZdHSxbebz41WlGDz/58YpJu0xE7wOIcMmQYbd28jeJLSueOyZhgTX656HMP4UaTE54AKr+R9RvWyEfygGgjd9TosfgNbdy0js0wlfPmao5koKEmH6Wkfk7nMYXX1u9bwXYQSakwMiJY4mkFiCeIzDxNaecCv4hUIMlJMXh/McU8rc/Ua5Q8siElv9LOeJPuY5eLaxfqPzeOSVt0AX4JIAI/ZsCyQqs3TNGCCfyHsILQ+QjWJvxo/ogTfHl4DnRFQoJ4IMBngFp1WGqYqvozPoDHQ3jmvPM+m0L7AgS9bZv2rAUgnsvKmHAuY0E7BSsFDnq/FXf3rIcMxRNdshBQVNxzOC+KLjrD+paiNR3EEwLI8j150XYzJCHG0sx2sS2gsDzVzUCsoieeRvgjngBTe2fqRumGfn5hOJCdyAmyST+CyHK3yztucGVEwxF0doLFqrvFxFPkbe1tO8Lje0knHrpGaZ4PFJq00/D5GjSsz6wDM2BpoScm2rQFg9Wrv2MdjyBM/lp1WnByr12zjjWD9hW4FPD4d+d8wHoFBHJ8AO95+/adtscI4eva5T/sIsfzXeqBZiXqeAOWREGXfB7IAUUPATUQ7od7PsrWdtID4olGMrB09fymWN8dfT3LzdvLAkCuziMoJ6GmbTFlJZ29p/gUP7EloKhhV3dV0sNOgxCe9WlXPCGcavFUk3Fus3wr/Mg8etjd6k5LRgpF3tlO3smDdWvS9hpVIz0u6o5W8o51cEWPqiI9Tv2DS73EBBs/UiNat27F/IVWgBDBmsOULZBgyo4OUFatJ1+ANbpv336frDyIJxaUO3jwN8OCA39Rxjhm9Fj5iDlKCa6dzw3CprQKVPj772OGQWM8JiEhbwE9CPfj/fozFwsPuCYWLJxvKaiIizy66Zefspj1+oQ/E0sZMzHlCaq0j/857xtj2lWNhy0BfXvzX4bWpy/dlbTYEU9HdrqucLLj0gYi6Bf2NxzJ+vl7XUFEn1Bng5bynicF+k/RLQH1l8hqjZgAM6QfliOugqX2evhxN2vexJIVCiByaDlnZY0eK2AJELSJs9MBSvGpYcNtq0Cg4IrAa1pFEU8lKdwKyvjgg7U7Toxx6dIVlix9uBPQvcnuRQfWpLZL/pkzZ3SDTQrwJSv+UnwmPbo/xG7zXhtBoyXLvvApOAaDAMEgrANfYv4F5tt0Ne1NVLA4E1KIJvuNSwKLZiKl+vmeMmdZQPGmUwzKKHl+TztYFc+76lal2IL6SbuKcOZkuU/oyBR3BUO4AUd45sHlzH/jgfTFGk3DWQkoeopyuHrJXfJmm0J5TR5yUs9TTM9h8p45Q4cOpgtJnHpjHSB2sD7g//KH1dK0ffLEqZbEE2KEkxJihDZvKB/Fhhp7BESQbmVFpGCtTX19uiWfH/jvcwMtiSdeG3mSGGfdunewPgFYEK9P30dZ/wBkMijjNwO+1dGvvpZbP64Hzmf4TSG4ZmBs6g3BubKaloAQUCMhRvqVYn336/sEex9G4vnRvPcDklmAaTncX2ieXO7d7VRi7u/MQsUa8RBYfzoxAcsCijWMeNP3QAWNrFCtVCxrZZeWtFY+4kZtdSriyciSRD/rhLwTPqR98zkr2dSC5soxvYzFy9l1MJtieyFZszEHfStJo+Qr8g3ps5QE2k46B6zQEaOGMiGyCoToPz0eZn4wX8DjrDRuVoQTYoQ1hNBo+b335rDyUWyosccyw2jyC5Hi1eSrQcoRVv00A0nhu3btMRRPCBLGB1F//4M50li2sWwFFBIgqo4N/QOQBobxQ/RxfzNgDWJdfB4owUWKkhHKZ4eLjHorXbqUV0XRr3v2ssCdEVjdVFtlpAW9D96YMSVoFWgQVI/grJ9YFlBeVVGgxNOK9YkUpld7t2a3XRk7cnNAFeEEHuIpk3F+j3wrPMDSCGlLRrBIuweSKEa3fN40lcLV8n79ElDJms0+vZNZt3bJOrrf7U6A77PnS/JR62CxNCR346SzAqwPiCgCGL6IKLr08CK3Cjj50YgE/SchRDxfGk4qdEiHSD0/8FnTCwFOfnQdMrJC4aLAEhZGPk/FCkO9P0Sd11xZAeOH6ENgzMYIyxJLgsDS1GPH9h3S+zAuwUXj4wO//couMuoNn5O2ozy6cRmBPFwIOgJdPKsX4jn1jUlB71YfSCwL6GULV2YFq+IJ0VQ2IyCc2BYM7swWl8u+OFv+j+eUXSueDnk/28HvxhJq8INOntDXe7E62e9opZky8/E0e4w9Rgus2vTtnta5FbL+dPuKIczOxm3Zbbvg5EbjECvTTKCIKKbzVqfEAL47CDVvCgirDpak0ojETnQVF4IpUyeZWnmwQrFMBg+sGY98Sh4YP1q7ffPtV6bCqQUCgzGaiSiWD4Glqcfhw79zLUZ8fw8+1N3yCqL4TePz5n0fABcdrEvFE0983uMnjg3qWknBwLKAaoHlqWd9asUTwokNneSxMFytOMrd7ixX2NKG0s09M3rnimdEijuJX3fKLqOIJ4i4bt0/F0yY31OvGz2EMCPF3WjZIs72vdh03wvJisT6S3ZAIj0LTEljgDD7M8V5a/YsKlq0KBMxKygnHYIKRj47BQgt0qGMfHdK6otdYVKAQCEx3ciaZlbo4qXynicI4Jw5c5YrKHjexo0bMqvTl9QZgDG2bt3C8GIFCxOWph6ofuKNDyuNtmnTRt4zR+ktYAZv2g7xxOdttmRLOGK5Egm9PNGODq3pgFXxjIvOokHdm1KL2uZdWIxIv/ITRaUvpYi0vK4sZsLJyMqkjOimFF3RvCOQHoGqRELT19QP+rktT5V4Qrgib25EkeMW2D6ZeMuNoJ8o8jfNUpAUUmYNp8zti1j0P2aqf0scAIgcIs/AyCpRAyGA8JqVfCJF5/vv13JPRkwDl3+1OCABCLMqK4xZb5VPLGDHKxvF8wWqtBWuj84du3FdGcrYtdU/+H6QM8t7HATNagMYgGAg/Nm+LOeCiwn80/5UUd1IfLJAeX5PNRDPVvUq0/JxPZl4QgBRGQQL0s6WdXYM5Zz+L0VfkixPO+LJgkfSlm7cYstfMH2BZand4OdEY9fE2aPoSu+abHVPR9FqeWInCTCEzvXwJCo8dblPlggi5YiYa4FIp39nbf1xjB/LiMByRfTfX/EESHr+aO77rILEqiUKQURKjVHFD8a66MulXPHEydinX++AiCd45tkBhhYeFkiD9aUGOa6w4Hiii9xGrHUfCOATrX1HTe5njDHgf/jc1JglvQM79f9Y6A5LWPsC0pvq1rVfARQu2BZQK0EjiCem6GN7SB9M1gnKPj+SopM/oeiI36V96QdnsDlSD3tsEdluP48jMu8L0vN1eolnsIkpRulL36CMvjXo6tMNPTZWp/tcdUp5sx+5ti50iyYCNNJUHRYnhNN5/0AqMve4X7X0mXe20k/El14PogghNyNiw3LmN4UQuzr5XmmjBSf35ws+MfUlqsG0fPnSr1h6kh5r1641bNgLBg58Xr7lP+g2ZLVIQAGrdvLEBGL8QNdO3GCWL7S/B2vU80UeFzG0G1RjlPQOwYUo2wEXPl9BIj2WPdaKfH7BsoAWNYgm6gWNxg/ogrkk5Zybwvb1mn5o4VUTWQkUMRSrU0sRTcAmyLBySzlFCUEZ5l+URC3qzg5U8Pm5VHTZdZak7m86BaxWCLFeShNeP22j+TSR+Ush7hJ2O9GYAUtw/mcf2xJRBF7GjR0v73mybu165tfTAyKCqaCvPkU9IHQVKt5kaOEhWq0AETBq5waLFS3oAkmNGjUoPZ2f3aLnoTNKekeSfKVbK8l71jh27DjX4jYDj8NrjhwxSj6Sv7AsoLVvKaMrlHp+z75tarJczexL8y0JJzCrKLI0ZdeC6XvONcqJ1Ol25C9IeK/SmPlB9TbXoxOYWBZ67XvWlq7Ix7tYhD3QIuVs1Yn5Lr1AMGnFW/KOPggeIe0JwSNX55Hy0cCCQA7SbqyKKE4oJGprK2msiBPKSgONdg15LWpxdTdB1rdYcT/4CAPlXlBAgw6981IBfUWdTk8f+d9H/zYUPKPySj3++vMvwxxQvHcjKxnf6fr1m4LWJyGYWBbQmChvgdL74pCSdEfFEpJwXWZTcCvwxFPBpym7yvfpjPUsOwsIqDv/v9ZsCq63obYWYolATiATd7WgYimq+gNM0D2QLF5YvgiC8YCfFP5SVjoqCXGwQMR47GuvWhZRnMArlnueTPA1molTIKfGCkaReLyuOs/TyBcIK6t582byXuiAOGn9mSdPnuIKHt5TDYvrFikYFR/g+ZB8r6zAygPf39DBI22ls4UDlgUUU6PyRfI+dD3xhPUJbkmIo/Srv7PbRkA4jcTTpyk7hFMlnmmO2tKDgtPAISeNf1UNJa4e/9UPJsXEU9pK/ZZ+8I9mbHXXdEfVe8Sw41IgQIoKUlWsVPrAOkIFjzqtCTmPRs0qUB0TDAzFITPLY0xGBQEQkptvuVneCw14TT1LEw2meSCoU7Kk9c8S3xGez8iiBcjHjYuLY2PigayA554NnA87FNgKIvVoUJE7XVDE0ypBm7KrkabvESWCZ1mFC6hc0q2Pl6zQzF2f6gaT4B+Fr5YFjzr6HsiyA1JVmjdvajidU0BeIZbJVUCqjFGzimAIKKwhI3FAQKt48bxlJRCwMROSUKP9XCB4Rg1E8LnbSUfSZiFoUftUZ8ycZjgLwZgOHz4S9L6xgcSWgKILPITSyOdihq9WZ654WrA61USXzl+VDb7Cq49nwaRvPpf38mD+0eiCTHjtduH2h0mTJ7K/RpYIwMmEmmkFM79dMEA5plG0GuKk7lOZrFkELhQYpSRBvO6o45kLjIuSUWYB3m/p0qXlPXNgoRvNDPA5YUE4AP8v0syMpvJwiUyfNsvvRjOhwpaAwpeCAJHW2rRqfYbE6lSQrM+MsvkzsucL3Pp4pFt953lFh19UqTxiwhtC4Ap6dfTLzFqzw2kWOeYHKsxqsX1h2bLl3IAKxKlFy7vkPXMg/oh+BxqzlCRMm9XgoqQsqqcF94eA2ckBPXnypOHMAGA1UQWrU/l+fZ/MF6lNtgQU9G1bnSXIQzSVTQ1q1vXwy+oENsUTvs9ALSyXHzCqj8c0XR1Mgl8UlieCRxBef/ClEUiLFs0pJVlH7FXgBEOdvMKe3fzSQ8VaDeQJh/eFhdV4r4mAlrbcsVgx/uqkEP9NG7fIe4EDSx/zU5K812E/c+a07oqfCnZdIficjGYGKCqoXNlz8TcrU3kwfrx7thLO2BZQgAT5IfdWY2WaqHFXb1qsTNkBE8x06b7yxgTz+vm8DWKZdtJzk4RSb0srOYBc1fOPHyVQ8OrjWTBpkTulCf5Q+EUBgke+ZghgioX1h3o9/Kh8xDpWczXV/kWzhHaIBa9xhi9MnjTFsEQS4q6ttUeQiGdZQRTgTw301NRIwODPvPnmvHWLQFISP+kdVrW2UbIZVmYSJUt6/sasTOWRPbDyq2+4RRXhgk8CCjo1r8XKNNHkY9uEbh4bckCBIpJq9KbsEM+r8R/S1dIfe243LffcKqw13ajGTnKVCk1QJNxAylREmYbeViiCSQeXM/FkwSNUHklCi+i9XXDCoqfjA526s/WHIFx2f+QIZBhZLRAh5F8q/kWIjnnpYWGaNdM479UqCGIgC4A3RojGf59/Vt7LA8JglNQO0Z02dbq8FxiOHv2b69rQZgmAPbv57wtoGyWbsX3bDkPXCtK6UPuvBVN5VJ4ZTeURzBo18pWwTm3yWUAVYE3gh67eeBhN2V05hzy2mJSN3A3d6OGn0dv+f8d5/1PMt6kF+Z7nP5tBGWv+x4JHEFqrzUYAfsRo5IHmFUhoRyNjnIgQrkkTzVvwqVmyZCkVjuV3U9L6F81apQH8H35QfyO4WK5j9ltzuH08ccLjPet1DkKwxEgQMEYIs50lQbTg4qN+j8eP8ZuFYyza3Fi4HniChwIG7ZTfDEzFed8NXh/+Tt6M4/UpkzwqufTAZx3OqU1+C6gV9KxOLc5zk93byRFsi06a6d7Oj/faQtkgOeeq8RccbmS3ekC/MkmyQl07v3J3b0LwCEJrAfgV0Vm9Vcu7WRckTGvV1UA4eZCWZFW4YMFOf2OWYTs6LA+iFqjExHOGfjsFiJ4/K3/ifWJsRmk8OOFHjtJfQwfGA9a/NxJRjBFLgmAhPLvAEm/apIVHYAgCyhMwrJyp5cgRe1N+I6xYhrwLEYALpGvXzoZTeYwVqU3+XHSCSVAFFGJpZHV6BIoi5amGs1jeBhyFPbcQk331sn7DDqBaBiNcwNU+vc0g3ZQmiCirUMpKYUJrBsTzznqNaNnSFUxUeGWUEENYbWaisFqa6qMDvZFAQXya3dXEw3I6cOAg96TXAoHHyp8QQ6tBJaQr3XvP/bnvkwcuFOjBadQxvXuPbqwfqREY47ixE5grxIoI4T54P926PMj2lfXYjR6Lz7F69WrynhtYr2bVYEYpSVqMIvpAL41KC5YrAVYuOuGY2hQSC1TP6vSKsGuj7GknKaNQB8oo8QKlUSXpScyd1cEg5wLnBydNg9kyGGFIiS5P6luhICudReutBHJwnx7/6WpJvCA8iijgh66IF05atHh76qmnafCgYYYCBdDubchQz96tZ07bS/+BQEEM27Ruxyxj9XgUID4QdATC0BEfHYuMrGLlBFfyWHlAXOHrNBIEgM8BrhBY9nCNYCwYk7LBUocljc8TvTvRzV0JainZCWY5oNp12M+ePWsoeMBOOSzeo9G6Svi/leeb9eYM9r0bgSYzzzxt32cfbCw3VLYL+n86k6ZRjqoNnYKXeGpJv8TEU90EGX1BI5O2MCHNiH85ZAnyya89SVm/b3dbb2okIXLExlPsO/xlHW4kyS/1pKzj+7zGbbfZMsQHlo9y8poBKw2pK5hyw2JFwAU/MQQTeBasAh6LFSgVq0QB1iEEzqoVqoATWBkPXl8RSOUYTn742MyeF8+DqfvSZV9aEgRYtL179bG0WijAeOB/xBQaFiA+L7wmxoyxqT83+IM3bV7H/P2rJdFFkEVvmoxpMdY0Ui/LgQsZRIg3rcZjsKidVXBx+ujDedwLD8aKxfqMLHYF9IHdsH6j4W8EnxMW1cPSMeFCSCxQBY8pu57ViVQlbJJIRpd3dzRXyCrQ4YZYobriCaRj2YmHLPXcvBE47+ntXR8viT6aJtsJHiGybNS0VwtOAFhIOKlw8uNkxb6ZeOL5EdwYPsJ7RVIrtdZ64DEYB6w9/MVrYFPGiLFZeV5YR2gQbdU6g2/PLE1HDcaDsWCcyueljFn9uWHsEHwlWHr8+HHDHNCEhAR5z41R0jueG+tZ2eEfk+8FF4TbbrPWSvLll91FLxgHD3wWRv1ibwRBE1DWAUklkFasTjXaQFFOat50ObpUc/lWcGFrBek06VCAb9SXBdxCgd768azu3YemyS8OHmS5k5Iv4KRRRErrWjDy89kFJ7sdIca4sETIR/Pet72+EtJ00GoOVlMgUacEmdW0awNCRo2P9ab8Zhh1dQJIo1Ln8hqB7336jGmmU3nMhEa/Ojagvwt/CJ4F6ijK1iJiifFG4qlYnWochVkEHm4AtMXLOLuSXInvsn9lxd/LnjsUsHZvek06FKILUsaGL+Sd8MPZ/klp3pP32ULw0cXeLhCPbj26WLao7KCIJ1bQ1LPwLl68MQsCuqfVqWx9JV/XKJ8770OqWLFCwD43bXoXKpt4AoZ+FdoE9l9+2cWdCeB70FqsZhw8+JvhBQnPaZTWqAWf893tWptedPCaw4d596+FqMKtgIg9/sLvjduK/xuuFbgxAklQp/DwYWbF1nJXEvGm7AY4TzwnfUvtWOoSyIyoTJGlx7DbwYa1e8NaQXrTdwXpf1l/fGfYc/NG4urwcF4wSRJSdK+3EjzSA34npM8E0qJSRGrJsi+4Ft4ff/xp2qwikMKO54O1jXSkteu+86sBMj5rrKOOFTjNliC2AsamTmEyskCRwqQVr317+UFPTPntvFcEB+G35YGx1q13h7xnndfGj2OPNQIXgV9+2e2V2oT327v3I7R1yw/sLz7/LxYuyq1Q++zTz2jjxsDGLILuA4XgZZR5Ps/SVETTRDwZqrQllGdGVXOXIIaC659MY3/ZGkYGG0iZKQl9GIIyTZRrwvcZiKbJXy5awFbO9FewFJHCuuhmImVU641xDBk6iIYOG8ym2v6IO8ak9P5EB/2Zs2bk+hr9Bc81YeJYJqK+fnYY3+VLV6hMGbeVCKsKoqcH7gvLVwsebzTl5wWX9EBEH4/hAWvZlxaD+MzHjhttesGBnxipTchWUAPRRGaCYijAYt+zZw+7X5u2rT0uQIEgJEEk1tSj+rq8lCSDOnb1hvsi4n4jyjOdLTqzaDWW5DDcpPsUfGF27jQhnMCYMve6k8oRPPK3aTJ+3FiOt0vXzrYFCyc17o8TAx3K4VfEuuhmIoUfPu+kR9kkmv8i6f6H7ZtYBB/CDJHC65mB++C+GBN8i2PHvUKbNq+3FDW2S8eOHWnnjz+wyLjymvg8MAa9sSqfF0Qd7wmf2dQ3JrHnAejDefZMIssO0G5wiWgj4/gcL0kCqnd/bEnnL3pN+Y3A+OEmwBj1NmQ5JMhibxd8/si3xXvXe25lQzVb/yef9jr34HtV07JlS9bboG3btoZ+YF8IWhqTEXjDBZznWaAo23GeIq67/VzZBYpTRE48RcfXoevp8T5PNwVusBY9llNG4jzWZwrkekw4IefN+x+tXbOOnSyYZmsXfIMIwEpKk6Z6cP5jSYsO93ewFZB54vH+3OoZCMuKlUs8fKfwg23YsJHWrFnLpqywupD7qOQrwmrCCVa0WBGWaN6gYX22lpLVCHuggD9u9+7dzC+JaiKc2PisYG1jigrBRCPiRo0aULVq1bzGh3NIu9qmGlwQ1OcPptwoSDDCjq8X4//m628ohrOESar0m7D7XavBeCdPdi9IqRAtu3IyVJYverA2u6uZR+Ua/J/KOvOY5iOVa/HiJew+yt9AcUMEVBAarvSpJ6mYuxKsyPzgJP3jRMZaQBAuTJWU7jz4sdesVZMKFy4snfy3+ixQSHRH0xI9AYUlBxcAz4pVRAYVM4qVh2lquXLlmOCH0wVaa0UJ4yF/IAT0X0rqsnmU/oU74RjBIyyjnN+AFdKieRtd3xwEEaK6fsMa+YhAEHpC4gMVhBbkr6Z98gyhGz2m74jG50ew/ASm/zyCsQ6SQGAHIaD/MpBSlfxKO3IUrcam76h7D+ayysEEU2876/0IBKEmZAIKH48/m8AY5K2mzBpOyWPbkKOQuykumibHdB/AbudHsPwEb511TOEDnZIiENhFWKD5GJbsv+VbJpxX+lWgzO2L3JYnSL1E0S2fD/p678HEePkJ7/V+BIJQI4JI+QxY4xn967PbbP2jqKLuclNtxRQEdN6BfB3NNerQgzzELxd97lelkEDgL8ICzYcw4ZQEE9Ymm65rxBMt6wqO+DTfp8KcPXOWW+utt96PQBBqhIDmMyCKWN+IB8TT9eg7FFWniXwk/4IEeh7wgYY6+V0g0CIE9N8C6t1l8Yzpkv9XJYWr4o8jR1nJHhLmtVvBQpxlVgSCECJ8oPkQVmGkAOFMPc+m8qjJ/zdYngBJ9AsWLCSn07sbFvJD0VRDqQsXCG4UQkDzIVd613Q3es68zJqERLd6kFz39ZT/KxAIQoUQ0HwIUpccscUosmLlfJskLxD8GxACKhAIBD4igkgCgUDgI0JABQKBwEeEgAoEAoGPCAEVCAQCnyD6fzf+aD+zOcx8AAAAAElFTkSuQmCC;" parent="1" vertex="1">
          <mxGeometry x="339" y="130" width="148.67" height="50" as="geometry" />
        </mxCell>
        <mxCell id="yqM9gTFVnC1suYk9JM_G-14" value="" style="rounded=1;whiteSpace=wrap;html=1;fillColor=none;" parent="1" vertex="1">
          <mxGeometry x="487.67" y="30" width="962.33" height="300" as="geometry" />
        </mxCell>
        <mxCell id="yqM9gTFVnC1suYk9JM_G-15" value="&lt;font style=&quot;font-size: 18px;&quot;&gt;Pipeline de Datos&lt;/font&gt;" style="text;html=1;align=center;verticalAlign=middle;resizable=0;points=[];autosize=1;strokeColor=none;fillColor=none;" parent="1" vertex="1">
          <mxGeometry x="833.84" y="-10" width="160" height="40" as="geometry" />
        </mxCell>
        <mxCell id="yqM9gTFVnC1suYk9JM_G-19" style="edgeStyle=orthogonalEdgeStyle;rounded=0;orthogonalLoop=1;jettySize=auto;html=1;" parent="1" source="yqM9gTFVnC1suYk9JM_G-8" target="yqM9gTFVnC1suYk9JM_G-17" edge="1">
          <mxGeometry relative="1" as="geometry">
            <Array as="points">
              <mxPoint x="760" y="180" />
              <mxPoint x="760" y="97" />
            </Array>
          </mxGeometry>
        </mxCell>
        <mxCell id="yqM9gTFVnC1suYk9JM_G-20" style="edgeStyle=orthogonalEdgeStyle;rounded=0;orthogonalLoop=1;jettySize=auto;html=1;" parent="1" source="yqM9gTFVnC1suYk9JM_G-8" target="yqM9gTFVnC1suYk9JM_G-18" edge="1">
          <mxGeometry relative="1" as="geometry">
            <Array as="points">
              <mxPoint x="760" y="180" />
              <mxPoint x="760" y="260" />
            </Array>
          </mxGeometry>
        </mxCell>
        <mxCell id="yqM9gTFVnC1suYk9JM_G-8" value="" style="shape=image;verticalLabelPosition=bottom;labelBackgroundColor=default;verticalAlign=top;aspect=fixed;imageAspect=0;image=data:image/png,iVBORw0KGgoAAAANSUhEUgAAAKAAAACnCAYAAACWyleVAAAAAXNSR0IArs4c6QAAAARnQU1BAACxjwv8YQUAAAAJcEhZcwAADsMAAA7DAcdvqGQAABvKSURBVHhe7Z0JmFvVdcf/WmffPYtnxuN9wQbbYOONOEATdgOBkJCQpIEvBJKUfiGlIW3aEkJIQz4SQhMKaVKghUKAGEPY47AYG4wxMRgDxuN9Fs++ShpJo216/k/SWNJoVkujJ+b+5nu29PT07nv3/t+559x73pNhQIBCkSKMof8VipSgBKhIKUqAipSiBKhIKUqAipSS0iiYJXt9Pr4KrlCMC9Yfmy8zwxpak36kRID9Xi967U74A34RoF+rRMX4MBgM8Hp9aO7oRlVpCWoqS2Eypl+HNqkCDAQG0NlrQ6/DKa8DobWKidIvAjzS0KqJcfXSBSgrLgh9kj5M2iVD8XWI+Lp67Up8CUS0JwzgvX2HtZ4l3ZgUAfr9AXT09KJbxMerVZF4PB4vdn6wHy53f2hNejApArQ7+rRuV4kvufTY+nC4sRU+vz+0Rv8kXYAMMuxyVapAY3JoaO1AZ4899E7/JF2A9PeUzzd5MDL+4EAdHE5XaI2+SboA+8U38Xg41qeYLPqcbuw5cBQeEaPemRQfUDG5GI0GtHfZcKC+KbRGvygBfkIxSsBX19yOo02toTX6RAnwE4xPAsCDDS3a8JdeUQL8BMNBL6f4g/vrmkJz7vpDCfATDsde27p6cUBEqEeUAKcIB+qbcay1M/ROPygBThEYlOzefxS99r7QGn2gBDiFCPj92HukAa5+T2hN6lECnGJ0dNtxpLEVfp3MTikBTjUGBnCooUU388VKgFOSAby9p1YX+YNKgFMY5g+6U+wPKgFOYZg/eKixJaX5g0qAU5yjx9q0gepUoQQ4xWGu5t5DDSnLH1QCVKQ0f1AJUDGYP/jxofrQmslDCVChwam6xvauSc8fVAJUDMLbZyc7f1AJUDFIKvIHlQAVUUx2/qASYBpjkuDBbDaF3iUW5g82tHSE3iUPJcA0htYqI8MSepdYGJTsOVCX9PxBJcA0hiLJtFqS9tSJycgfTHsB0nFmQ+h1SSa0gLlZmWIFk/eASuYPHm5s0SLkZJD05wPaHE60dvZgIAlPQTXIX0D229LfCbvPmZQyJorVaEGZtRB55mwEkljF3LNNusmm9u6kCn710oVJef5gWgvQ5uvDXcc2YbPtffQP6O+JUDPMBbhh+sX4m6JTpatJbmfDzJb2Hpt0m8mxVGy98844FRmWxPqcaStAk8GIR1pfxr2tL6LAmBFaqy/8cs7TrMW4tfrLmJNVGVqbPNxuDzptdrj7ffAleByPKfxlJQVYt+yk0JrEkNYCvOXI/XjTsR8ZhuQMRZwoPGN2xTdXfQFr8hcHVyYZdvd8WCUfCsWm9SYw14/Wb+WS+aF3iSGtBfi7pmfwYMfrKNKpBaR/Wizd8L/OuBILs2eG1k4uiWxei9mMOdUVoXeJIW2jYFbrpdPW45SsGfAxHBFB6m3ximU+t+g0zMuqDh50CmCknLgltNMEktZBCOnx2vGh8wj6/K4klTBxaqylOCl3tlzlBt0d20SwmE2YXZVYC5j2AuTQg0GnhjwwwIg0WWc++SgBKlJKMgSopuIUKUUJUJFSlAAVKUUJUJFSlAAVKUUJUJFSlAAVKSXtxwG1YehkzBGlIazh4OB3clAD0XFwBtw46m6Fy59eP1OaDIos+ZiVWQ6TdGzJqG8lwAho+Zo8HfjlsU34a98BeHnlJ/VMdI50AvnGLHxp2np8sfRMZCUhQ0gJMAKL0Yz7jj2Nhzq2SsVbWf9THqZ/5Zhy8C/VV+LUvHkJvxVATcVFQF+n0d2GLINZiS8EewWX34VOf+qe9zde0joKXpBTA+eAT7vyea1P9cUvNZFnzkGFuTjh1i9ZpG0XzMi3x+fAr5uewV5nHQKB9PmZ+mSRY87GeUUrcFnJOlikZ0g0ygeMgV0OE1Hr+1vRH9D/jzMnmyJzLqoypsGUpHtklACHgUJUBElmPasgZBhY6eov+JduqKk4RUpRAlSkFCVARUpRAlSkFCVARUpRAlSkFCVARUpRAvwEYeQzadJsUD6tZ0K4z8OuZnzgqoNzILW/e6sHik15WJe7APnm3NCaxKKm4iJgMsK+vgbc3vgEmjxt2sMgpzpmmHB+0UpcV36elhWTaJQAI7AarfhVw2PY2P02cg3J+amCdIN1nGPKxs1VV2BF3sLQ2sSh5oIj8A/40OW1wypXvSKMAW5/P+wBV9rcqJW2AqTDvTI/eJX7BgJaFzzVF8+AH+XWYtRYy6ZGQirT4m1uR+hdfPjAbFtv4n+Nm9Ge3d+HJzu2YZvtI9j8ztAnU5dZ1lJsKFmHdfmLYU5CTqAufMDuvl48/+HruPuvm2B3dcM/YibyAM6sXo6b1lwHsynxGbqE6fj9AQ+YmD/VsRrM2pKsoZiUCtDt9WBz7Xb8ePO9qLW1oNiSI97XyCfKbmFl9TL8ZP23YUmSABWTR8qCkG6nHXe+/jCu3nQ7jvX1oNSSO6r4FIqxMKoAPX4vHt71HO7fuREFJiuyjMqSKRLHqALc13wIf9izWQKO0AqFIoGMKED+PNO2uj040lmvulxFUhhRgH39Tuys/0BCFTXYq0gOIwrQ7fOgtu0ILEqAiiQxogB9AT/sLgfM6vl7iiQxogD5+2BWS/J+jVuhGFGAA2L4vFYV/iqSx4gChEkUmKfG/RTJY5QuWJZcC5ChghBFchjZAgrGnAwYi7KCalQoEsyoAmRCgaEsU0SYKVsrESoSy6gC1DAZYa7Og6k6F8icWHfMDF21pPeSDEZMx2p2deKcLT+Ae8A3OBU30O+DxeGHy+HGgO34nWil1rwhB8ldLylfgGtXfVF7qLgivTGZTKgsLwm9O47BP4BpWYVip8ZmzyIZtwAnQjhlXvHJxWowYVFWFb408yysL1uKqpzSMVnNSRGgYmrgEUPjhg8Lc6rwd3M2YMP01ciyjPx7JeO3mQrFMFgNRuQbrDja14J/++gh/Lr2afR5R74fSAlQkXAypDsODPjx3w2b8WTd1tDa+CgBKpICHTaK8JGWbThibw6ujIMSoCJpMG44ZGvCju7aYe9TVgJUJA1aQdeAB/vsjfAGvMGVMSgBKpKKRSTWKEFJvxKgIhXQCtq8Tu0pGvFQAlSkFCVARUpRAlSklE+EAPmAonhLMmafudd4ZcUu4ymb207ke2MhfLzJqItEkLYC5Lwjf6w622hFuaUYMzLKUJNREVrKUWGdhjxTtpYI4R44sVQINmCflEWXepqlENUZpRFlDV2mW0uRY8yU73hHfWoX98398ni530xjhnbMiYB1lC3HUS11U2LO197rjbRKRuCBukLHsip3PhbmzMJ8aznKrEXaY8n40MrgdgPwS2V3entR5+nAh31H8IrtQ/negPYT/+OBAjLJdXp63klYm3+S9gy+bBGJQXsi/VAiy37fXY8t3bvRIMfAcmO357ZW2dfnitfizMKlsEhJH7nq8WDby+iV78cvYWxQxHMzp+Pq8nNQJcds9zvxXPc7eEkWTpVNFnxo5srCefj96d9DoTUvtPY4aSVAWqEz8hbhqtKzMTerSrth3iRC4BnEdjLBZ+QF17ESWr09+J/m5/GK/SNNDGM5H9rNHFMObpp+KZbnzUe2KUPLcSTDVprAsnk8/GuTch9oeQl/6X0fOTHi53ZnifBuqPyciCJ4+yv3+1LXDtzd/KwIcuLYAh48uuBmzMgs1eqHUIQ/qf8/7JYLkokDk8FoAkyLLpjdlFP0crM01I9nfh2Ls2cNPoiRUzyx4iPhtVwo1Brp3m6ZdTW+L/vIEqszWqfMMk3GLPy05mv4VNFS6RqtobJGFh8JHw+Pr0Lcgx/M+BIuLVwJh3TJUd81GLA4q0aOJ1P7Dv94WazLXwKLtm5i9EujX1CwDLOzKgfrh3+8gOZlz9BEoRd0L0CvdCWVIp5f1VyDi6d9SusOWZnjhQOhtF4XSnd3o4iwyJw3rE9E8ZkNFtxadQUWSzfPJ0RMFB4rj/m7M67A+txF0Y0vp0GrFHk+fF1oyRfBLtes2HjhngIi7EtKzpBuOHr2gZ+5/O6kpddPBF0LkEKoEgf6e9Mvw7K8efAGfFoDRcKqZIUy5Z//c+HzkekPxlZ0+LvrC5bipsrLNV8oniXsF2FeWrwaqwtOFn8uWnzcY+T+h1siCYvw2ukXoVSCAZ4X8cvfu86jcIgIgy5DEL7aULIWucbxd8L0/U6VHmJWZrlm/cLwmBw+J/Y4DsGqo2bXtQBd0hTfqbgAS3JnDfpekdD/ow2rc7Xize738efOt/FS5w681r0LB5wNYj39mjAjGzfMmoIl+E7lJUOsDAVZKNHz+cWr5FVYKsdxyfY7e/fixc7teKHzrSHLK1J2S3/XEBEyMKm0lmCl+LCukKi5RZ2rBQedx6Sc4yVx25rMCs1iMugaDyx3lZSRIW5GJKyDPX2HcdTTLheQfppdt0EI/ZgvlKzD9SKS2FQeVjInt3fY9uKJttew290YOrroY5xjLcZVZZ/RLB79vli8cl631T2MnY4Dg0655jTnzMWPxF+knxlJr8+OH9c/grf7DmoWLR5+EW2GfO+WGVfiM4UrNDGFodV8tnsn7mrciOzQvhlYfbn0LHyj/FzZ4/F9ctt3bPvwT3UPIlMs7ljg5VJiKcSPZlyFeVnVUaImNx68B7XupkkVYFoGIRz6qBLxfK3i/MEILpJDzib8e/2j+Of6h3HI04ZCEVeBtlijlmavDXce24S7jj2pDYvEWkIK7LNFKyTSleg2tI5yqciYNqRizEYTXu3Zjb/2HUKxBAixZYUXfkbB3NbwOPrE34oskdd6hbkARWJhw+VliBh29H4U2vb41vRZafnnZU4f1leNhftcJEEGxxMjxccLttZZj3dd9bqyfkSXAqQP9sVp65FrCkaHkRzrb8dvW57DW459KBLRjWSZadXo523t/RC/b3lRs06xIjwleyZmZlQMlkMfyqBZnOjtTLKO3XpmjFWMB4+pN9CPdk+P7Ct6P/x+RsRPi4nnigP9rfjAcUQTSiS02uvEDx3qCAyDHOPa3IXIknoLwz3yIn6qY+u4x0AnA90JkD5YlbkQa6XiY6NPdplPdr6JXeLLMM9sLLABLCLEzb27sbXnPc2ShWGzMuKck1k6bJcaCbcZbfgmDMf8IrvfkaDF3CQCMcUKRIpalTMfFdKtjkWEA3Jua/OXxPjLBjT1d2CL4+Cgm6EndHdEtECLcmrE+mWH1gRhwFEn1u+5rrflSh7fSD5FSEE82PYK7BIJRlpBn4ja4e+X5g02GhvJK4FGrOVlBL6qYLG4B/xkdDGwjG6fTXs1iLzs9vfBHnCHVgShld7pPILavjrN9wvDcmZKNDtDuuHRpMxpya8WrUGemd378eOjBX5NLj5TKPDRG7oToFequlyixdgDY0W+0rVT654nSocI4pmu7bIPr9alUhF7HIdR6zoehVI4B1yNmrWNhD7ZyrwF+FzRKvmuRXOuR7KGDDI2dmxDh7dbu3hYXo/PgS29H2iRdIQsNSj8ZzvfCL07Drvhs/MXa87DcNA6DkiNnVe0OmrYiN9g4LRT/FZG9HpEfzZZKM0oku4u2sqxAd+QqDf3BB7xISE//tjxBu6WoOQPbS/j3uan8J8tz4tIxFcLNTCd9KNiaTk0EuuTZRuzcH3Fhbi5+gvYULxKm+hnFBsv4YD7eU+s2u0Nj+F+8T8faH0RP5XXb9s/1ixeLPTPtjj2o6W/M8oK8hBOy52HgpgeIRJelOcXLNOCp8julxdtrfitTe5WfTa0oLvjom+XHfP7v9qwi9+DBhHKiUzQ85ucCdgmVuihtlfxUtcuCRQ6o/bI1/TdHpPPYwMW2pkcUxbWi396Q+Vl+P38G7WpvbnWMrT7XUOiVcqM0Sct4WPtr+Mj8V0HZJvhzsAtx/aW/aMoEXEIqkx6hPMLlkrXHf++ikwR7Ibi1ZqVi7TJXvGh35UyO6Xbjz0XvaA7AdJyMDKMhYPKY44GRyDcDOF0gXgNw+5we99BvNC5I8oaER4BRcFvcTrv4mln4J4FN+LeWddhTe4C9Mv27ASD3SIrOFgCh8PDr4eDAtpi26fNjETC9ReXnBE3rYyuwElZMzA3u2pI0MNfE33Pvj+uxdULerXMKSfPaJHu+QVs7tkVd/gmDCN1w4ABqwuX4NZZX8dvZ38Ll4so54sojNLwnMse62VDmTT3t+Gguzmq+6fgq7PKcY5Y3tiZEbomq5m8EBNBM9rfLb5fbX+L7Hck2acWJcARCEiwcm/T83hEouceceaHm9ajrWOUzM/miSW6ruIi/KjmK/iHqsuxPv9kzYoG7eHI8PvtEii94zggko+GwcUVJZ8OvQtCaZdaCrEsZ/YQkbEbf7xti1g/fTexEuAIUBCegAuPiv/2rUO/wZ/at8Im3VqGyapFtvGgtWLEXGzOx1kSGNxU/XlcW3YubBHR6UgwUWCX7WPxVftDa4LQ0s7NqsBSsaxhX5P/VmaWY3bm9Ch5azMfffXY5WqI687oCSXAUaAIGRI5fH24o+lpXLnvZ/hFw+M47GqBOxAcPxzOKhLm+l1RdjZuqfw8eiSIGM0S0gdmt0nfLVbkDIDWFpwy2D1L54/zxcJmxGTN0Nt8pP0VbaZI7+hOgOw6YrsfEq+RT4Sxzmhwu/CWnOs1yNFtlODk6oO/xB0ixGe6dqDO3ar5iRRM7FHy2+yezytZjW+UniWBRLyzi4Yd/XOdb8qr6LPm3pdlz0aZdLscsOf/p0ngE5msQXE2yPG866zT5cxHLLo7Qo80pE+aMxKKkhnJnFI7UThmx0ybElOe9r9jmKENNnBvwIMcsSJ0/LktoQjyxeLkGizYbv8Y/9X8PG5vfBT3HHsKb/bsgUusYqzloggpkkskOJmdURp33DASRq3b+w7jgLNRCzIi4czIHOlyeWwbCk/VphIjrSpfbbfvFddh/MmsqUB3AqRj3evjMER0pfL5wwszKjRhTBRas2mWabhz1rW4b8F38b8Lv49zCpcNsYYU3LLsmbh/3o14QLa5b+7fS1Q7NCuFQqE8mCDxSs9u3Nr4OL558B483/lW1IwEoUgKzblYlb9YGzgeDZNYsk0dr2v1EYavckyZ2n0xzOA5p2iltt9IbF6HCHC/vIper1d0J0B2Om39Xdq4XyTsZS4oXg17TJr5eDAazPjH6RfjtLz5yDVmodJSgm9WXIh5mVWDDU0xzskoxw9nfhULs6uRJ9stzpmJn8/+pvZZvGalVeQnFlk6vV247dgfxTI+B2uMb0a58k41Pk95NDiVt9mxFy39HVqdhKElZcLp5YUrMV2saewzV2pdjWjqb9X10EskuhMgo8BGqUAmCUTC+xvW5J+EGmvJhKwgrdfy7FlYlk+fKfh9iqaY2TASXYazYThud0rObO3Wy/B2PvHhSiwFWC4R6Ghls+FLJPC4v2MLOjw9gwFDmBJTLgqNx/MBR8IUCOAN24falFoYHnOBOQ9XlZ+j1Ukk/GyX8xDaffY0kZ8OBcgocK+rQUTIOdHoK3+aiIB5giajWavssULLxe7y2vLzNYFEfpNdpSfiXhMKLF4+ICk05YRejY0urz306jg8v+GGcGLh6CETYGPvGQmKMFerk0h4g9ObPR9q6V3pgg67YEhg4MFrPbuksWLmhOXTC4pX4ZKi08cUTRKKzykCu6HyUszJroyartK6e7FSB91NUb7WcDAzhdk6Y8V6AokThMcX756ReHCwe7fjEA572rV6Shd0J0DC3L2nu3bgiAgjOj+OE+9WXDt9A64uPQsusZCUA0VGAUUutGn8jE8e+G7lxdpNRrEWg426QyJZJmyGG22kfMDVBUu0fcYrL3JhxHxSRhlmZJYNKbM34BqSDzgcPCKmkO0SK8j9jgTF+lT7VuTFXLR6R5cCJGzE3zQ9jT4/742L7n7or10z/SL8bta3cWnJGiwQ347PP2EeIZcqcc7nZFXj3KIV+PnMq3FZyacG/bkwmvXzduPF7uBcbxiuHy4f8HRx/q8p+4x2x1q4rNil0lqK03Ln47aZ12jHGklA/uo9nZoAx2qj6Ia8IxdJbD1Ewi79fYl897gbtS4+ndD1ozloh3jH2FdKzx4y2U7YIGxkm88Bm/g//tCp0JrxfpIiCTBoQeOJj6L7ecNjeLn3/cE71Aj3wK3vEAEtz5s3xIL55MLo8vbCNcz4IcVQJP5ZnjlnSLkeCRp+UvcIdjr2j2uQmGOVt9d8DZ8uXBrlQhC2yoCI9E45l5d63os6Fz2QlnfFhbFI9T7buR2v9rw7ZECWhC1MvjQ4LeAssUxcaqTro/hIPPHRqjzQ/Lz2vJbYG3XYoJH5gLFRLG9Kp6ULlxW78ClduaasIeXyQvjQcQTv9B2/BXSscAD+qY5tUgfxxGVAs7sDr9r36fKmo9HQtQDZ9Exfv+PYk9jYHhyUjRVEJBRk8C8+FJRTfLD7W17A413bNV8z3t4okJcd+7R7jllm7DbHyxnuLxoeM7Ouf3Fso5aVPV4YwW/p2z/knhHC0rba9sAkPurwNaNfdC1Awq6f0153Nf8Jdzc+iY/76rVukGLi31gIN9ohCWp+3fQMnuh4AxmjfLdcrNh9bX/Bpo43tem1sZYVSfg7tc5G3C5db5sEFBP10XjvM2+tjIR7Z9LpW1r6VrTFTRd0L8AwbIDNve/hZ41PiIiexm5xut1iHZmjR78r3rNhuI7d6cfS9d0rAuY9Ga9Lt8uTHougeFfyQ20v4z+kPN5bwX0G9x0sJ94SPhYuFO6zXW+J5fsj9kqAcCJdJL+7zVErwcYBLdmU++czCt+y7UO9u0XOafwXiB5Iq+cDEnY5nKTjnWkGaYgzcubilKwazecLP2OPg8t2iRr3uxqwo+8gWplMKkLUuvBxngcrh8MuXvnmIomuP1uwXHzAYumm44uJpbDsj511eM7+AYzsGqWKE1F7PA76uxcVrtDS8N9zHMTG7p3aFKBe5TdaEJJ2AoyEB87EAU6fxYNWI5EpSRTwcDcGxUK/LRkzEhQhz5kRPy8m3jqgZ9I6Ch4NXhIcdoh9Pkt4SaT4CBs8XjnxlmRNh4V9Ypahd/GNhbQWoCL9UQJUpBQlQEVKGUWAHFpQGlWcGBw2Gi6EHVFdHNPKH2cOnEIRCbOScs3ZYsjiB2UjCjDTZMGSghot5FcoJgKHruaJhjJNwTHaWEYUYI45C6eWLtLGnhSK8cJJgyJTFpbn1WgzN/EYtQs+s3gxFuYev2lHoRgrnB5YM+1krC5eFFwRh1EjjPn51bh+zoXwiyOpUIwV3ltTZMnF9bPPQ2HG0BmQMKMKkJPvl1atxS8Wf137TY0TuS9XMTXgVGGO0YIHVt2EFcULQmvjM+JccCx7eg7jh3sexF5nE0wB/5BsYcUUxkCfzwCTBBtnlSzGbQv+FtPzi0MfDs+4BEh6PQ6801mLP7fvRlN/7xhsqGIqkCXCm2spwrkVK3By0dwhD0wajnELMBKn140BJUCFwF/inFDS7okIUKE4UZT9UqQUJUBFSlECVKQUJUBFSlECVKQUJUBFCgH+Hy2C515leT7CAAAAAElFTkSuQmCC;" parent="1" vertex="1">
          <mxGeometry x="504" y="138.25" width="80" height="83.5" as="geometry" />
        </mxCell>
        <mxCell id="yqM9gTFVnC1suYk9JM_G-16" value="" style="shape=image;verticalLabelPosition=bottom;labelBackgroundColor=default;verticalAlign=top;aspect=fixed;imageAspect=0;image=data:image/png,iVBORw0KGgoAAAANSUhEUgAAAVAAAABxCAYAAACDb/v+AAAAAXNSR0IArs4c6QAAAARnQU1BAACxjwv8YQUAAAAJcEhZcwAADsMAAA7DAcdvqGQAADOgSURBVHhe7Z0HeBRV+/afTdkNJZQQIBRBUZAu8JeOdEFFQNqriCigIpZXRDoWijQBKYpiBV9RQemigtKLFAsgTRAVaVJC6Anp+eY+O5PMzs6Zso2N3/ld11zZmWw5W+ae5zztOHIkSCAQCAS2iZD/CgQCgcAmQkAFAoHAR4SACgQCgY8IH6hAILihpP1xQL5F5LqthnwrfyAEVCAQ3BAgnOcn9KScq0fkI5Igxdeh+CEf5hshFQIqEAhCTuaebXRmfBtyFKxIFOmUj0pkpVNOyjFKGL+ToqrWlg+GL0JABQJBSLl69Spd7luKHLGV5SPewCot98FxchQvKR8JT0QQSSAQhJTUd0a4LU8D8P+zYx+W98IXIaACgSBkZJ86Smk/zfWctush/T/z5FZK+3aBfCA8EQIqEAhCRtKWb4mi4+U9YzDFT5zbj035wxUhoAKBIGSk7dpAjuhC8p45mMpjyh+uCAEVCASh469vzKfvaqT7YsqvzhUNJ4SACgSCkAD/py/ACj0/7Ql5L7wQAioQCEJCduJp+ZZNJCs05/JJSlz4tnwgfBACKhAIQsKFXVv4ASQk0KdelHe8ccQUp7TFQyjnYqJ8JDwQAioQCEKCI/G4fgBJEk9njTbk6jzCWEQxlX9/jLwXWK5fv06Zh/aytClYuqiUsiLWohJJIBCEhJPdC+hWH0E0nXc/R6X6DadTfWszQeUFmlChFIgyTwhm9LEjdHHPFkrbuZLoxCb3PxQLOeM8++O8bwwbFw8hoAKBIOjAmjv1ZAWugJZ+5j2Kvuu+vBp5XpknxLVgcSr37nb5gHUQxMr4dQcl/fQ9ZR9a6xZJSTCZVWwg2KUHLmFj00NM4QUCQdBJTzon39JBErLsMu7Szqg6TchVv59bKPWwEVCCaGds+ZYSX3+WTj1alf4ZWJ0S5w+jnD+3M58qRBp/eeIJ4DZIWjJD3vNGWKACgSDoQMjOvvOUW7A0wAIt986u3MYhRtaqgl6zETwuC9PyrV9T+i9fu9vkmViYVsD4yi84Ie95IixQgUAQdC7u/1G+pUGyNB1Fy3sIIW67uk8zDSidfnMYS7A/N/d1OjnoHia6mP6n/7jUfR8LFqYp0vhcdTrJO94IARUIBEEn/eh+bgmn85Z68q08Sj70LBNWw6m8NBVPHHEnpa+ZTY6kv92CCavVH8HUgN6kxdv3kve8EQIqEAiCCiLejjP7dYUtJyOZqGJ1ec+T0i+8xwSMi/R8AbEyeUC8K3VgflkeQkAFAkFQiUm9xhfCjPNUvGpdeccTpCohoGQ0lfcJnlWrAWMuN3KOvKePEFCBQBBUENgxIqJkGfmWN/H9x+TmZPqMJJgQYRZUkkDSvpmIKvmmZh3xhYAKBIKgknP1Er+EUyKi3C3yLW8gYCX7zbVnhaoFU7oNwSzZewqVnXWQys3bS1SoqHxHffA4vKaVZH2RxiQQCIIK8jDTD6zz9lNC6ErcTOVnrJYP8Dk1oDFRiiSier5OPA98qbKlGlHrISpRvx1Rldpeq3siYp/+7RhuihTE06z6SI0QUIFAEBRYueTh3XR2ej/9AJJkJTqbP06lnjavb0ed+pmXG7qFTyOYUeWbUUTtthTX5F5Dq5Hlos7qxhdPaTwRVdtS2dHz5CPmCAEVCAQBA8nsmft/osT1iyh730J3IrtO8jyAYCklnFaAJYvmylg73lmzFRVvdj9FVqxs6qcEHgKshyTKkXE3UcLMNfIBawgBFQgEfgHRTN++lhI3LnF3nLdY/cN8jZN/9ppm84BFi4i+FcFUY1rZJFu06mooqwgBFQgEtkFjDiwQl7VjOVs905eSSQho0XnnKDY2Vj4SeCC6F55pyESSNza7Qq5GCKhAILAEyiav/LyR0jd+Sjnn9/hXZw5B87Grkh3OvHA3ZV04YSieCS+vM0yWN0IIqEAg4ALf4YVtqyhjy2dMbPwSTaAKACFabidgYxfmM93zFd8HK70f1NyjbNRXhIAKBAIPMO29tmIupa2Y7I50B1A04YeMvqsXFW1+v09TZquYpiulXiRX095U8rmJ8hHfEAIqEAhyUdrOAZ7lZgmVaNJNLcjVsCOVuOs+w6T5QGGWrsTGllCTyk9ZLB/wHSGgAoGAwdYDmtuPLzxmqEWzUgcq2bIbORu3tR3Z9gf4adGhyUg8YUnHvbOTChQoIB/0HSGgAoHAXHh4QDTlRiHwaZZs3YOiatYPqWgqsHSlZ+oZWs6YuvuSrsRDCKhAIKDE2aMo7Yf5lqftECKAZsPol5lxe92AWHS+wtKVBrXml3tKsIh7ABakUyMEVCAQ0Mlh3bk9O7VAPBOGf+Fz6k8wwPjpxE7DiLvR4nC+IgRU8K/mjz/+oMzMTCpZsiSVKFFCPqoP7qumXLlylqyqQ4cOsb9WXgMkJSXRX38dpaysLIqPL0G33Xab/B9Prl69SqdOnaKoqCiv+yivWbFiRd0xKu9bS9WqVeVbntgRUIY0dY9u2Zfi2/8nJIEhI6ys5Om4tXFQUqaEgAr+tUCAqlapTbGxhajZXU3ow4/el/+jT726DSgtNY0Jm8LUNyZRx44d5T1vIGRtWt3Lbo8eO4r693+S3dYD08zXJ0+hhQsWyUeIjp34k/bt26crojt27KRWrVrSiy8OoQkTXpOPumnYoAmdPHGa9u7/WVe0n3i8P23dsk3ew2eRTM1bNKEFCz+Tj3iCVS6RtmQn8s6m8XLAqHTHfgG37uxgtp48/lfuE/dFJ5CIfqCCfy1vv/0Olb+pDJVOKEW//LJbPqoPrEJYbLjvQz17MMGNK1Gchg4eyYSPx7Sp06nizeXZdvDAQfmoN3iOrl160IoVX5PT5WSvgS2uWIJ8D2/27t1LFW+6lRo1aiAfcYMLwzVJEG+vehvX4j116h8qWqwIe40+/XrTk/370GN9HpX/6w0sSSaGNoDYwuqD5Yq0oZM9b6Jzc8awMs9QU6rfZMPlP5AdYGUpZLsIARX8K4Egzv/f5xQXF0dly5ah9LR0doxHYmIiu0+lSrfQmLGjmbUKSzQyMpJNo/X46aefmZVXsWIFio6OlgRPmgJzGDliFJ09e47+7//q0s4ff2Cvge3Q73uZq0CPY8eOs78JCZ4d2w8dOsz+1q5dk/3VAoE9+tffbOx4jREjhrO/99zTXr6HN4hKw0fIqo3sIll9TEglQU3f/BFbfx2rZCIfM1TA+kWXJmaF6oCxpS0eYngx9AUhoIIbAk5yCBp8dfgb6B/29OkzKTIqkh5/oi9VurUSE0P4HXns33+ACU6zu5qyfYwrPT2DPY4ncK++MoY95sXBg9j+P6dOs/elBc+1etUaiolx0VuzZ3n4LNFIg+dn3brlBypYqCAbA8Ra2Xbv3s3eW/Ua+ouxQfBh5ULY1Y8zAyLElhOGiHKEyIxcqzTpb5aQf7J7AVYVhDSpYFN6wBvGi9BFx9PVBW/KO4FBCKggJEBE3n//A+aba93qbmrapAU1b9aaOnfsxv62ad2Oej7Uiz7++H+GlqIV8FpLFi2ThCmGunfvRpUru/2Lx47xTy48BlPeLxYuonvvuZ96Pfwos0gx/dUTuNWrv6Pjx05Q4yYNqX79O3OFV7EO1ezZ8ysT2k6d7+eKpRZcUM6eQaeiwvR43/7Uu1ef3O3jeZ+wwFLt2vrpOEeOHGHvHRYs7v9Apx703rvG/l8F1IUj1QdWpT9CyqxSWUxRUnlx9gssTzOYsKyAm1oYWqEYSyDHcUOCSPhxpGZG0dEzF+QjntySEEcxUZmWf2zB4NrQB+RbvuFwSmOPKUyOInEUUaIsOeJKUWSlGhRZuswNSTK+USAQMmvmm7T31/1UOLaQZIXFsOMQFC2wtFJTU+nypStMuDD19IWnnnqa9knT6QYN7qSHej5EGzdupC+/WEKdOnVgU1k9IN7//HOavX5GRiYTrl6P9OQGhXARSE5Opi5dO1PLli1p4YKFtGnTVnrp5RFMtNXgwjFrxmwaOvxF6tPnMfmoMQhOdevyINW+oybdfnsV+aibzZu3MnFdsXKJbvBp8uTX2ftt3rwps1IvXLhAderUMZzC64Ep+LnPXmOdlxwFK/IDNDwkIYPvUds0GRcfu2OxilnjZAS+rHbBt0JIBPTi1Qzae/Q0rT+cRL+dvUwnr2XL/3HjSrks33KTlZFBkdHRbBrSqEpZ6lynLNWrXFr+b2jAjydlejdyFL5VPmJCRop8QyK6oHxDRv5fTpb0N/MyRZRpSNFNupCzVacbngISLGBFDh82kn788WcqXryYrmAaAXGC//Kt2TO5aT56KMIDazI1NY1SklPYNBiCCF8oLwrdonlrafp9jdasXUVOp5NNrXksXryEJk54nU3Jr19Ppesp19nr4T22a9fWS6Rx/wnjJ1PVqlW4r69l5cqVNGLYyzRw0HNeIl6j2h3sYnPod32fKy4GuGBt3rreUlqVGRClc1/MMO0wrwbWKyqTyjw/JddgwHcz6IUh1LBhfe6FLBCYpWRhbOU+OB4QQyboAjpv7UH64Ocz7HZclKdwgoy0NPmWJ5g+AYgpqFiiIL35VHsqHhvN9kPB1WdaSh/2ecMrr6NgEXIUKua2OGVy0q9TduJxyrn8mzSvKEqOSElQIarK82CKIYlqTtppiqr3CBXoN+pfJaSwOp8e8BybRioWpy9AJK5cuUqLFi+wLKIQD/g6297dhvkAASywr1Z8zW6vW/+918wGYt+0cQu6pdLNtGq1+348MHuCuwHi/J8HuzGRB/+c+odWrfqO7WufA88PNwUs8HvvbU+P9O7Fjq9fv4G6deuqK3KwIj+eO59mvvmGh7WmjLVuvTu4Yox0LPDOnLdyL1wIjvkrpqyJ8rIPKG3jDK6QKqlN2h6beD8I6sEoGvfaq4apYf5ipR7e2aCr352YQFAFVBFPCOeFzDx3q1pI9QRUEU81ipCuGNUlZCKK5gppn7wkTcWLyUdUpF4i16MTyHVfT/mAPsx5/vteSv/6PUlUD0k/unhPQcY059qf5Oo2mWIeGSgfzL9gevbC84OpbDn+Wt92UER07brVpgIA4e7z6OMs/Wjb9i3yUTdNGt9Fx/4+SZu2rPESYzyuW5eHqE+/R7zyLbVgOj592iwvAVNyTsGp097BKlihL48azaxhJdcUOaAQdz1XFS4Emzdto3UbVnkkvytjRVqSnhUHX+799z3APgO4QpTX2bBhIzVq1FC+l3/gIpLb7k6CtbqTQADHVb8fFX5+Wu57QvBqyOBhzDVSqFAhunTpMk2c9FrQpvAK3JVAZWCFYpljfw2XyDES8u2Agg954LJDueI56b7b6MV2NahJhVj6fu8JioyKsi2eYPvB49S1iadPKFhExidQ2ldvStalznQuM5UiqzalqGp15QP6RMWVoqjKtcjVoQ9FVWlCGT9+x0STIuQprfTXEVOSMvetoqzDh8nZopP7eD4EJ/eA/s8GTDxBREQEORxE237Y5uVb1PLpp59RQkJpevyJfl4imXg+UbJIy1PlKlWoXLmy8lE3iMC7XFHUpk1rQ0sXv2n4Om+rfCsNGfoixcfnrXXucrnowsUkqly5EtVvUJ8KFvR041SvXp0aNmpAVy5fosKFC9Ht0nR+wIABLAClx+7de9hzdZPeM1KkFJSxtmzVUnesEOQLF5Koyu1VqGq126l6jWpUu1Zt6tL1Aa8x+QrGU6hmAyrS/UUqULoqJR/6UTJPsylh2CKK7T6A/R+f1YTxE+m1sRPZ+8XnA65dS6ann3kq13IPFgVuqU5XV04kh0v/ouuIiqXkv/+i2JZ+xjqCZYHuOnKWnltygAlotzplqW/bvJSLTXuP08SV++Q9T8wE9OzFS7Rjat+QWaHcabxkgToffIViuvSVD1gDP6zMwfdynzOqcQ8qOPB1+UD+AVPLVi3vZqWJwUAJ2PgaWBKEDlxIXxw0hN3WunAQ/Pp51w5bAWL8tnxxP1ixQn1dC0khaGlMV6+7rUtYn5VKFWa3FWILuHSF0kw8FbbsDnxJFo/I26VpjzpA5Cf44RSesEj/OWOKUcbGN0OagBwoHun1GAsWmYGpHMQQG25bBSfiW7PeZSeTIHx56aVXWNoVrFA9/zeCbXaASwIXZgXklKLaCfXvMEaMiO8/xjAvFJkFiW8Plvd8I+h5oLBAEX1X8+uxJOZMVmNVPIvFRMm3QkNEBf3mC/6A6F+BZ2dTTvI/8pE8EPW//tHL8l7+AP49VNkYRdoV4USUeuiwwWxDXqQVIcV9EEHn1X0LwgP4gZF/i3JYXppardo1LVufuFj2f/Jppg1KgULxyrUofd3rrHlIUu84FnFnsQqdRH2cZ842w3Nb73kBy/TEJpZl4CshSaTf8fs/NHrRbvpq8z7295PNnsnGVsUTXEr17jATTCLjg5M+xUrPCnn64hjSl4rovT9faiiBFTB1yhtUrFhR+Yg3EEDkZK5d9x0LfMCXiQ3TcRxr1bolCy7ogeoeTN0RsBHiGd6kp6cbXkQzpHO6gI2sDMxqcHGFsXX27Fl2LLtMRfaXVTthO7OfEucPY1F3NBTBtB0zOCVZPrbPcJYVwANW6Pl3fbdCQyKg0S4XE9G3txxnf9XWpx3xVAhy5pUXLH8zCDjbPsb8nlocrjKU+fMGeS+82bRpM0s858Gsjlo1aeasGbq5lTiGyDdSgiC0CorF+vEnHwm/Zz7hyJE/yBXjDhbpgd8Cr/xUC7IQLl++zNwAqLr67bff2HEvf6VkcCgVTwA+T5SQnnqyAhNUZAsgH5UFbvWQHo917eES8IWgCygi7fCDQii12/VryUws1YJpJJ5p16/Jt0KHI9bcr+crkRUr64tzdEHK2LZM3glvVq9aLf3I+SfNxYuXWMTaDIgkchVxkkE4kcP57aqVAUu9EQSfS5e8jQE1uNBWqODOzTXihYGDWC6v4kONjo6SpvN5VYvc/E6gFlRJNJFqlfPndnacB6zQM/8bJ+/ZI2hReKX6yCpjFv9iSTwxhZ/SsxF1bhG4tvxG4MqUPKGr93Tbxyi8GvhtUke20Z/KS19+kfn87j7hAurGU1JSuFM3RF13/LjVsLJHAQGDWrVq0ejRY4JmdcLlgGYbaF2nuA3gftBrWnwjgN8P4oG6/WvXPA2GEiXiqFq1amExTj2QI/vRh/NYvqceuJjOeXe24UVRKUNVu4RwUUU/A6Wfq1l03Rd8zQsNiICy1Byd7tf4UVrlvkmrbQsoHMva17CTHmGFYAoo/DRX+tfSF1Dp+WPn7Azrunl8700aNzeMvkOkUBFj1ZKEiAZaIFBCuHnzFlq2dAVr86a4kBTRxwmalSlt0l/0Ab3n3vbUvn07S6IfCPCeUZW0cMGX7IKD8Tmd3ml6sOCU86xjpw7Uu3cvbod5f8G5deDAQWZVZmRIlpw0YwQu+bPDfp06d3h8V7AcUbqrF30H588n0YaNa7i+bAjw7LfmeKXC4XtBDqtS4eVL82czfF2mxGcBhYW5fOcRWnXonFdtu4K2xh0YiSQP9dQdAjr14cbUqu7NFHtlCOVEeF6FcqILU1ZkI4ou3lk+4h83SkARoS/y/r6wF9A76zViUVce2h9/qMDYvvnmW2YRobkwkrmRWmMU5AAYL/yvaFjc+7GH6dlnnwmakCJfEo1Wdu/6laX3QHjMxqeAMaLSCN2g4CIJlJBiTPPmfUybNmyhAgULkMPhYFNoLeiGv/yrRR6FAEpDFt57gGsGQUO9zxOZHKNfGcf9LeHCotT245w0XMLDByCg2qYnVvBJQJEk/+oK/UR4BbMadzV2/J5qAS18bRQTTC2OjGuUHVGCIkv7X2QVLhaonah8hPQDtTMVMXvurKhIbrIxuhJBdIxOfJzsiMIjkBQKcDJOf2Om9Lpp0sla2LIoacEJD6tv7LhXAlq7DYvzlZdHSxbebz41WlGDz/58YpJu0xE7wOIcMmQYbd28jeJLSueOyZhgTX656HMP4UaTE54AKr+R9RvWyEfygGgjd9TosfgNbdy0js0wlfPmao5koKEmH6Wkfk7nMYXX1u9bwXYQSakwMiJY4mkFiCeIzDxNaecCv4hUIMlJMXh/McU8rc/Ua5Q8siElv9LOeJPuY5eLaxfqPzeOSVt0AX4JIAI/ZsCyQqs3TNGCCfyHsILQ+QjWJvxo/ogTfHl4DnRFQoJ4IMBngFp1WGqYqvozPoDHQ3jmvPM+m0L7AgS9bZv2rAUgnsvKmHAuY0E7BSsFDnq/FXf3rIcMxRNdshBQVNxzOC+KLjrD+paiNR3EEwLI8j150XYzJCHG0sx2sS2gsDzVzUCsoieeRvgjngBTe2fqRumGfn5hOJCdyAmyST+CyHK3yztucGVEwxF0doLFqrvFxFPkbe1tO8Lje0knHrpGaZ4PFJq00/D5GjSsz6wDM2BpoScm2rQFg9Wrv2MdjyBM/lp1WnByr12zjjWD9hW4FPD4d+d8wHoFBHJ8AO95+/adtscI4eva5T/sIsfzXeqBZiXqeAOWREGXfB7IAUUPATUQ7od7PsrWdtID4olGMrB09fymWN8dfT3LzdvLAkCuziMoJ6GmbTFlJZ29p/gUP7EloKhhV3dV0sNOgxCe9WlXPCGcavFUk3Fus3wr/Mg8etjd6k5LRgpF3tlO3smDdWvS9hpVIz0u6o5W8o51cEWPqiI9Tv2DS73EBBs/UiNat27F/IVWgBDBmsOULZBgyo4OUFatJ1+ANbpv336frDyIJxaUO3jwN8OCA39Rxjhm9Fj5iDlKCa6dzw3CprQKVPj772OGQWM8JiEhbwE9CPfj/fozFwsPuCYWLJxvKaiIizy66Zefspj1+oQ/E0sZMzHlCaq0j/857xtj2lWNhy0BfXvzX4bWpy/dlbTYEU9HdrqucLLj0gYi6Bf2NxzJ+vl7XUFEn1Bng5bynicF+k/RLQH1l8hqjZgAM6QfliOugqX2evhxN2vexJIVCiByaDlnZY0eK2AJELSJs9MBSvGpYcNtq0Cg4IrAa1pFEU8lKdwKyvjgg7U7Toxx6dIVlix9uBPQvcnuRQfWpLZL/pkzZ3SDTQrwJSv+UnwmPbo/xG7zXhtBoyXLvvApOAaDAMEgrANfYv4F5tt0Ne1NVLA4E1KIJvuNSwKLZiKl+vmeMmdZQPGmUwzKKHl+TztYFc+76lal2IL6SbuKcOZkuU/oyBR3BUO4AUd45sHlzH/jgfTFGk3DWQkoeopyuHrJXfJmm0J5TR5yUs9TTM9h8p45Q4cOpgtJnHpjHSB2sD7g//KH1dK0ffLEqZbEE2KEkxJihDZvKB/Fhhp7BESQbmVFpGCtTX19uiWfH/jvcwMtiSdeG3mSGGfdunewPgFYEK9P30dZ/wBkMijjNwO+1dGvvpZbP64Hzmf4TSG4ZmBs6g3BubKaloAQUCMhRvqVYn336/sEex9G4vnRvPcDklmAaTncX2ieXO7d7VRi7u/MQsUa8RBYfzoxAcsCijWMeNP3QAWNrFCtVCxrZZeWtFY+4kZtdSriyciSRD/rhLwTPqR98zkr2dSC5soxvYzFy9l1MJtieyFZszEHfStJo+Qr8g3ps5QE2k46B6zQEaOGMiGyCoToPz0eZn4wX8DjrDRuVoQTYoQ1hNBo+b335rDyUWyosccyw2jyC5Hi1eSrQcoRVv00A0nhu3btMRRPCBLGB1F//4M50li2sWwFFBIgqo4N/QOQBobxQ/RxfzNgDWJdfB4owUWKkhHKZ4eLjHorXbqUV0XRr3v2ssCdEVjdVFtlpAW9D96YMSVoFWgQVI/grJ9YFlBeVVGgxNOK9YkUpld7t2a3XRk7cnNAFeEEHuIpk3F+j3wrPMDSCGlLRrBIuweSKEa3fN40lcLV8n79ElDJms0+vZNZt3bJOrrf7U6A77PnS/JR62CxNCR346SzAqwPiCgCGL6IKLr08CK3Cjj50YgE/SchRDxfGk4qdEiHSD0/8FnTCwFOfnQdMrJC4aLAEhZGPk/FCkO9P0Sd11xZAeOH6ENgzMYIyxJLgsDS1GPH9h3S+zAuwUXj4wO//couMuoNn5O2ozy6cRmBPFwIOgJdPKsX4jn1jUlB71YfSCwL6GULV2YFq+IJ0VQ2IyCc2BYM7swWl8u+OFv+j+eUXSueDnk/28HvxhJq8INOntDXe7E62e9opZky8/E0e4w9Rgus2vTtnta5FbL+dPuKIczOxm3Zbbvg5EbjECvTTKCIKKbzVqfEAL47CDVvCgirDpak0ojETnQVF4IpUyeZWnmwQrFMBg+sGY98Sh4YP1q7ffPtV6bCqQUCgzGaiSiWD4Glqcfhw79zLUZ8fw8+1N3yCqL4TePz5n0fABcdrEvFE0983uMnjg3qWknBwLKAaoHlqWd9asUTwokNneSxMFytOMrd7ixX2NKG0s09M3rnimdEijuJX3fKLqOIJ4i4bt0/F0yY31OvGz2EMCPF3WjZIs72vdh03wvJisT6S3ZAIj0LTEljgDD7M8V5a/YsKlq0KBMxKygnHYIKRj47BQgt0qGMfHdK6otdYVKAQCEx3ciaZlbo4qXynicI4Jw5c5YrKHjexo0bMqvTl9QZgDG2bt3C8GIFCxOWph6ofuKNDyuNtmnTRt4zR+ktYAZv2g7xxOdttmRLOGK5Egm9PNGODq3pgFXxjIvOokHdm1KL2uZdWIxIv/ITRaUvpYi0vK4sZsLJyMqkjOimFF3RvCOQHoGqRELT19QP+rktT5V4Qrgib25EkeMW2D6ZeMuNoJ8o8jfNUpAUUmYNp8zti1j0P2aqf0scAIgcIs/AyCpRAyGA8JqVfCJF5/vv13JPRkwDl3+1OCABCLMqK4xZb5VPLGDHKxvF8wWqtBWuj84du3FdGcrYtdU/+H6QM8t7HATNagMYgGAg/Nm+LOeCiwn80/5UUd1IfLJAeX5PNRDPVvUq0/JxPZl4QgBRGQQL0s6WdXYM5Zz+L0VfkixPO+LJgkfSlm7cYstfMH2BZand4OdEY9fE2aPoSu+abHVPR9FqeWInCTCEzvXwJCo8dblPlggi5YiYa4FIp39nbf1xjB/LiMByRfTfX/EESHr+aO77rILEqiUKQURKjVHFD8a66MulXPHEydinX++AiCd45tkBhhYeFkiD9aUGOa6w4Hiii9xGrHUfCOATrX1HTe5njDHgf/jc1JglvQM79f9Y6A5LWPsC0pvq1rVfARQu2BZQK0EjiCem6GN7SB9M1gnKPj+SopM/oeiI36V96QdnsDlSD3tsEdluP48jMu8L0vN1eolnsIkpRulL36CMvjXo6tMNPTZWp/tcdUp5sx+5ti50iyYCNNJUHRYnhNN5/0AqMve4X7X0mXe20k/El14PogghNyNiw3LmN4UQuzr5XmmjBSf35ws+MfUlqsG0fPnSr1h6kh5r1641bNgLBg58Xr7lP+g2ZLVIQAGrdvLEBGL8QNdO3GCWL7S/B2vU80UeFzG0G1RjlPQOwYUo2wEXPl9BIj2WPdaKfH7BsoAWNYgm6gWNxg/ogrkk5Zybwvb1mn5o4VUTWQkUMRSrU0sRTcAmyLBySzlFCUEZ5l+URC3qzg5U8Pm5VHTZdZak7m86BaxWCLFeShNeP22j+TSR+Ush7hJ2O9GYAUtw/mcf2xJRBF7GjR0v73mybu165tfTAyKCqaCvPkU9IHQVKt5kaOEhWq0AETBq5waLFS3oAkmNGjUoPZ2f3aLnoTNKekeSfKVbK8l71jh27DjX4jYDj8NrjhwxSj6Sv7AsoLVvKaMrlHp+z75tarJczexL8y0JJzCrKLI0ZdeC6XvONcqJ1Ol25C9IeK/SmPlB9TbXoxOYWBZ67XvWlq7Ix7tYhD3QIuVs1Yn5Lr1AMGnFW/KOPggeIe0JwSNX55Hy0cCCQA7SbqyKKE4oJGprK2msiBPKSgONdg15LWpxdTdB1rdYcT/4CAPlXlBAgw6981IBfUWdTk8f+d9H/zYUPKPySj3++vMvwxxQvHcjKxnf6fr1m4LWJyGYWBbQmChvgdL74pCSdEfFEpJwXWZTcCvwxFPBpym7yvfpjPUsOwsIqDv/v9ZsCq63obYWYolATiATd7WgYimq+gNM0D2QLF5YvgiC8YCfFP5SVjoqCXGwQMR47GuvWhZRnMArlnueTPA1molTIKfGCkaReLyuOs/TyBcIK6t582byXuiAOGn9mSdPnuIKHt5TDYvrFikYFR/g+ZB8r6zAygPf39DBI22ls4UDlgUUU6PyRfI+dD3xhPUJbkmIo/Srv7PbRkA4jcTTpyk7hFMlnmmO2tKDgtPAISeNf1UNJa4e/9UPJsXEU9pK/ZZ+8I9mbHXXdEfVe8Sw41IgQIoKUlWsVPrAOkIFjzqtCTmPRs0qUB0TDAzFITPLY0xGBQEQkptvuVneCw14TT1LEw2meSCoU7Kk9c8S3xGez8iiBcjHjYuLY2PigayA554NnA87FNgKIvVoUJE7XVDE0ypBm7KrkabvESWCZ1mFC6hc0q2Pl6zQzF2f6gaT4B+Fr5YFjzr6HsiyA1JVmjdvajidU0BeIZbJVUCqjFGzimAIKKwhI3FAQKt48bxlJRCwMROSUKP9XCB4Rg1E8LnbSUfSZiFoUftUZ8ycZjgLwZgOHz4S9L6xgcSWgKILPITSyOdihq9WZ654WrA61USXzl+VDb7Cq49nwaRvPpf38mD+0eiCTHjtduH2h0mTJ7K/RpYIwMmEmmkFM79dMEA5plG0GuKk7lOZrFkELhQYpSRBvO6o45kLjIuSUWYB3m/p0qXlPXNgoRvNDPA5YUE4AP8v0syMpvJwiUyfNsvvRjOhwpaAwpeCAJHW2rRqfYbE6lSQrM+MsvkzsucL3Pp4pFt953lFh19UqTxiwhtC4Ap6dfTLzFqzw2kWOeYHKsxqsX1h2bLl3IAKxKlFy7vkPXMg/oh+BxqzlCRMm9XgoqQsqqcF94eA2ckBPXnypOHMAGA1UQWrU/l+fZ/MF6lNtgQU9G1bnSXIQzSVTQ1q1vXwy+oENsUTvs9ALSyXHzCqj8c0XR1Mgl8UlieCRxBef/ClEUiLFs0pJVlH7FXgBEOdvMKe3fzSQ8VaDeQJh/eFhdV4r4mAlrbcsVgx/uqkEP9NG7fIe4EDSx/zU5K812E/c+a07oqfCnZdIficjGYGKCqoXNlz8TcrU3kwfrx7thLO2BZQgAT5IfdWY2WaqHFXb1qsTNkBE8x06b7yxgTz+vm8DWKZdtJzk4RSb0srOYBc1fOPHyVQ8OrjWTBpkTulCf5Q+EUBgke+ZghgioX1h3o9/Kh8xDpWczXV/kWzhHaIBa9xhi9MnjTFsEQS4q6ttUeQiGdZQRTgTw301NRIwODPvPnmvHWLQFISP+kdVrW2UbIZVmYSJUt6/sasTOWRPbDyq2+4RRXhgk8CCjo1r8XKNNHkY9uEbh4bckCBIpJq9KbsEM+r8R/S1dIfe243LffcKqw13ajGTnKVCk1QJNxAylREmYbeViiCSQeXM/FkwSNUHklCi+i9XXDCoqfjA526s/WHIFx2f+QIZBhZLRAh5F8q/kWIjnnpYWGaNdM479UqCGIgC4A3RojGf59/Vt7LA8JglNQO0Z02dbq8FxiOHv2b69rQZgmAPbv57wtoGyWbsX3bDkPXCtK6UPuvBVN5VJ4ZTeURzBo18pWwTm3yWUAVYE3gh67eeBhN2V05hzy2mJSN3A3d6OGn0dv+f8d5/1PMt6kF+Z7nP5tBGWv+x4JHEFqrzUYAfsRo5IHmFUhoRyNjnIgQrkkTzVvwqVmyZCkVjuV3U9L6F81apQH8H35QfyO4WK5j9ltzuH08ccLjPet1DkKwxEgQMEYIs50lQbTg4qN+j8eP8ZuFYyza3Fi4HniChwIG7ZTfDEzFed8NXh/+Tt6M4/UpkzwqufTAZx3OqU1+C6gV9KxOLc5zk93byRFsi06a6d7Oj/faQtkgOeeq8RccbmS3ekC/MkmyQl07v3J3b0LwCEJrAfgV0Vm9Vcu7WRckTGvV1UA4eZCWZFW4YMFOf2OWYTs6LA+iFqjExHOGfjsFiJ4/K3/ifWJsRmk8OOFHjtJfQwfGA9a/NxJRjBFLgmAhPLvAEm/apIVHYAgCyhMwrJyp5cgRe1N+I6xYhrwLEYALpGvXzoZTeYwVqU3+XHSCSVAFFGJpZHV6BIoi5amGs1jeBhyFPbcQk331sn7DDqBaBiNcwNU+vc0g3ZQmiCirUMpKYUJrBsTzznqNaNnSFUxUeGWUEENYbWaisFqa6qMDvZFAQXya3dXEw3I6cOAg96TXAoHHyp8QQ6tBJaQr3XvP/bnvkwcuFOjBadQxvXuPbqwfqREY47ixE5grxIoI4T54P926PMj2lfXYjR6Lz7F69WrynhtYr2bVYEYpSVqMIvpAL41KC5YrAVYuOuGY2hQSC1TP6vSKsGuj7GknKaNQB8oo8QKlUSXpScyd1cEg5wLnBydNg9kyGGFIiS5P6luhICudReutBHJwnx7/6WpJvCA8iijgh66IF05atHh76qmnafCgYYYCBdDubchQz96tZ07bS/+BQEEM27Ruxyxj9XgUID4QdATC0BEfHYuMrGLlBFfyWHlAXOHrNBIEgM8BrhBY9nCNYCwYk7LBUocljc8TvTvRzV0JainZCWY5oNp12M+ePWsoeMBOOSzeo9G6Svi/leeb9eYM9r0bgSYzzzxt32cfbCw3VLYL+n86k6ZRjqoNnYKXeGpJv8TEU90EGX1BI5O2MCHNiH85ZAnyya89SVm/b3dbb2okIXLExlPsO/xlHW4kyS/1pKzj+7zGbbfZMsQHlo9y8poBKw2pK5hyw2JFwAU/MQQTeBasAh6LFSgVq0QB1iEEzqoVqoATWBkPXl8RSOUYTn742MyeF8+DqfvSZV9aEgRYtL179bG0WijAeOB/xBQaFiA+L7wmxoyxqT83+IM3bV7H/P2rJdFFkEVvmoxpMdY0Ui/LgQsZRIg3rcZjsKidVXBx+ujDedwLD8aKxfqMLHYF9IHdsH6j4W8EnxMW1cPSMeFCSCxQBY8pu57ViVQlbJJIRpd3dzRXyCrQ4YZYobriCaRj2YmHLPXcvBE47+ntXR8viT6aJtsJHiGybNS0VwtOAFhIOKlw8uNkxb6ZeOL5EdwYPsJ7RVIrtdZ64DEYB6w9/MVrYFPGiLFZeV5YR2gQbdU6g2/PLE1HDcaDsWCcyueljFn9uWHsEHwlWHr8+HHDHNCEhAR5z41R0jueG+tZ2eEfk+8FF4TbbrPWSvLll91FLxgHD3wWRv1ibwRBE1DWAUklkFasTjXaQFFOat50ObpUc/lWcGFrBek06VCAb9SXBdxCgd768azu3YemyS8OHmS5k5Iv4KRRRErrWjDy89kFJ7sdIca4sETIR/Pet72+EtJ00GoOVlMgUacEmdW0awNCRo2P9ab8Zhh1dQJIo1Ln8hqB7336jGmmU3nMhEa/Ojagvwt/CJ4F6ijK1iJiifFG4qlYnWochVkEHm4AtMXLOLuSXInvsn9lxd/LnjsUsHZvek06FKILUsaGL+Sd8MPZ/klp3pP32ULw0cXeLhCPbj26WLao7KCIJ1bQ1LPwLl68MQsCuqfVqWx9JV/XKJ8770OqWLFCwD43bXoXKpt4AoZ+FdoE9l9+2cWdCeB70FqsZhw8+JvhBQnPaZTWqAWf893tWptedPCaw4d596+FqMKtgIg9/sLvjduK/xuuFbgxAklQp/DwYWbF1nJXEvGm7AY4TzwnfUvtWOoSyIyoTJGlx7DbwYa1e8NaQXrTdwXpf1l/fGfYc/NG4urwcF4wSRJSdK+3EjzSA34npM8E0qJSRGrJsi+4Ft4ff/xp2qwikMKO54O1jXSkteu+86sBMj5rrKOOFTjNliC2AsamTmEyskCRwqQVr317+UFPTPntvFcEB+G35YGx1q13h7xnndfGj2OPNQIXgV9+2e2V2oT327v3I7R1yw/sLz7/LxYuyq1Q++zTz2jjxsDGLILuA4XgZZR5Ps/SVETTRDwZqrQllGdGVXOXIIaC659MY3/ZGkYGG0iZKQl9GIIyTZRrwvcZiKbJXy5awFbO9FewFJHCuuhmImVU641xDBk6iIYOG8ym2v6IO8ak9P5EB/2Zs2bk+hr9Bc81YeJYJqK+fnYY3+VLV6hMGbeVCKsKoqcH7gvLVwsebzTl5wWX9EBEH4/hAWvZlxaD+MzHjhttesGBnxipTchWUAPRRGaCYijAYt+zZw+7X5u2rT0uQIEgJEEk1tSj+rq8lCSDOnb1hvsi4n4jyjOdLTqzaDWW5DDcpPsUfGF27jQhnMCYMve6k8oRPPK3aTJ+3FiOt0vXzrYFCyc17o8TAx3K4VfEuuhmIoUfPu+kR9kkmv8i6f6H7ZtYBB/CDJHC65mB++C+GBN8i2PHvUKbNq+3FDW2S8eOHWnnjz+wyLjymvg8MAa9sSqfF0Qd7wmf2dQ3JrHnAejDefZMIssO0G5wiWgj4/gcL0kCqnd/bEnnL3pN+Y3A+OEmwBj1NmQ5JMhibxd8/si3xXvXe25lQzVb/yef9jr34HtV07JlS9bboG3btoZ+YF8IWhqTEXjDBZznWaAo23GeIq67/VzZBYpTRE48RcfXoevp8T5PNwVusBY9llNG4jzWZwrkekw4IefN+x+tXbOOnSyYZmsXfIMIwEpKk6Z6cP5jSYsO93ewFZB54vH+3OoZCMuKlUs8fKfwg23YsJHWrFnLpqywupD7qOQrwmrCCVa0WBGWaN6gYX22lpLVCHuggD9u9+7dzC+JaiKc2PisYG1jigrBRCPiRo0aULVq1bzGh3NIu9qmGlwQ1OcPptwoSDDCjq8X4//m628ohrOESar0m7D7XavBeCdPdi9IqRAtu3IyVJYverA2u6uZR+Ua/J/KOvOY5iOVa/HiJew+yt9AcUMEVBAarvSpJ6mYuxKsyPzgJP3jRMZaQBAuTJWU7jz4sdesVZMKFy4snfy3+ixQSHRH0xI9AYUlBxcAz4pVRAYVM4qVh2lquXLlmOCH0wVaa0UJ4yF/IAT0X0rqsnmU/oU74RjBIyyjnN+AFdKieRtd3xwEEaK6fsMa+YhAEHpC4gMVhBbkr6Z98gyhGz2m74jG50ew/ASm/zyCsQ6SQGAHIaD/MpBSlfxKO3IUrcam76h7D+ayysEEU2876/0IBKEmZAIKH48/m8AY5K2mzBpOyWPbkKOQuykumibHdB/AbudHsPwEb511TOEDnZIiENhFWKD5GJbsv+VbJpxX+lWgzO2L3JYnSL1E0S2fD/p678HEePkJ7/V+BIJQI4JI+QxY4xn967PbbP2jqKLuclNtxRQEdN6BfB3NNerQgzzELxd97lelkEDgL8ICzYcw4ZQEE9Ymm65rxBMt6wqO+DTfp8KcPXOWW+utt96PQBBqhIDmMyCKWN+IB8TT9eg7FFWniXwk/4IEeh7wgYY6+V0g0CIE9N8C6t1l8Yzpkv9XJYWr4o8jR1nJHhLmtVvBQpxlVgSCECJ8oPkQVmGkAOFMPc+m8qjJ/zdYngBJ9AsWLCSn07sbFvJD0VRDqQsXCG4UQkDzIVd613Q3es68zJqERLd6kFz39ZT/KxAIQoUQ0HwIUpccscUosmLlfJskLxD8GxACKhAIBD4igkgCgUDgI0JABQKBwEeEgAoEAoGPCAEVCAQCnyD6fzf+aD+zOcx8AAAAAElFTkSuQmCC;" parent="1" vertex="1">
          <mxGeometry x="607" y="130" width="148.67" height="50" as="geometry" />
        </mxCell>
        <mxCell id="yqM9gTFVnC1suYk9JM_G-17" value="" style="shape=image;verticalLabelPosition=bottom;labelBackgroundColor=default;verticalAlign=top;aspect=fixed;imageAspect=0;image=data:image/png,iVBORw0KGgoAAAANSUhEUgAAAKAAAACnCAYAAACWyleVAAAAAXNSR0IArs4c6QAAAARnQU1BAACxjwv8YQUAAAAJcEhZcwAADsMAAA7DAcdvqGQAABvKSURBVHhe7Z0JmFvVdcf/WmffPYtnxuN9wQbbYOONOEATdgOBkJCQpIEvBJKUfiGlIW3aEkJIQz4SQhMKaVKghUKAGEPY47AYG4wxMRgDxuN9Fs++ShpJo216/k/SWNJoVkujJ+b+5nu29PT07nv3/t+559x73pNhQIBCkSKMof8VipSgBKhIKUqAipSiBKhIKUqAipSS0iiYJXt9Pr4KrlCMC9Yfmy8zwxpak36kRID9Xi967U74A34RoF+rRMX4MBgM8Hp9aO7oRlVpCWoqS2Eypl+HNqkCDAQG0NlrQ6/DKa8DobWKidIvAjzS0KqJcfXSBSgrLgh9kj5M2iVD8XWI+Lp67Up8CUS0JwzgvX2HtZ4l3ZgUAfr9AXT09KJbxMerVZF4PB4vdn6wHy53f2hNejApArQ7+rRuV4kvufTY+nC4sRU+vz+0Rv8kXYAMMuxyVapAY3JoaO1AZ4899E7/JF2A9PeUzzd5MDL+4EAdHE5XaI2+SboA+8U38Xg41qeYLPqcbuw5cBQeEaPemRQfUDG5GI0GtHfZcKC+KbRGvygBfkIxSsBX19yOo02toTX6RAnwE4xPAsCDDS3a8JdeUQL8BMNBL6f4g/vrmkJz7vpDCfATDsde27p6cUBEqEeUAKcIB+qbcay1M/ROPygBThEYlOzefxS99r7QGn2gBDiFCPj92HukAa5+T2hN6lECnGJ0dNtxpLEVfp3MTikBTjUGBnCooUU388VKgFOSAby9p1YX+YNKgFMY5g+6U+wPKgFOYZg/eKixJaX5g0qAU5yjx9q0gepUoQQ4xWGu5t5DDSnLH1QCVKQ0f1AJUDGYP/jxofrQmslDCVChwam6xvauSc8fVAJUDMLbZyc7f1AJUDFIKvIHlQAVUUx2/qASYBpjkuDBbDaF3iUW5g82tHSE3iUPJcA0htYqI8MSepdYGJTsOVCX9PxBJcA0hiLJtFqS9tSJycgfTHsB0nFmQ+h1SSa0gLlZmWIFk/eASuYPHm5s0SLkZJD05wPaHE60dvZgIAlPQTXIX0D229LfCbvPmZQyJorVaEGZtRB55mwEkljF3LNNusmm9u6kCn710oVJef5gWgvQ5uvDXcc2YbPtffQP6O+JUDPMBbhh+sX4m6JTpatJbmfDzJb2Hpt0m8mxVGy98844FRmWxPqcaStAk8GIR1pfxr2tL6LAmBFaqy/8cs7TrMW4tfrLmJNVGVqbPNxuDzptdrj7ffAleByPKfxlJQVYt+yk0JrEkNYCvOXI/XjTsR8ZhuQMRZwoPGN2xTdXfQFr8hcHVyYZdvd8WCUfCsWm9SYw14/Wb+WS+aF3iSGtBfi7pmfwYMfrKNKpBaR/Wizd8L/OuBILs2eG1k4uiWxei9mMOdUVoXeJIW2jYFbrpdPW45SsGfAxHBFB6m3ximU+t+g0zMuqDh50CmCknLgltNMEktZBCOnx2vGh8wj6/K4klTBxaqylOCl3tlzlBt0d20SwmE2YXZVYC5j2AuTQg0GnhjwwwIg0WWc++SgBKlJKMgSopuIUKUUJUJFSlAAVKUUJUJFSlAAVKUUJUJFSlAAVKSXtxwG1YehkzBGlIazh4OB3clAD0XFwBtw46m6Fy59eP1OaDIos+ZiVWQ6TdGzJqG8lwAho+Zo8HfjlsU34a98BeHnlJ/VMdI50AvnGLHxp2np8sfRMZCUhQ0gJMAKL0Yz7jj2Nhzq2SsVbWf9THqZ/5Zhy8C/VV+LUvHkJvxVATcVFQF+n0d2GLINZiS8EewWX34VOf+qe9zde0joKXpBTA+eAT7vyea1P9cUvNZFnzkGFuTjh1i9ZpG0XzMi3x+fAr5uewV5nHQKB9PmZ+mSRY87GeUUrcFnJOlikZ0g0ygeMgV0OE1Hr+1vRH9D/jzMnmyJzLqoypsGUpHtklACHgUJUBElmPasgZBhY6eov+JduqKk4RUpRAlSkFCVARUpRAlSkFCVARUpRAlSkFCVARUpRAvwEYeQzadJsUD6tZ0K4z8OuZnzgqoNzILW/e6sHik15WJe7APnm3NCaxKKm4iJgMsK+vgbc3vgEmjxt2sMgpzpmmHB+0UpcV36elhWTaJQAI7AarfhVw2PY2P02cg3J+amCdIN1nGPKxs1VV2BF3sLQ2sSh5oIj8A/40OW1wypXvSKMAW5/P+wBV9rcqJW2AqTDvTI/eJX7BgJaFzzVF8+AH+XWYtRYy6ZGQirT4m1uR+hdfPjAbFtv4n+Nm9Ge3d+HJzu2YZvtI9j8ztAnU5dZ1lJsKFmHdfmLYU5CTqAufMDuvl48/+HruPuvm2B3dcM/YibyAM6sXo6b1lwHsynxGbqE6fj9AQ+YmD/VsRrM2pKsoZiUCtDt9WBz7Xb8ePO9qLW1oNiSI97XyCfKbmFl9TL8ZP23YUmSABWTR8qCkG6nHXe+/jCu3nQ7jvX1oNSSO6r4FIqxMKoAPX4vHt71HO7fuREFJiuyjMqSKRLHqALc13wIf9izWQKO0AqFIoGMKED+PNO2uj040lmvulxFUhhRgH39Tuys/0BCFTXYq0gOIwrQ7fOgtu0ILEqAiiQxogB9AT/sLgfM6vl7iiQxogD5+2BWS/J+jVuhGFGAA2L4vFYV/iqSx4gChEkUmKfG/RTJY5QuWJZcC5ChghBFchjZAgrGnAwYi7KCalQoEsyoAmRCgaEsU0SYKVsrESoSy6gC1DAZYa7Og6k6F8icWHfMDF21pPeSDEZMx2p2deKcLT+Ae8A3OBU30O+DxeGHy+HGgO34nWil1rwhB8ldLylfgGtXfVF7qLgivTGZTKgsLwm9O47BP4BpWYVip8ZmzyIZtwAnQjhlXvHJxWowYVFWFb408yysL1uKqpzSMVnNSRGgYmrgEUPjhg8Lc6rwd3M2YMP01ciyjPx7JeO3mQrFMFgNRuQbrDja14J/++gh/Lr2afR5R74fSAlQkXAypDsODPjx3w2b8WTd1tDa+CgBKpICHTaK8JGWbThibw6ujIMSoCJpMG44ZGvCju7aYe9TVgJUJA1aQdeAB/vsjfAGvMGVMSgBKpKKRSTWKEFJvxKgIhXQCtq8Tu0pGvFQAlSkFCVARUpRAlSklE+EAPmAonhLMmafudd4ZcUu4ymb207ke2MhfLzJqItEkLYC5Lwjf6w622hFuaUYMzLKUJNREVrKUWGdhjxTtpYI4R44sVQINmCflEWXepqlENUZpRFlDV2mW0uRY8yU73hHfWoX98398ni530xjhnbMiYB1lC3HUS11U2LO197rjbRKRuCBukLHsip3PhbmzMJ8aznKrEXaY8n40MrgdgPwS2V3entR5+nAh31H8IrtQ/negPYT/+OBAjLJdXp63klYm3+S9gy+bBGJQXsi/VAiy37fXY8t3bvRIMfAcmO357ZW2dfnitfizMKlsEhJH7nq8WDby+iV78cvYWxQxHMzp+Pq8nNQJcds9zvxXPc7eEkWTpVNFnxo5srCefj96d9DoTUvtPY4aSVAWqEz8hbhqtKzMTerSrth3iRC4BnEdjLBZ+QF17ESWr09+J/m5/GK/SNNDGM5H9rNHFMObpp+KZbnzUe2KUPLcSTDVprAsnk8/GuTch9oeQl/6X0fOTHi53ZnifBuqPyciCJ4+yv3+1LXDtzd/KwIcuLYAh48uuBmzMgs1eqHUIQ/qf8/7JYLkokDk8FoAkyLLpjdlFP0crM01I9nfh2Ls2cNPoiRUzyx4iPhtVwo1Brp3m6ZdTW+L/vIEqszWqfMMk3GLPy05mv4VNFS6RqtobJGFh8JHw+Pr0Lcgx/M+BIuLVwJh3TJUd81GLA4q0aOJ1P7Dv94WazLXwKLtm5i9EujX1CwDLOzKgfrh3+8gOZlz9BEoRd0L0CvdCWVIp5f1VyDi6d9SusOWZnjhQOhtF4XSnd3o4iwyJw3rE9E8ZkNFtxadQUWSzfPJ0RMFB4rj/m7M67A+txF0Y0vp0GrFHk+fF1oyRfBLtes2HjhngIi7EtKzpBuOHr2gZ+5/O6kpddPBF0LkEKoEgf6e9Mvw7K8efAGfFoDRcKqZIUy5Z//c+HzkekPxlZ0+LvrC5bipsrLNV8oniXsF2FeWrwaqwtOFn8uWnzcY+T+h1siCYvw2ukXoVSCAZ4X8cvfu86jcIgIgy5DEL7aULIWucbxd8L0/U6VHmJWZrlm/cLwmBw+J/Y4DsGqo2bXtQBd0hTfqbgAS3JnDfpekdD/ow2rc7Xize738efOt/FS5w681r0LB5wNYj39mjAjGzfMmoIl+E7lJUOsDAVZKNHz+cWr5FVYKsdxyfY7e/fixc7teKHzrSHLK1J2S3/XEBEyMKm0lmCl+LCukKi5RZ2rBQedx6Sc4yVx25rMCs1iMugaDyx3lZSRIW5GJKyDPX2HcdTTLheQfppdt0EI/ZgvlKzD9SKS2FQeVjInt3fY9uKJttew290YOrroY5xjLcZVZZ/RLB79vli8cl631T2MnY4Dg0655jTnzMWPxF+knxlJr8+OH9c/grf7DmoWLR5+EW2GfO+WGVfiM4UrNDGFodV8tnsn7mrciOzQvhlYfbn0LHyj/FzZ4/F9ctt3bPvwT3UPIlMs7ljg5VJiKcSPZlyFeVnVUaImNx68B7XupkkVYFoGIRz6qBLxfK3i/MEILpJDzib8e/2j+Of6h3HI04ZCEVeBtlijlmavDXce24S7jj2pDYvEWkIK7LNFKyTSleg2tI5yqciYNqRizEYTXu3Zjb/2HUKxBAixZYUXfkbB3NbwOPrE34oskdd6hbkARWJhw+VliBh29H4U2vb41vRZafnnZU4f1leNhftcJEEGxxMjxccLttZZj3dd9bqyfkSXAqQP9sVp65FrCkaHkRzrb8dvW57DW459KBLRjWSZadXo523t/RC/b3lRs06xIjwleyZmZlQMlkMfyqBZnOjtTLKO3XpmjFWMB4+pN9CPdk+P7Ct6P/x+RsRPi4nnigP9rfjAcUQTSiS02uvEDx3qCAyDHOPa3IXIknoLwz3yIn6qY+u4x0AnA90JkD5YlbkQa6XiY6NPdplPdr6JXeLLMM9sLLABLCLEzb27sbXnPc2ShWGzMuKck1k6bJcaCbcZbfgmDMf8IrvfkaDF3CQCMcUKRIpalTMfFdKtjkWEA3Jua/OXxPjLBjT1d2CL4+Cgm6EndHdEtECLcmrE+mWH1gRhwFEn1u+5rrflSh7fSD5FSEE82PYK7BIJRlpBn4ja4e+X5g02GhvJK4FGrOVlBL6qYLG4B/xkdDGwjG6fTXs1iLzs9vfBHnCHVgShld7pPILavjrN9wvDcmZKNDtDuuHRpMxpya8WrUGemd378eOjBX5NLj5TKPDRG7oToFequlyixdgDY0W+0rVT654nSocI4pmu7bIPr9alUhF7HIdR6zoehVI4B1yNmrWNhD7ZyrwF+FzRKvmuRXOuR7KGDDI2dmxDh7dbu3hYXo/PgS29H2iRdIQsNSj8ZzvfCL07Drvhs/MXa87DcNA6DkiNnVe0OmrYiN9g4LRT/FZG9HpEfzZZKM0oku4u2sqxAd+QqDf3BB7xISE//tjxBu6WoOQPbS/j3uan8J8tz4tIxFcLNTCd9KNiaTk0EuuTZRuzcH3Fhbi5+gvYULxKm+hnFBsv4YD7eU+s2u0Nj+F+8T8faH0RP5XXb9s/1ixeLPTPtjj2o6W/M8oK8hBOy52HgpgeIRJelOcXLNOCp8julxdtrfitTe5WfTa0oLvjom+XHfP7v9qwi9+DBhHKiUzQ85ucCdgmVuihtlfxUtcuCRQ6o/bI1/TdHpPPYwMW2pkcUxbWi396Q+Vl+P38G7WpvbnWMrT7XUOiVcqM0Sct4WPtr+Mj8V0HZJvhzsAtx/aW/aMoEXEIqkx6hPMLlkrXHf++ikwR7Ibi1ZqVi7TJXvGh35UyO6Xbjz0XvaA7AdJyMDKMhYPKY44GRyDcDOF0gXgNw+5we99BvNC5I8oaER4BRcFvcTrv4mln4J4FN+LeWddhTe4C9Mv27ASD3SIrOFgCh8PDr4eDAtpi26fNjETC9ReXnBE3rYyuwElZMzA3u2pI0MNfE33Pvj+uxdULerXMKSfPaJHu+QVs7tkVd/gmDCN1w4ABqwuX4NZZX8dvZ38Ll4so54sojNLwnMse62VDmTT3t+Gguzmq+6fgq7PKcY5Y3tiZEbomq5m8EBNBM9rfLb5fbX+L7Hck2acWJcARCEiwcm/T83hEouceceaHm9ajrWOUzM/miSW6ruIi/KjmK/iHqsuxPv9kzYoG7eHI8PvtEii94zggko+GwcUVJZ8OvQtCaZdaCrEsZ/YQkbEbf7xti1g/fTexEuAIUBCegAuPiv/2rUO/wZ/at8Im3VqGyapFtvGgtWLEXGzOx1kSGNxU/XlcW3YubBHR6UgwUWCX7WPxVftDa4LQ0s7NqsBSsaxhX5P/VmaWY3bm9Ch5azMfffXY5WqI687oCSXAUaAIGRI5fH24o+lpXLnvZ/hFw+M47GqBOxAcPxzOKhLm+l1RdjZuqfw8eiSIGM0S0gdmt0nfLVbkDIDWFpwy2D1L54/zxcJmxGTN0Nt8pP0VbaZI7+hOgOw6YrsfEq+RT4Sxzmhwu/CWnOs1yNFtlODk6oO/xB0ixGe6dqDO3ar5iRRM7FHy2+yezytZjW+UniWBRLyzi4Yd/XOdb8qr6LPm3pdlz0aZdLscsOf/p0ngE5msQXE2yPG866zT5cxHLLo7Qo80pE+aMxKKkhnJnFI7UThmx0ybElOe9r9jmKENNnBvwIMcsSJ0/LktoQjyxeLkGizYbv8Y/9X8PG5vfBT3HHsKb/bsgUusYqzloggpkkskOJmdURp33DASRq3b+w7jgLNRCzIi4czIHOlyeWwbCk/VphIjrSpfbbfvFddh/MmsqUB3AqRj3evjMER0pfL5wwszKjRhTBRas2mWabhz1rW4b8F38b8Lv49zCpcNsYYU3LLsmbh/3o14QLa5b+7fS1Q7NCuFQqE8mCDxSs9u3Nr4OL558B483/lW1IwEoUgKzblYlb9YGzgeDZNYsk0dr2v1EYavckyZ2n0xzOA5p2iltt9IbF6HCHC/vIper1d0J0B2Om39Xdq4XyTsZS4oXg17TJr5eDAazPjH6RfjtLz5yDVmodJSgm9WXIh5mVWDDU0xzskoxw9nfhULs6uRJ9stzpmJn8/+pvZZvGalVeQnFlk6vV247dgfxTI+B2uMb0a58k41Pk95NDiVt9mxFy39HVqdhKElZcLp5YUrMV2saewzV2pdjWjqb9X10EskuhMgo8BGqUAmCUTC+xvW5J+EGmvJhKwgrdfy7FlYlk+fKfh9iqaY2TASXYazYThud0rObO3Wy/B2PvHhSiwFWC4R6Ghls+FLJPC4v2MLOjw9gwFDmBJTLgqNx/MBR8IUCOAN24falFoYHnOBOQ9XlZ+j1Ukk/GyX8xDaffY0kZ8OBcgocK+rQUTIOdHoK3+aiIB5giajWavssULLxe7y2vLzNYFEfpNdpSfiXhMKLF4+ICk05YRejY0urz306jg8v+GGcGLh6CETYGPvGQmKMFerk0h4g9ObPR9q6V3pgg67YEhg4MFrPbuksWLmhOXTC4pX4ZKi08cUTRKKzykCu6HyUszJroyartK6e7FSB91NUb7WcDAzhdk6Y8V6AokThMcX756ReHCwe7fjEA572rV6Shd0J0DC3L2nu3bgiAgjOj+OE+9WXDt9A64uPQsusZCUA0VGAUUutGn8jE8e+G7lxdpNRrEWg426QyJZJmyGG22kfMDVBUu0fcYrL3JhxHxSRhlmZJYNKbM34BqSDzgcPCKmkO0SK8j9jgTF+lT7VuTFXLR6R5cCJGzE3zQ9jT4/742L7n7or10z/SL8bta3cWnJGiwQ347PP2EeIZcqcc7nZFXj3KIV+PnMq3FZyacG/bkwmvXzduPF7uBcbxiuHy4f8HRx/q8p+4x2x1q4rNil0lqK03Ln47aZ12jHGklA/uo9nZoAx2qj6Ia8IxdJbD1Ewi79fYl897gbtS4+ndD1ozloh3jH2FdKzx4y2U7YIGxkm88Bm/g//tCp0JrxfpIiCTBoQeOJj6L7ecNjeLn3/cE71Aj3wK3vEAEtz5s3xIL55MLo8vbCNcz4IcVQJP5ZnjlnSLkeCRp+UvcIdjr2j2uQmGOVt9d8DZ8uXBrlQhC2yoCI9E45l5d63os6Fz2QlnfFhbFI9T7buR2v9rw7ZECWhC1MvjQ4LeAssUxcaqTro/hIPPHRqjzQ/Lz2vJbYG3XYoJH5gLFRLG9Kp6ULlxW78ClduaasIeXyQvjQcQTv9B2/BXSscAD+qY5tUgfxxGVAs7sDr9r36fKmo9HQtQDZ9Exfv+PYk9jYHhyUjRVEJBRk8C8+FJRTfLD7W17A413bNV8z3t4okJcd+7R7jllm7DbHyxnuLxoeM7Ouf3Fso5aVPV4YwW/p2z/knhHC0rba9sAkPurwNaNfdC1Awq6f0153Nf8Jdzc+iY/76rVukGLi31gIN9ohCWp+3fQMnuh4AxmjfLdcrNh9bX/Bpo43tem1sZYVSfg7tc5G3C5db5sEFBP10XjvM2+tjIR7Z9LpW1r6VrTFTRd0L8AwbIDNve/hZ41PiIiexm5xut1iHZmjR78r3rNhuI7d6cfS9d0rAuY9Ga9Lt8uTHougeFfyQ20v4z+kPN5bwX0G9x0sJ94SPhYuFO6zXW+J5fsj9kqAcCJdJL+7zVErwcYBLdmU++czCt+y7UO9u0XOafwXiB5Iq+cDEnY5nKTjnWkGaYgzcubilKwazecLP2OPg8t2iRr3uxqwo+8gWplMKkLUuvBxngcrh8MuXvnmIomuP1uwXHzAYumm44uJpbDsj511eM7+AYzsGqWKE1F7PA76uxcVrtDS8N9zHMTG7p3aFKBe5TdaEJJ2AoyEB87EAU6fxYNWI5EpSRTwcDcGxUK/LRkzEhQhz5kRPy8m3jqgZ9I6Ch4NXhIcdoh9Pkt4SaT4CBs8XjnxlmRNh4V9Ypahd/GNhbQWoCL9UQJUpBQlQEVKGUWAHFpQGlWcGBw2Gi6EHVFdHNPKH2cOnEIRCbOScs3ZYsjiB2UjCjDTZMGSghot5FcoJgKHruaJhjJNwTHaWEYUYI45C6eWLtLGnhSK8cJJgyJTFpbn1WgzN/EYtQs+s3gxFuYev2lHoRgrnB5YM+1krC5eFFwRh1EjjPn51bh+zoXwiyOpUIwV3ltTZMnF9bPPQ2HG0BmQMKMKkJPvl1atxS8Wf137TY0TuS9XMTXgVGGO0YIHVt2EFcULQmvjM+JccCx7eg7jh3sexF5nE0wB/5BsYcUUxkCfzwCTBBtnlSzGbQv+FtPzi0MfDs+4BEh6PQ6801mLP7fvRlN/7xhsqGIqkCXCm2spwrkVK3By0dwhD0wajnELMBKn140BJUCFwF/inFDS7okIUKE4UZT9UqQUJUBFSlECVKQUJUBFSlECVKQUJUBFCgH+Hy2C515leT7CAAAAAElFTkSuQmCC;" parent="1" vertex="1">
          <mxGeometry x="791" y="54.75" width="80" height="83.5" as="geometry" />
        </mxCell>
        <mxCell id="yqM9gTFVnC1suYk9JM_G-27" style="edgeStyle=orthogonalEdgeStyle;rounded=0;orthogonalLoop=1;jettySize=auto;html=1;entryX=0;entryY=0.5;entryDx=0;entryDy=0;" parent="1" source="yqM9gTFVnC1suYk9JM_G-18" target="yqM9gTFVnC1suYk9JM_G-26" edge="1">
          <mxGeometry relative="1" as="geometry">
            <Array as="points">
              <mxPoint x="920" y="260" />
              <mxPoint x="920" y="172" />
            </Array>
          </mxGeometry>
        </mxCell>
        <mxCell id="yqM9gTFVnC1suYk9JM_G-18" value="" style="shape=image;verticalLabelPosition=bottom;labelBackgroundColor=default;verticalAlign=top;aspect=fixed;imageAspect=0;image=data:image/png,iVBORw0KGgoAAAANSUhEUgAAAWYAAAEiCAYAAADK73hsAAAAAXNSR0IArs4c6QAAAARnQU1BAACxjwv8YQUAAAAJcEhZcwAADsMAAA7DAcdvqGQAAIJtSURBVHhe7b0HgCRHdf//ZmZzvL3T5ZNOCYQEykgiGRDZYHKyCCKIIGxwxDY2trGJBvzH6IdIAkmILJGTCCIjQAjlhNLpcr7NeXZm9v8+r7pmeudm8+7M7F59d2u6u7q66tWrqm+9rq6uTowrJCAgICCgapCMtgEBAQEBVYJAzAEBAQFVhkDMAQEBAVWGQMwBAQEBVYZAzAEBAQFVhkDMAQEBAVWGQMwBAQEBVYZAzAEBAQFVhkDMAQEBAVWGQMwBAQEBVYZAzAEBAQFVhkDMAQEBAVWGQMwBAQEBVYZAzAEBAQFVhrDsZ8CSBpXXKnCsFicS6qL9gICliEDMAUsWVNzJCNhX6kDQAUsRgZgDliQ8KWd152A6I0OZnPmDjrqUdNSmbH8q8g4IqFYEYg6oWlA1E/o3ntBtVEvHI5bFf/fwmHxxZ698e2+/PNif5qwkU0k5r6NBLtrcIc9c2ywNSb3eQsdIWuMlnkQhsoCAqkIg5oAqhhJoRKnQKxVVqdeeWO9UUv6Xuw7IV3f1yDhms6de24zLUY118u6T18jrj10hdVxgJOzimDgGXdgLCKgWhFkZAVUJR8KOlh2gZmNYGcnl5GNbu+VqtZYh4WRKLWJl20QyqS4hqZqkHBoZk//803751aFBvdLROluLTyN3FM22MAQSEFAtCMQcUJWASj0YchjH4lUvpV757r4h+ew2tZSNVJOSy+n5RNaOCZfV46QS9aGRjFzyUJdZ1xC3nnXxWezE6eIOCKg2BGIOqFo4AlXyTUCpahkrh+4fHZMrt3dK99CokW2evsepypAsZJ2TXCKp4ZPy4z2DNgZtVOw5WOOzMWuO854BAdWDQMwBVQolTLVm1fZVmtWtHmbVxP2GkuzPDw7ZsIVZ0RYU09d2Ck7DQurZ8axcqdb1vf1p9S2Eg9TZ5ok9IKCKEIg5oCrhCFN/jUvd3/0Dafn0lm5Jj3EWUmXrXRHMyxH6HT3DcomS82jOk7Gxc4HPAwKqDIGYA6oTSppGudE8Oazly7d3y919I0q2ULLzd/D0GvOzMLZj135rd4/8+tBAFNJitrjDo7+AakQg5oCqBJYuVnLOBjLG5RcHB+XqXf2StalxMweheRB4YGBMPr21W/oyWfXRGI2bSSEgoPoQiDmgKuFsWipoUvrGsnLZ9l7ZNZiWJGPLFmLmcHEl5LoDQ/KtPc5qxo9twhg6IKC6EIg5oCpRIM+EfHvPoFy3TwlVPf3Qxmxg8aRE+kYz8ult3XI/BK9x5YiLhAICqgyBmAOqEjm1ZCHPHUNjctmOTukZTSsxMxNjbhYulyVTKfn9wQG5fHuPjOXUhla/ucUWELC4CMQcUHWALLGOh7M5uWpnj9xwaNje6Bsfdy+UzBW29sZ4Qr68q1du74Pog7kcUJ0IxBxQWUQma36WhW0YEU7ITT2jcsnWPsmqdcuYg3v7Lwo3a0QpaI3fNTgmH3uoS7rHeBAYJZkHR7gwXyOgcgjEHFBZ2Jixn1nsprBBwqNKxlft6JLOQf+Gn/rPZ0zYX8dW4/7mrj750X63jobxMM5S0T97cWWuCQUEzB+BmAOqAI4IjRv1l6Nr9/fLt3fzKrUfvlBnpD1HjLM+M6Sr0WhUA+m0En+3HBjNWsp0CPHY55FSQMC8EYg5oGKA/LytzAHHWLB7hzNyyYNqLY9m1IMhDD0DKftXsOcEJXgbCqHKayrJlPzqwKBcuq2rMNPDW8qJMIwRUFkEYg6oGMxGVtKFd6FG26q7Yle3/PbgiCSZ48YDuiRjwQtAljYUwgp0bgx7JJOVL+3okVt7WUcDaVjciD39Q6CAgAohEHNABQEFYqgqJapLKQn/sWdUvrS9TzI5yFhJmwd/WLlmzcKWbOcCrivEQbQshLS1Ly2f39Erw1lH1n5pUAsaEFAhBGIOqDjgwKQS73AuJ19Qa/lPvcOSVGOZ17ELwwpuCMIR61yg1+UvhZWjPY3/Czu65bqD7gUWOxEPGhBQAQRiDqgsYEN4Ui3mnx8Ykq/t7DNvhjQce/oqugBUaeMTESNrfHaUSEnXcE4ueahH9qfH3BuBGsaHCgioBAIxB1QUNt6r5NyVzskV23tl/1BWj2e/HsbcoRZ5clx+eXBQvrV70N44dKQcqDmgcgjEHFAxOFJ2tvA1e3rluv39ZjkvyIO+GYI5y/yNZ7Ly8a3dcu8An6HigWT5uoaAgGIEYg6oGJxtmpCHBtPysYd6pD+dsTnG7qOr5YST4099oza3eSxLxxAs5oDKIRBzQMXgHraNyxd29MiDvSyAzyJFnMC/fLDl8rUlZDM5+fKOXvl1F7KU024PCJiIQMwBFYHn358fGpLP7eyVtM1fs5nNerKcwwiuF+BRINb6rqG0XLa9Rw6OqvVu/gEB5Ucg5oAyIEZv4+6L16B/LCefeqhbtveNSpLV48xG1XOVGN/VpJlPzZe1v7+rX75pX9ZW77woSF0BuQKOSARiDlh8xPgM6jXjWD2/f2BArt3P/GE9inOeG+MoE6KE8+ZxQobGsvJFteK3D49JSv2dbJFMehAIOmCxEYg5YPFhROvJLGFv+N0/MCYf29opg+mM1UL/IDC/XoUnwkVHPC06iJwkahLy24ND8pUdfbagPnBvBKqzvJRLtoAjFYGYAxYdRmn6g4PXmIp29Z4++f3B4Zi1zCvY6my6HPDbcoGmoLLwpiHDLZr8J7d1yy097kGgW0ODMH6ec0DA4iEQc8DiwzhWf7BG9e/2vlH58vYe5eE4+TpidK6ciI1rmzi83KJSqhg7Bkbkk9u7ZSSnYZjbzOnoNyBgMRGIOWDRYS+NwHRa2wYzWfnIg51yf7+zRJ396SxRI2Uzn8tJfqTPxqfrj92LJz/Y2y/f38uXtRkV9+fLKV/AkYhAzAFlAGQGtSXle/sH5LtKdjnGkiMOlIT7xJN5MGctf6IciKUFOUcdg40166lDQ2PysS3dsmc467oPO19O+QKORARiDlhQOFqbCLgMKts/OiaXb++W3pGMJJX1XDj9tQd+0X7JGBYT8bRUDhPFyeOGNBLyh64huXpPd+TnrfuAgMVDIOaAhYPylafYPCIOY3LDl3f2ye8ODqlRzEO26ic3m1etxDyayclnt/Xax2FZfc6M5oCARUQg5oAFAVzlDV/bmIeba8GQwJ19w3L5tm4ZGuMEMzGWAru5ceWktpJ7uoflSrX2h1hHA3KOQgQELAYCMQcsCPLPzoBxr/sqSVIdC+B/cVef3N03Ei1SxEwIEDF5tcLyg3XPb0K+uqtfftOpFn+1yx2w5BGIOWBhAHnBV0Zm2Jm6Y8ZlQn59aESu3NHrTsLg9sVqqp4Frl6YrG5OM2MYXSNj8smtXdLFKnjqVeXSByxhBGIOWFgoY43zYE/NTNa/OJAek09s65TO4THluZT5Fz4XVe3UNqG3sQeBP90/LN/YO2DHAQGLhUDMAQuHEjz73X0D8uP9/e4cFqiBrXnYUfUC+ZyMJrnu8gr5p7Z2y/0DfFlb/WNj5W6ec+E4IGCuCMQcsCBwpOTB2HJCHhwclSu29choetwMz0IIR3bVD0+0RsFGwoyR3941JJ/e3i1ZPXYhopzpxr0wExAwPwRiDlgQ2AMxI18ITCSjPx99qEf+cHDITTGLwi110MFkc+Py7V198tvOYeuAzGjG6X6g5YCFQCDmgAUFHzOFrG7oGpbv7eYNP2WsZcRWzMdOphLyUP+ofPyhLukd4+Ox6m/DNH7sPCBgfgjEHLBgcF+YTkp3OiuX7+iVHUpeyeS4kdlyglnISsTf29snPz0wqHmObgmWWT4DKodAzAELBMdKDFtcu29Avr6jRxIpLMnld3PvXtVOynAmJ+9/sEu2DI25IY3QnAIWCKEmBSwIWNATUt47MiZXKCkPjLEIEJbkcqxi7nEf2bvl0KB8XvObjRY9CghYCARiDpgDJt6zQ1NwknKxkfL1Sla2Hobd8y/XcVfNmzIx+b5qZ7/c2jdq++S5oB3dyx8UfAMCpkMg5oBZwWZdQEGQrjnnz4387X3D8qltPZK2BfDxcWeWJ5KafW0+Ss47BzTfW7rs47JurrZz6InFmpa3HgIWA4GYA2YFZyMq1cDNSkpu4aKEZHLjcsW2Xtnbr5Yj57yl7Fc2Wo6wOwK9J9CO6Bt7+uXa/TwITAofPCHfdE2JKExAwGwQiDlglmA0WckmItzILpTv8cBPySmrRxMGW/Nv+y030DnxidZxSaZS0jOSk6t29siekTFJMYxjnRPbJBoJCJgVAjEHzBLum3gQLl/5oAIdZHrc9l45OJR2q8flh5WhpGVKzGQL9jU9KDlrvn+2v0++ssvN3bbxdbg7ChoQMBsEYg6YNaKbdNuDf76ws09+sr/fFi1yixTFqAimXo6w7OsP/AsRq4f2T/L57d1yR+9INH0OPbg7ioCA2SAQc8DsgDkcLYUJ+dzZn5Yrt/fIWFb9IKsJ0EB563m5wXVMxrn2gC9nfdAd3aNy1c5eGc0pIUenHQI5B8wcgZgDZgezBHnBQuxrHp/b2SV3qYXICxeQ9WEEtJzHmOl1UISRtEK9+CI4C+pfHy2oTyh/dxEQMFMEYg6YJZRg3L/NV/7ytj7lJ0c/RzpMA6qYfUNp+dCWTjkwyoL6DO8w5mxBAgJmhEDMAbOCWw9DZFit5U9v65X9w0o+kRUdAKBikV8fGJBv7+sraGXZ3jkELAYCMQfMAm7cFPL5wq5e+TkL+PAettmKlSUepMiTYAVhjwFVSSPpcblie588OJC2V9UDAmaDQMwBMwbP8bAHtwym5dKHuqVndEyP3NyDSqI6uoYIekfB7GYeBN7cOSif2saC+vhXiXwBSwKBmANmjnH3MOuaXX3ypx6+eB3Naa4wkAmrNOXM+crCZHBWc0YZ+Wu7e+WG7mE33BOYOWCGCMQcUBKOQ/Q3IhO3AL7Ib9QK/Mz2biMdbNXKcI2rtkbDuYRsaqyVd560Wj5+xgZ5ydHtUp/CrncE6VBOwkZnCTcWn0rKjv4x+cy2HumOFtT3c5sLsvltQEABgZgDSiPPHW6he+YsQy6Xbe2RrX1pSaY4k9XzzGsmXDmhpMekaSW/Tc01cunp6+XflJjfeOwKufS0dfLm41cpN0LGNifCwpcPLl0cszFYk/rq3X32yjq+dtdh4nDEjvkGBExAIOaAkjDaMH6B2ty46XUHBuXre/tt/HRcLVUXSg/KPuPAERrDKC/d1C7PXd8qDWolg7X1NfJ3J6yUU9vrrc9wvmWEKS3SB52D/o+kx7RD65ZdNoPFnfJ5cNtl+xZOwBwRiDngMNjKcEq2Zm+qeZfS/V3DWfm4WsujafcIkOUsjViMiMpbjWy8VtM/taNRXre53YZYsOp5uYMO5LjGGvmr4zokpWQdUWT5gF68QzfagfHyzR+7BuVLu3odBav8bN2r3AEBhyMQc0Bp+FtuuFf3v7SzR67vHFAPP3yhJyCfZHmphW6AV8JrlHT/6vgOeWRrnRvPVVncOeRKyPPWN8tzNjRrUNfBlBeaHnIo7TqpWEcjJ1ds65E/8iAQH1UbHQyIJA8IyCMQc8BhYE1huMLRSkJu6xuRz+9Qa29Mj+3Vaz1pXAIpm+3HQVkAl43ncvKsNc3ywvWtNvZt1GYiYJ1q16FEvaGhTt567CpZ11Sv4bNmVZcNDPPYmiJOP+gxqXp7oG9YPrG9W0ay2rkRhA5FQ5S/4wiodgRiDigJKAWLjjf8LtvRLfcqOdvnoiARI8PIajbLcLFA/Gwd8ZMsi9CvaWyQ1x3XYePJdAuQnuO2nBK0C8vvE1c3y7OUvFOsyVk2aMpJiFcFQqaY5UyH9pO9/XLdwWgdDZPZTgcETEAg5oCS8NbcDw4MyDd39jmL1IiEnfzB4gOCM+JyWyzkl29qk2evaTFSdlJ4edTpv5/PXK8dyd+d0CEPa29QQmftaOdfANW/2G++IL5Ys4oUZ9ScEtk3OGYv5+wcHjN5XNbsNyAgj0DMAYfBPUhLyP7RjC3peWAoWg8jskbLhmgoAGIzElPBjmutk4uOXSEN1FzkjMxOJxn7EQmq48vVp7c1yBuO7dDwqaiz8UTMlqvKlyeyw9zmnx7ol2+p5Wwpl1eEgCWCQMwBE2AcoZwFsX1fyePnzL/lDb+CyVw+WHJKpgyhKKvV16TkjUqyp7XX5+V0vFygW+ZlRJeZLyT9qk2tcvaqZtt3J/khBoulfLDkVEK13j+2rVvuH0hbhxdJHBCQRyDmgMNApbirLy0f38qDKkdeZaawAvgStVrK/D32qGa58Og2R7jKyNBZwh6yuaAgbhG7WQ8JG4t++4kdclRDrYZ11nRFYHcdSJiSB3uH5dKtnTKUUVpWMSum34CqRCDmgDwgB6gMLv7Mjm65tYs1HiLSyA8rlAsknIzIVaS9LiF/pdbyeiXXnJIxFZcz9qXuGK3l9xLYoXpk/wl5+tpmefHGVhsOsUzZ1cBvywA6kUjCRC4hn9/eL3/sHimnBAFLBIGYAw7Db7sG5Zo9fboHiUQOyzUiybJAiVWSriOAWJ+/cYU8fU2THkTEakMrOG8Zc8RxBOQlqPmOS3MqKRcc3S6b25g+R4wKi6OMnY0l6uRhv2+Eu5JO6U6HwYyAiQjEfAQjTmQYkqBPb63/74FDcqCf8c/Y6nFsCsEXH8ZdKqFamce21MtrjumQFXUpk8fNrnByxQmNQQL+ogN1+mP/xJSQx3c0yeuPWSG1Nn1OfWyAOgpfDpBePE3V748PDMg39tIJevU6q5r9cqo7oLoQiPkIhTV9a/nR1sZeRb6rJHHdgaHogVScGuL75QAWL0MZIq86pk3+bGWDyqQyRpzmMOEghri/p+pxqdEoL9jULueuarRRBTtjRFkmYKGbI1mXl77RnHx2W7c8wINADZKL5GE+thn0AUckAjEfoaD5Qwy0/ZwyAEbk1qG0XL6tVwb11prjSvKCyabkdHpHi7zq6Da1cs1jHkKNG+k9rKVOXr+5XZrqk0r0PHgrZy5pbuQDx0wX3khMyB8OjchVu3skzdszrmScYxNwRCIQ8xEL3+qxlBMyppzw6e3d8qtD/UbKfmijEkAyxoFba1Py18d1yElKplj4ZuHOmUgL+X3xhjZ52ppWF1/evxyIiJfxczCeUnLGdM/JV7RDvLF7xF4dZ+0PNz2RcBUsiICKIRDzEY2Ee5amezf1jsiXd/YZIVYHFYzLs9e1yKvVWoaSzcqcB4lCwm7MelzalfDffsJKOaqx3nhv7rHOFlFK4ywEhZaRKGl/D/WNyme39UhvfPrcPPMcsHQRiPmIBQTMSHJCySArV2zvkp39o0oKPPCrHKAhOovGuhp5w3Er7GskrvOAnh2ZzRnKeH563eNWNcqFx7ToXmS9lg3IXxORrqY97hY54iWab+7ulx/vZ0F9Pcf5eWQ1YGkjEPMRDWdH/mj/oHxjV3/V8EBKSeriYzvksSub7Nio1IRTYp5Hr8HogM3o0MhYT+N1R6+Q01c2mhVdvryTAXUMYbhM6RHDGSL9Y2Py0a2dsmckY0Ma88hqwBJHIOYjAEw5wyqLjuzPZjjo34H0mN1Cd4/q7TWvXkehyg9bbNTu8h/V3mBrLTP3GHuWecpmReZXkZsvNP8a8clt9fI2Tade0wEWtSmAnwVJqAS8hslPLB3LY1Ju7hyWK3Z0q4cL58ot+vWX+m3AskUg5iMBdvsOXCN3BOSK/sodfXL9oSENoucs0GIR0iTAarR0Hfk01CbklUe3y/HNPPBbYGmIzEeq+cV6/ot1bfKUtS3CGs9uhgYnU1HAckHLR5Mj/XQmJ5/f2Sc3dY+qL+XmNIBo9t0TDegkK6d8AeVGIOZlD2cZFwraWcXcKt/SMyKf294jI5mMheGWvsBcZYLNUIisZSXHp65vkdcc056Xd0ElibjMSE5/mP3AOhpvOHaFrGuul1xWtUCCNlOijDowuNFukt3SMypX2oL62llERGyix0WK8hKwPBGI+YiAtmIbz/SWs8hYblyu0MZ/f9+IJJWleQzoGn6eBhYflp4jQ0hyTWO9vOmYlbImWgDfTi8QLFdE6NPUA7eym8hz1GJ+6YZ2OyakGc5lUoFDJJgl7Mroa7v75NoDAyaTt5HJAHmwLES/AcsTgZiXPVyjp0Eb3ygBYh3/4tCgXM3HQWnsnMyjjA3eBDLpjICesq5F/nxtk3kvtBROCxFsBy3or+qjPpmUi45rl4e31UR3DeWGpkm6lIUeoYuDw2Pyma3dcmA0o42Uu5xo9gah3bhGwDJGIOZlD5o6DZpmzbfnRPaOZuWSrT1yaDirJKC+NpwAyt3aC9bySW0N8k8ndtg6Fp6AFhxwHxtjP/OxDek9qlWt9eM6JJkifeQiUBkRyzAkzBrYPz0wLN/dN2Ayo6ioK7EQAcsbgZiXORwlO1p2FllCvrVHb5N399skB7O+zJymsS9Wg4+zjk/DScVxSsnwtZtXyJntjeqD/yJBIyZuOoM8OND8M33u5ZtWyHlM0aOfysupiIYYJrrFg6WsaWZyObl0S5fc0zeqDdW05fRj5UWggOWKQMzLGpAct8DwTMKs5YeGxuTT27okwXwx+IVGDhaVazyLsPUJ6TZ6meXPVjXLKzexAD5ycmZRhSkCCebMat/QUCP/cOJKaWUVO9WLk4ImgkNS7xYfTg/jcnv3kFy5o1v3tCyjHiXq0gKWMQIxL2toQ4ZgtJXTpkez43Ll9l65u3fUzZYrW+vWhEjLOgFHLkZ7KldjbY289rgVsqmx1gxV/wCufIhkcv/yjDUt8oINLYyvROdUqpjcDmWUT9P+ht7dXN85HB0jif0ELGMEYl7uoAGP25wLub5Lra9t3ZJVgjZvzpcFmpq9HIKzcQJzWIUv2dgqz17D9/jw0l91TrrywKWLhHpvodu2mqS87tgVcizfFYxuKkRY2wK58cCnPPIhWzI1LtsH0vKBB7ukayzr5CyrhgIqgUDMyxzWhJUQe8Zy8tntPbJn0H0AtLxNW9OC5YxqtNKRvh4e3VRnH1ddXVdjQwkAqcr53C0/KKDpO3IelyeuapZXHNMutUqKTmaTyrlIznKBIRVSvP5Av3xnT78TowJyBJQXgZiXOWi/EPHX9vTJD/eypCcNutyNGiHYYrknjWzqahJywTEt8tiOBj3LW3hRZYz4r1zwHZQlS4+gLqUHbzi6XU5a4RbUpyNxwxlIWF79kSzzzPtHMnLFji55UDtW69gQJ2DZIhDzMgb0wQO/rdqYv7ijT3pZDwNiNBoqH7kYouQS2jFAdqd3NMpfHb9SahAQf/slWLkZRwUjSchXdyx17c2Oa66Xtx63Utrr3dxm5C67ziIwxJJIpeSGQyzN2itjKDCypAOWJwIxLxdYK/XkgQ3qtlklla/s6pXfHRgovOEHyjZe4AiP9GxJUeWUutqEfXtvcyPrYUCGnHcukq5scKkXUjWLHotU9y88uk3O54UXmDH6uCshnCsT8qbxuGSy43Lptm65qWfE1FV4hd67wiZgaSMQ87JArDXqLmSHD4RzO+th7OiVjPoUvoqhiBYxWnyQJi6lG5VLd5+2rllevLHVfKsRngobU0l567ErZXVjjR65LqSQn3KBtLL6i9UucnAoLZ/h81+so2EdiJcpYDkhEPOyQKxxRtYev32ZrHx8W488YF+8dqRYkUas4iWYjZHLyVolubcff5Q98HNjztUL9PW4VU1y4eYOZ50iLOxYdqnp1FjxznUNX9/dJz9lHQ07B9x88EDQyweBmJcLtJX6xmnPsLRoeaX36t296sXYMqc44ZtzGRuxWsrIhMX+sqNXyGNYnN5OlJvgZg4k49XoxlRCXnfMCjl9RYOw+p0NNVdCbu3YbHhKk+4fHZOPPHBItg+P6aFbJc/Jy12RCx6wtBGIeZnAWcNASVAb5/50Ri7b2ilDIxk18txMCDuRD1i+FkxKDNOeooTMkp6QnX2huowyzAXMfmCRp0e21csbj18pjbwRqH9IXz7EyotdY96E3NA5It9k+hz+NkSFNvnz4QOWMgIxLxMwVMEaCp53P88Xrw8OwS56pJ5mKdO42fJUn1CLD1IjsdpUUi7avFLObK83WnMVbymQCDLm5AXrWuX81S2q33LL7MtPtUbx6Q9Fmdae7qptPfKH7mHVJV96QS6n7YClj0DMywI0ynF7P41Ge0ffqFzFAvhjft4wYaBDGjiNV92itGFLKIJLh18+bfWU1Y1ywfpmpMkPtbgb8GqGSqn6Qs6NjTVy8XErZG1TrebH2ablgSvbQoHZgIbwNazbuwflMyyorySNPFbO1vEGLHUEYl4WoFG6Bjmay9miN3f3pPmEn9IxhBxvrLTe+HYhUSAPHEeMf66sr1VSWyXrG+tsaCB+vqphYjoixD1rbbM6FlvyPh5RTuJeCwbiVlcUt81t1k7j2r0DckPXsIValOQDKoJAzMsIvLF23cFB+fKOXvciR8QX5UFpouKz/C/Y2K6E1qKHjozNaF8CcIvT247y87jUJpJy8bHtsr4VqznesRBAN/5upAwwuTSpvYNp+ciWLtkzMmbJ52y82c4GLGEEYl4GMJtYG2TXaFY+s61HDgxmjRB5UaJcROGqEgTl0sSqhNjWN9XJXx+/QhroNThnMi0R4lBZsUpZC9lJPS7ndjTI3x93lHaC5Dca0GAMwe1Erjywz8lqOf9gT698c4+bPueseRMmYAkjEPMyAI2RW9uv7+mXn+4b1Maqlh5kYRxRLqKICMFWj3OA1N6yuUNOb3PrYTi4tdHKJdX8AMGppGRL84LMSSXkl21sk3NXNck4q/TR0eAqhoR9RPYT2iFvYYEqbdJLQ7cBUyEQ8xIHjRC77aHBMblse5cMZbJGFPBynCTLBrXcoTDSP2dVo/zlpjb7OgjWMla9ozDdN/aogHyzwMTuw+WLMfNjmmrkrcezjgb58i/J8FvO5oRsWtYqD+p9oHdE/t+2Lhm1gndnA5YuAjEvA6jhphZTt9zWPWSN1B4EmosClAUQE7zMW2pii//8rZLXCc3RAvjubOQ0gDGz861eqHyqR6x9k9Y6F3f87HVN8vxjVriHcPF8lQ2kh3WsTVh1mclm5es7++W3nVoHXICAJYxAzEsUDFU4UhC5sWtYvrmnL78AfmWIz6VHhUK2p65rluetbzMiMynyonDMgXdVDhXRScyOkxyjdEVtjVy4qUM2NtVJjulq+ayghzLBVB51GsmE7O1Py+Vbu6RnLJM/HbA0EYh5SYGmhv0ZzRZQMujJ5NRa7pKdrIeR4kUDzxAUbZ4tygJSy+ZycnRrnbxpc4e01LjxztJSlFe2hYS9EajbJ65skFep1awcbWxdIOdyQBOz9NCwo+BxJefv7RuU7+x1DwL9cwYXgh0XLqD6EYh5ySBqXrb8pGuUFN739/aptdwrOWuk/Chl5PfLB1LDsb7yXx7dLs9c3WJLjk4cp11G0GzVal7fclyHnNnRqMeqdyO+cuk90mtU1pay7veP5uSK7b2yZXA06kC0DCgHDeCm0gUsBQRiXjKgBSat8fHSCAW3a4QHfr0ypI3RPm8POXhisAd/5WyISgJ6S//w9gZ58+YVkY/Ksky5QDnZeHhzU6288biVkuDuQI/dYEcZQSdttQFy1vulVE5+fbBfvry73x5UIg9FwB51JGBpIBDzEgONjCamXCxf2NErvznAAz8lxbi1Zg/+2IecFx+WqibfWJeUt5ywUo5vZgF8qCB/dtkBbbtxfJEXrmuRZ61psf3oTBmg6fikKPt8+bt1r7+w3S+oryWh3nTovkQCqh+BmJcYzCrTVnZb77B9zcJGOyEIWh7FyYZja6is4VseYK0/e12zvHJjq4pgLKC//CDH8oRZo5q9lXU18k8nrpK1TdFnqKLziwsta2u9vvx1VxnY0td91uC+9KFuGcy4Vfxydje1fMtiuSEQ85KAa1D80v5Gs1m5akef7BlIm597ww/okQWlsbL1/osHUoAM2vWWngXlO2r54rU7Vy4ZKgHrdMhn1PE8dlWTXHB0e4kse2UsNKL044jPW9dzPH/4EXdUdqj0bHdRAUsBgZirFrQ6NxUKq8w9YXfW0Pf3D8o3dvXmDSULFIV38MUaa6gLBt+42UYumZALN7XL+bwNp3/2Iol6QwbLFT5vlAFlU48OlJhP6eDL2mql+juYPBZLF/F42Xd1hgd/3SNZ+ZjeVe0bHXNj4hYmYCkgEHMVgobuGj5WDj42YGHt7sBIRj75UI9u01p6lXj91qeYc409Oy6ntzfJ649dIa01Wp04bZ2I25ZfvvIAi5kvstj4Lfua1zPbG+R1etfQXFOreYec0QM6KT8rWg3SZP94cFCu2NHj0tfjgKWBQMxVB9egrA1FxMava1cJ+fKeXrn+0ICSIg95FsMing6udfPL16PrahLyyk1tckZbQzSE4SQ1ucmH+S1HuIyhB8rF771iY6ucd1SzFY1pAQWYEspbVkbM2nMOjeXk8zv65E7muau/e0gcUO0IxFx1iBq5th8ztKxhi9QoW9/WMyxf2N4jo1ne7LKmZ1dY4LKAdHBORtr4eWsYW23VYyxE9dUfLxV7rktZfnBa0F8/bqsbSG99A2tPt8uqxhq+PZvXhSmnbHBp2ee7tIXf3zsqV6nVPGRf1laRl2eRLCsEYq46uFbDrzV+/cGN5DLyuR3dcsuhEUkmtdFbqHKDVs2v0q227o76Grl48wrZ1FgnWSUoiIh1O+zTr2YlWuBlCjKmmogKyM2OcWX2F2ta5S/WtWnr8pmnmUX6KAtIR9POuuZN5/iprV3yUz41hszOM6CKEYi52qCE58aYtbFr47Gtmjm/60zLV3cPWIlx3gF6dgRRFkxo0UnJ6P36g4MZ6RvL2gpyKSUi20YymVRK2MuRAyx3dkuj/+7WJt8XNdYk5G9OWCkPb4kW1E9EXyl3GikDIo2rQHQc1J+h9Lh82tbRyLpnA+USJWBOSGjFWY7tZsnCiJitDVK6d7X2j2bkTbcfkO/ujL5McliJ4VGulmbS6a8SrgrSplbz89e2yNGttXJiU52c0lInJ7XWy4pa3+c7uZDQ5NZDCIxbag/nHc9DfL9agYwOTtoon3rgzozLe+/rlHfdvd994ss8CeOv03270B8vHkzXuYTwTPLTZ6yXC4/uMHJ2j5Sd3IVtQDUgEHMVIm8tW+PRxrStR/72jr2SzriiqroCy9KJJKShLimb6mtlQ1OtnNLeIH+2sl4ev7JF1jfUiJ5SuMbPWCx/TOlyBG+XO5C5Jc0RbtU/8vbAUFredMte+eW+fnsQly838udNVttf/BL1yZyxslGuOWeTPEw7UGcE2JkoREC1IBBzFYICMeLSxvLgYFouuGm33HSQL5NU57AA1heC2Zp3rKYEM6UScpRa0+saauX0FfXylDWN8ugVTXK0HnfU+TcSx21M2u4LojhsEx0uZdD5oJerd/XJRUrOg2NZ63w0iwp+fQ5tbIqWGB0vDnxqDDX98yNWy38/gs9j4euMAAvhAwVUHIGYqw5KydZu2SbkP/90SD543wEjMHe2emH2r8pN++YmedyTtHJPQyopHQ0pedKqZnnWmmZbke0RrXVSF5EDfwVmcHbcUgZDUeSiR+9y3nzrHvnazm7tWJOqDp+z4ucDi1+ypERz39xaL5eftUGeelRzvgNxyO8EVBiBmKsMFAaWJw/Qft01LBfdtEse7GOtZTemuzTgSNbTjiMj9eOV4fGkjbmeuqJRnqwk/aTVzfJnqxrlqMiKzudRCXtp0oTKz7/PsubjF3q38/pbd8u2gTHNk1uFzsxUe45Q3lyaWJr0q47tkP932lpZUZuy4wI5B1QDAjFXGaw4tJEMZHLy1jv2yee3dimRpcyyqWpEROR2FLZPXvRYZXevKDs/f4p5de2NSXn8qiY5f02LvHRDq2xuquOsAWOby/yVSwX5rEd5xXZ+xz0H5P/uP2j7sLYrZwtZVtDdIVdrbUI+ccZGecXR7bZudspksQcBAVWAQMxVBoYs+NL/NXv65I0375X+9JiWEk0Jeqrmooro0xbS0f2cNnJr7F5mLz85wTp2LzvYbAXNdGNdjTyyvU6euKZJXrOxww1zRGace5hmu0sCE4dlyO+43K/W8gv/sEfu6Rm0L83w1mSlYH2ldopPWNMsXzpngxzTWKcdBeURiLlaEIi5AjCF648zIguN2FlRCdk2NCoX3rxHrt8/tMSGMGYPZ8FBvuRRnXLDhsYGec3mdrlwU5s8vKXeSNkeLNppPXDqMnBV7LAqAVGTy6u298rFt+22tbRddiLpbVjDgpYFTl9J1WtO/ufUtfIPJ6yK/JCFfyeXyW277mxA+RC6yArA7N8J1mS0p340gWt2D8jvDg0zjXlZkzKg8dvnj7Tx2/ofWiX3DI3Ih+49IM++YZf8558Oyg3dIxqQ8wnJKZk4Qot0pvpxOqpmPTmqe/b6ZnnGujYZz0TM7F2ZRbcva+tvVq32/32wR260BfXRrZcJuLoYUBkEYq4ItMozzkiD5SkR7dSOEnJX34hctaPbPtPk4BvxMm0mZAty1T/LsuqDW2qmRm/tHZH3/emAvPqmXfL/PXhIHhpMY+dFlzj9QCjx42pElEVZXVcjf31ch6xrYvU5/O2MhSkvXHeIIbx/cEQu295jdyyu+0CmCHoY6LkyCMRcEdAqCw0SbgaD2XH54JYuub83bYTjGgVFhDP2XmbQ/JF5GALmsvFpZwHjxVuOyWRCHuwblX+7Wwn65t1y5fZeGcxE5y20i6fax0cti7p9wqpGeeGmFeRS/chBueVGChzpuq7h2r198v19A+rjZMmTsW7cnV1AuVHdtXkZg+pO9bcGq4REE/nloUG5dk+f3WIafJswazBqLMsNPo9GUhw4D8hhXMnWLDk9l1ET+ncHBuXv79wnr7t1r1zfOWSzCei+suqqvduy0tOsNaWS8trN7XJqR4Nbfa7sxeoIGRgBqwD79U7kow92yu5hpvPh7wtFt95qCCgrAjFXBM5SATQB5rbuG83Ip7Z2S9dwRq1Ed6tpVrU5F3b5QfOmeS0gnlH1j9jWOi6tqclUQnpVT1/b0SOvvXmPfOiBTtmu+uINNj4ZEI+pGoH1SUdz7ooGuejYlcLUbfvaSVkl92mxRcHubuM3nYPydbWcDZwyQlalB16uCAIxVwzaHLWRYgxT96/e1Ss/2csXr6EYfKIWUVGLxVqo2zUUH0+DCbL7PHkXwaIr8vP7NrSh0DCMxXMjgYWJ29I/Jv9210F562175WcHB2SMfkwDRlfkMQtpywCEd3sv3dAmj13VrHtIWLBiyyOxT8PVQZLOZESu3NYjt/QORw9Z6egIVw55AooRiLlS0PoOiTAV7O7+tFy2rVfSLIBvDaJaAJFAGOqMZL0rbBw4iJNLCeRPlWrsxX5+319UiNdCqo4Yf05IVr6/p19eddMeeb/einemsyYFXGO0YoHZFtN15UBOkG1DQ0r+8WGrpL2hTj3cgzh3NmqS3CmVA5okKTGWf3vXiFzFhxi0B+SezklQ0H1A+RCIuUKAXLBMhrM5uWJ7l9zTy5xl10iqB7RarSIIZURBI43IY4I1zDnWHI5Jz3mGKQhm3v76aDcedrbQuLkaR8e2bzgtH7j3gLzt9gNys039cuLm7WfHehUHhGySRMI/c02zPH99mx06FPbKDZNN9fS1Xf3y+65hV9ITyjignAjEXEFQ7W/uGZardvQ53stbpdUChGKMwBMGRBf5mTkayctiRRPk1nOOGd0lPkzecvVh49fMFFG6FlVSN866Gx0T+cqObnn5Lbvlu/sGLRQdn52tEoJBCpNH5UJ83mx8w3Ht0tZUZ28Cuu4G3bIpb9MkSQTcOzwm//dQp/SMcfem/nYioNwIxFwBYJ1Q6w+NZuWSLd3SOZrWQ3/rWA0twc0VNlrTHXN2jD/EwjQ2XlNwrypwGwwJYr2aX/wa3eHBXYIHeN5PnSFP+LMEXwSxSPR6rGcbCsCNyxa19t508y758INdbmhDw/nuoNKwUrehFd2qMtg+ZkWjvOPElVJjaziZdm1bwBx1NCdQ3gn5+f5B+fLu/kiScqYf4BGIuRKgYermh/sH5Ef7+mPMUTQcsIjwzb/YObi365AES86cHuT3s2rxZcdtupfbZnWbi/bVis0oPWtW3HVZ3Wp8XA8paSr2nTzWz1NSLZ3+VNBQDK9QdY3hcO6B6biSCivX7R8Zk/+4+4C8/a79skstQCNn0ncRVAyuH3IyQ3j81arMr9zYLuesbFadOWJ0ecJy5oKZaWUh4FMbUIPhU9u6ZNtQ3GAIKCfCWhllhq/8Dw2Oyhtu3Su/UOvErKf8mYUvDt+0afMAkiok43f0ZHSeG20WGoLkOhpqpL0mKSvVpFut+1SXDj1eW1+rAXOSjIZfeIqPNQiSSpS8LLN3dFQyuYQM6f7OkYz0ZDLSPZKzbwVafm0IBEyUASIFROfPFODSc2f8WUhaiSwiNdOmnUrIk9Y0y/seuVYe39FoIfGOoi87kMnSjsSng0ITqmm5Ynu3vP2O/dJj00tcbXA/5YUb9tEOQ1X6jyevkfecdJTVTz0MKCMCMS8yUK4nAtcM1bpTlf/rPQfkI/d12rAyn5k3kvLMmW+R/hgU+3FcKpw7ojGZPappqT0bBeeM7ijz1aUSUqvn63Vbp63wEc0NcmxTyj4DtV5J9+jGWmmr48OiKWlUom3UcM1KyKBRr29JqcWLZTchbScP6aZ1t1+JOKf5Yr97LGNP+wczOdk9kpbdw1m5r39UHlSr7KGBMfMfzWbVEY2Lh6gZBuGNNLzwdaf0h7QtO8hEPiE0zpknO3qVdhi5jDxyVbN8+JS1tkC/nXf/LpjtVA6+Q+aDtq+7bb98a2d3ZOEjmMtHWYFaVaV85GBza61cceYGecrq2IL6yGXlDiqsvGWMQMyLDNRrt6da49VwtJchbuwZkr+8cbds7dPbbG0ERsz5Su7COkA6tBR1VkylGgJ+UCHpEE7JiKCEj14tq6urkaOUfNtqU9KmxHtqS408qq1BNtTXyCNa66VVz/FGWoO2vHpNsl6FcjLHMVn6c8OYCoklPZzLGilvH8rIn/pH5KbeEdmiRH1gOCMH1XrsGs2IZJStYQX9ZzOuZGyEhoyWZ2K0H8VEGdF3VvVwfEudvPuUNXLBpnaNA4vaxcfPxCvKD4qKrPzq0LBceNNO2TGYVnLUEp20zBcDpKOODs6eHzBclZNXHrdSPnnGOmnVjpnOwvSv9dVs6LwOAxYagZgXFQXVGpEoofQpybzj7gPyqQe73JKesGi+crOD89f5rQ/gwvpZBpCxD27LZkb+tUrAxzWmZKNavaub6uRUJd8z2urtA5ybGmuMfGswiyYgnpZ2FURnzRN/d84ao0tiVjDR8p2Puy0uZW3zx+JFGM1blJxu7Fai7h6Ve/tGZOvQmOxQSzuD+Y0YKr/LvyNZk9AYjj2fN92PyCSn5HxMc5288+Sj5JWbOqSpxp0+vAMqPzz/0oH88z375ZL7uy0/BZ2VCSRldyDskva4tGqnftXZG+R561r1iAEulGZBFJXX3XJFIOayQJuYahmC+OquXnnjzftlMJtRXyq5unEeyVurcC4iWHsAFHl7q9ssPQvjNua0LR3dUi/ntDfIwyHg5nq1iOuMiDsYLCzRgCxtjQtr3dmMUbwcRcHdBr9oM0cSIy3rTKIkXL71QKuei90RK6fRkUsM50iiN52VO/tH5U9K1nf0jCpZD8ttvcMyMjKmQVR3FszdNXiiNsT06MhZpF2J5u0PWy3vePhKYWTGpRuFqyDcIJfIvXrX8Oqb9shNXaOqIq+fMsHqIrpQxz/lo+6co5rl6nM2ynFNtdaJFKpB5fW2XBGIeVFBw1K6UBUznexgOiMvuXGX/HofX7Fw/i5YVMHN2vNbpQv1p3E6a9idolXwAdPGupSc3tYg53U0yAlKwg9XMn6EWoSMEcdhTZv49d9iheuNkJCMdKM9i19/onDezySzn3kgyie/jo+JGIu3APPSBEnXQtol7DMNjn1H0mPqf9/AqNytVvSNXcNyfeew3Nk3JMOcILwGjgY6XBSxVCxmvVXnK93veMRaeevxajnbSz1OE5UGeiGvl23rkb+6bZ8NJSCYy0c5EOmQraskkd+4/O9p6+QfTlxl5+kA/VAQoQMWHoGYFxWOIKi+kOtHtnTKO+/aL7ZOulZ896owLY+GYAEpEG2cUAvezDnTnWRSWtW866ivkXNX1svz1rbJo9Q6XluftDV+axmojuCGIBy9uQeABThCJEL8ozOE1113xDl3fmJnQSBNI/KaNYgCRGk7+XxkUfwR8eYDa/o2rY6t+bktlq+/lnHqPaMZub17RL66p1+uOzggvaNZGXMLZ0hS+yhU7LTh4mJ8mWGN1Y11cs15m+TJag262CsPagNa2DOSlotu3Ss/2t2nRc9LNOVCpKe8RtC07queT9b6dvV5x9idWL66VoPSlikCMS8iTLFGtAnZO5KRZ/xuu9ylJOIWiYExtGbbeQ1nJKr+3G8zQ0Mt6o1qzh3TVC9nt9fL+aub5cwVDdJRm5L2WqxN3yoiixqfIiJ2cOccoo5C07UGByxxoMdGhi60I3GL1Z0uiXjc0yEeNkp7qmuj4Cax/vuxYLzxQzy+JO6j6NPe7gG1pH9yoF9+tH9Qbu9LS+8w83D5hBLXuBy7B6SinVlCPnjqWvm7E1Y5f4ulsrB86ZbS/fa+XnnTLfvk4HDGigj/iUDiw33nh5gWTBC9W2GrnTIyXHRch3z0tLU2Kwe4IoldE7BgCMS8yKCpQW5/7BmWF/5ul+wZSkfDGNhBVGoIAzKGqJPS3lgjZ6xolLNWNsj5q5rkCR1NeuuNHVVoANZWolKjccysafhiniR0dBpi9ogM3DxcEM2P7eiPtcwpUtcg+SiKInN6AVNcPw2I0foPjcLFgo9Id3pcvrW/X36wr19+ptte7RQZiyaMDQ3pjUhdKimfO2eDzdKYKFllYXlSN6pC/uvdB+VjD3Tm/ZyU1BtAnXC+iw1qKKW1sq5WPnXWevuaufuytjsbsPAIxLzI8MSxc3hMnvq7nfJA96AacVR19TTN56SpJiVnKQGfu7JRzu1okMeubJJjGmvteuDsqEIDmG1TcNc7FGxlF6cjWdt1iI7zlrMdRD8Wxvk6nvUXgehCf1VkfaMAs7r13y4hiCEefv5wsfEbpaduMJOVHxwYkO/u7ZfvKEnzRpsLmJIXbWyVT5yxTtby0oyFriBMJv1Bn7rhgSwv6dzWOyIv+eNu2cJSnMrDzAk3lF3YaAgoOy7P0Y7sM2esl/UNzM9wmg5YeARiXlSoavnXBgc58m21d6oV1MtsAq3RjbU18qw1jWqBtMuZaiUf35xSK4QZGgxPuBhorEbjninnAE/skKktmenEsugceUYR2z7//qwL5+B83SQ1/vxsDufjhgg4dpHgl4/D8mB7kfPjyQsPk1LlsNX7orR6laD5OswvDgxK52hOTmqtl1cd0y7H8u29aoGpix+3i+7Q8fvv75T333NIRrLM5dYcmcGsIZxCy4aEJkwpcqfxwdPWyduOX+n87TdgoRGIeVER0RdWozY6nkn9pmtEbuoc0kaWkLPaG+WMFfVyFJ+ysNCOkPO0FdV6P295rq0AKfzF/FLi8UJnH3/GvhcEGiGfe+LfRak60PwXYtc9n+iCg4j11/U4lnNeMgFY0MrL0lKTFBsdsqB6blHkmB2cOpzs1rFwrHJ1pTPyIrWaf6VWv91pWQfoa0gUfrER6ceSVqv9jFUN8qVHb5RTWutUAt/pBiwkAjEvKpxtSUOz6utrMBqP1Wb35l+y8JUlHgwSgEtj18UumTF8lL6Y6Sj4rbHIJlquGQ3Tn8nJkLoxlblvLCMZTkBykTUH2HMvIGAtK9GpFcUr2yzIA+k1M/h4GMm7Nx9NF1H+vE6KQ84VputoL+HJS9OyPOup6JmV7Tu9Vhet+Lriy5/OBZmv3t0nr7t5j4zwBqSFKjMxG5ye6DL4++dHHCXvOXmtlbnzD1hIBGJeZDiy0OZvbU7tSCUMb5k61et+nCDUz9/650vGztuO/U6H/GXRthS2D47JHrXGdgxlZPtwWobGsnIwnZODI2PSnc7KiJLCvtFRszCx2OELF7Oz5tj3xLqmNinttSlp0FvtNfUpmzmypqFWVtUnZUNDjayrr7GXXdrc2pYlMROZpwW6Y6ORFLocYnT++dg1HLLj62d7VAP8A2FEQjaImX0WNnr7nfvlioc61Wp2AzSEmKe2ZgHSiTpi7TSQa5WW6zXnbpKnVNF0w+WEQMxlhavcXuGlK7Or5vEwvuIXX2fEYnuRHePY05FSFIjSHcnlZNvQmNw7kJb7BkZkW39Gtgyl7QOwu0cy0s20MkQDXBcnq9huHpaORuzPIZgXjogia7WmLqWkzKp0KTmxqU7WNtXKMbo9XW+BH6lunZI3nZTLrYvMxIA48+ka/RehED6PfPoKO+U9fLgS1ywB5JSseRB4U8+QvOwPO2WrlqGRczy/iw70pglS7t5I0MPnHd0unz9rvXW4VrPzKl6auq4mBGKuRmiRYDWDePX2BeX8jIoLZBwj03Q2J4cyObmrd1h+3Tkk13eNyAEl5kNqIR/EBOZBErHAn3pdfNoTcXrYXqna4ZOKzsWS1lMcuBP2sgu7/NiO3pqrdb2OF2PUij66uV6esLJJzutolFPaamWFNnC+6mEJaHA3xEPeSnVmLv82ZBFLf7nBq4/pae+676B84E8HVR/olkx7rZQJlpzqnLFuLdzmulq59PR18tpj2lUe15la+RNuGZdJORCIucoQr9O2X1TJHR1F+9o4UsyjUgwp2e4Zyco9/aPyy4OD6oZkl5JxrxJ0mqeOXEWLNiJ2cfiS9/EtBrzo1mg1IboES9hMrKQ01SRtdbsNTTXyxFWN6prkkW0NslGtacarQQ6Gd6JH8UXDELYPCnvLETRRhlzu1bsdXjr5jZav9lX58qsEKAsW9n/8mma54uyN8vDmOi1SRr85QQAXLmBuCMRcZfCFka/XFI+2AvPPV3hIyYXYO5qRG7qH5bdKxL84NCh3947IKNfwpI0geq1Z03rIHAVHZ+5aF2F5YTNMzMglbWahIBv7miNl7ppkjZzQWitPX90kT1jdLI9ubZTjWxibhon030QvyF3ISakhj+UB64w1y5TjVTt65G9u2yd9evfj5sNXBl7XKe0h/vURa+Rdj1jp6pmi2JgImD0CMVcrrFS0QVLLo+EK+zWSzskdvWn5mVpOv1Yy/nnnsPQPMzeaEBpet4V24cK7q6Oittv/chZ7LG0Dx26YQrsN/XUy2xKoBj0/npO6+hp5woomecxRjfaQ6bEd9fYyDqDaejK2OdT4RcfLCXmtsaP57Ern1GreK9/c3WvFnT9fDkAVVsfYZ5d51TnZ3FonXz5nozxuZZPaA4yJUw7LrSTKi0DMVQxHPizcA3nxmm5O/tgzIp/b0Ss3KBnf0zeit5NZNVv0BjJfihAxBzQM3dquPwa65RivikFl8HJFYjpoc7apYm7fxs+jYYxjWmrt7cgXbWiV565tkRW1hRkeufGsXgcVOD0tJ1hZmq5cuTJU8MvOQXnpjbulc8i9qJRXX9nh6JfFtt584ir58CnrpKXWCWRnOBkwJwRirkJQIhSKPQdTdI1l5cbuQblqe5/ccGhItkWzKHg6j7UIgTkyjkMDQGxG6v4cx1Hkdq74mnLBt1jSZz8mXywfHJk1rLLa4k5KS6sak3KWWtHPW98iz1jTIic019kLJFaNyZJdNRV8mksJTideM3yi61/uOSj/7/5DlhPv7/JVOCoP0Pi4rX542dkb5eUb20yCpabhakMg5grBKu+EGuwJltchIFy+mZeVm3tG5TPbumy9h4G0Wsd6DWOLnM/f+R8BQE2WZ/hZq2xNTUJOam2QNxzbIc9Xkj6uqc7C2Up7Gg66iOu3sOvH2V2YpQbXPYncO5iWZ9+wQ7Z2jxYeBNoOPXYs44sOR8wMaTxhbZt849wNspoP9UZQgolG4lSmaAbN0tN6+RGIuUJwDSmiCOqs3aq6RpdRxv2F3q5+YWevXLtnQDpZHY2wMJP+H8kl5ho1FjJbJehUQk5b0SAv2dguz1vXLI9UsgYQmPETQG3s649tol+3cTEuJfhsfeKhLvuyNkNcVpOMlMudH9/NJe1bke88eZX8+0mrtXyor3o2pmP7xWMJ6rzcCMRcKajW3YM9V1Gd9TYu9w+Myad3dMs3dvXJ9v5R9cM/GrLgogAFZIBeWOFM7yK4ddC7iMesalKCbpMLNrXZG4eAWR+OiBV6iVECdyaOqd3xEoOT3M3IufjWPfLdXb2STCUrdwfl1G93M8e118nXz90kZ7U3qDflhBWvYSJ9O7+lqPXyIhBzBWAE6+qpWRY83OPtvGt298rHHuyxt7ww+ZJJDWnDG74ih6JylKR6YJOjw8qpQ5F8JSYntWpBP2Zlk1x8fIeNQ7fw9gzn7EpPChCz+qg/h0uRKBiyYfbDD/b3yetv3isHhsdUD1FHVc78mA6plzmlYMojKa87vl0uPXWd1EVz7K24EEm3kcoDpkEg5goAhaN2N5NAZNvgqHx0W49cua1X+kbcp+uxkl3RUKujGh0QwesCvUS76sX7gRAwc7jbG+vkyWua5R+UoM/taJIGJejCl174dVS9VJnCsq0/I9oZXXT7fvnq1k5y5vJfTpj+UCAzRlT/KsDG5jr59Jnr5Tnrmu2Oxeg50rErgYDpEIi5AnC3cyAhPzowIB+6v1N+qVuKAiMjZ2tNxIqFIrLKH2CwTkqdn1pn5ICO2EC8EATnUrK+KSWv3LRCLtzcLqe2RePPpk/Cus7RDpYgfLW4qXdEXnPTbrmnZ1g7dd+hlwtx3VGv3V3eX6xvk8vOWifrG2pN32aCWNBoP2BKBGJedKDeQkVE3ZDBoFp1V+7olfffd0D2Drr5qISyYY5oz8FfG/cLKK0Pryv23Dmr3qrvMzsa5BXHtMuL1rXJ8WrRFa6cjCgIMdH/cJ9Kw3XxyPShBw7JO+864JZWNf9ygtS8MeH2GVL66Knr5c3HrTBLGs1ZH+h2A6ZBIObFhGqWsUyaDg0IVTMuuGckIx+475Bcsb1HhtIZPkd3uJUcsCDwHGATFlTF565qllcf06pWdLusqHUPCGkBRnEa2H+UgIeDccL2JVNdnFIg4B1DY/KKP+6W3x0asnxUsiahI3R6yoom+dZ5G+ThLXU28p2coNGAqRCIeRGBaq2SUiHtAQkfZR0x6+abu/rsdjvfiMr+mvSRBUcI2jnmxqWlPiFnr2yyIY5nr22xGRyOTNwYNV2k60y1PPSE0QnNxCJxtriLrzrg6fmaPf1y0c17ZDDNm5BRvaoQ0A/1/h2POEreddJRUh89hEWugOkRiHkxoZpFuTgq5K+7RuRtt+2VO7uxamj+zD8lkDqrscFqXly4OxabVqY/9TU18sgVDfIPJ3TIk45qkk3RB3BZbpSHVnxX2xOJWdRWVnSgzq/S8DWFuwGeTbCs6xtu2Sff2d2jcrsOpFJARVTrNQ11cs15m1S/jaZ3PupaNQqsYsAEAYsEmyurjsr4JbWQ//IPOyNS1oqZiEiZSupbf/mfqR85sI4wqXcpSrZKuslkQkazGbmlc0hef/NuecENO+WD9x+S6/V4TO+7a7RM/NxxSsnKieZiReV8Kg1PvQlboX7cvhxzeludVaN8laoQ3F2iyIGRUblsW5cMZrg7dN1bwPQIxLxIcJSbsO/nfWZrj/zznftk3+Com5vMX/5GJWrwWGLR+GbAIsDrO+k6RLpA92r7uKSz43Jz57C844698pqb98jf3XVAvrW/35GJ/Tk6IQZ3dbWUE7IptN5U7OWSSYFAblT5+/v65Eushqd/aC9geoShjEUACqXBDGdz8rEtXfL+ezulN5NRy5m3s4wSCKbwquc47h+w8HBEUbgrYV/9VOX+gZ+bZsdeTlY11sl5Kxrl8XoLzjj0ya319sqxB7HlR6AUlSg5mq774+MHCft82Ktu2iO/PdivclV2KMOD4aBsNitP29guVz96k6ysc91cqOlTIxDzAgAFuoqmjcQaa0IGMln55EPd8r77DklvOmu3zu4Fhzg5LBR8NY+K0jbqp0RTkC4iIku7QDDunPoR1lvs+X1/DQ7gxzl22Y+O4+ftnD9eKiAfwNnCZM2+mqKWdH1dUjY21cmZKxvk5evb5KyORjmqtkbaa70OHTG6ubrqLCr0wA7H7rynIlOP7ZVGXn02R9uHjEiWH3U58x6f8Emwg+mMfPSBbvnwA4dkjIfK6mfXVAqWB/71R3WzprFWvnjORnna6mZVK7I7uQNKIxDzfKHao+l5MuI9p2Ft0P/vQbWU7zsofWMxUo4T34IjipuoD4vfPN2uIb6PXOpsDDY6joe3c7Hw5CEfv98qCBM7XOogxzwotHnBmNGqHz6BdVRTSs5pb5CnrGqR0zv4BFZKNjTUFhFNNFSSL29+HD27PYf8Ef964IJFvqpjwqFqrgT2QmgMLAe7fXhM7utLy9d3d8u1e4dk2Jn8VQJyEK3zoh3d/522Uf7uYR3WFtBtwOQIxLwg0IqnamSmBeOSH9/aKR+4t1N60jl7Wj5x+GIxQNy+QUbpWKtmn5atzu/nrWBoAn/O6znn5cC+nWPLjz+hvhYXe/pj1+iPbfED+BdfW01kMTu4HKApytj5ufwkzAo8b2WjnNHaICe018mxery5oU7WNtZIYzGLKuyqSF1OR15PHBdSoqyct4VUuKO01qOdQ2nZMpSVhwbS8seeIflN15A80JfRyDX2fBlXETRfrGcCMV90/FHy/5261u42kNJnPeBwBGJeAFgb00Y2om3jEizlew9IX0YtZRtTjqqgbWiaECNVkv0FAo3aG7zW+v0OcumB+fnGzuMrR85W8E549hzwNFntbAGEiW6vE+Mpdbqv0dhXRqKLnGWnzuLUXeBPL0mYIvL5yevSDpy3hWEnlZSNSsjHKzmvbayT1Y0peVRLnTysuU7WNdTIuvoaWV3PV1f0wkkRpac4lM7KvpExdVm5V8n4nsG0dA2Nyc7BMblf9w/xKTFAcMSxMqTz8B1vNQA51GI2FY3Lcza2yMfP2CCbVUeFnAaUQiDmeSJqs3oLmZVLtnTJ/9x7SHrHcvbEfxzyir844trOwsNqOU/AdWPkSVJu+GRC8RqJ6nkjWVuOX/gQtV2urlZlttvvyJJjk9Hr7XZewxNXRvft23wWL3FBBCCpHZH6RXmFICyIz/uSBZoB8XyQ56xmjbLVXfKoerPyRv2RDlsaUrJGCblNlYyV2J5KSbJGpKO+TlaqH3dSNq86ipHX9A8Op4XvIfRnc1qPstrBj8u+0TEZHMUq1ngJSPRGxArStV3KgmMCVIvOrQLYH6o5/ah6uersjXK63mFQhUrcVARECMQ8T2AnosDLt/XKP9y5z74yQoWjsbkGyo4esU+bwWOBVE7U+fapjdaWsuSW1p4OaWI149KQTEpDTUIa1aKrV8EakilZ15SSRiWKzUoQG+uTMqatpE7Pb1aLr7UmpfFAMllJ6d8B7WR2D49qRUnY17d3jmSkO5OTXWq19SpZDOu1jGsOKoFkYG3SRwH6z9g6yiG3C5PjcgOpvYKt8PRQWdOU7vLmStqRofnqD3dPhOchl+vVIhiD6jFP7dj18du+Iqs7MBj+5lc458awtbPTuGmyftw5n76vU9670oiyRgdF3UHiTUrIX330Rnl8h3/ZxEIGlEAg5nnAK+7zu/rsSxLcXrqn8EWwSkot9Gf8vt/6fcCWxsbWn2evEMb7WtG5HW25eqvckJTVtVhptdKmt83HNrtb640NdbJBb6036i11u57H2oJKanXLzbX1H+o4LgbRYzX7WjKmOwyGqEEnI0o6Dw6MyZ7RtC3wf/fgqK0LfFBvv3eo5dc7qiQWWXnG0cRPXBarIzMH0vX7xeCc10cFYGLpT143uu8VVlJm/FxYLEWO3aXuCFBu5Ggi3HnCWh2KovZDRXZYiFrhd6KYzHonwIRAFUQkg3ZkifEay/MZKxvMYj6trT4Q8zQIxDwreFKh4ehtqVasnxwclNffsld29/PyCLelc1UntTRqVFaZaWhKm+MZ9Y1qMEXlo9e0jmmqk+Oba+XhLfWySUn4xOY6OUH9TlC/VXXTjWeWRrH0s42hN5OVBwbScnvvqNzWOyL3q15u61PCHkpHIRzslXQjIJ9ClHKkgvyOkWDeU1EsYUDVwoqN2quWvjLxM9c3yyfP3GDfZ4yXaMDhCMQ8Q0DIVCSUxdhtSonlD93DcvFte+S27pHonJ41q5ArZgoCYz2q5aMkhDVLFDaPlqIhYnXcyq5SS/isFfVyWnudknGjLV95jFrCxzfV2zVxuA6kyHMaTBZ6xtlRec2yN2HU6e5OtaDvUUv67r60/PbQkFzfNSgH1c8RsuZZ9WjWtIY1P7y5sCQhR3oKWDrQYqM6jOst1muP75CPnLZOOmrVgtZTvmQDDkcg5hnDqcndgiWUcNJKynvl2j39aimnzH8iaVDtplMt57mFVZtCg+cf1pFGMimtNQlZ21hrC+ycv7pZTmypk/UNNbK2PiW1+YduGtxdYnAP/1ycrjMpT/X36ZswbNSZFLHk949mZZtazr84OCA/2jegFnVaetMZd43mJ6VEnItb0aZCLGs6LfLFXYDLX0C1gzKlnLQOaNlhMV9y5kb5mxNWhmGMGSAQ80yhWvIf8Owdy8g77j4gl2/tyT/bsY2d1h8zEaITU8A/j+fBHQ/NkjyQa6qRY5WAH9PRJE9VMmYt2xW1KSXpGBGrI11mg/ppUgazuNn3tT6+v/hwVjoqcDK5jRsd59i/VDCmDbU7nZN71Yq+ak+v3NA5JDsG0jLA18BT2klpq4Wc3Ugs+dbrLC5icrEFVDsoMOojpMwqc7XyhXM2yDPWtFjddW8tBkyGQMwzgFcQmoImPvxQp/zrHfu1gmETMqpMiHhN81dMrH12pD9wZw6SoobqdlNzrZzUWifnrmyUZ61ukXM6GqQR4zB/fTT1TfeY4maEZ7449cXDB7Xi9MfRfllRLI863Ud6R7YTXyUGDwyOyg/29csP9w7JDT1D0seEcIY4khCz6letZqJx1jIl4I4CqhhW7qzhodU8My5P3dAqX370eps+WL77uKWLQMwzhKeEq3f3y1/fvkc61bqjehVImRBRdYN5PXsq2DMl+x+9l2tTC+IJq5rsg6Fnr2iwz71jGUeB9NddT/yFmPIpGPIVnOR0A9fbFj/DxKPFhZPbkE/Wp03n5YVTnVlQF95uaY3Ix6VnLCc/6xyU6/YPyo/2D8j2/rQ7l2LtB9V+1DkFLA1Y6WuBtdQl5UOnrZWLN6/UItSaQEUNmBKBmIvgm77NvYQvdN/fet3eOyKvvGm33M3DPpbv9DWPcVC7LtoqyXA9ZAIl2b2cVsaGVFIe1lYvf65k/Hgl5dOUjHmN14MY+HXV1v2WhgsZD4PPVFeUH3GJJkpXOHL5KM7xSC4nf1Ad/3R/v/xg77Dc1TdkC/MAhkO4yhG97tlF/Li4Cvs49i2Awp8PWFjE9RzXsc3FsGntFxzbLp86Y709M6HRBGKeHoGYDwPUTLOHZPVISZX93mzOvj7yxW29NovNXrVGczalwIIq/Pq9ZhSrf06SqZSsakzJYzqa5cJN7XJ2R719KcPPGbbRDNLT4yO9uqIy9ObHHzOqv53DGfnO3gG5amev3N83IkO8AZdkmEMbvfWMvlN0xJ0nCNMvVjadoh67XjRgURDTrekazSckp21ms94NXn3OJjlPt7QZax+hKKZFIOYYUEWhN3e2M07vsOUDDx6U991zSLLGuP4sYdWZhawb3eULGVojpbW+Rh7WWidPXd0iL9zQJie11svKWkf2wD28czG4nwAPNEtZuCf3rPDGa8kZuXbfgHxxV5/c0jMsAyO8gadh/INCKw7I2WvVE3XA4gJde31TCO7VfG0CsrG5Vj546lq5YGObhbCzNBQro4CpEIi5BEwh+uMqksjPDg7YAuT7hjJuCMMC0PNHgRTmx9hxY408aVWjPGtdqzxrTYsc31Tn6q2Fieg8WMczQNQxKum6xuzAusPf2jcoP9w/KNft65fB0TEUqv/a2JkBYJaxp4EI+MXiCFhIWI12uwooF9tlbVOtfOCUo+TCY1boHRD3hC5cqPkzQyDmIvgKxJbbsd3DY/LaW3fLT/cOGqHi76uWrdI2rqaBYlVTvbxgbYs8bXWTPG1tsxxVF30a30aZtTp6LcMR0W58L2AirFqarqK3KfXYmrWpLCG9mZxcu39AvrunT76jBD2cxmJzyiWIm2qH0o0q3DlzAQsLp203RZK9cTl5RaO8++TV8tx1LbY+izGMdppuzQzddYUYMAUCMU+Ao2X3gIIxTJF3/emQvPfeg1r99ADLTDd2k8zYsx4z5/g5ah2/SG/XzmtvkCabb+wtN4XVWyiFuB25ROwSMCVcWZj62DN9ojvd1Srrhzm601n5fc+wfHN3n3x/74Ds147USFwD8Jdj0SF/bcAiwD/k020qIU9Z1yzvPXmNjSlTfvy49WMoQzV1QjHMCIGYi6HqQCGQ7rUHBuTim/fIriEWJ6Ln13PK1qnapDyitV6ev6FVXrqhzdaoaOGJs1ZSxkMhDTerIyJiFyNRh4o5S1AapsGolnp9ckgH6R8U9o6Ny519I/KVnb3yQy23rQNpYbW2RIqxaKUOI+cokkkRDzOT8Msd5D9ScB4FP//LA/KV9Sl5w+aV8raHdcimhrroQR+n2WKsOJSKMeBwBGKOwRRh7CkyoLfKr1BS/oE29JS2/kz0MsjD22rlL9a3yxuO7ZCT1Vr2wLqGdEOlKy8oM4rMWdA8VM3Jjd0jctm2HvnNwUHZMoAFzewYyNlC6x+B1dmMDUgD/6jw8LMdPwRypAG9sEU37KAHdfZaPP7O2HCGih6pvh7W3ij/ftIqe8jH8+2cWsa+PALmhkDMMTg7jKqZkK50Rl584275pd4iU9uYc/wCtZBfqJXvNLWWqXiExllFtSsDKgVXFhFp6H46m5Xb+0btRZVv7RmQW7uHNICeYYgDwrF/V3rO6b75K7OYtyfoIwmRHsyxgZDxcx2Ur+U2fq//DQ018rqjV8jrNrfJOSsa9AyL/xPOfvLhA2aPQMxF8A/rePD3td398nUl5oe11MrzN1D56jUE1c5VXlft+A0VsFoQPWrVP8rIlcstvSPynT198nUl6Hv7RiRnL6sw28OVpZWnEZDChjxsJ9oeQcirzHdKWMvo0+nU5u7rNlWTsBekLjpupbxsXYu9OAWN5ImbB32273UZMFsEYo5DNWELFVn9c1WreywrrSk+weS+3+dOxUfNAqoKUfFFu+rcp/Kp5X8aHJVfHRyUK7b3yp29wzKaiQg6mgLJGtvu9p0DO3Vkwec56pxYgIiajhWMgur1zvHsjgYbxnv66mZ7Ucq6NT3H9y3ten7s8iNNeQuLQMwTQCVzhOwJGhIGVE43nxYXaLlqYcVGwfFvJRndXuufHnJu69CY/PjAkFy9u0fu7BqWrlElaC1bs6AtTIT8zpEAV8/ZsEdVd2+3jktLfY2ctqJBLjy6TZ69tlWObmQqqLOgo+ZRgPmF9jFfBGKeAG2g40z+AVQwG03TKsjAhvNz1daj+DigWgABW8ko07rv5OmuOsjXkcm4TbW79sCgfH9vv/y2c1h2Doxa+ITNsCGIUfwRAZdjfrm7oB2MS7MS8uNWNckLN7TKi9a3ylo9Rm9QBtp1hgrh6fZ0n46NM+Yd6TBgTgjEPBmscrmGSbWLPNQFLE248vOV3ZWk8xvKZuVXSsw/2T+olvSA/KlvWPtoV+bcMcExkI+71scA2HfjsM4V1Q8XRYQS5+eNeJxsnRlRSDQ6RxOfQJS6b/+ORCFZYwHLaE7WN6Xkz45qlj+3t1ebZV19bKEtomInHt2E5CYcBMwRgZgDjlhQ8el63Y13QrJKbHf0peU3h4bkm7v75fedg5JmmiQBNRD3Te4aSMe98SmMS9u+BjAu8uQYB8c4zi0SEMyS1R/2+TGi9ftsnZczNFQaLGO+zM1MldS4zc1/5aZ2JeUmOa2tsAyty28+ioAyIBBzwBEPWgCzObg1d491x2X78Jjc2TMq39w7IL84OCj7RsZkhM9gwWNJSNhZme6eygPq8sdsy0xlPvl80s7DLGMO9dc/yAPNdTWyviEl56xskmeqZXzeygb7fmRdNAnZT33zz1kCyodAzAEBEWgK1hiUiJwVLZJWdtoxlJYv7+mTH+0flAf7RuTgMN8p1JMpxlkJ5SxpR+8KniDmgQ/HfruAoOlOIE3XqbC6CGmZZaz/JhWWfy4njfW1sqGxTjY21sjz1rfIize0yIaGWqmzRaAsEvfQT0FsjOhEMQWUEYGYAwJKIKLYiKAh3pz0j4n8unNYftE1JPf0DMvvu4ekVy1pYy8YOsk1SmJ2qacyN7PaHS9sU7OFgyxqjdf9R8lEB+YhUsfX1Vvr5BR156xqknNXNMjDm+ukuTYi3Gj8HGdj6rrnWSFYy5VBIOaAAEdJbmutQanJ2NX7se8X4HH+rDp4vRLzHWpB39Y1Krf2jcpetazNWjaiJBxBHbE5q1P93OEElGqBFmyKsLbhzTyzjjnygcclWZOQE1oa5OzWejlRyfiEtnp5tB6frFu3toizqF2HodeqzD5v+Ckp4Kve3DlECZYSJmDREIg5IMBQGC3OczI/us+bbEa4euzfDHUE58hql1rNEPXOoTG5uXtEbu0fkTt6R2UoPW5fBE+PZyXDQzYis0Fe3XeXOuTjyiesu+zH4E+Z44WnhH0Fp065uak2JZua6uSMtjo5XckXUl7XkJKj1a2qmzijwtvv/BQmgUZ+0a9HTJqAMiMQc0DAHECjoeVgacbJayQ7Lj2ZrPSN5aRzNCv3DgzLQ4NZ2TKclr1K3viNapiRHOPUbtW7UY1olE9+RDHxELIxmTLypSNIJZLSzEuJqRpZC+HWpWSzEvGmxho5qaVO1jempD6ZlPaaGmmLfSUHTCZnQHUjEHNAwDzhyQ9EExrywJ+lYDMaKquGN4MIvWNZ2cu3C+14XA7p8SEl7Gh016zgdXV10lKbsNlsDUq6xykJ2zC2MmxKw6U0DO/BcE0ciGFv5PFn5wOWIgIxBwQsIHxjcq3KvebtfHHsz5cqXTwu+mhgQtNgXNjFrT6WZsBSRiDmgIBFhG9c0eM0pU6GGnRfm53ZtZAoh+4oCmsN05nfnIseJrqrHflqAP1PuqFvwuPrLszHE7B0EYg5IGBREG9WBaJ0vvxGBGpkqhvbRscG3YmsbeNl24XIo3P5cOahm8iDgJFXwNJFIOaAgMWCtSz9iQ8teP6Mdoyc9Z+jfCisY7N8wcSHeXnYBYxYg2g9ZE0nir4QV8CSRCDmgICFxLTMGAtg5OqOinH4Ke9TvC3AfA73DliCCMQcEBAQUGWY5D4pICAgIKBSCMQcEBAQUGUIxBwQEBBQZQjEHBAQEFBlCMQcEBAQUGUIxLyEsZwm1ITJQQuPatRpKOeZYU7EXO3KXSz55hPvYsi0nNZEiOdlOTbeSuSpGutHpWSqZJ2aS9rTzmPmtFfmQmZusQpoIWWcCabLx0zkmY8uyp1fj7nKHK9PwMu/WPVhIRCXebHLczFQSZkXK+2ZxOsxWfyziWOhEK9HU+W74i+Y+OQXq2IsZ0xXuIuNSqdfDiz1PC6V9jVTPR8JdQ7Mipiz2ay5+YKvDKPcVIrPoxeQy+XMf66KR7ZMJlOWgkNt5KOmpmbS9AiDPOQL+HDFlYs4iKvYfyZYqDKZDVjfoaZ28nxPBvTgdTEZ0EW1wut6qnLCv7bWfTVkLuW5UChOeyq58af+2de/o2MwX9mJh/rv45ssffQ1k7T89WzjdX6ya334Yp4BnCuWDcxEjrkCOUrJUgozHsoYGRmRT33qU3LrrbfmI5/m0pKor6+XNWvWyKpVq+TYY4+VRz3qUbJ27VppamqaUDFmqiAftqenR66++mq54YYb7Hgusk2HuEzE39raKq997WvlrLPOmiCz30dXn/vc56Svr++wa+PHT3va0+Qv//Iv8/mfDv76/v5++cpXvmJ59v6LCdKEWBsbGy3f5557bt5/MnhZ9+7dK9dee63s3r17Qv2JX8s+cT75yU+2MFPFW24MDw/LV7/6Vfn1r39tchXrGj90Q71+05veJCeddNJh+SsnfNqQz+9//3tz6XT6MHk4huSQ+7nPfa4cffTR85bbX/+rX/3KdIbuShkeHMMHL33pS/NlPhn8tQcPHpQf/vCHsm3bNgs/maz4UR7Nzc1ywQUXyLp16/Jh2f7mN7+Rr3/969aGiq/n/ELBx40sT3rSk+Q1r3mN+RWnWYwZW8x/+tOf5J//+Z9l69atUldXN63lMxkQiB4SR6E0NDTI5s2b5dFnn22N8oQTTzSSnimQg0K/5ZZb5F3vepfs3LFDElElWGggO+nFlX3xxRdbQ/SWHulyfnR0VD796U/LVVddNaF3jwO5qbRPeMIT5P3vf7+sXr06f/1U8GEefPBB+dd//Ve577778pW0HMBifuWrXilvectbrOJPJrP3HxgYkEsvvVS++93v5utN/Bq2HOOOOuoo+cd//Ed5ylOeMmm85YSX4d5775X3vOc9cscdd1hZ418KhP2Xf/kX62grCS83nfZ73/Ne6ezqzMtcLLvX/3Oe8xx529veJh0dHfnr5wJ/7X/+53/K1772NWlsaJTceKHdAAujf6yy92d/9mfy7ne/e9J0vd+uXbvkkksusTwVdzKEAfiwxzk6JQj5gx/8oDzykY/McwVt833ve59873vfy1+3mLA0R0blrLPPkv/5n/+RjRs3Rmcmx4xnZYyNjdm2uaHJFI3VNBcHEXul0Vvt379f/vjHG+VTn/yUvONf3iGfvuwyeeCBBywtMFPFjWl8OSXAJk0DVyrt+Tpkp9Ngny2dC3qJk40HfpyjEyuOJ+6IE+JGHzOFT4c02CeOUnEvtCPPTY1N0qAd6uDgYL5OTIf7779ffv7zn08IX6pRUYFpfFgzQ0NDFoZzcb1WCsg+rvpumqbuQ9oz1ctiAX2huxElg5/+5DrZo3cpxlbRuVLA/5e//KXcddddkc/8kR5LWxtppt6gN3XU1Xx9Zb+uXtJKlJMZL15eiBjr+xe/+IURq68bHpB8Ug9ty6/uN9Q3yF/oXcCJauxZmKjOcR3x+bbp2/RiOZ930p1p3ZgxMZMp/uj5IIT5OA+sPAqupgYLukY6Ozvlq3prjuVLT0vjLy6AyWA6159cbty+eVYq3YV2yOULuximr0j2Utd65+OYLJ6ZYLo0FsNNJ7PPF43opz/9qQ3nTHWrCriGRvvHP/5RtmzZEvkWGlQl4WRwd0xT6dvnuxqwTe9ub7rpJmtjiIRspYA/ZUMZ/fa3v53QKc4HyYS7c/V6ievI7btON6HhSunMp8+573znO/KDH/zAOm+c99dA6tjXDU792WpRyTOf+Qx5+cteZnfmPi4Pn7+CLIvrxpU3fbozwYyJGXDbsZDwijHlqENoHLeNn/jEJ+Szn/2sjR17JU4JK5GFlW8hMK3cSxUzzBdjy9x6xu8I4uUedx7cRV1//fUlLaNKwUkwMzkqLS86Q9+/uf43cujQITumfU0FZIbwGIvesWNH3m8+mNH1FqQQrvgaZL/55pvli1/8YunOHZ7Ta4zkOU4mzCo9/Ywz5NUXXpgfHllqmBUxLyawxr0C6eHotXmYxwNH//BsKSr4SAe3xxCtb1CUIWWJ8/D78XM/+clPZN++feYfMHP4NoLu4rf9esL8J4PXPQ/Xfve739nQgrdMy4niukAnceWVV8qePXts6AH/vIOK1TwmHJexzSgpH7t5s1x00UU2ucDH4+NdKqgaYjYlozsUrr0fXxfOaq/PAP3ll18uvb29ptx4wQRUENNUdMqKoak//OEP+afypeDLNN5w2MfSZgaEPw6YHbB8Ga+P630qPXKOsGPpMetMfadYiXbm6wPPoD5/1VVy4w1/kFTSPdyeIA+8zI+C8HQmPDx+vZLy2WeffVi9WkpYNGJGIZO5UvDq1hCUTETOSSXnrE1rYYwp/oBgsnhmimKZ5uqqBaVki7vZoNT1xc7KKApfDN94eIjHg7/4LAauje97xBsRWx7OMN2KDhn4awKmBrpjFgxWL8RW0P3UdSBPcMmETUUrX6c4sVx9ObNlFs+Pf/RjJ4P+l6oDSIc/Dov6RS96kTzzmc9cUGuf9BfCOWlnhkUjZkgUx1iX3/p9lFgQNg5ttBSU5SEhOd0nDLdjFBJjz4dfMwdoEjklfC/TbFw8TziwIDLNAvH00GVcv8WOczx8MJWiWtw08sbj8/nM+2VxWamprVUr5vDq48sWcuBBElYzwxi+8eB8uPgxiB9zDbexxAHKreOlCK877lJoK5CyjS1Huovr+jDoKWadUKY8dIfYF6tTnBBfiXKlrHnGwFAmHTQk66/hnHeRRz4OCPklL3lJvjOaa52x7ybGQPvx7WEubszaTEb1m52xTAtOzF4hzG/lBYy2trb8FuenmdHQ/dSRgpL1enb12LYKbaoWfufOnfLNb37TGjzh51pZUDrDJE0tzYfJNhNH+Pb2dsvfMcccY/Mj51sR5gpeCuAFHeQplQ/8cG5sLtIzIvr9CMVyM8WnOA5/3NLSIqvXrJYzzjij5BxmXy533323Tb2i7GZbVoRHpzy4+tnPfmZDId4/oDR8OaArHrYyrm/10gqbIp++fird2R/tgzsd3g1YLCBJQZyCXJBwflw59jIScgFfB/yWPI2mR+1h3+te9zpZuXJlXhfzgU8P0H58W/DtYDaO61Z0dMgjta0yr3ommPELJnfeeaf827/9m+zbs9esJabNlQIKeeITn2hKgoTjgIxpbCieHp2C500wRKAAzLKLKdQrGMc5iICJ4Y997GPz5/CnMG+88Ub57//6L+k81CmJVNL8i0F4OgPetLvwwgtNYcVpzhSkT8XnpRA/HYd4/JY3JZlZQq8/GZCbhsR4GPmKv500ExCWWSs8HC0FzpMG1s8Vl18hfcxwwfqIRU8YQJr07qeffrq9MLN+/fq8DuP5AsRJvpnaFvf3caHjyy67zBoXlbpUWUwHLw9vif77v/+7PO5xj8uXlU+vHPD5u1M7mQ9oGT1w/wNSU6f1f5I8Ucf/9m//Vl796ldHPuWBl5O3Td/73vdaG/N3KoBzfr8UICKvVerIyOiIvPCFL7SXyihD85+h3r0svPz0/e9/X9paXDsjdddRaFqE0T/8zzz7LJOZ8WGGXz760Y/aHTLWO2FMbpKO0vfxA+rIwx72MPn7v/97e0Etfq4Y/hxt87//+7+t06cu+3MepMp/OjMm69auk7e+9a35F1RmqoNSwIBasWJFdDQ1FsxiRmAEx9p6zGMeIyeffLK90Rd3xx9/vCmP2413vvOdVhjnn3++ERsVmjhQkFdS/Jh9CIg5sRSGPzdbkA6NHEVj8fLktljOmTiu27Rpk8kOkKfcIE2mA5WSD4eM5JH8HnPM0ZZ3KpzXm9erd+j1tNNOk/POOy+vG6+fuJ54bRdSBsX55hhriwdIVPq5lJEH1jaWH53uYXdXAYeB8mMOOG/n+rs4MBOdQZjuz+1D6hhO3PUsuM5NrkKcXk74g7viH/3oR44wNV0/zc/kKsoP4blrxMiajpRnAx9PZsy9OcgQyXy4wjtI2edhOiz4UAYgcRyKizvvD8j4KaecYq+v8iqob8ResT5cHPhRUbZv3x75zB3IQ2MvlnG2rtLwcnjdxh1E7LdmeXDBNPWC8DRwtvF4/b5Prxico+w4R4OmjOLkMFdQLxgz5W3Q+RL9coXXvZ//7W//gW9PMwN1xJU3ZcfwIcMi1qErinU/v7KYeC0yM1/5mmuuyb9ubfEjfok8UM8wil72spflX99fWLg0kYP8k57fzsUhn5dxJrIuCjEDMkRD8lu/jwMIh8BYfNz2segLx3EUZ4Q4eJh0++2327GPa7bgYSJxUfm8bHNxc01/IRGXpdjFZaTBGfzxJJWk1PXxfZ/eZOjq6rIn+sXxzhZcj6OMWBOERltcPwIKgDTQEW9MMpsJXVFek5VzKfg6Er+GTpHhxnhcHvjNF8RJGdPxMvzFND0/BEP8lq6vu0V4xjOeIS9+8YsX/K7VxePSRK8YcNR55PL1f7bO58W76bBoxAy8cksBfwQmDIt6MJ7FgyVfoeLwxyiG4QxulecKKgET76+77jqrdH7lrZk4rAe299xzT344ZUnA5PQVQsvEPB2K8xBvfPH96UA8hOcVYIjUrLZpruea6XToZcASxCL06QQ4oAt00t3dbauuQSLFei3WV/F56kYxuIahpIceesgMoVLtcj7wEhEnd1cs+MUCUaTp/UGpsoYszznnHBvC8MMDCycbHYFLl7F1OiWeEzGcVswHM3FchzE5WyzYwz8Ug8IgVwbL6clmAq9UKhbX3XfvfVKr5An0BsC2pnQNhyXAG4FPOv/J8uEPfzj/YAmCn8nDPw/i48GkkccM4QuePPKQglW4WBWuGD4/5Xj4Nx18XFu3bZX3ved9ctutt1rFR6/5NHJuHzc0MmzLeZK3uNUyHXw4Htz8l5YB85fNStDi45yBInR7edC5EW66tChLrKL/+I//kKc//enmNxO5FgJermp9+Ofl4y4F3VMGvl7ndR8D+kbvyEldSIw7a25cC8uv5xAH+WT8lrhnu/rhpA//SoBrkK2UzB5edhYlevvb327thnjxnwm8XNM9/CsGPMOzs6nClAJpIe/znvc8efOb35yPYzr9gUW1mGcDiPKEE05QoSMPhdJFtFcAiqTyccsMZqsswDXEQWcwE8fMBxz7WOxMwOe2cclgOhXFdDiDOjMpuJPgGYAvk+JkqZC+UkIKPGPgbslbeXEQh4+HMqcx8eB3vtMllxPQAbqg8fMyDnV6KqLhHOO3rH/OGuLOACIcurYgh4H4memBYeYRL5uFwnRl6vPJ0CfGw2xJeT5g6BO+KeaFqZznC7ZwheermaLixIzCAQ2Vp/3qYccOrqB8gbHlzSSsZjI8H2BVMKwxE0dYKoDfx3m5lxvm0t7QBY2EpT2pgN5io/zyetJ4rfz0GCLesGGDvOMd77DFw7kW/3zDjMkQb6yQvh/GWq76nwtYKx3y9Hr0YD/u0CVlw3RR7k43aKeYyY5pQEKXLnhP5hA/VraP32/LAdIibxhvPOyjznj/coB0ijlhOoee/Zbr4/V4Jqgai5kKQG+IlewyMfGmB3/+GM7g9n+yubszBWnMxx3p8DrwW8aVGSP0jbf4vBadgWPKmhdjmLL46Ec/2qYdYg3lr1NHWXvgRwVnrI5xVNLw/vn4j2DwvIR1Mbjl9vooRVromGE4P1301FNPlawSnlP11HqkbHlpCJSKezHhy5mHfXyAoHj+fDngZZit89d6Wb3fdKgaYgZ2WzKJrjWbeaomk+WuHAETEdc/lY1xZR7i+HF/d8JtfFi2kCpvQ0EOXMctKSRty74SJrrGlzXw5Y2lzYMo5umCeIU/0uDzjs6ZnohuAH6cw3n4fc49/OEPtxlQ3KE+/vGPt3nApYaSPLiWTpEHr4zJ5su2jEAGhr1e/vKX2zOseN6qHcWyzrS+VhUxTxTa7eNn/rH8kdmyFw4ixNJcSpVjsYAOKBvmu/Lw1S8xmS8z/tnGwB0P5IClzDluT3khqVUbXCaTtdeB7boovAdpQSY8JffrZ8RxpJWHzy8vlDBzIm4te3CMQ88QKm/O/vmf/7l1jPifeeaZctxxxx02BFIMDCbG+JlxwxuFPt5ygbR4AxRr36c9lbzVhLnKWXFijhfwwOCAeuiOZkbV7zw9yJ86/Bm7oSIuCqJ0Jjg2Ko6RBvu6jbyPaPiyw4rlNpdy8Q3Hw5cjGsM/VZOyFwJ4Hd6H5U1D3qqyWQHoeDymeIUPh979WhAsCwph4A+WSkNdCJBn8s7yBkz5hDTtbjM6Z/UzcoAt5MszHN7s5JhwTDVjvJmyiI8fF4Nr6RR56M0UsMnCLQZIi7zRKbBGN/B5LRfIbT7H/mAmLsJc9FU1FjO3U/v37XcN2TJWqFgGjrVAuOWl55/pO+fF8AXNtthBvEn7Y+ud/nEeoZQwsPhAgXqOTHgCYAUyGmvxZ8DYsuecK1MaOBYaRMztsQ+LJcT6J/UNDW5IQ3Xsrp4IwtMh0wmw/of3O1Jx22232RN/SDOuB7/P1pcJW75E7ae8ebCuDeui+HH7yUCboYzpCOgQQDyehQAy4uIgDdJmNg5rr3z72982WfFf6PQ9TA6N2jvHCLT9iA/Yn4kjHv2j3s9W1qoiZsbL4hkozgzHZJLbX1aRAsUFORPwECReuD5ec+qfy7L1LjomjP5xHeQAmRzpQPd8oduTw3RAv9w++xW2fAeJpc2XkrnFJozWZUXpcuUaHvxiQdFYOS6uJ8sZ5BWd+aU5mZLldRDXQ/E+hgwrAqJr4HXPEAFT56ZrR8TBXHKmzTEDhPDxNBYKpeLED7n5usoVV1xhLxtNJ++8gAwaPTdutHuW7WQWtn1P9DB+mNpxF8g4vl9bZqaoCDGXUj4PdBgrA77Q/dY7D7+U3lxAw2f2B5bCs571LFugBGf76p6B+/NoG9t/5rNcuKc/4+ny0pe+1J4Qg1J5We7wZcO0RR76MXVxqoZqTUhPQQaMUTIfmdvSH//4x7ZgDceMlXJLbrAXHUrHRRp0jIRn3rT3O9KAHhnSKdUhxknL64Yt1i4P8Lzu/ZbPNs2kgyMMZU2Zc6c0k2tmAuQtrj/ez+eFc5Azr2x/8pOfNHL2/guOKEplHamprZFHnfooeRY88MxnFHhhKqdhn2m88Ux59nOeYw8tIWdk9fmZDhV9888nzTzJD37wg3Lttdfasc9AXDR/TKN8zWteI294wxvsGEcFmcmbf8RBWryFQxxcNxdwnbc8iuFlh2Sq5s0/7fTe994p3vzTDcNEM33zz/tjLf/TP/2TjffGhyaKYTMtNDwVnTwTtjheyos7GfPV8DbMPAm4lrpGHUPWUutCLxR8vNXw5p+XBT3xCjMfKEUOn2+v/2I9eH/qbLzOE87r3YeZDIT14bG+WRmS16K9THF4v5m++cc5HPJxXcl84BUdomOGxOAZDKyS4UvAy0XbnOrNPxvCUA4h3CMe8QjjJoZ74mFmCtLz+ZoNFs1iJhPTOYDAvE7K+hXWMKMMcJ59f8yWAmFNU+ZfzhVUAJTMrQUKg+hn67gunof5wse1EK4c8GXC7IgDBw5MaOwlYcG1PPnVjmBMO0dmcKRH0+rcliUWo5ImAdubDOQTGag3PJCqRhSXy1zcZGBmClZrvL2A+D4ojofhQvTuHcSDoTJVWh7xuBg+wRDiWtKcyfWl4K9lHjvL//p25fPh07T46akjR8fO3TWGD3cB8fALA+pzYSYLb6di0JTigumcv6OZrWyLQsw0VJQ1nYNoeWEABTNmNlnBeLAPqTI5fj7w8c8HPg8LgbgVOVPdTebKBcZ5GeOcSePMn9EdJOQBaiqh1ptucc5Pfy2glnnhipIgPfTEQyhuaWlA5cz7dJhvGXpXDO/HEAbDD/EwXv9TXYdcpVypa6YCabHeNh3EfEFcvAX613/913YHxDHOy2QbL5+SspcUwuOlpksvvdTeBp1tHqbDQsaGbLOVb0GJmcTpxRkH4sEMt+mMQ7L1+4xNMVmdno6FiP7v//7P5sFSQXzlKgbx0vgoDF7HZLjE+88WpMOtNx0BFoOXbS7OT+oHxbJPlhcPZCcM8qArZEKeuL5m67CCyoWf/fRnsnXLQ1JTNCwxWZmYNijHiHj15tX+jITRBZexJdw0sIarf+PZnPz+t79btFkCcwH5p34zFluqjKZz8fKnznuQNxzxcqdA/fVtxufb78f9APu+vk3m4iCsL8d4eRLOn6Nj4I7J+xXHMSPoJXTLGW1HDI+88Y1vtOc4cAipWpdNtMiY0LqizmqMHqMbjBm+hPSxj33MXkufsxzFSGga+od+KQ86oPm2Ta6fjWwL/mkpFMaTXqZETRj7U8cTTSotsy94vRZC4vyU45Ncq8C65isCH/rQh2yxIx8v6aHAma4ux3XMqGDFLIZFJgs3FXy6XM88UMa7vDx+S0FMN8bsw5N/3n7jjay5gHjQDw9En/3sZ5ueiNefW6gxZn+Mtfwf//7vcv1vrrcn9dmoLhSHBean+xw5e8fvA/01L/XRcPlr8GIb8yuGEbOWQXNLs7xV5eXryHEUyz5X+HhmOsZMeGYMUb8gm8nknwqkR6fPkB31i1tiX895/fp///d/rf34O8yZYip9gvj5uO6Kr0EO7pT4DNlHPvIRy6eXL379ZGPMPp2E9sZ8oJRPS73nve+1qXxwwyWXXCK/1brFXdQ4zq4sDeJCFsa7SY/58F6WOOJy0TanW12OcMRDeyGffL4qy8dUrXbODTxLYkycuHFTYcGJ2aAxWrrxxKNUUDIkgmAoxRcmLi6sFws/9qmcEAbrNvtxG+ALYTbLfvq0ipVTWlVRxUAcDcC1dtutbiw9Jm/5q7fY9w3jBUy8MyVmwDUWr8ZRWoZpoPGQXxoqDzZZp5Zjn8eFImavayy2973nvWa9cTwhvggTrtU0QDyMP68bjvQkW/2J/F0zxufwhmnxqBflAIE99nGPtYZNR1ks83zh45spMQN/TbEcpaUq1C8XnmuTmq+0nKhk8P73vz//dh6WF4YJZOfJeiqU1INdMlGfBoKWCE9egI/L5402zOwolt/kbUJfN+LhZ0bMfPPvTHmf5pMOjXOMH5Pv2269zWZF+DinAvLQif3N3/yNDY14OePwfjMhZuDl9Pu2td+Zg6t9mkwV5UEiHdB0WNChDA8aDEr3E7TNRecQEnKg4bPvK5dXQlxB+OG4RecVXm5zuLaUEmcDI8BYei4+ddFmoqMCua2RWOSf0H0qFVY/t15gtnL5tJHFKgjXR/HPzvHjiDM+nDFbeaYDckIOjHF2dnVaGXr4vMTz5EHefAPA3zt37Pz8WHPB34eZGBdw+Sqkc9/991fVMqzx+pWHE7mE83VKf8xFfvqXHhk1wgHEyRuW5JP9CXGXgNdfXnfRVtWcL4+4y4eLUBw/x96PLWVPx8wYP3XisPzOAcRBHebboBgYJ59ysh0Xy1YMzsILEC1T6Rjamq88/nq2Pn3f9mft9HLiwLJnCApMJ9uiELPJY7lwsOOYIH4/vsV5Bfh9HKTHbT5W4EJbRMRCA+APUVSKvCxxVwhcKCRlEtv3bwLOB/m02J9EhimdXuflim/zsi4ASIf4GMuDmMm3SzvSTwyE4xxgO5YZk0w2Y0MeGb0dxLHPXRfO+/t9VjyDkCyOWFzAFYPLF/7cJfDiAc8sfAdZaXh5J+hfd01beq6UKwY+XO9j4M6AuduMd850CINr0CPkZi9GoFd1vgzizsJwTnXo4y5OI54f9iF03sLkDUR/bkKe5wCuJ12GJi6++GJbOxq5SKs0SM9dQxiGej7+8Y/b8rPExbWzRTwvcR1oSaEU85upM/FiaozHPRUWiZidJNy8+FtSiAz/vMAl4P0RGkcPw9zeiy66yG4DOD9dhqaDXU08mhTV3seGvUbqaugf5siDnZvwF523PYfZyObDFl8zmQxTObuuSK+T6Xg2iMvGPo0ci41xQNa8cFkvhAHF+WJa4ulnnCFPPv98e3DLa8HePUndE2N+HLN9/BMen5/TfViZ635xzmiQyOW/6FzcGBdCF7MBMnjZQX6L06yUcrQPq2f+ONry5hlA53Q+fohpKvj0uaXnjUrTbZGeJ7onWTkwZY3xVIZJfDxxECd+XsdYqcjF1D3qhk+3JEp6lw7r42H1O8iZW38f/+HQOExRyOWMBV5a+tKXvmTDB9SNSWWaAvFr/D6/mky+jGbk9Nr89bH96ZD6L74ZMwMwX5Vbhf7+Aa0cmtnIfyrEFcm+dx6lFI0fwme052ZyN7c0VCYUXCo8YfHHkvjVL38lw0NDLo4pJDRjPh/XzBSVh17m5aBy8porwyzxBsN55I+/nVZKdu/HttT5mSJ+Pa/X4rxecMyEYVw4/6HL6Jo8CKfEMKYy0wHy4MpXaML5LU/iL7/8cunsPCSpJPFYTC4Ohcbidww0JqZA8SV0PgnliQF3/pPPd1slg7g/7qlPfaqVPU/csXyQJQ6TKbb1t9VMpYRYfHifR7+dK7ie+n+9ElBnZ1cs7zPDbNL3YdE5d4jojbFX3tLLf9Z/GnAtD8H4EAHrF3s9e12ff5hz5/x5CI07Iyv3WPl6xPVKG/BDjbxR6+sKDr5gKltdXf0EfXG1Oa7Xv/XrN1iZs9SCnY+uJy4eujGJgFfwSYeyLkZcQn8dH3dliIWptTygxs+fp22y8D/PXjj2/osFyoy2QAfDOLh/KDxVmtOWss9QHhrXTKtk/Nr4vhfICxd3FDQZobfkrTIqZqnCKIa7PjoolrkI1pPl/9h3bioQv0EDTqdUD59nH9bJWLiO83E3V8TTmTQe8kzSUfL5cFxDpmJylQLlwhoJzB1Npmq0OWkc5qK0iYI4o3iJn4dWz33uc63B8r0zGp53jU0Tj4sds3p4Td7nCemSlkZBdtL2f8jHeCcLxsd1vFAgRktVd0hvNkDevL4ngZc5n7foGqxSZmBAzDRuf05rku17cL13gHYDWcZ1WlwGxY7zvDrMV0I2H7PZpiPGRiTziMuIdQ3BsSY0ZRDXfT5PunGlFEXGBsdpwhQuOQzEwcNF3qT0KxLG0wD2vUIcf9F5prZ99atflS984QvW0eDn5a4UiuWeCtMSs4/MZ4ojiJOKMfs/B+K0OCJlUeHoxXC8ZcNkc2aAYI3OSpnIqs7ij6U67z/itejdvj+eDvHr4rA4FvDPZokQL3+TyIYvOrGHbKQfC+f3/TZf1nrMPlu+J/fT666zN/dSekxIS8//EZbro7F3yhILzE9fIp6ZOh+edZr9q7DMGtFKY3EX/4Fa7Szuv+8+6zwIH0fx8VxhaXu3kH8a32HxRw7ZuevC8vTtzh6u6yXxcP56wjOEQcdG+NnqHse47vlPOd/p3IqUVA//i4OOg7n4XgYPk89vI6c/+bjzfiWAP3Fh8ULML3jBC/IykjfkKiUbpM9dTTaTlWuuucZWpEMPXBOHT9unnz9eyL9Y/MDrJu5XCtMSczwiCNQeHmijc6sszc6hKOJg7JhejIcTWMP0hCyezrDFu9/9bnnFK15hlYO0p8uAB2GN4LNK8DmXTikZ5uQiuSlc00G0jx7AZDJ6mQ67doEdZWLysAqWbkshq9YPafuy87LEHeeQ2VdgX/bAPsh5111ahnp9RtNTnUyUwTnSp2whB5byjI9XztZhcWP5eV1ncq5s4+mai2ThVpfbZ4Y1uN7Lz/58ka9fkf4W1EX1C0defX69LlloiNk/HFs4wseuiTvaFl+HYQgAxPU5E0c+KTPGpjds3CDpzJjKqDJp3KXk9nWGGSM8BPRpgry8hI3y5Z21Ue3kuZ7zHvE6B7xMkPMFF1xg02Wpn3AHcqGHUrJZPdV0MChYke5b3/pWPh3iw3nZ4q5UXPNxyOfLkvi9borzWYwZjTETGRFzu8ItArc9PNRpaJy941pulxhv4TPkPJRg9aVXvepVNnzBQx9fGD4T04FwjCdhVVCBG0lrjvJN6jQ+bvXiW95AxCpk1oiXNy4zY7qMdVHRTZ6YMxkXzDVaGswrRZ+Mz3ogDxXi/vvut3FSV3ZO/oIsjeY4F8+Pvx6wYBFP4GkUlv9iGaJ42KKX5z//+Ta9kY43rpOZgPCkz208LwPxgIlpRk2Nrt4drjsnf11DvYVHB+TFxzVfeB0y7so6Ec1eh4fJMRcXxROVhdcjead9MObLg03KjrHWeLj4df4axlRpS9x5FpfhTEF4vwQrb+XW1KRc2U6Q2zn8vWN8/+STT87HsWXLFlsFz66N5IRg8zKrI08MuXB3xDl/bRwckxfqFZ+Yoo0zE6dBy7uhfqI8E5yWUVNzk3XYEDkzPXy9oE6RN3Tm9YdjTfCFbJsuLtc+0Q1tIm6sTIZpXzDhtFcMjZMMTXPJlEAoGg8PNCBoFMP0Hw+f3mxBJaIi+KVD5yPjVPCyET+WPiQ22TQ+3pDDkqAicc7rcaFBvOSfSs7Du1JjcZQbHRdWht5hHYbi/BSDjo+XjCb7DLtPCzl4uMGXMpBnPvB5oAFR9yBH718K+GMpMg+2+LZ1rojrkfqFI4+LAdLx6WFl8YYrb4PyYJtOMZ5vL5OHv45rIPS43LNB/DoIjZkuvK1LBxtP34Ow+FPWlHm8LVBX+IirH+MFxXHAB3QmM7lD9uexgtFHfC3qqcB5DL74g2HG7ckbhqb38/FPF99cQBqUC3XTxz9VXmf85t9iIi7CVMIGLC1QrvMtz4WIYz6odPpzwVKU2SMue3E+OAZLNW+zwayIeRZBZ4yFVPJiyDcdppO/3DJNJc9MZJnv9R6VLNeFTDuOStavpaD7UunO5PrZyjvXcihOp9zlOZt8VoXFHBAQEBBQwMIMxAUEBAQELBgCMQcEBARUGQIxBwQEBFQZAjEHBAQEVBkCMQcEBARUGQIxBwQEBFQZAjEHBAQEVBVE/n+HUEq4iEKytwAAAABJRU5ErkJggg==;" parent="1" vertex="1">
          <mxGeometry x="790.62" y="220" width="98.76" height="80" as="geometry" />
        </mxCell>
        <mxCell id="yqM9gTFVnC1suYk9JM_G-22" value="&lt;font style=&quot;font-size: 18px;&quot;&gt;Data Lake&lt;/font&gt;" style="text;html=1;align=center;verticalAlign=middle;resizable=0;points=[];autosize=1;strokeColor=none;fillColor=none;" parent="1" vertex="1">
          <mxGeometry x="780.5" y="360" width="110" height="40" as="geometry" />
        </mxCell>
        <mxCell id="yqM9gTFVnC1suYk9JM_G-23" value="" style="shape=image;verticalLabelPosition=bottom;labelBackgroundColor=default;verticalAlign=top;aspect=fixed;imageAspect=0;image=data:image/png,iVBORw0KGgoAAAANSUhEUgAAAJsAAABaCAYAAACv1SSdAAAAAXNSR0IArs4c6QAAAARnQU1BAACxjwv8YQUAAAAJcEhZcwAADsMAAA7DAcdvqGQAACHbSURBVHhe7X0HeBzVufY7W9R7QZZVbFmuYGwwxWBM7+VCKDfANRdICDUxSeiE+pPyYwIJJcGAIQkl/6UECCa+YENMsTEGjGWMu+Si3qyyaitpy/zfe3ZX2pV3Vytp11oZ3ucZaffMmTNnvvPO186ZWc1ut+sYAnR9SNVDRqTaJcZi2wdinw3u/yHhe8H6YqzJg+2OZp9DJttYEywxFts+kOUcEtkOZAEMB2NRHpHCUPo8KNnGomDHYtvfhT4HJdv3gvXFWJMH242mPgeMRseaYIlob1vTNPVf1wxwaEb1WSGEpg26A5psofYjGmXhl2yR6mg0CiAUjKRtTZikOe2AvQfO7hY4Ohqgte6BwVIDtFdD66yD3t0k+61yIof7ICFiTCq0mBToyflAyngYMouhpxfBGZ8FgzkeMJrhDGKYonEM9yFbNHZyMERT20p76U5o3W1ARx2cLbtgaCmFs3mnkKsW6JSNMJikspssmnz2B11Iqv47ARLWlAAtRciXOQ3ImgFkTIaWWghnTKJPP6N1DH3IFq2dDIZoaVsXbaSJrtEbt8NQVwLUb1CaS7e2ALYOF7ECkWoooPbjZhLtliBaLn0SnIUnQR9/JLTYJDidQswIIBxy7iPb90TzRahtK00mWkfbux3Ob/4ONH4tB7PMbRKFgpGBV/8MQuSUCXAeehW0wmNVUThlE662FNkiNWiRapcY/bZ1GGxW2Oo2wbjlNdFk60SaMbIFDfAjB5pcexcw6T/gnHW5MrfUtiNFOOWs2Wy2iIzagUo0RpJatwXO6q9g2P0RUPulaLFe0S5CtGgASZc0Hph+EfTiMwBzwrDlFW45R4RskSJDJElGBGuf5pL7tfqN0Le8ATR8C/TSFxu59gg7GFCYYoGCeTDOuQ72+Mwhyy4Ssg472SJFiEi160Gw9qnNnN3tMG58BSj7J+CgE876kfLHwgHpH3NzaROA4++HI63Iy48MjkjJOqxkiyQhRqdtDZqYJa1pO/SvFkPfu1mKzO59YwRMw2QUQZ9/D5zJBe7CwIiUnNlu2Mh24BFNFBi12e4VwObXAeteIVoYUhejAblhDDmz4Zz7c+gphQGvOVJy9rQbFrJFupORQqD2VTqjZRecG/4KrWqtlLDeKEWZYYMTevah0E98EFps8j7Xvj/GcMQS3B+djAQCtW8wGKA3bIW+6jduoqlS9/+xDImi6zdAW/PYPte+v8ZwRFKMNCEihUD95jyms7YE2kf3iGbbrUpc2wECgxlazSoYt7+jrpXYX0Qjhk22SBJt/7ctonfa4ChdDnz0APQeixqYAxNGOEuXQhc3YX8SjRgW2SLZyUi1TfhvW4PDaYe+9W0Yvn4asHVKURTmzsIGMadtVdB2/Vs+h1/WwcZvyGSLJNEiiUDtc/Icpe/DsPFF1zKf0Zpu2q/QoO14E8YOIZ17jV04MNgYDkmykSZEJMA+BySaCNpe8TmMJUuEaL1S8l0gGiEEs/cAJS9DN4Znmi0UboQs3UgSLVJtB22XswJ1m2Ba+1j/EqDvEozxQOXHMLXuHLF2C3X8QpJwJMkwGkTj9JPesgfaF49C724Roh3IPloQSFCkbfuX+8vwMJTxG5Rso0GGkWKwtk29HTB8+xLQVi0SOFCjzhBgjINe8W+YrE3D0m5DHcOgZIskISKFUPpsr1gDveoL97fvMjTocuM5msqUth8KhsONgGeIJNEi1XYo7To6G6Ftfd210JCO8ncdIjOtdp3roZwQMdzx80u2SJJhNImmG0wwbP4H0LxDeDZGJ9XDDRGb1rYbBlu7uyA4RjJ++5BtNMkwXITSNn0Sc6sEBdtFq0XLqtpogMhFt7bC2cVAKbimH+kY+pAtkoSIFELus9MBx1fPyAEU6Pfm0wede6GJexEM4eBGH9kiSbRItR1qu9RqhsYt0BvXyxV/h6NPv5Abz94JzSq+bAB5hmv8FNkiSYbRJhqh23tg3/m+CDV0J/g7Bd0JQ0+L0G7fZ07DOX6GaCDDUDG0tkWEbTXQ9m5zf/8e/uDgE/ye1z+4Ee4x9BuNRjOGLgC5a/duAiQ4+N5XCwyjvdtHOpFQFhEhm3dH6S95tpFiWAKw90KvEV/Nj4n4Hv1wCtlEwOpzJIhGhJVsHlJxaXWPQ0eT1Y7GTlvf1tHrGnDu5zYUAg5HAGxf725Wz3p+n1cbBFz1IjKOFNEIrbe3d8Ste4hT1WrF5xVt2NjQhYr2XrT3OtBudxEszqAhxqgh1mjAkTkJmJGVgMPzEpGTFKf2OxyBn2kcrgDYL3vpChhWP+Ra5fA9/INP9BecAH3eHXAYY92F4QXHcERk44HtPU58XdOOl75twOambt4cMAmxYmULBLtUouYjDs+OxzmT03F0QTIy482IGaBrR3KnOQxmmFfcDWftZ1Gs2eT65KZQghNDo8nNqA+Mmo3uvjtY7pFHGP1PIZth8llwHnUz7BF4LtYzhsMiG7VYW7cDn5RbsKysGSX1VpiFXKK4hgyenMTLSTBivhDuhMJUHJydgORY44he/8Q+Onq6YHjzhzJIXBgZrdBhmHYxdMsO2WphOvE+2Jf/0k0+AV/FNel09VEvWwakFqoHp/X2Ou5U5SOGkE2bdgGcc26AI8w3pbeyGLLPxkGssHTj8S9r8MRXtfi20Yo4YdlwiEbwMB7f3O3EOzta8fCaKixaU42SWj4LMDS/zht8K6Oxdbcwucldsp/BNILDKmq8y2WmPNBtXuXyWeCs+xJ66y7hlZiw5BxVpsB6cqze8I3aeIxx6gUwjD9S9olDH07wBTRhjtYHWqUhkY0+0G7xy+7/uAIrdltgE41kGiYZBoJkpfltEdJ9VtmOu+Qcj6yugl1MCs87VOjSL71+k3R6FOZBSaKsg+E45RFo5z8P46FXSD+Mijha1qEwnvk4nOc8o/wkOIU0yROgJxzkPljAF8PI0DuP+BkMucfIvhzo8ZlA0dlwTpgPvegMaWeau1544CDZwjSWhD/3J+RRpIapb+vEXR+WY1tzDyK5tlWZVpsTb5W14JK3yrChrhMONacZOox8qUrtOvk0dKL6A8/OsWDfOsVP7fX/3muBlCfmwHjEtaJZdwFb3kVvvhDkoJlAbBoMZyyCvW4TzNVrYT7+DiHNHBiyp8GQlCGHijbkIImGcx75U5j5Dt3az2HMnAxj1nRAImtjZyPsHQ3Qe4Wk4SIH24lNl56HR1aB/OyQW6/r6MWdH1WjvN0W1PkPJxLEWW6VgX1oVSXeK22B8C9kOO09Ypq2yxWOzOE1yrU6RXZ1bTa8v6kVD71biUuf2YFXv9yryveFGKOYODHjGrTmTWL+1sP05R9gsOyEYeYCMZkl0NY/Bcc3S+AseUE0VpoMtteta4qFPutymDKnwbH61777xNyirQrmlq3yP4xJanOyemVqOMgbiGhESGTrklF+aWMDylp69hvRPODZ9nY58HRJPV7Z2KiChsH8OO43dIgD7faJhguT2PZtdVb8dlkVrn9pJ6772078cXkNVpda8N6mZvS40zq+kGhSnHdt29swFp0HHHs7DMWnySBIxJcyDobWcmFwvDSeCseW14HqVXKIl1NuTgTSpsl1S9txou38gU582Bx5nifVRbYRIhjRiEHJxoH7tr4Ta8SPCo+SHTrIb6sQ/q/f7sWiz2rV52CgVnF2SmAwhNWn/uAQ1XXu41vw1Ic1+HibBRarHUuumoxLj85CdbMNNr+mVMqEMHp7PRxrfgt89hvph5B/ykXiG3TCZkrhqLic/6kXA4USaXpHy92t0FY9ANveLTAe/XPoPYw6Iwjpih4nfYoR7TYIWYJhMKIRg/LHKgJdvqsVjSLo0QR1mUn+LNtjwQui5XrdeTr/EBMmgy0qxPV1GKBW+8e6JjSI+fT4Z1ccm43L5mbhsAIhk3z32wMRupaYCW3eL6EnJkG3t0oA2i6EssO+ayViJsx1Ofcp42E6/L/dB3lDWrX3wrj1bWhpedCmLvDV0EwHmcQ1CNedLzLVxMdEnJjzYSIUohFBu0yttrulCx/sbgtb1DlSmKUfS8ta8V6ZJUjQoEPvrJaBCe1NiwPBS23ptOOJD9y/WSBISzRh4Wm5StvZZUuIMfpP98jBeouYyp3LYTrmfmgn/QEao8mKT4CaNdA3vQZNnH/DvF9BL30PKF8B3VIhd7WQkn5mJd+cJKa4oxrOr5+XqHaKaMlaVx3xP+3VX0HLnCnbwXKZwTV8SJAoWc+aJcp3eGY5VKIRQZO6TDk89lklXtvWonJh0QI65lkJRjx8ygRMyYjzuWD1mfm5tY8CZSvcpUMDyfbP9c1Y+P92oc3qIuwPj8rCUwsmKY338P9WoazeisVXFiPO5O9+dfVHi8+Gzuy/lb/gwuhRNC1fsMw0B59m6hTtyzJPEEDy8Al1R0//d/7egdJs0qa6NqOQN9P18hs+1T5SmEzQTvsD7OlC6iGSdyhEIwJqNk9D7++yIDaKiEbQh6vpEM3zRY27xAVPnzUOjk18Iv+GblC0C8GWbmhGe3e/Zjx6UpKa27VJULC91or8jFj5Hkh8lBfX9jcCHaId6ZN5CEUNQvJ1yb4+kjHlwXNJfz1EI0hIficJPAMr9XSSNBxEI0TrOlMKIk40IiDZaEJ3NnWiucehRBdtoKb9qr4LH+5sVRrY++KddptY0OENBq91W103NlR09Y3vzLxEzCtOAbnV2G5DSXknpo2LVxowOFykc23e8Fc2FIzkWC84e6AVnARnTJK7IDQMh2iEX7KxMZKtdG+Yp0TCDObhFkuw0N5jV/31wMDJKodot2EIhXEHUxs7G6kZXSjIMCMvPQZmMZmf7mhDrNmAQ8YnKA07piGa0z7xRLno0FNEwyUa4UM2NuTd2K6W6CYb0d7rxOpy32ceDWIS+JOJw0G3zYlPtre5vwExEgLPkugzOc6ILjnXkx/WYkZuHKbm0Fd0VxqL4Hxt3vFAelHIBBoJ0Yg+svlrqLXbjni/DnD0gCmQT6vaVOI5HCit78ZnZf1kS4w1KhMaF2OQoKEJdZZeXDo3W8gXPHpjIBEjsvNshiGoQdblMVTW3NjWQHja9wfP8dyojQeC+w2aA46p59LncJf2g1aCronZbFYb4c0P733cvK1KMARlUqv4a9FNNRGCbJXtPajrDN0UBAIH59MdFp95z1gpm5Ybj2bx1e5/u0JMaixOnJoiEfG+Nydlzki5Rgj5+ldNWPj3Xfiv53bgttd2410JOKyiGYONC/fZpIGS8i78dlklLnt2h9r+uKIGtdImD1V1eINtb8flz27Hym0WHzKyW1uqu3DHG3vk2O1YWtLsEyaxfys2t+JHL5RiS4PvOg+Spru7G+Xl5Vi1ahX+/Oc/47bbbkN9fb3ax42LXLds2YKHH34YV1xxBR599FFYLBa1bzCo1Ic/rUb23rliN9ZyqU+Ug+mHW+fm4pSJyeq7kT/zs+ohOGs3yBWGfrtwEE9atAmba/geEBeOKkrGuzdPx59X1mHJp/V45dqpmCuRKfNt3qDiau924qU1DXj580ZF2OKDYrG1xoqKZlewwpmHJy4vQpz4fN7gOLH+hsouvP5lo5p3NQqBZuUnIiFGw6YqKw7Oi1fH7mzowRvr9uIdIW9rpx2bfn0YJmTGqf5QY22vs+Kav5ZhY6Vr3ArSY/H1g7NVJM39JO1Vz5eizpGJ5cuXIysrq09rcSrwmmuuUURrbW1VZaeeeipee+01RaampiY8//zzePnll1Fb68pBUrNdf/31uPfee6XP7ug6AII+ysdB7Bkg1GhEp5jQPW09yrkfLjjhvrOh24doxAWHpeNriT5fEQJdd0IOjilO9ku0BtF8t72+G3e/WQ6zDOwfhRjPXTUZt5+d564FvCYkolbhuTzgJ06/PfNRHa77W5kidJKY7rvOypPji/HclZNxy5njsW5PB376yi7c9PJOvPhZgyLavMkpStN69+fBf1b0EW0geDM9/K8qrN3Zjh/84AdIS0vrIxqJsm7dOrz77rt9RCNuuukmmEwm7NixA7feeiseeeSRPqIRNpsNW7duVccMpt2C3vYTUmNVtjzaQYFVWnpgd88o8PfXHd6T2yGAcvqsbN+Xq8wqSMIzH9dhxvg4/ETI5hiwepjHUaPdJyaWpjM90YRfX1iIE6YmIy3BqMiZmtDflzVyDu8xYWtP/7sOv/vfKuyW6J9me8Gx2fjx8TnITTWrNk6cloKirDis3Grp05LEgmOyhdiuIaQp3VFvVStTvHHmoWnK7+SN+IAQ8ZW1jcjOzsYxxxyjSOQBzeOSJUvc3/oxf/58lJaW4u6778ayZcvcpfsiFDMalGy5iWPkVQVynTubrRJJup1dmk4umgxBAB70yqHLNja7v/Xjb6vrsU1M4c2n5iEl3qh8Im/YZRT/Jprmf77YqzTMKdNTlU/nqeeUMm4eTB3X/+ANCfLW101q2RL9OWJSdhxuOX28CkjYBo+kIvRShgqMkmfmJUi/+8m/QTTwQK17svRni2jrn4lWfFZuGmq3KVOmYMaMGe4a0ra4TPTT1qxZ4y5x4eqrr0ZLSwseeOABZUI//vhjvPrqq+69LpBkqampSEz0/elwfwhINh44WS58LIDztlz31m13pTs0o0RIptBX6JKTje29yr8aiBVbWvGLM8ZjbvG+iU/6QLubevDcJ/0rM340P0eVE9Q61EaemYji7HicOztdkYhV1u3pxC/+hz/u0Y/7zs9HspDam6AdPTo6RHt64/gpKZiS4zs+JOBAvPpFIy58apvcDI2uldWizWbPno1x48b5kGPFihVoa+uPwomZM2fi9ttvV77cc889h8MOOwx79nAdXT/i4uIwZ84c9T8YeK6gZJuQlhB1U1WB0CQD2m5zJaP5HjbdTHKE1neDHFPT2oveAVqBuFWI9p9HZe6jWQguY//rqnqUC+E8OKwgQWkX+mVf7GrHYvHFiOKD4vG7SwrFNMao/ZYuB+4Xs+Y9JXb4hCScfnCaj3YiH+rbetHS5ZuimF2YqHxDD0jO4yYn4ywxm97YXtctrkCC0spEUlISzjjjDOXYe2C1WrF27Vr13xt/+ctflMajCZ06dSokmMQLL7zg3utCQkIC5s6dq+QeCB5SBzWj9B9OLUgZE0ECUdHa4yIbSaYmu907QsCO+m61FN0bN5+Wq7QabzgvJdAH5tz+sqrB/Q3ir5mRkcS8E7B0QwuufqFU+VizCxKx+IpJOG1GqiIFNd8K0Xgl5RI1e2HhqbnKv/IGr2drdZda6uQBV5zMyk/yJZv0L1PO/eilRWp242Q51zsLZ2Dpz2co082l7ATJRnJ4CMD26+rqUFPjO89MMMVBP+6QQw5R9RhA0H/zBsk2a9asvvYGwrs8KNlY8QR3OmEsoLO3X0to8e6VFSFic00nut1+kwfHT01VuTd/YqS/9blEdd4LObMkOPi3mF3mv65/sUylM3530QS89bPpOEa0jicK7eBE//omH61Gos6Z4OuDEe1WO1Zut/jk9Wg+GbCQ1B6oj/LnOfHL6iQyvvHkXJx+SJqQzIGXxKf0aMvLLrtsH/+K2oubN0jKd955R2k01uW2ePFi995+LFy4ELGxsT7teTCwbFCyzcpJlEDBpO6csQDegdRtSMqWb74DFwi8zuYO+z6Rd7pEkVzlEQgbq3zTJKUNVtwrppGa5+H/nIhP7pqJm04Zh0zKz902CWLptqNpgFnk9FfWgICMGvDLPR34SLSgN8anmTEuRXxSd3fZJqPNxSvrJAiox5XzslU0zFM+90k9mjv7z3XRRRf5vH2A/lhlZaUKBDxgGoT5NmpAPt1GmVZVVeGLL3xfes2o9txzz1V1BsIf+QYlW2pcDI7L958xj1b0kS3E9Af5xKgyVFBB7WzsVs7/QDxyyUQ89V+TcMUxWTgoed9onmfh3CsjRG8UZMSI8+47HHTo/887le5v/eBUWWKsS+NSo/WIBl28sha/lqj2kiMzsfCUXJWrK623qgSxB8nJySoS9RCBJOLsAJO7zJd5kJmZiWOPPbYvSctodeXKlWhv900NXXjhhcjNzVXtsS3+f++99wImdwe1M2aDjnn5ya4n1N1l0Q5etHoOU6LSUKDq++Fal5iggaAWqWzpxR2v78HXA3wugj4ao0l/4DzlJ9vacOc/ypUm9YbK8JM5btBMv/BpPTaJv8ZFAB7QT5uYFafMu4J06MXVDeqhnOMkQn34kglKkxLLvmmRQKT/PCQGo1FeLwnEaaYbbrgBH3zwgbuGCyQbo1USiOjp6cHnn3+Ori7fG+Sss85S/5U1ke2JJ57AG2+8odr2h0HJRszIipdtbK1y0ESraZmzxU4M/uoF+lJMG3iNtcKHW1vVoFPm3Oj3cKL+Z3/fpfy1meKIDwSTu3v2dvcdw42g/8aprAv/tFV9H5im4CwFo06aPj619U5JMxa9V41bzszDZIlkPeD+lk4+F+FUixDY5q/eKseJ01Ox5Oopiphy6yiX4I11vm8D4CwANRnNHj+fc845WL9+vfK5vMG8GTeCJGJKhHk2ktSDgoICFBcXqzLOpzI18qc//QnTp0/3qecN43333feg+3NAxJuNwkqDWl3hK6LogYwlTixIxtTMeHWx6jX0PW1A1Wq5pYJrOJKtvKkXq8vafMzpF7s6MKcoSUWInI76Z0kL7nmzAntFK/1GHP+Lj8jC39f6vviYS5S21FqVzCgs1i2p7MKST+rw6PvVmCfa557z8lHTakOl12xAk9TjDAJnI94Ukjz1YS1OkYjyV1L37fXNqG5x1eU4tlmdaO1ySHkTHltejQvnZOKhHxSKH+e+TgmMbHkn4fGlG9HW4ZvOKCkpwebNm7Fo0SKV6rjllluQn5+vSOcBTe3555+vAgmCU1FLly5FRUWF+k5QQx5xxBFK6z355JNq/pT+21133RVQs2lS2T8NB4CB3v9dXYXleyz7/dnRUNAtJHnk5ALML3T//jkj0eYyaEv/WyQTPKKm9uG86NmPb0G9xXf1SF5aDCbnxKu1bN9UdmDupBT88ozxygEnrliyA+9/6ztFRGQkmZCfHqtuTq4CaWyzqYn4u8/NV20+KL4Yk8H0y/zhvFnpeGLBJOWb3fjSTkU4f7jhpHG4+fRcjE/1JLGd0PKPg/XQH+HIE89Vjr0/MGF755134vTTT1crOB5//HH3HuC0005TKz4yMjKUZmNahHOkq1fLjeuFoqIixMfHK633k5/8BD/+8Y+RksLZE//XFJIZ5cESYOHaIw5SbyuKVmR4RXO60wFnSiG0lGL5sm+05A3Khqbq9rP6J809qG7tFYfegq92t6uBffGayThpWopK6NJ/oo/EZOxA0CfjhPg3snE69aELCvGHS4tQlBWrVvpedVy2mkf1hxOnpWLRDyciSwhrlMGenruvuSYYjHAeNs9DND57kTwe9jnXIjajUKU5/IFR5tNPP618LpIpWPafY0/S0Y8biN27dysi/v73v8eNN96oApBARCMGNaPeB6fGmTFRQu6PKl1RSTTRji8ZXHBIOpJiXA6wgjkehlaJ5prFT/I8XBIAPGJucYoQ1qRSGmbxqeJjDEhNMOLIicl45srJ+NH8g9TyIGpCD9ISTGr+kQ8w0xTyONZJEI2UGm8SE5eBx4RkFx6RocjJrnHLEYKcMDUNyze19J9L6t8sWnPRxYXIFjmzHn3GPNGQXKbeIqaT7ZJ8T4rWu3xulldfxPQk58N++mPQErKVDJhspdlkIEBCpaen44477lCaLC8vT9XhtnHjRmVaqanOPPNMLFiwQJlSjzmMiYlRiV3OMnAWgdqMK0auvPJK5atxuoqkHQxBzag30TxgInrJ13V4e0eLclajgXDsR5EM3h/PmIhUGQxPvykAY8MmOFf8Qr6Elgbh1FVFc7fy4XhtuWLyuPoiQcjA8/gDlT3TJ4xEayRSpYNPP4/PLeTL8cyXeU9BeUAicRaitN7ljzH9kS/H+AN9xm3KFzSIWRfi9K0kcbWr58yB8+ifAknjfa6/ublZkYng5DujTObWvMe2urpaOfk5OTlKO/E41vEGicfggsuJSL7CwkIV3bJ8YN1ACEg2f0TzoF6iod99Vo11dV1R4b8x8pqfn4R7j8+HV5ZAQe/thPHD28TL3SXfQvIalLYg6QhKwXtSPBhIKm9p+COYP3hmFoLVZxWP9uDY9FXVJdouOhPOmZdDTxJt5S4mWG+gxvE3rt51go37wHrB6vqDX+kP1khOYgx+MTcXOV7rtEYbRRnxPnOFHmjmODjz5wpjgvtt3uDlc+C5hUo0gnU9xwUjzkCEUp+7PfVUVfqhTOvMvhbOoxb6JZrnv/fmD4Pt94D7qcUGasZQsQ/ZQmtER3F6PJ4+uwgZXOOlSkYPTIgWJhrh6skAcBZBojP6M6Pby3CB1+CAljYJpjOfEI12GZzGWJ8rGw4RQsFI2/Uh21AaI7vHJ8fi0dMm4hCJ5HhkZC4xOHiX5ySZUZTpP2KTixIvfiL0QiHcmCab+EV8c2V8OrTJ58F5/H3oyTpYjYM3opVoRB/ZhtMYL3RiWizumZeHC6ekqR+829/LkehGTEqNRUFSYJOu8f0Z0y8Gsg8VpbDvAsnohsiT5tIUD+fkc+E89k44D78OzmRGk+4qbkQz0QgVIISjMb7xe21VO55dX79f307JyetHTirA7BzXzEEg0LnVuuqBL5+VsPFDuc3ipDC0gGHUwLyZJr5U8X/AUXw2DGkTxGT6j1ajnWiEJiFv2FpjGNzV3Yt/lVlUaqSywwbqGyo7aqBw0Y/tcR7aKH9unJWNC6ZzqfXgl6EIpztgLF8Nx+ZXgA4hH39boO/p+f1zg/iH9J/XwBuAN6o5AVr+yTAcfAF6xflXNQJc41ggGhFWshGe8LixqxdrKtqxtqYTeyzd6lWl3Q7xLyhPqeMncAwIksuzxCkzzqgSqYdkxuO8KemYniXmZYDfMhh4ft1mhWHvduiVa2CwlLl+V6CnHfztTakgtWTQB0kEjwyUhVwTic5X0sdnQk/IAJLyoeUeCeTOhjPO9bxCsEEfK0Qjwk42705yUPnjHLWi4cotPdglpOMjd9XtvWgQ8ll6HUqYgcDl2LlCrFQh2PjkGIxPiVX+WVFaDMYlmtWy9ZEIRd0YQlRDdzOc6oV7e2DurIOjaRfUq666GgBbh4t8JJ7H7A7pxXnSP4/m9LxBkhFyQo5EyHkwpBbAlloELaVQvo+DHpMiatu1CmOwaxtLRCPCSrZgneQezjlz4rlHNBzfI8LZCItVSNdtU+UOOZ46JTnWhEwhE1MaaTIucTEm+WxQppPJVrU4Mozw9FvjC2lE4+h2ifrsQjK7FSZLtRCRWyMg/7XOeui9bUCvRQ70mN8AoMaKy4KWeBD0+CwhWBYc6ROhpeZLebrLVBpi4eTbH4dowsca0YiwkW2onfSYW8L7swfe7fHzaAi3r18kQxh+7ltTL/YLLYEaDKMhi5GCbYeFbJHuZKQwVgctEtgffXY7IcPHWBQsMZYHLdzYX30eEdnGomCJsT5o4cT+7POwyTYWBUscCIMWLuzvPg+LbGNRsMSBMmjhwGj0echkG4uCJQ6kQRspRqfPwP8H7qlJuot7hooAAAAASUVORK5CYII=;" parent="1" vertex="1">
          <mxGeometry x="950" y="90" width="137.78" height="80" as="geometry" />
        </mxCell>
        <mxCell id="yqM9gTFVnC1suYk9JM_G-24" value="" style="shape=image;verticalLabelPosition=bottom;labelBackgroundColor=default;verticalAlign=top;aspect=fixed;imageAspect=0;image=data:image/png,iVBORw0KGgoAAAANSUhEUgAAAG8AAABuCAYAAAApmU3FAAAAAXNSR0IArs4c6QAAAARnQU1BAACxjwv8YQUAAAAJcEhZcwAADsMAAA7DAcdvqGQAACztSURBVHhe7X1psCVned7Te5/trrPcGY0EgxaEJBBCECFAQqwBEgOGgF1UjHE5UDF2fuRHlgJSpMqJs1LJP8eVpJLYReyYInYJYxR2AsgoyEhIQgsabSPNvtzlbL13nufrc6U7d845c+fcuTMSM+/Md0+fPn26v36fd/2+t79jdTqdEhsgy7IGW8PpTJ9foorKcjS7x302jOzB6yV6CdIpmjdOezajWVullSFinlxbkkELpcVXXqvUdgEUmd46/MPGfTn35XmJgh+GDX5eFM83Sb1t25vu69lqz1o6W618SYMnpq+nohxcy0pg2TFsAmfZAlDAOAS2MjZO4RqGrG2rtJn+DmPyRulM313/+YsevHHfLf2AnwtEvpGmaaPIeZMFscrheDkP0vcrwKyBhpqWncqIzTB9LV0Cbw2N+25iTCC1iIfYVslXwmMLIu23keYOt/mP+3UWY0oNwDSsIW0qadVk6jqrZlPvJwVh0u+JzvTd9Z+/6METQ0eRC2qWyNzUgOGDG8wJWlE6cPh9V6AIPjrBMsupnDnyWmCAW226juPweLbVfZPQJfDW0Djw7Jx+TaDx/AXoz+jTCvk1vi8tapSTGo2zedO2TGmZw6K2EhmkZVidhKT+6TqrmncJvDW0VeDleYaMYCRUwB59WC8t0edrqkbTmJU0jQRBYUpA21rzfdQCF77jouUwmOG5fe5zXdecT4Dl1MrN0AUB70wM3irw9Jk6UJLZDnFy6LMsmrc8VbRIv+VNwbcJAIGIidKxTornlvnay3Ho6HHuS9FPM3T7CTps3ShFnKUEVedlpEmNky/0PRc1z0cYBtz2sH3WR+BZmGsG2D3bxK65Oubr3OeW8MvE+NCkdJHQOMNmZMo+OdR037OR05+KxEw1mVqRwD+v4HW73ef3bCVAo8iAJwYQtIyASUtKaQuZZ3kBFq0ajp7oYv+hY3jq0DKeOd7HgZUci/0Cx1dW6L/GmLcxtxOVAUIPmA5K7GzY2DPt44r5FnbNN3DtZTPYzW0vqKFkv8QzmV1KFN1mgiDkfu7MMvpQ9Z3gSYs3At6ZPh9Fw753wcFLCVhIrZCmua6D3PbQL3zk1IoHHj2In/z8WTx5rI+fH49xrCvfZqNGZagxFch4Q+M80zhGSbuNSabGqw8SmCAI0Gw2sHPKw1U7m3jzDS/HTXtnEWZ9CgmPD5uIaJKbXmnM61qwdI86n96Pu+64z8bRsO9deM0j+7NYyTT9UmOKABU4FHn46t0P4GdPHcTJdowozREXSrZ9WjBfbsxIvesoxB+c6DSi+R1zO16RICEQikrhh7D8OoMYBz2a3TTpYTYscVkQ43V76vjw21+Pl+2YYT97qDfqKAi2rq/7ktatAnbRgecSNCVgGYGJLBdf//E+3PnDh/Do4S7s+jz9S2lSgoDH0d2YiDIlkDF9mk3t457qROtI1xx3XflBCYGJTE3MamIbo002zWKSpko2MBMAO/0I7735FfjQW65Dw02R8/pRFBmGevSfuo6+txH6hQLPKVIGBjayeh1//H8exHcfegb7CFxJTdi2aw8WF08it3yjFWVBwHh8UMTgHhT0R6NINzWOUYUdUHOZ2zGlAP1YyeZRQELfQSdO0Ss95oIUHgqVm6xgj30SH7hpFz54+2swN9VETGuxqn2r97d2exT9QoFnZRGKcBpfu+85/MFXfoQTRYNmssDunXM4fGA/mlMyVzRTNFUWb0Aa49E8OWR8QRNqBqOHkIbICg2/jKCCESQPMmZbIzTMEI3qFQxKfN+lsNhYSZngN2aMdegeewZ7Zzy858034uO37DIaJzMp3yfGalv3eSZwfqHAk+Yt5z4+91//Eg+2W4iCeXSWTmLW6cHNIzJvGm975Tb87Rt345qFaRxcivHV+w7grvufw0pSSf5Q4m7qweDN6SQfW5bVTENp05+6BIPCYCvsT3sok+4g8lVgxCBpeg7dnBD3lvA/P341tm/fjqmpKXMuAah+qKU0t+MAOqfg9Xq9DZ1tHACiM30+ily7xEMHO/i9P70bT/bqaMfybzmaoYtGGeOTb7wSv/T26xBSG4k0GVsiptT/xXcewH/8zmNInBA1mlzdXJ6RicoTeV69H6d5k5JF0F+1Zw6/+xu3YCFd4Q72x2KwQ6iVBxpLPoYX5xLY4TbnPJIiyCSh2yE4FjWhztwuoAmz0xjX7N2Nd77zOvqdGLnfQVYsIQt6iMs2bnvr1bhszwJcAilpV9M8nUL+nOqUbzCAOFsSg5fbKzh6PGEvCRKBMikHt6mnxteeL7rg4Gl+TSG7xZiSbIBHX+Zzf5M9u+ayBdTtDIF8Cz+PChdJzmNcF1Ohj+lWk0GHy3iDEeAgYRZouZkW2ho26rxL7R6eO3SUgldN8nLDzFzId47WuXNPFxw8KYimb1z6HMUMGjiWKfVpf2ZoDr1+Die24Jd1NPwZAtmCm4UI6H90vAKTin9VwMAd5ryTmvEzE/0kLcTi8gosh30eyIgupyBqyy47hC685vHmZXDMNE2emR65no8eQ/GDRw4hQ8L9XUYFZFbZIYMS5ngRDi8tY6XTRkqNU5ChwWV7UAahV7O9FaRzM6mPaS0Kbqv/0nYDHv9sndCcThccPJt5ls0AJU77VCRN4zAJZyLeoQ+8/4ln8NfPHkdSbzLvE3cIpV1g0fbwlz/dh2NLDBjIPUfR4sBgCTQFLVtGPHVheYxQXfZW8eggPTAaqD9m47zQBQfPsjTMJckt4DK/0nhlN6UG1uo4tJLhj775DL52zyE8fdTBwRMO/vqRFfzJN/bhy/csoh3xBgi2pF1+TgFLFW2KoVsVsIA+mv6VQlLwjV4NdsorNZ2kN+eJhqYKw1R/M+Zg3Hfl6O99ahH/6kt/hcP2DiboDGHiZbRcmlHlTFaA7VMhLt/GZJm+cLEb4ZljbeZ4muahPzRgyW9Wt6HzmS36JXpSMpThu3Gm0hjLlK5YzOccgj0J0TYwYHLwidv24tduu4q5aB8R+ygNDJjaqADKRKET0Lgga9hnYzVPTF9tm6G151nfTGivMF8jFRpuogT77JVPoAJXoygOjvRS3Lv/GH709HE8dqyDiMzxGZJq2gilIkvmd4ZlGuWX9Ou9yCGYLv0hwaKG2oPoUHOHk5LOq3lH1cnIOuu9BMZsUQu3isSr9XTBzaZLpio9qLkWQrdknsekgTF3BYVKE5RHDW+8o5FN8GSaaacmxFS8PjVaWqfxTA1wbxnx2usFdG07l3TBwcvp+Pt0cVlWIOn3qDQ0lQROs9iR5hOYOoxsMlFMM4Y1jYR4DHBcn9rG6FVBkEomjNbRlG4VnVt4xtMFBy9jDwo3hBv4KGKCF7Xh5DE7NhgwLtMxjWnCiGYlXVj9EzxnmyDTNwY12F5oyiECWc+toiHattrONY0NWM7VBavho+GUwsPDzy3jW/c9YepTPMeFZSZKC+ZzNurSnBGUE6RRA1KenRvz++iBJexfopB4TUpJjmkip1GbpWiygEXXC9inX3/zy/Frt1/N7KWP2A6NFQiYk5rUYYT+Keg426BkLa3//IKD5zFF0HzdYko/5gEhsVItl1gr4xbooBGUso26Xe1fjIEv3nU/vn7fM+g50+j3IjSZlgRlgozaPgmdCTwFLePAGzdpe7bgnYXZVJCsmpFBMMHzqItKU22aJRXovNBt/lX9pKquNG8mIRjV0ghOuoJtDPtnihT1aAV+bxG1rIdp+qYw6YxsrbSLqRGtqUlb3l0WMTrttU2gUgtDOK5n/OVmyDLPQVQgMDaGlXfhJItsNNVZh+8HreB7fmblPTbGyNR8PS8hpbDkl1XaIT6SDZN4sA1rXlFEBoi01LCxTFuGhkryMmbKvAWQKSVVpx0VWFQZHjVJs98aQnIIxPmmiHpwsmzim3ffjx/89HFYtWkDnAp1yzRGyfRhEmKYhEbYxm++9Xr8nVtejR5NRHPpf8Neuo9s2A40EuTMUUWWUgfxq6gRpDoKfwHl9GuZr9LEJFNIM/LXpX/XIWXAJlszXLDWat3q9obB0+x2o15DkvSrQIKfab4sjhP2bRoned399C9P7D+Ipw4ewcHjy1jp8UZ49rZVG5zl/JHDqLXFhLGd2liUfIUNRrIZzTSZ7znoMnWYhDSB23Dn8Im37sGv3LqALpbhHf8syuN/BpfCalHIGdKSdzxYTftk/Ali6W5D2boVTuNWFI0bkfnbyUMfXlaDX7iI/S0CL3UCWKlunEECI0LLD9Cz61hKHdy3v4MfPXoYDz/2OA4fW+JnNE9kFg9n4MEkmlHe+SZVh9XpgzJKuak8czxjLRxKt0czn1iU/glIrqMWWPj1t1yBj992JVMQnu/w55Ef/jKcgudcjYNkDw0Q5KGlkgtqoYbwEFPpdiCdejesxgcYZV9NO1ajyQ2RBFuleXaAgNYxLDrsYB8pHf4Ju4VvPfAs7vzBz/D00ZR9lH9TNQgDfdl224FNpvnpycFZzh/pumkxeKCSTaMgKhVUgGRlKZmusOjsSYPnHgX4E2/ai9+4/QbeLnn03L9g+zK5Ku3qIuM/w7oBgKvbKvkAfZ+eT4qDJpzmuxFO/Tbt7vXo1xZhJ7JQL/B8LQ0Db8NeUkVWGhbS+GDC6HA5D/HNH+/Dn333fuw7sMybcM0QlDEZlHCZJ7KPWrpiIqzz3apJWd4gBchzNUWkWXYVyjKIGdzTJMSYmOdqEpAGtweMtrtUrBP0X4eIUY/ms4BLl+LmFBgKkMNthzwBUxR4LbjpK9BotxHSV2LpS8jjpxlxrz7lu3HaMHhNOuFe9yRKJrvHUg8/fuIEvvytn+DZRcBvbeMRdOUptY+5V+hZaNLf1BmWewrLqbXnuxXULM+mhFLSy7QPl+B5NhnpVk8STU6KunnTaKO0UjPfSFVG4VEq1OyYGMj8DewnfaSxhKa5PJ7X9qmBzi4jRUn8R0h7/xn15cGxZ0EbBs+ma2a8i05S4ETs4otf+S79XQgrnGVQQluvtECyqMFfdjSOaFrjiEm30on8vDcBVsR9RpdM/OnjfJotlaxn1AJTJT0xSffq1D4GQKrtZMBRlMzzTFAW0L/z6swDc4+fMaLV6FHh1ogb/b4T0r9RmKyj9D8EqjZFf3wE5fL/Y7T6EAV/1WFujOgKXhi+Gdf6ZQ1NSq9G6f/7d36OR7pT/Db9Wn+JOV5VXVyVAahMQAyyjJRlSisI5vlu5ll0lVYohWFLKdVm7o2mU7nppMQ7JB9qDOA8FA7vkMFllHXh5wcotFVaYBc0rSbv1fODzO+UAsheq1H7LBPAMH0iVvVsG4LoILD4L+G39yNgyhCTn4ktnjJIpPBZBU2qotZ1mIwUQX24lmjFGeJO4dEnn8WDjz9L1Wc0yUhS0zZm+p/HmG+QL5U/5amfH224AE05lhr7oSInDSqY/XzVEZOSggVVqmm8NKclqi4jjdGJZY7JZAqKCoQ1vfVC4+fEzkSdPMYwie8dAq4qcGQHkMX3GFNqmwGA0BwiE6xUw+K11pPOtCFSEJA5Nfz5t+/B4kqnGlWxKWGq1VfHLxLSnWrew6PAauK1tPpkDjlOzTDAbIIVUXqn/iBk1u5QQ825pd0CzwjIqbRh8GSG9p3M8P1HDiKsM9rKYnjM51Imc2YC9GIhqq1DazMV0mzybVEweEkZbdL/VQOIk1Pe+z6Dhe+Z6jjpcAGaVplYvlFp5HraMHhyH1//0SNY9rbDDWXX9Ugxw3Ke1piEi4R0qxrhnQvpRuhcbZyATyZbCkxkRjcBn9VvI8uYPtBFaiy/UH6mZ+dNBHv6EP2GwYviAt+5bx/c7VeZoTJNuUQJnaqmcDYlby81KhEybVpo+gSNQVpxDE7eoXb45APNJ/dNSs2kiTT5HlXwoCo5eCkCZjFqZfqlWGc9bRi8AwcOMqfrI/Km2X1FU5mp3FLofTGRIuod89O4bK5BLqRI+4eBLhN0DeIyKtyMFbLL3UzYD/JU94Ls5bma/JPTpdL/DTntaeBVUWY16KxvSKs0AnT/fqYEPiWjt2xqTjTDYBJehrJbReovRYRRXZVY68FKE+6zj+qZnvSp6j6HNyYtI1tJy/F8I4NKJdqDVtoa4DKDXOwEk32V2DM4SSn+KZnx5msW0GyyLxomjI5QW5hhi9kKXDaheZQMuBHvt/8jw/OcfTNWzQQvOvepdLrmGebwBOyowuIKvBLf2c+cpNHAdP8QHTRtfNAwwBE/nmXDCnx2JJDosE2oP2imR0auGByIt+aY05sJJsa0kqafZoO+WxKvRt8tU5XxvHy1XRXVMh1gGO8xYij6hJI8WaDGfeTGXUh5cJadZDD4FI9lYME8WPmb/OGklIfHEUZNlMd/CtfvIfVO8rxMJdRJl5HnOlrHdWmd2COp5R2JEdyKkgyHDh1C1I/M+KWAzZjjrZbTbS7GGk2Cq84kV6v7BXz1+epRxDVaouqIlBJpltsY0sTy3A5GNooiW4O3yGZrrLIar4RV57VmMUV/UyuXybsVtKdcLBHRK4MU//DWvfBaNZNMOxTkvHsfrFTpgmLNmhH+yYn8p3WxoAUMqCAm/RAG+idsTqVTriSJFQ4mwdR7/s0pTcv9FCvtDqWdgYrPsJOf67kCSb8ZCFal8FaQzp/RLNMcGV+i/2zyszG1xisiMnF084v+yFaE1CqCkboJEidiownka+bEBL7L+4vo0xWSNLC0nGD7VA0fvv0q3PEqLe9BHiU9lN274afPkIka+qLAm2kmmaLJqAof9Ix7Gzm1WkXDuphRDpmZdfQ8eBVcFcqaGZA/4VmMvznR7lcPcmjWQEfRTGqW2JR781hzzS0g6X/MG4ilTdS7VM+mM4HNyNTSCdnHSjuHNxnb0a3ej9kSNJgUt+IcraRAiwIxRbPpMlpYzjLKPwOGuMRVXoK/9/YbcMebX41UpRSSp/73kLe/Ck+uyNnGVg1Qjxm0OiOp18rrSiwTvONwC/Lc2HilZKef95Q98nVG62giKpzlP4DFNs2l5xlNW32EV8GKRlhkOs1U0FaQTJBP3+oEdEU2NY6CIi0vVDOTmydS+zR3w1sDvTEtcupIFYCFLaRBCwm3ta9DAYmzgNEe7zft4K03TOPzf/dGvP+1LdSpWCs0t37yBLXuL1D2H6EZoKmlgGmGAWVc9XtCqhQo4N8lGhuCR6GVDpnnLsyw2qlk9ft9ozgmirNV40FZLxVBMmuhdMfUuLvvfQz/7mv70ONuAWYe5iCAZnCUTRo4diWiCUmCozFVo0lKTSRUZuWGmDekJ4Yapt9DSTetPyOoT7O5Sib4GTR9ZYEJ92uvWMCbbn4ZbryiiSun6N+oVXHch1OnZh76T8hP3gln5QjZNIMk6JAnfXiJfKb6M/q646jvZKj1tyFtPoRo5++jNvsxuInH/TSjFGBP/SOZfpKGgBdRXYkSQdFYpsD79l89jC987XE6es+sglA9hUoglTLQUEsyTLHNOSb51aTfxfx0EwvbZrEw38Js3UfI8FCATjVpwjRDPISqkvjRFsGlT8x4H3qOXQKv1Y8ajSbqtRrmt/mYDxIs8P5dmmvGabxvfsf9KdpP/gmQ3ImgtwQ/vw4Ij6FbfwpBsR1ul77PTKpWdutsqU+/WevPI2s+gO72/4Dm/KfgxDb67goyO2RPRoAnFmiIWbU6Gi3XwjWJwun6NO764eP4wtcfNmuB6fk3gefwVV3UgyJnAi5NUvgBL82L6lEsaav8pwSBkQL9WMZoTrPQHoKj89hbK/DBd83g2isb2LtjL7/LXMurvAn1nf+qKMyy5Wcm0/h2Mair4Unl36vREfksedoeeVGjJtHniSEyOb0vsq+/jyR5gEHKHl5/8GVtyLbxWxMq3AuU+/SdbaQMWtPwM6jt+hhiRsbkFK0b0xGVUZJOA08yqpFyxlgErzCFOqpvLMMpfO37j+Hff/NRHiDzwSBGacJZgCdB1DSKNhT4yNzKzOp5OjdhMBIuIrJquGZqLz71tu1452t3YZmYLLNT2/KE19JXCR732XTimnIxV9yEq1VN5WCrYrpCPcmB/IvSiOwYyujr6Ha+wqT5HlOXWS/qNN0a9djEhceRwKOWxSHTr9rnECz8KmKaS4cpQ1F2ePP8nDQEvNKUCcSMdnIxVfNIdJKpV8ddP3gY//Ybj6OcEDzPc9FXjsggR0+x6ukdkQDxmgXiYw7eccNefPx9e3AVk2DHztEtOuz0NMI+zVq+TPTpX4pjvCC3LSXFCg50XfViAuoe5jnk2zXRydSBkl3SlKp2MkkfpHA9DVfCRsZ5BfPCjIDm1NaCwPnt6hznmlR9Rs2LaGns1j+Hv+Oj6NNVOYXukf3jtmiI2aQj5jEKxTUTruWhBJRKub997yP43a/+HIU7GXjyjcoHzcoNBE5mVCv8yWyuxF28+5rL8Zn33ozpmRNY8rQ67QKmO/uAk39I3j6EIj6BNDtKYTrB67YrYyUFKdTr6obOmszQEE2vieIG+ZSSYp7dyfk+593pIhp2kWk2oxxkFe8f+RbVodKqwO2g5/kIZn+PGciH0FOASCtla26PkbBoCHg6oGAuVc3gaiEbrculSrF7H30a/+hLPzP51STgiaR1OjZbk9DLdF4/38Q/+OBrcdMViVnPy27MI+0/gNozfwpr8Yco/UUCr0iTfolWoSovZst1TdXVCMVJiOcyuSz7Q003lV2rQEkgGKYbANlyaoQpaydvdNOuvUWljBIkp4cOlaS54wsoZ97PIIb7MyqSLed7KnjPc11vCwYTWoBmEKOzVTnf3EyT2iOoJiMTsvN/otVySD4lS5ooRnzgpqvwqt01LDqMIBvT8JZ+gvKRzyBe/mMkTAeYIzNMZjjhk4kB++fFyLwOc7QOEmpp4jIinaAhIPAeGaLSdPmwgtqUTdP0zFHTCRYvXEpImPs5PqNwn6bVe459edrcw9YQ4wDDev7RFBNfDC76Y7ZOpTUqw0iQZkIAGmDVpCVk4HSrZiLESUlAVSs0ME5klKlT6d2uhV1Y2MsAgEFMq9wJr/M0kv3/Go3yQYQ1Jua1RYSM+nwm4x4tAPFlnxKeL+ZNUks1s6FobIIGBh+QL5OpEnfk/+j7yrJrzmt7NWIqYBko0M86ZrhNBQmDKHWLqGI9YZF/q1jGe6UgaXsdrdE8cVSzw9xJ0yEJ0NCYvt1kmD+jYSEFMPQztIHczYSZ5swxx6yRgWFkMQmhIASG+xYSKp1TJLhxTw1z2xmg0Ne43TaKQ/+GadKT/LDB6DQjo3igav/1JKueLWDC6jCO9rMmgqxFpWFUrGh0gmYEU9pvLIw0T+Y45D1pHTMJsMyU+qsJUY2iqBE4lTluERW0Ak4yRddKK+C+ApFYXbSNVy9lGdbRGq7Th5HJWl1B4Glt5ZwglYxDtXzUK7ZvJ/OY1Mouu8oINdomBbd4o0PEYi0pCKLJdKjZssp6lq1GH/PKmRLbAib++npyD7L+d+GpFkRMzQQqu635moE8Gh9l5m/knxRt6osSngmavmqazsfrye85PK+W86dpMCP6Blju06AFLVDVjzPc6yaoYJIu/xa6e+keXsbInxF62abl0ZVPF5ozqMwLdD0jwjxeYTrB+1OAQgAUqFTrfOkuR5NqJSXNmuA1OPN7rVYdszPUHnWYn6P74KAzEhimCRoU5ncuKmJeHbn76WbfRB4xSFNOy/y31HLMGpBYRxsG78ar5xDkZKpMDkEoZD4JQjWrMB48V4fyn5lyGlxyqlHHXLPG9IQ+Je2g271X8R8B098+/Y7MhCT9IiLytauAsnkHLR8jTJlz0IwrAqYWrqcNg3fFHHDZLBma9GkCtSDoAIwKw7FklgNmM2ONmrylprUYkEzVfdp3mqNsmYnx4+x8JQS2AKR5HETEFw2pyjoPdxCv68nb3DyoUuqhS5p2rRC1njYMXotHvvGGV5jn3opU00K0wfR/G1npzugbQbMUadKPKr+rhcxlAtWGODzfEk1x25gNWCrvnqFtXqbfqfKai4U05BA0P4ZYv+fAf3q6SPJrSlLMKMuptGHw3KyPO269yTzwLx/vMpGULNhMvs8EnmbDlYIoUNAz2fqefhamLnuas6PZCkItaWSEi4FIvpOHHqVwXFzgiZHT9U+j49CVkBzFCeS11mMrNXS2jkaCt5rFr5KdxXj5rtCYO0WkytdkOqv8TxpTHfe8n9J7s0+/7cMolaG5ht0UsGjCVxVorsbjaCKLvM/EnWG4QlEostO8mAaOT+/wS5oMT9bwymyv8pmvLnNP73JEvHeBRsSMPBsolI+uI1sgbaSJ0cnSMj71q++Enx9Dv3+CppAg5ClspgEKrxW8aPhLswXVmpdMKNiL1GsgVDkdTacXL/I4Hi8NlgB4zBXDPtI2wVKRqdNEFD6CMr6SvduiAeAtJemDAo3Tm35KINfv9sn3lwxEmJb0PN670i8tCXLVDxH5EeajacOLyFc6pnocj7ym6VyHyYbNZq8XMbSfxt6dLbz+lZejQd+kxQRWVC4QNJmeaEGbauhL64lpAFr5mubxLi4yajK02TljhPY2pFEThXeYSheh3p2hEE8hn7uZVul07RpHGwbP9mvmZ1jmad3ed+v1mKZqN2s+EtWCaPxPo/SUBmmdyKQGfJWEXKIB5ZpaIkDhCUboitzlHo6jrM0hn/k0t8/OTWwYPLfWpKnsY8rNcd2uBt5762vgJm3m0Rk74hptM0m7zCZNpaZ85BelkRcXGZEd3uw+gTsCjy7EShnwuV10WwvImr8Mv3Eb+bdFmtePU9TrNaTdFexounj737gWt1y7G618iR8umplypQ2rM+WKnIzf476LilaDkCEtYxTZZwpER0cNXEKvthvZ3N+HPfXRARI87ixow5xVbmaWBNZ2EmGh4eEjb7sZ73n1DszbGonXVL2SSYImx6zoklqpCdiLiwTA8GYp3M9ayL0WkvpNsJu/hXD6g3CmQ0S5hgXPjjZuNs3MM4EzQ2KMdLIeXj5LAG+/AX/zjTdgZnYGKQMYlcTLzamKOkn0C5IXm9kUnQraalM5Qw1TBOvtcHd8FvW5DyFQYRZ51HdVG7aaQ2yMTllEx5i7UWQ0yqYPi402mUlbxvta/eFI5OKBAxHuf+wJPLBvP5470UGHvk7l4mE9JIAEPKa990PYGqGJ2/hbt1yLT37gDdhJH+4d/wryA5+D1z3JN9sRewcRFLvo4JmsjuvTOFLBDtmROXuRmdVzI/poXiymJXBjiq3qV0aRzP5g8zRSaYh+uOM4LM3mMyctLA0aU6DTeQZvOTI90WNmP1RlXmebZm7cYjxyOcrmbSj8vbzPvbDMoG+EjBqZMljRUOHqZdcGeqOCvg2DN+4zzTLkhY3jvQTPLsY4tNLHyW6MPjVPGijf16XPDGp1s3502VvEtbtbuOX6KxFq9HzpGygOfBauAW8eiX+YueQqeIOLnCWVHuW48Qag8ZvIG9OwGCjYyRxMXR3D9MLaMTjydKp4NZxhqnMp0IKv5ThMnUsdhbPCMD+Bk+ykyVGtiQaR9aiYzeto2Y9ZCvks34dIBhbsTHTewHOLiCkopc+r8SZkvy2kKhvkZxqv412ilzAZ98LK/CZdaF0wX0X/vKGi/YNzDl5mL8Op3wpr/r8ArW0ow+PcO1+tOW09Cw/bqwOHkCkkHgGe5vn8gpEiGVpkmtUkBSu8D4KWNnlPdR3E6ySEj1pYqC5Pk7jVrWgF+I3QRsDbsM8bRyoM7TgtdMsAXdp1AaeflfF5zYCwNgIX082QeaHKFiz4deY3YZNmdIrIb01ZQWlPIwsvYwfIMslL0WK/CBy53Sd0fj8c2YKkhlpSH9pCmt6yf4zpEIMyxh9qDBeJzE7kfsMEaaWeX8wo0HkMr+iyLcMreVWtx3IO6ZxoXuoG9C08hmfSpLRmxvWq2R5FnbDY8YDmitGqirB1KvlMSU6o0ogTd517zbNSWkhes3klUswxwNLTPdSUkgFVSK2nlowi3euo+5UWFAw77Pl3UKPfQIUKeO7IHJ/SxwfpXNVl/VFbox7S0lQL4myAzpvZtDQtxNtQCqEV9bRklZZIpKfmlflJ1jWBjXkv0qpEBFUrujueDyx/+5yDZ3ybVh/3D7IPvG66jU0TyT1Twq9F3kYTWTKcXySey3sVsOd3gLn38Xy0IirKoV/XbHLHGMtBKYXJ7wqTZgkAVXprjZWN0HkDz/xAPS8g0BgP82B12tVTw0hoqgKqYUZQ9ViwqZqmBmrU3ITGusmlb537gIWMSsnQSHUpDIoavI6TZWQkrxrS4w6ZYtkI6emkgr46v/yfIZ79ZXYvQGjqWOU6EppInz6RUWZ1azxe/BlYIG64MkkboPMGXm4iMPoz/qUnqP7Z1C6jgjqAjX3WDSleyTM9cKKbsOmSMvgr30Rx8J/AbdPx0w8m3gn6SwYUWt549GXPQJpS4q1Zl1HxGII7S+ooNZ5pDnFzI36WMypUpZY5TpLHoEN2zlxTf9R/vR+wSGUJ2vSYcix8HtncB2lYHHjKZSWsXof4MHrmP5X1a585j+Yy2XJuZ0wfzkTrwRoF3hqLXB00SWP2Rz8XExyZC8JIoANKaJjECGO2jE2/sKzfS+A+zcYz+2NLzLGmftI8M8DgRcNHelV1mMzdxKRSPRUxLVPxCGRMxDKfONjM96iRGupjiA9Tw0lz6gRI/Z5JMVTMq8ebzfMQFK4sLNBlM4ud03fqeZCMAlEwIkv8AnlAPtB3ZwQrZ/ScUQv1NK+Co5gmhnfNoM4zwA3j32rTLIza+v2j6BTwLiZyohYF7uXkgIu+vYK2Q6bX3oKy9R7kzXchqb0ehat5NUaOKYUzqzFnY2rjHRmc4cLTRQueZ9G/ukyuqX1582XwF96N2mW/DXvnP0aw8Gl4Cx8Fpm6jpdzOtKeg1WBQxsAsD148w30XLXjmGTyrR3NWQzD9K/DnP4Ry+nUE8ioUrZvhzfwS7JmPwa7dApW/m3JEGvrCma2+/iKgixe8hIDY9Eb+HLzmh+mrboYKy/v8FyuowQyT0NuZy93EIIpBjRJsVQ3k8qUvDrp4wctpNhnyF6olD3abqsMymYZv1Rg9MoahdVQ2kTDRT5WLMthhmMyDtL70i4MuYrN5OZP2axBFjDYtRqRURK2q5NtMU+xlU9afM5Lse0voMWIsUmoctc9RSeKLhE6pHhtHa49b3zby+SiyNAnptVA2X0M3xNg6YpKb9pgWLjKUp5nS48R6UsexGKprsDc2dYyFnhIdk3uekZqPIsqfpqEkKB0CpmFHArZkRYhdphbUvjxpQ4uM6ydKzcCIF7Ib+gEL5nOpjyhTirFiKp2zVFNFGbQYwzAerLbN0PpznRPN20yn9FXLa8LxrybzGAz4GraahR1dQ//SYTKvZ8XFWR5HDrrMx6rSCmX+m2BGbydTgAXmfSeY5t1Js/gQarSKUyWTeptmlIeEJx/C7Mmvopk/qayezaNAaZHiWbjBtJklYa/MTRgx0sDDJngxjobx+IKbTSXGcF7FXPn9KBqzyPMW95JRjrRhJ8HsmrkyjZEaJwQtqiNSEr0JRjkRAt/l2Z5Cr/2HyI/8D+DwfbAP7kdy7HvoLH0OOPk7wPEnCPQ8yiAiaEeZXVyNuH4DrNpuU7Oj5+KFmZ5rdDX0tjXYDSWr2+0+f7lxQ2BnokmH1hK3h9CahUcMcewrZORnGATuQ6iSd61wpDI5raZXhDSh1UMqlkZy9NSqHkgRqJNQchlVi1y3jqGfHuNrE57fRGapKDiCTZPoZFquchfN+g4kZQdBcoTghIj3/lP4Mx9BzEg1z/sIMgt2rt9PoKXgvVYLE5w9jbNgwz674OClFF4JcC2jX+ssImv/L8S9/wYrfgyOxiLRROBpaUUNY/ELmZJkNvFHD19MKOklwbC8Djdo+jTDrsea9ZMyMpiZBMehvMjH0jzmNN04wE7ugd18B4qFTyIrXom0qFP7YrOslEXBchimqrhCg+6T0EsOvLIIKK0Ro72jCMoZOL0plNGfo9/9A6TtZ+BFHjy3hKefehFo4owpPxB6AnJCTqXTPM0hapb6Rl+rtV1AMDHPa1zB4OQ4MvcpAhvQHFLrm7OId3wC2fRvwQkYsPRrJnNwVZJO4cvTEr7rsnsF22R9esmBZxOIkqYzY2SZFw0Toocq1O0+jLL3DVjtuxlQHKbCHSGje9RSmkqtgxJTE30NHE8InkOw0urH6S1XgqFyxToKJuEuNVBrXsKaYqB7BYrmLUgb70LZeCNKP0SPPrim0vWMwQsFq2CnNVOiJRarwoiLBDyrXIZtzSBnJBmpDoY+rKFKKoV7CRPi/C6kK08gaj9MP/QM3dQSmcaAJiHAKnHQqY3fYzNmVI1vKQTVo7b6bMirZrRzapyqvPwTyBlFqnYrk79zXsac70pGwFcCjTuQTb0JaW2GaU0HdhJRP6dQZ4Ti0v/qCQ2zoITcJwFVzc6kbDxr8DqdzobA2ypgx5HmylLfg50uMlJ/Gm6ffrD3CCxuIz1ONu1j02+xkmHGnJKDuhtxUiCZlEJN12fT3JyeyGF/8oyC4YTUOgLo7KCZ3E4t0qKnTUT11yGrXUdzPQffoz/kcfp6WsY8dUofaKRiKI0DYDOk864/94saPEP8rkvt0I+XVeOLqtJiAJFTc9L/S5+5zNbne6YUGZNqvmp+zqJD8jKpr0o0dP1VEPVKq1vfRSybsN2dDDQuNzWV8Hbz4xm6U9oAW2t6akxTFXEEi+ZZgwSllRE8ZezD6RJ4A2IADrfUT5zRPCkQkH9zCYarVXYtMPUiSOo+wdMvajKC1CI4ygFLRo9aLktnkSmtlth64dUOCJTm/jWBStHIGc3mNNcqiwoc/fZYRj9rs6loiZqt8gU343ULXvMSeBsgMpqJOb0KT0LNM2uD8VUMtApGeC0qhJ6JLw1THTabx2j9zJTX1PKT/MKg6Smm6pzSRLvHN/xf8tjcpufiefUbC9IwnwJjhIaCUc1s6/o8v6nP4fshT6mu0iXwBsTumhI+l77PpYbol60UnRoLSj4WdZpOs2oEwwStAMiAxTx4r/caYxyUtEuDjSBUsOmFf1UMq2uoVQARRjbFnzqGIPNDnlGHVwIyiCRVuDuKLoG3SmSY5cr88fs587rcM6siqZBJWV5s099JE/nOVgEREy6tgivmW/yOlVZaZrRttQu6W253CZR2CRQ9I2+qvcyHhJCnKigUAk9SojNWsBNUApeakc/hdAm8AYldHlMILSJTUItyauFqk7aE0YJ4bYhH8As5/1J7eLxZEsRonlAZgCiNYV8MuIMvVjrJPfKL5p/kxKbZJbNU/cwIVtZaWu+Y9S71WaXRw+iCgTeOzgTAZsAdR5sRqHGMHPfdYYw6VzTuvGd7TQneJXqJ0iXwXsL0CwveVpm9Fw8B/x8OyfoPTeZ4AwAAAABJRU5ErkJggg==;" parent="1" vertex="1">
          <mxGeometry x="990" y="180" width="60.54" height="60" as="geometry" />
        </mxCell>
        <mxCell id="yqM9gTFVnC1suYk9JM_G-25" value="" style="shape=image;verticalLabelPosition=bottom;labelBackgroundColor=default;verticalAlign=top;aspect=fixed;imageAspect=0;image=data:image/png,iVBORw0KGgoAAAANSUhEUgAAARoAAABbCAYAAACswErHAAAAAXNSR0IArs4c6QAAAARnQU1BAACxjwv8YQUAAAAJcEhZcwAADsMAAA7DAcdvqGQAABy5SURBVHhe7Z0JfFNVvsd/adKkSbqXrmxd2GSXXbZhcQFn0AHFDUd9g/so47znR5+Oo7iMI26jMz4cHBFhUAEVBVHZ962spYWWsnTf2zRp2qRpk6bv/7+9BUoTaEpTSj1fOSZ3ae65Z/md//8s9yrqCQgEAoEX8ZE/BQKBwGsIoREIBF5HCI1AIPA6QmgEAoHXEUIjEAi8jhAagUDgdYTQCAQCryOERiAQeB0hNAKBwOsIoREIBF5HCI1AIPA6QmgEAoHXEUIjEAi8jhAagUDgdYTQCAQCryOERiAQeB0hNAKBwOt0mCfsORx1OJyVD2e9E4N7xECvUctHBALBtU6HsWiqa+z4MfUMNqedhcVWI+8VCASdgQ4jNE6nEwarDRUkMnUQjzEWCDoToo9GIBB4HSE0AoHA61w1obHaalFWUXUu5JvMsNodqK6tg6HC2uQYB4FAcO3StqNOZ3YAGx4DfPXAjGVA9AD5QFOqa2rx8f4UrEpOQ5hKJe2rczrhQ1HxU/rADgWc0t4Gro8MxRuzbpa3mrP+ZDZeXrcL3f3UuGvkdbh79CD5iEAg6Ai0vUVjz6aQS8pRK+9ojtJHiSk9o/HfowbhoeH9pTBnSF90D/JHmNYPMwcknNvPYXKfWPkvXePjrIPCVgMbCZijTnQkCwQdjTYWGoX073KofZUYQkJz56jBuGPkoIYwYhA0fhoE6TSYNrjP+f0UpgzoLf+la/iSPvQ/vpkWXF4gELQzV62PRqFQkDicD3a7A3V1DQ7Txcd4WyAQXLtcNaERCAS/HDqU0Djq61HHfdOim0XQCnhco8pag4KyChQZzDCYqmCrsctHBVeTthWaK3BxfHx84Ouvg1brJ7lLAoGnVNtqsWZrCm56/N+4/ZklmPfWahw6niUfFVxNPB/ersgErKX05cIBaJmiVGDXnwClFhj/NhDRRz5wEbooIOjSI0kXU2auwlljFbTK5iJ0KKsQi3ceQbBajakD4nHjoAT5yHlqnPXoGeyPLv56EjUhZJ0Ra3UNvvrpKJ565ycqY74YHheG1x6dgimj+8lnCK4WngvNxnlA+jLSGTcLH31JRFiE7CUN264Y8iQw6T15o2Ws3JeEeev2IlarkfecR0XCoVMqpe81Tidq5E7lCykgE/rVW0bjnpEDoBMrw70OWxeNnfgKyh+Nb8N8KW8iCc16Epr31wNaFYb3JKF5eLIQmg6A50Kz/30gizKy3oXvazMDlgIuWUBAdxIdsmxc0WcWMPxpeaNlbE85jYU7kxDgosBaa+0os1RLLlcQCVGACyGxOuowZ8wATB3YC1q1r7xX4A24X2TFd4fhUJHQUPFKiA3F5JFurNs2RAhNx8VzoTHmUI6a5I2LyDtMQkTWilIPTPgE6NJLPnAR/l3IdYqRN1pGsaECZ4rL5a2mpBSUYsXBVASoVZjQpwfGJZDIuSA2PARRoYFQKtunD5wT1lRhxbqfTgB6JXQqFQb1j0Sf2MiGEzophaUVGHXrhyjzrSPLtg5zbx+Ej166Wz7qPYTQdFw8r3EhPYCug12HMLlvhC2asDjX53DwUGSYyLAgjOsf5zIkxHQhl4kKNdEtLNjlORy6hge3m8hIkIbnFprw6Ivf4NG/rcFzH/6EXYdOywc7OUFkNQaSm+uvhp9vg1sr+OXSjrXuMqTvBPYsBXaSJZSbAtR1kmFJTuEIcuUC1VAE+MJX1XGSXCBoLzpOqU9eA2x4B/j5NSDzIOAQ8x8Egs5CxxGaOiuJi4U++ZEQDW6QQCDoHAg7XiAQeB2PhCa7zCgNM+cbKuB0ejZYdTXJzjfgo8+34pV31yKv0ChNVRcIBO2HR0KTWlCC5UdSkWEwua6s+jCg92NAr4cAjb+80/tEBehxY0I3jImNRvfgAHnveSoqrUhLz8fR5CxpLcwvSWbsjjpk5Zdhy95UfPlDIr5adwCb9p5AZl4pHHVOrN2ShDcWrcd7SzbjrcWb5L9qQ+RJe7wy/3RWMbbuT8PqjUekuGzacwLZBQbp+LVCldWGlPQ8bNx9nNLumPR59ES2VMa8TVGpCfuOnsG6bcn4z/f7sGZzEpJSs3lwE7lFRrz+r/V457NN+GDZVhxLy5X/yjP4PrKpvGRR+eBgMru/L87TclPVuXMLSkxu15Z5NI9m9eHjWJKYgnmTRmNK39jmQ8V2G1Btaihc2mBA1XwWr1tWPAEkrwccRuA37wCj55BY6eSDl8ZWa4fJWg0F/af3U8Pfr+l1k0/mYvHyncgrMOLNP9+J3vGR7bKeipM25XQhRv/uYyDYD10D/PDy/Tfggd+Olc/wHg6HE/uTM/D5t4eQklkGi8OBmjoHNS0KaBRK6JUqDOobDmNFFRLPlkGh8oGm0oEzm16Qf6H1SPNo7l2IMhUXrXpEBenQM8gfVksNqiketfVOOKmQanwoHmpfDOsbjUfuGIFhA3o2/EAr8eY8mgqqcF9vP46l65NhLa+GzVkHJ92bD5U5DdUDnU6Ne24cgHunX4+w4LZtZDNyS/HuN/txNClPegQup5+9rg4qurpO44sQrR9GDIjAfzadgI9GhWi9Fi8//CvMmDxY/oWWsy/pDF54cz2q1VRUauvx1O9GYc6M0fLRphgrLPj8mwNYsSFFqvMj+0fhyTnj0b9XtHzGedq2j8bXDwiMAgIiPROZK8SPCmtUcCAiyZq5WGR+ifA7sv79w0HMfWsdNQ4ZSKaW8KzJgryqGuSZbThLBSS5zITVB85i+5lSGGodKLPaUWFx/1TEVkMFsMhcjcSsEqRQPM5QPHIqqqW4nK2wIplawZV70zHnjTX46PuDkgXW0cgtMuG593/Aa4u241BGMVLLK5BBaZhF8efPNEMlDuca8LflezHvre+Rkdd2VtqWfWn445trsJIqcxJZf6eMZEHQdfMp/bKrqpFWZsbenGIs3ZYGo7MehmrKR2p4ndTQtAYrWfwnSoxSvhwvLoeFtt3hILEroIYquaCczjcin747qCFxhegMbiU1VDlZ0UuNlZcMJnOVZEXwo/846602O8xVNpfnXhhq7a2rcOwOrdiYjFcXb0cOVepq3snGGxVAmMjirKCCY6TPyloSpDpYuUCydcfncPAWlF58TZjo+lX0yXHgOFHacByzDGa8sXQHllLcOxJFVJH/8tGPWLX7NEobp1w4yFJrTEcpLek7VfJyqmQ/HszEKwt/Rn5JRcO5V8Duw6fxzrJd2HGmCFZ2+HkOVg2lo5SGFBczfVbQ9W0OVNgpH+VydsX5yNdhb4U+L7sAmQ/zUhMl+RO84NmNp+DWdeJWsdIiFVMJXhS3NjkdXx5NxdyRgzEuvge5Tud/tEtIgHt3hF2q4z8BG94jq8eNWVlVQoWRh7YpwfRkeqn1rhPMRw1nr6nwmfGMvKMpFjKf2Vc0k9ozapUSJ6kV2rg1BeUGCx5+cCIiwgLP/TZ/9IuPgU7r2ULL9buO481/bsPpIipQLlaUN+JUUnng5VmUNj6U0lq6PTUV1Es6rIU2rPr0QUwY72YJxyU4kJyFFxZuwF6yVOBLhYUK4XVRgXhs1ghMG9cfAXqyOomMnBJ8+NUurN2XiVoytzkh/M12lO55RTp+JTRxneh31VRgX509EpNH9UX36FDpHBbbH3ak4OPvDiKzzEpmKcWBhO+mgTGY/9iNrXKj2tp14v6GbzYcxZNv/wS7P5UPyjR/ysfpo+Iwb/ZYxPcIpwbBgZOZRXjjsx3Yc7pYqpy+JKj/eHYa7p4+DFpy5VsDu7Qvvrcey3emwkH3An4WNuXl8/eMxD3TRyA8VE9Jq0BxeSW+23gEr688RJWUChvFsXugFu88MgW33zRU/rWWs2XvCdzz8veo8lVAVVuHvz8+CQ/PniAfbUppuRlvU+Pw0Zoj0n1Pv7475j98Iwb37SafcR63Fk1yXhH++O0G3LbkWylM+2Qllh85ATUl9D/3HcHMZavPHev/8Zc4XWi4ROWhA7VUIY0ngfIM10ESGYaiZKEMM7o4h0PZcVLxIvnc5uQWluOTL3bi1bfXYsEHP+L1d9fi69X7YaGCraUMW/LFLiz48EfpGIf/feM7VFWTEHoIK73VlxoX8tRMGoXbYKYMa1R5J31YqCwY1a7PPReCFbDz33kI++8HkvOw71hBg8hQxZ3YLxILn5+BR+4Yh54xoQgN0klh+MCeWPL6HMwcFw8lWUFegwrr9H5RmHf/ZKkANl4/tmso/nDPRHz20iyM7RtBVgLFgSrKlkO52Hs0T3oX+9Wm2GTFE4u2wh7QIDIROjVeuHcMPnvlbkq/HtJ9RHUJxK9G9KY0vg0TekexSQm7XkUCegAGchFby9YDZ7DvbD4cLB4MuSmrF9yLPz96C/rGRSAsSC9dv19cJJ6bezO+fXVmg8XYQXErNBE8ktO7B2ZfFy+FOyn0Cwsi4fLBuO6ReGRof/xh+CD86YbrsXDKGEQG6NxZTQ046VK1lBB2EglXwXlBptRTxXdQi+zyPGr9eC2VG3xVKgQH+CGQWiDuoOOgJWul0QTU+vme288hNJBaeM/rNN2rAspaJ1QWO1RW90FJ4Rykt0oycV2d1yQY7VCwKewhBWSuHzqVi3oq6GzKh1IFue/WERgzNKGZCczxV5F5HEwWDj/GwZvwz/ODzS4uHxynMUPicd/0kfCRp0s4NT5IziiQRlGuJtxXdCQlEw62tmRG9++OZ343WbLcuVHlKR4c+HuvHhEY0CuSLGNqfShdk9NLkVNULr1GyFM4JY6eKEJ6jqkh8cjVfG3OOIwd0I3Kt7JJceXvnLaclx2Zth11cgePdhgKUJ/nfkGhIvFTII/MP6cF9YMfABImkjnmomOXREYRTOZ33BB5x+W5cNTp76/fhx7Uml4pBcVGnM0tQbXtAiG5CE7avBIznvpgE7mDJGrkHtw3vjd+PaHfJftguP9nzNB4Mo/JxfOAfcmZeOb9dUguNFNNcWLWmAS8QiZ0nzh+RpBr5r35NZZsT4eD8tIrrhPd58zh3fHl2w/JR5uTfDIP8z/djJ+TcqWKNb5XON58/BaMHOzZw9Ha0nXi5+m89elGvL2KyiQ1SIFkIU4dEIOpI+PlM5qz7XAmNh8vQAVZcbDUYtGz08l9Gg6Nmn3nllNiqMBf/m8zlm07IbmUvpSM37x+F24e6dqVZrHbvD8Ntz+3ivxf32vLdWpTlJTQET2gGDbVbUBIMNVMEqQ6KxRdE6AYMsnleYrrJ3skMhfDBcjZcm11S0xkCCaM6Iubxw+8ZBg5KE5yH7jZ01JrNIhavUmjr3N5bmOYMWWoxyLD2Og6JqtsPtP1IoL9ERaib9h2Q35ZJZytMekugae/FhURiLiYsIZ+CLIW8g0WGC2eu7NtCXeqp2WTVc0iQTdkJsH8LjGLRGyT2/DtvkxU2KgMc/mif2XGylZZNOaqGlSSaErWDLmUY+LDEE1uUnvgyRtHpFrUwqrUtkLjrEM9uUcc+Ht7wYrOVgCHxle2/BKpqHEgh0dAuIByl4dGRa1p+z/ky1dN5r0HasNmPz8lUaqghAd/6jU4JlyuGmuIhtyTrqF6xEYFuw+hAYgN0CHWn0KgHjaydj1wGM7BnoKSridBfx6s10jvQrsUrbmOK7jzuqXpX0ciaG8ctbwMHgkN34yNFFp6U4ELnKUlsK1bh5r16+EsLpT3ep+C4gqs25yCdTtTkZrl+hGiLEDcSrVNdnRMuLL6kQkr3SR92Eh4amrdu3beQqumwuqB0nDHL08wlCSG4u7P/WoeuhttDsVDEhpOS/rsGazHX38/Ecvnz2xZWDAbs6dd3yqh53omWd18bUoSM1mptZfpHLc2WrJXiJ/GOw2TR0ITqtchLjocAXqty4JUm54J85y5MP/+CdgOtd98iANHcnD//6zCQ3/9Ht/tOinvPY/aVwV/Mj0Dg3XS95ZXgWuLcGr5+oX7cw2RrJrC8koUGxpH81xTyxbgVU6QwtJKZBSWN0wToLiH+WukGd5XExUJ9nWx4ZLrwnAjpdGoMXxQbItD79ioVnXSstD68/1LFpUCp/NNKDNZL+HyN1j0Uj7yKe5OawWX8hA4OhfGSeWjdNtv61EqTL4uAZ/ccTPGxcY0G8VoRIFwCl3krXZCTbcR7Au9Xo0AFyYmD0HeNWMEHn/wV4gKD/Sotb2WiAwLwOC4SKkjmDvnks4WIzElR+qXckeFlSyeC+YBcYVqTzhuB1PzcIjnoPCQPMU9NiIUXULab62cK3h0Z9TAWDILyZKg8lJUWY2f952SliJ4m0ByvSJD9A3WKdWzAkM1dhzOgLGF1/bh7Oe0bC2ydvBHkaGyYcMFPNeuqrEviUQxUKeB1o1FdAWxuXYIDtJLE8DGDevt8cS8awmunEP7xMCfKgm3bjkGi7QOZVviafBiQFdYrA6pZWqkzfu4KB6S1eSCSosNm/el49stJ1AmL38IpdZ8+HVdEUmNw9VEpVRKoye9IgMoUZzSDOpdKflYuT4JBpP7ysfpxxNGM/PKWr2cgt2XkYO6IiE6uMGi0qmwdMMxrNx4DCUGczPLhrd4OUAjPJFWGmZvBaHB/vCRrTgn/c6uo7moctExz3HIKjLiRE6ZbIny4Jyv2xG2jiM0vEbCQYrNCdY0HQUtxJ9alPHD4jFxSPeGllijxM6ThViwfDc+/Govvt2cjK2J6dhx8BS27E/Hp+uOIJdM8nPJTYXF06HYy0Km9KlCMxatSsSabcnYTtfesCcNK6jCfvDFbiz4zy5sT80nE4LEkayZScNjMW54XNvHw0PY6I0M88eT942hMkkpRDUl01iFD75OxDvLd+FrSsvEYxlISstFUmoO9h49i++2JmPRN4lYsHg71m49Jg23t5YbhsRi6tCeCJJfI1RUVYN3VuzB25/vwLJ1h8/l4+b9J/HdlhRsPJTVYBFeIT1jwjCiXxQU9jrUU94dyTDQPe2XhJNnSnP/ETdaicdzsIQaseRco2TRBFBZ69U9DCGBrkfHPH8LwiWw7dwL8y0PQaHXQr/kb9DNuFU+0gK2/4ua4ETKVPo+6gGgz1hKuJYtkFy96TjmvLwKQWE6PH/vOPxpjutx//aGk7a9V29zK8oWzOufbsch7hhXU0FlX59a2pgQHSKC/KR+Azttp5VUNbE2/MtrUZo4X95qPdbqWlx32/soUdJvU4XliqqscaA7WQdhgRrYap0oMVejlNdesXvALSKJzPCESLwydzKmjEo4P+riAd5YvV1M4vL8J1uwcstx2uKqQnGlNIuitOxN98MTQHk3uxC5BiuKyiyw2xx47LbBeOWJaQgha7q1JJ3Mw4df7sZPBzJg5jzktKx2IChAjbioAEo6H9RSuhmqbMjnNU+clnReAl3z4+duxYQRrXvFzd6jZ3DXS1/DQNfi8qOjS98+phd6RIZIryoyV9tw6Gyh1IhJZcvpxK9HxOPluVMwuHfzldvMlUtgWzF8NvDr14DbKMSPoETrvC6ON+G+hQnD4/HKo1Nw94R+iORRjxpSb/b1qTAm5ZhwKLscx3JNqOUORDaTeaEeL9Lzb5sRB1+2TnihnYV+k3+bBLeOWrwsoxWHs8jcLqhAKS+s5HOo5YzwVeGu8X2ooE7GxGFxrRIZbxERrMdr/zUJT/92BHrRd2khKEW7yGzDrlMl2Jicj43kUu09UyZZh3YWAxIiXxJz/nolDO3XDc/cNwG/nzYYUf5+DflIVgtPY0jK5nw0IpnSUhIZhufwWO3wqXFe0bvLxl7fC/MfnYrJ/Uk0zDWwUjn5amsqFnyxB/OXbMf7K/dj59EcKS26UF7fMbYP5t0zDgMT3E8M9diicVaSf8rzZFxg23cQVbPnQaHzg+6jl6C9eap8pCkKjQYKf886+3iRZK29+VAtd+z+tOs0Hl2wFkEhfvjjzFF4bNYoEtrzLXUjOq2f1FnVXp3BkkWTThbN9A+BKD/EBGrx4iPjMffO8fIZ3oOHZrPyDUhMysHR0wVIzy2R1u5UUuGokucbhVPhjQ7VISYsiFqrYMR074KHfzNM/oUrY+m6oygoNCKjoEzy5Y1k+l9Y81hMIoK16Nc9QupXGjOkB2K7hV2RyHjzeTT8AKjtB85gf0oOkjOLkJpvQrHBQkIpVx8S0niycAb37IK+XcNx4w0J0szmtnABeab17qRsHCfr+FReKTILTSgk0WbjnwnUqBBD+RgVEoCe0SF0/QjcOqkPurRi0ueFHErJws5D2TiVX4rsonJpMmgdWad+ZOWEBWgRT24Wi8u4YbHkNoW7HSBiPBYa6+IvYd+xl8SmeaV3lpvhSEnn3igoe/WEMipMPnIhdqinTYT2IfdT0l2xLTENi5YflDrGLoRvrcBkwYGMYqgpAfpRhYmPCJYqeRNsdXho1jBMGtPHa3MFLoZjYKS4rf4+mawFJbSk/kOolRjY2/P3WrUWFhzuvCwoMaPCYkM1z60hK4I78wK0aoToNZJ5zzOIA/3dvFm0lfBK+hJDJcrKq1B10cgXD4PyKEVMRBBd279NrBhvCg3Ds3z50SA5BUbkG6pgqqyFw+6QGi4l5W1EiJYEOwgx4UEIIBFv64er8YhXYZkZJeTOmUi4GzuFec5RCF0vmBqyLlI+6tps7ROvTmehM1AeWqjO11F54ici+FPZ4VFO7jxmK/pyeCw05mf+AtvSr6nistBcnJBkLnYlceFf5EdmmswNu5vggPbJOQh476/ydsvgRz/OfXY1EOzCpeJ+CF7Gz8jmYzOqHHj/hel4YNZo6KmAtycXDhlz2etIrkFnwttC4wppUh/laXs8sfFaxmOhsW3cDkcaWS3cE38RdTk5qFm6FoqoEKhvHAtlXJx8pCm+QwdCM8Uz9+HE2QIcTs5r6PC6APaEj5JJufCHI9CT2PxmRAJuGh7ffPayw4mRg3qgV2x4ixRYcO0hCc2aw3jq1R+AABWGxnbB/HlTccv4gfIZgquFx0JTb61GvYu+EqZm3wFUznwSiqAA6P7xZ2hvuVE+0hQFT1HXNjyAqZFT5Pdu2nEChUUmPP7gFHQjX/NCeLWzk2e8umDttjQ8+Nq3CArT4tm7bsBTd7ke1VGRwHT05fSC1sNLGbLzy3EivVAayeIZtn0TItGVXGnB1cXjWqfQaeETFOgyKHTyGLqD/FYSElfncLhYZBh+NunZzBKyWnJQZWk+/4AXlXHfiqsgiQfrJf1jt8TVORyEyHRuuCHhDuXpkwdg+sT+mDCyF6K7BMlHBVeTDlXz2LjSalQkFsLfFbQO7mTm4XUpkPBcaiRE0H50rCaeyoQ09CzKhkDQqRC+hEAg8DpeEJrL9y3z/Ap+e+LJjEKkUzibXYLMPAN46jrDb8rj/Y2Bz7s0Df0zl7+yQCC4Gng86nQpavYmomLmbVBodfBfuAjaW2+WjzSFX426eMVupBzPhZ88c5I9Jn4yG/fP1NQ4ePnEOYyVNqxd+rS0aNAVP/ycgodf/BqI0uHpOePw0v0dY62TQCBooE2FBlYzapJPkZ2kgKpbNJQxrmfA8krQNeuPIP3UeUuFo1FdUysNUep1fk0mtZksNVj87kNuH/FgMFVJlg93/nWLDkV0uBjOFAg6Em0rNFcAvyh92ao9yMktx1t/mY3e/AAngUDQKRCdwQKBwOsIoREIBF6nYwkNOXHSmwrE8JFA0KnoMEKj0fgiOioYEZFB0lRygUDQeegwncGmCgvyS0wwVVZjcJ9u0vM8BAJB56DDCI1AIOi8iM5ggUDgdYTQCAQCryOERiAQeB0hNAKBwOsIoREIBF5HCI1AIPA6QmgEAoHXEUIjEAi8jhAagUDgdYTQCAQCryOERiAQeB0hNAKBwOsIoREIBF5HCI1AIPAywP8D3H+JyKOKHvUAAAAASUVORK5CYII=;" parent="1" vertex="1">
          <mxGeometry x="1250" y="141.75" width="185.93" height="60" as="geometry" />
        </mxCell>
        <mxCell id="yqM9gTFVnC1suYk9JM_G-28" style="edgeStyle=orthogonalEdgeStyle;rounded=0;orthogonalLoop=1;jettySize=auto;html=1;entryX=0;entryY=0.5;entryDx=0;entryDy=0;" parent="1" source="yqM9gTFVnC1suYk9JM_G-26" target="yqM9gTFVnC1suYk9JM_G-25" edge="1">
          <mxGeometry relative="1" as="geometry" />
        </mxCell>
        <mxCell id="yqM9gTFVnC1suYk9JM_G-26" value="" style="shape=image;verticalLabelPosition=bottom;labelBackgroundColor=default;verticalAlign=top;aspect=fixed;imageAspect=0;image=data:image/png,iVBORw0KGgoAAAANSUhEUgAAAKAAAACnCAYAAACWyleVAAAAAXNSR0IArs4c6QAAAARnQU1BAACxjwv8YQUAAAAJcEhZcwAADsMAAA7DAcdvqGQAABvKSURBVHhe7Z0JmFvVdcf/WmffPYtnxuN9wQbbYOONOEATdgOBkJCQpIEvBJKUfiGlIW3aEkJIQz4SQhMKaVKghUKAGEPY47AYG4wxMRgDxuN9Fs++ShpJo216/k/SWNJoVkujJ+b+5nu29PT07nv3/t+559x73pNhQIBCkSKMof8VipSgBKhIKUqAipSiBKhIKUqAipSS0iiYJXt9Pr4KrlCMC9Yfmy8zwxpak36kRID9Xi967U74A34RoF+rRMX4MBgM8Hp9aO7oRlVpCWoqS2Eypl+HNqkCDAQG0NlrQ6/DKa8DobWKidIvAjzS0KqJcfXSBSgrLgh9kj5M2iVD8XWI+Lp67Up8CUS0JwzgvX2HtZ4l3ZgUAfr9AXT09KJbxMerVZF4PB4vdn6wHy53f2hNejApArQ7+rRuV4kvufTY+nC4sRU+vz+0Rv8kXYAMMuxyVapAY3JoaO1AZ4899E7/JF2A9PeUzzd5MDL+4EAdHE5XaI2+SboA+8U38Xg41qeYLPqcbuw5cBQeEaPemRQfUDG5GI0GtHfZcKC+KbRGvygBfkIxSsBX19yOo02toTX6RAnwE4xPAsCDDS3a8JdeUQL8BMNBL6f4g/vrmkJz7vpDCfATDsde27p6cUBEqEeUAKcIB+qbcay1M/ROPygBThEYlOzefxS99r7QGn2gBDiFCPj92HukAa5+T2hN6lECnGJ0dNtxpLEVfp3MTikBTjUGBnCooUU388VKgFOSAby9p1YX+YNKgFMY5g+6U+wPKgFOYZg/eKixJaX5g0qAU5yjx9q0gepUoQQ4xWGu5t5DDSnLH1QCVKQ0f1AJUDGYP/jxofrQmslDCVChwam6xvauSc8fVAJUDMLbZyc7f1AJUDFIKvIHlQAVUUx2/qASYBpjkuDBbDaF3iUW5g82tHSE3iUPJcA0htYqI8MSepdYGJTsOVCX9PxBJcA0hiLJtFqS9tSJycgfTHsB0nFmQ+h1SSa0gLlZmWIFk/eASuYPHm5s0SLkZJD05wPaHE60dvZgIAlPQTXIX0D229LfCbvPmZQyJorVaEGZtRB55mwEkljF3LNNusmm9u6kCn710oVJef5gWgvQ5uvDXcc2YbPtffQP6O+JUDPMBbhh+sX4m6JTpatJbmfDzJb2Hpt0m8mxVGy98844FRmWxPqcaStAk8GIR1pfxr2tL6LAmBFaqy/8cs7TrMW4tfrLmJNVGVqbPNxuDzptdrj7ffAleByPKfxlJQVYt+yk0JrEkNYCvOXI/XjTsR8ZhuQMRZwoPGN2xTdXfQFr8hcHVyYZdvd8WCUfCsWm9SYw14/Wb+WS+aF3iSGtBfi7pmfwYMfrKNKpBaR/Wizd8L/OuBILs2eG1k4uiWxei9mMOdUVoXeJIW2jYFbrpdPW45SsGfAxHBFB6m3ximU+t+g0zMuqDh50CmCknLgltNMEktZBCOnx2vGh8wj6/K4klTBxaqylOCl3tlzlBt0d20SwmE2YXZVYC5j2AuTQg0GnhjwwwIg0WWc++SgBKlJKMgSopuIUKUUJUJFSlAAVKUUJUJFSlAAVKUUJUJFSlAAVKSXtxwG1YehkzBGlIazh4OB3clAD0XFwBtw46m6Fy59eP1OaDIos+ZiVWQ6TdGzJqG8lwAho+Zo8HfjlsU34a98BeHnlJ/VMdI50AvnGLHxp2np8sfRMZCUhQ0gJMAKL0Yz7jj2Nhzq2SsVbWf9THqZ/5Zhy8C/VV+LUvHkJvxVATcVFQF+n0d2GLINZiS8EewWX34VOf+qe9zde0joKXpBTA+eAT7vyea1P9cUvNZFnzkGFuTjh1i9ZpG0XzMi3x+fAr5uewV5nHQKB9PmZ+mSRY87GeUUrcFnJOlikZ0g0ygeMgV0OE1Hr+1vRH9D/jzMnmyJzLqoypsGUpHtklACHgUJUBElmPasgZBhY6eov+JduqKk4RUpRAlSkFCVARUpRAlSkFCVARUpRAlSkFCVARUpRAvwEYeQzadJsUD6tZ0K4z8OuZnzgqoNzILW/e6sHik15WJe7APnm3NCaxKKm4iJgMsK+vgbc3vgEmjxt2sMgpzpmmHB+0UpcV36elhWTaJQAI7AarfhVw2PY2P02cg3J+amCdIN1nGPKxs1VV2BF3sLQ2sSh5oIj8A/40OW1wypXvSKMAW5/P+wBV9rcqJW2AqTDvTI/eJX7BgJaFzzVF8+AH+XWYtRYy6ZGQirT4m1uR+hdfPjAbFtv4n+Nm9Ge3d+HJzu2YZvtI9j8ztAnU5dZ1lJsKFmHdfmLYU5CTqAufMDuvl48/+HruPuvm2B3dcM/YibyAM6sXo6b1lwHsynxGbqE6fj9AQ+YmD/VsRrM2pKsoZiUCtDt9WBz7Xb8ePO9qLW1oNiSI97XyCfKbmFl9TL8ZP23YUmSABWTR8qCkG6nHXe+/jCu3nQ7jvX1oNSSO6r4FIqxMKoAPX4vHt71HO7fuREFJiuyjMqSKRLHqALc13wIf9izWQKO0AqFIoGMKED+PNO2uj040lmvulxFUhhRgH39Tuys/0BCFTXYq0gOIwrQ7fOgtu0ILEqAiiQxogB9AT/sLgfM6vl7iiQxogD5+2BWS/J+jVuhGFGAA2L4vFYV/iqSx4gChEkUmKfG/RTJY5QuWJZcC5ChghBFchjZAgrGnAwYi7KCalQoEsyoAmRCgaEsU0SYKVsrESoSy6gC1DAZYa7Og6k6F8icWHfMDF21pPeSDEZMx2p2deKcLT+Ae8A3OBU30O+DxeGHy+HGgO34nWil1rwhB8ldLylfgGtXfVF7qLgivTGZTKgsLwm9O47BP4BpWYVip8ZmzyIZtwAnQjhlXvHJxWowYVFWFb408yysL1uKqpzSMVnNSRGgYmrgEUPjhg8Lc6rwd3M2YMP01ciyjPx7JeO3mQrFMFgNRuQbrDja14J/++gh/Lr2afR5R74fSAlQkXAypDsODPjx3w2b8WTd1tDa+CgBKpICHTaK8JGWbThibw6ujIMSoCJpMG44ZGvCju7aYe9TVgJUJA1aQdeAB/vsjfAGvMGVMSgBKpKKRSTWKEFJvxKgIhXQCtq8Tu0pGvFQAlSkFCVARUpRAlSklE+EAPmAonhLMmafudd4ZcUu4ymb207ke2MhfLzJqItEkLYC5Lwjf6w622hFuaUYMzLKUJNREVrKUWGdhjxTtpYI4R44sVQINmCflEWXepqlENUZpRFlDV2mW0uRY8yU73hHfWoX98398ni530xjhnbMiYB1lC3HUS11U2LO197rjbRKRuCBukLHsip3PhbmzMJ8aznKrEXaY8n40MrgdgPwS2V3entR5+nAh31H8IrtQ/negPYT/+OBAjLJdXp63klYm3+S9gy+bBGJQXsi/VAiy37fXY8t3bvRIMfAcmO357ZW2dfnitfizMKlsEhJH7nq8WDby+iV78cvYWxQxHMzp+Pq8nNQJcds9zvxXPc7eEkWTpVNFnxo5srCefj96d9DoTUvtPY4aSVAWqEz8hbhqtKzMTerSrth3iRC4BnEdjLBZ+QF17ESWr09+J/m5/GK/SNNDGM5H9rNHFMObpp+KZbnzUe2KUPLcSTDVprAsnk8/GuTch9oeQl/6X0fOTHi53ZnifBuqPyciCJ4+yv3+1LXDtzd/KwIcuLYAh48uuBmzMgs1eqHUIQ/qf8/7JYLkokDk8FoAkyLLpjdlFP0crM01I9nfh2Ls2cNPoiRUzyx4iPhtVwo1Brp3m6ZdTW+L/vIEqszWqfMMk3GLPy05mv4VNFS6RqtobJGFh8JHw+Pr0Lcgx/M+BIuLVwJh3TJUd81GLA4q0aOJ1P7Dv94WazLXwKLtm5i9EujX1CwDLOzKgfrh3+8gOZlz9BEoRd0L0CvdCWVIp5f1VyDi6d9SusOWZnjhQOhtF4XSnd3o4iwyJw3rE9E8ZkNFtxadQUWSzfPJ0RMFB4rj/m7M67A+txF0Y0vp0GrFHk+fF1oyRfBLtes2HjhngIi7EtKzpBuOHr2gZ+5/O6kpddPBF0LkEKoEgf6e9Mvw7K8efAGfFoDRcKqZIUy5Z//c+HzkekPxlZ0+LvrC5bipsrLNV8oniXsF2FeWrwaqwtOFn8uWnzcY+T+h1siCYvw2ukXoVSCAZ4X8cvfu86jcIgIgy5DEL7aULIWucbxd8L0/U6VHmJWZrlm/cLwmBw+J/Y4DsGqo2bXtQBd0hTfqbgAS3JnDfpekdD/ow2rc7Xize738efOt/FS5w681r0LB5wNYj39mjAjGzfMmoIl+E7lJUOsDAVZKNHz+cWr5FVYKsdxyfY7e/fixc7teKHzrSHLK1J2S3/XEBEyMKm0lmCl+LCukKi5RZ2rBQedx6Sc4yVx25rMCs1iMugaDyx3lZSRIW5GJKyDPX2HcdTTLheQfppdt0EI/ZgvlKzD9SKS2FQeVjInt3fY9uKJttew290YOrroY5xjLcZVZZ/RLB79vli8cl631T2MnY4Dg0655jTnzMWPxF+knxlJr8+OH9c/grf7DmoWLR5+EW2GfO+WGVfiM4UrNDGFodV8tnsn7mrciOzQvhlYfbn0LHyj/FzZ4/F9ctt3bPvwT3UPIlMs7ljg5VJiKcSPZlyFeVnVUaImNx68B7XupkkVYFoGIRz6qBLxfK3i/MEILpJDzib8e/2j+Of6h3HI04ZCEVeBtlijlmavDXce24S7jj2pDYvEWkIK7LNFKyTSleg2tI5yqciYNqRizEYTXu3Zjb/2HUKxBAixZYUXfkbB3NbwOPrE34oskdd6hbkARWJhw+VliBh29H4U2vb41vRZafnnZU4f1leNhftcJEEGxxMjxccLttZZj3dd9bqyfkSXAqQP9sVp65FrCkaHkRzrb8dvW57DW459KBLRjWSZadXo523t/RC/b3lRs06xIjwleyZmZlQMlkMfyqBZnOjtTLKO3XpmjFWMB4+pN9CPdk+P7Ct6P/x+RsRPi4nnigP9rfjAcUQTSiS02uvEDx3qCAyDHOPa3IXIknoLwz3yIn6qY+u4x0AnA90JkD5YlbkQa6XiY6NPdplPdr6JXeLLMM9sLLABLCLEzb27sbXnPc2ShWGzMuKck1k6bJcaCbcZbfgmDMf8IrvfkaDF3CQCMcUKRIpalTMfFdKtjkWEA3Jua/OXxPjLBjT1d2CL4+Cgm6EndHdEtECLcmrE+mWH1gRhwFEn1u+5rrflSh7fSD5FSEE82PYK7BIJRlpBn4ja4e+X5g02GhvJK4FGrOVlBL6qYLG4B/xkdDGwjG6fTXs1iLzs9vfBHnCHVgShld7pPILavjrN9wvDcmZKNDtDuuHRpMxpya8WrUGemd378eOjBX5NLj5TKPDRG7oToFequlyixdgDY0W+0rVT654nSocI4pmu7bIPr9alUhF7HIdR6zoehVI4B1yNmrWNhD7ZyrwF+FzRKvmuRXOuR7KGDDI2dmxDh7dbu3hYXo/PgS29H2iRdIQsNSj8ZzvfCL07Drvhs/MXa87DcNA6DkiNnVe0OmrYiN9g4LRT/FZG9HpEfzZZKM0oku4u2sqxAd+QqDf3BB7xISE//tjxBu6WoOQPbS/j3uan8J8tz4tIxFcLNTCd9KNiaTk0EuuTZRuzcH3Fhbi5+gvYULxKm+hnFBsv4YD7eU+s2u0Nj+F+8T8faH0RP5XXb9s/1ixeLPTPtjj2o6W/M8oK8hBOy52HgpgeIRJelOcXLNOCp8julxdtrfitTe5WfTa0oLvjom+XHfP7v9qwi9+DBhHKiUzQ85ucCdgmVuihtlfxUtcuCRQ6o/bI1/TdHpPPYwMW2pkcUxbWi396Q+Vl+P38G7WpvbnWMrT7XUOiVcqM0Sct4WPtr+Mj8V0HZJvhzsAtx/aW/aMoEXEIqkx6hPMLlkrXHf++ikwR7Ibi1ZqVi7TJXvGh35UyO6Xbjz0XvaA7AdJyMDKMhYPKY44GRyDcDOF0gXgNw+5we99BvNC5I8oaER4BRcFvcTrv4mln4J4FN+LeWddhTe4C9Mv27ASD3SIrOFgCh8PDr4eDAtpi26fNjETC9ReXnBE3rYyuwElZMzA3u2pI0MNfE33Pvj+uxdULerXMKSfPaJHu+QVs7tkVd/gmDCN1w4ABqwuX4NZZX8dvZ38Ll4so54sojNLwnMse62VDmTT3t+Gguzmq+6fgq7PKcY5Y3tiZEbomq5m8EBNBM9rfLb5fbX+L7Hck2acWJcARCEiwcm/T83hEouceceaHm9ajrWOUzM/miSW6ruIi/KjmK/iHqsuxPv9kzYoG7eHI8PvtEii94zggko+GwcUVJZ8OvQtCaZdaCrEsZ/YQkbEbf7xti1g/fTexEuAIUBCegAuPiv/2rUO/wZ/at8Im3VqGyapFtvGgtWLEXGzOx1kSGNxU/XlcW3YubBHR6UgwUWCX7WPxVftDa4LQ0s7NqsBSsaxhX5P/VmaWY3bm9Ch5azMfffXY5WqI687oCSXAUaAIGRI5fH24o+lpXLnvZ/hFw+M47GqBOxAcPxzOKhLm+l1RdjZuqfw8eiSIGM0S0gdmt0nfLVbkDIDWFpwy2D1L54/zxcJmxGTN0Nt8pP0VbaZI7+hOgOw6YrsfEq+RT4Sxzmhwu/CWnOs1yNFtlODk6oO/xB0ixGe6dqDO3ar5iRRM7FHy2+yezytZjW+UniWBRLyzi4Yd/XOdb8qr6LPm3pdlz0aZdLscsOf/p0ngE5msQXE2yPG866zT5cxHLLo7Qo80pE+aMxKKkhnJnFI7UThmx0ybElOe9r9jmKENNnBvwIMcsSJ0/LktoQjyxeLkGizYbv8Y/9X8PG5vfBT3HHsKb/bsgUusYqzloggpkkskOJmdURp33DASRq3b+w7jgLNRCzIi4czIHOlyeWwbCk/VphIjrSpfbbfvFddh/MmsqUB3AqRj3evjMER0pfL5wwszKjRhTBRas2mWabhz1rW4b8F38b8Lv49zCpcNsYYU3LLsmbh/3o14QLa5b+7fS1Q7NCuFQqE8mCDxSs9u3Nr4OL558B483/lW1IwEoUgKzblYlb9YGzgeDZNYsk0dr2v1EYavckyZ2n0xzOA5p2iltt9IbF6HCHC/vIper1d0J0B2Om39Xdq4XyTsZS4oXg17TJr5eDAazPjH6RfjtLz5yDVmodJSgm9WXIh5mVWDDU0xzskoxw9nfhULs6uRJ9stzpmJn8/+pvZZvGalVeQnFlk6vV247dgfxTI+B2uMb0a58k41Pk95NDiVt9mxFy39HVqdhKElZcLp5YUrMV2saewzV2pdjWjqb9X10EskuhMgo8BGqUAmCUTC+xvW5J+EGmvJhKwgrdfy7FlYlk+fKfh9iqaY2TASXYazYThud0rObO3Wy/B2PvHhSiwFWC4R6Ghls+FLJPC4v2MLOjw9gwFDmBJTLgqNx/MBR8IUCOAN24falFoYHnOBOQ9XlZ+j1Ukk/GyX8xDaffY0kZ8OBcgocK+rQUTIOdHoK3+aiIB5giajWavssULLxe7y2vLzNYFEfpNdpSfiXhMKLF4+ICk05YRejY0urz306jg8v+GGcGLh6CETYGPvGQmKMFerk0h4g9ObPR9q6V3pgg67YEhg4MFrPbuksWLmhOXTC4pX4ZKi08cUTRKKzykCu6HyUszJroyartK6e7FSB91NUb7WcDAzhdk6Y8V6AokThMcX756ReHCwe7fjEA572rV6Shd0J0DC3L2nu3bgiAgjOj+OE+9WXDt9A64uPQsusZCUA0VGAUUutGn8jE8e+G7lxdpNRrEWg426QyJZJmyGG22kfMDVBUu0fcYrL3JhxHxSRhlmZJYNKbM34BqSDzgcPCKmkO0SK8j9jgTF+lT7VuTFXLR6R5cCJGzE3zQ9jT4/742L7n7or10z/SL8bta3cWnJGiwQ347PP2EeIZcqcc7nZFXj3KIV+PnMq3FZyacG/bkwmvXzduPF7uBcbxiuHy4f8HRx/q8p+4x2x1q4rNil0lqK03Ln47aZ12jHGklA/uo9nZoAx2qj6Ia8IxdJbD1Ewi79fYl897gbtS4+ndD1ozloh3jH2FdKzx4y2U7YIGxkm88Bm/g//tCp0JrxfpIiCTBoQeOJj6L7ecNjeLn3/cE71Aj3wK3vEAEtz5s3xIL55MLo8vbCNcz4IcVQJP5ZnjlnSLkeCRp+UvcIdjr2j2uQmGOVt9d8DZ8uXBrlQhC2yoCI9E45l5d63os6Fz2QlnfFhbFI9T7buR2v9rw7ZECWhC1MvjQ4LeAssUxcaqTro/hIPPHRqjzQ/Lz2vJbYG3XYoJH5gLFRLG9Kp6ULlxW78ClduaasIeXyQvjQcQTv9B2/BXSscAD+qY5tUgfxxGVAs7sDr9r36fKmo9HQtQDZ9Exfv+PYk9jYHhyUjRVEJBRk8C8+FJRTfLD7W17A413bNV8z3t4okJcd+7R7jllm7DbHyxnuLxoeM7Ouf3Fso5aVPV4YwW/p2z/knhHC0rba9sAkPurwNaNfdC1Awq6f0153Nf8Jdzc+iY/76rVukGLi31gIN9ohCWp+3fQMnuh4AxmjfLdcrNh9bX/Bpo43tem1sZYVSfg7tc5G3C5db5sEFBP10XjvM2+tjIR7Z9LpW1r6VrTFTRd0L8AwbIDNve/hZ41PiIiexm5xut1iHZmjR78r3rNhuI7d6cfS9d0rAuY9Ga9Lt8uTHougeFfyQ20v4z+kPN5bwX0G9x0sJ94SPhYuFO6zXW+J5fsj9kqAcCJdJL+7zVErwcYBLdmU++czCt+y7UO9u0XOafwXiB5Iq+cDEnY5nKTjnWkGaYgzcubilKwazecLP2OPg8t2iRr3uxqwo+8gWplMKkLUuvBxngcrh8MuXvnmIomuP1uwXHzAYumm44uJpbDsj511eM7+AYzsGqWKE1F7PA76uxcVrtDS8N9zHMTG7p3aFKBe5TdaEJJ2AoyEB87EAU6fxYNWI5EpSRTwcDcGxUK/LRkzEhQhz5kRPy8m3jqgZ9I6Ch4NXhIcdoh9Pkt4SaT4CBs8XjnxlmRNh4V9Ypahd/GNhbQWoCL9UQJUpBQlQEVKGUWAHFpQGlWcGBw2Gi6EHVFdHNPKH2cOnEIRCbOScs3ZYsjiB2UjCjDTZMGSghot5FcoJgKHruaJhjJNwTHaWEYUYI45C6eWLtLGnhSK8cJJgyJTFpbn1WgzN/EYtQs+s3gxFuYev2lHoRgrnB5YM+1krC5eFFwRh1EjjPn51bh+zoXwiyOpUIwV3ltTZMnF9bPPQ2HG0BmQMKMKkJPvl1atxS8Wf137TY0TuS9XMTXgVGGO0YIHVt2EFcULQmvjM+JccCx7eg7jh3sexF5nE0wB/5BsYcUUxkCfzwCTBBtnlSzGbQv+FtPzi0MfDs+4BEh6PQ6801mLP7fvRlN/7xhsqGIqkCXCm2spwrkVK3By0dwhD0wajnELMBKn140BJUCFwF/inFDS7okIUKE4UZT9UqQUJUBFSlECVKQUJUBFSlECVKQUJUBFCgH+Hy2C515leT7CAAAAAElFTkSuQmCC;" parent="1" vertex="1">
          <mxGeometry x="1126" y="130" width="80" height="83.5" as="geometry" />
        </mxCell>
        <mxCell id="yqM9gTFVnC1suYk9JM_G-30" value="&lt;font style=&quot;font-size: 18px;&quot;&gt;EDA y &lt;br&gt;Machine Learning&lt;/font&gt;" style="text;html=1;align=center;verticalAlign=middle;resizable=0;points=[];autosize=1;strokeColor=none;fillColor=none;" parent="1" vertex="1">
          <mxGeometry x="932.17" y="359" width="170" height="60" as="geometry" />
        </mxCell>
        <mxCell id="ctPDfGsqeE01xHvpJSdc-1" value="&lt;span style=&quot;font-size: 18px;&quot;&gt;csv Global&lt;/span&gt;" style="text;html=1;align=center;verticalAlign=middle;resizable=0;points=[];autosize=1;strokeColor=none;fillColor=none;" vertex="1" parent="1">
          <mxGeometry x="490" y="212.5" width="110" height="40" as="geometry" />
        </mxCell>
        <mxCell id="ctPDfGsqeE01xHvpJSdc-2" value="&lt;span style=&quot;font-size: 18px;&quot;&gt;csv Diario&lt;/span&gt;" style="text;html=1;align=center;verticalAlign=middle;resizable=0;points=[];autosize=1;strokeColor=none;fillColor=none;" vertex="1" parent="1">
          <mxGeometry x="783" y="131.25" width="100" height="40" as="geometry" />
        </mxCell>
      </root>
    </mxGraphModel>
  </diagram>
</mxfile>
